<?xml version="1.0" encoding="utf-8"?>
<!-- Generator: Adobe Illustrator 25.2.0, SVG Export Plug-In . SVG Version: 6.00 Build 0)  -->
<svg version="1.1" id="_x2018_лой_x5F_1" xmlns="http://www.w3.org/2000/svg" xmlns:xlink="http://www.w3.org/1999/xlink"
	 x="0px" y="0px" viewBox="0 0 2666.4 1406.8" style="enable-background:new 0 0 2666.4 1406.8;" xml:space="preserve">
<style type="text/css">
	.st0{fill:#EBF3FA;}
	.st1{fill:#82B378;}
	.st2{opacity:0.5;fill:#AEC3FF;}
	.st3{opacity:0.5;fill:#8CACF4;}
	.st4{fill:#6C7AFF;}
	.st5{opacity:0.5;}
	.st6{fill:#A8D29F;}
	.st7{fill:#CCDBFD;}
	.st8{fill:#739AF0;}
	.st9{opacity:0.3;fill:#739AF0;}
	.st10{fill:#F77D48;}
	.st11{fill:#FFE6C2;}
	.st12{fill:#F99746;}
	.st13{fill:#FFB27D;}
	.st14{fill:#233862;}
	.st15{fill:#F9DDBF;}
	.st16{fill:#1C3051;}
	.st17{fill:#EF7E29;}
	.st18{fill:#2B478B;}
	.st19{fill:#ED985F;}
	.st20{fill:#2C3A64;}
	.st21{fill:#163560;}
	.st22{fill:#ED7D2B;}
	.st23{fill:#2358A5;}
	.st24{fill:#E8945B;}
	.st25{fill:#1C468A;}
	.st26{fill:#FFFFFF;}
	.st27{fill:#9EC3F6;}
	.st28{fill:#F78248;}
	.st29{fill:#EA642F;}
	.st30{fill:#EF873A;}
	.st31{opacity:0.7;fill:#739AF0;}
	.st32{fill:#ABC3EF;}
</style>
<path class="st0" d="M2511.6,1404.5c-152.4,0-2372.5,0.5-2373.8-2.9l-0.2-0.4c0,0-0.2-0.4-0.2-0.6c-0.8-1.7-342.1-473,188.4-801.1
	c207.6-128.4-13-213.1,152.1-356.1c189.7-164.2,396.7,17.4,607.6-57c37.3-13.1,74.7-34.3,112.1-66.8c21.1-18.3,44.2-34.2,68.9-48
	c3.8-2.1,7.6-4.2,11.5-6.2c14.8-7.7,30.2-14.7,46-20.9c10.6-4.2,21.4-8.1,32.5-11.7h0c17.5-5.7,35.5-10.6,53.8-14.7
	c26.1-5.9,52.9-10.3,80.2-13.2c11.9-1.3,24-2.3,36.1-3.1c235.7-14.9,500.9,68.8,637.8,191.1c27.6,24.6,152.9,152,54.1,327.2
	c-62.4,110.6,198.9,216.2,291.7,342.4C2746.1,1183.4,2513.7,1400.3,2511.6,1404.5z"/>
<g>
	<path class="st1" d="M666.1,1193.9c0,0,13.4-73-43.8-81.1c0,0-38.7-0.7-61.2,14.3c0,0,65.3,36.2,57.8,47.9
		c-7.5,11.7-69.9-45.6-69.9-45.6s-68.8,31.6-83.9,53.8c0,0,82.2,13.2,72,22.7c-10.1,9.5-96.3-0.2-96.3-0.2s-54.6,45.6-29.9,80.7
		c24.7,35.1,52.3,34.4,60.9,28c8.6-6.3,50.4-58.1,55.9-51.2c5.5,6.8-12.5,50.2-34.4,64.5c0,0,70.1,22.3,90.6-7.9
		c20.5-30.1,10.4-53.1,23.4-71.5c13-18.4,28.1-27.2,25.6-14.7c-2.5,12.5-29.9,39.2-29.6,63c0.3,23.8-1.8,41.2,25,19.6
		c26.8-21.5,62.1-70.8,49.8-96.6C666.1,1193.9,666.1,1193.9,666.1,1193.9z"/>
	<g>
		<path class="st1" d="M441.5,1270.1c0,0,160.9-102.1,224.7-76.2c0,0,22.1,19.4,59.5,26.9l10,8.3c0,0-46-13.5-57.3-9.4
			C678.3,1219.7,660.4,1152.1,441.5,1270.1z"/>
		<path class="st1" d="M725.7,1220.8c0,0,50.5,5.6,80.2,50.8l-6.1,4.3c0,0-39.4-41.7-70.8-48.7
			C697.6,1220.2,725.7,1220.8,725.7,1220.8z"/>
	</g>
</g>
<path class="st2" d="M722.9,416.2c0,0-3.9,93.2-21.2,91.4c-17.3-1.8,11.9-103.5,11.9-103.5s-73.7-59.2-107-63.6
	c0,0,31.2,99.1,14.9,93.1c-16.3-6-53.6-107.7-53.6-107.7s-81.4-35.5-106.8,11.7c-25.4,47.3-9.2,77.6,2.7,83.7
	c11.9,6.1,93,23.8,88.5,33.8c-4.5,10-63.1,14.1-91.3-2.4c0,0,14.3,90.8,59.4,96.8c45.1,6,65.1-18.1,92.9-13.9
	c27.8,4.2,46.1,16.2,30.7,20.4c-15.4,4.2-60.4-11.5-86.9,2.1c-26.4,13.6-47,21-7.9,39c39,17.9,113.8,29.7,135.8,1.6
	c1-1.2,1.9-2.4,2.8-3.5c-1.5,2.4-2.8,3.5-2.8,3.5c6.5,6.2,13,29.8,17.1,47.8c0.5,3,1.4,7.2,2.8,13c0,0,0,0,0,0
	c0.5,2.6,0.9,4.7,1.2,6.2c6.1,39.5-16.1,100.1-16.1,100.1l8.2,4.4c34-58.4,12-117.9,12-117.9c-12.5-46.1-3.2-81.6-3.2-81.6
	s89-25.8,66.2-94.2C773.1,476.6,752.2,433,722.9,416.2z"/>
<path class="st3" d="M2145.9,909.5c0,0-131.9,52.5-120.6,76.4c11.3,23.9,142.8-69.1,142.8-69.1s122.1,76.2,145.1,121.8
	c0,0-158.1,4.9-141.3,25.4c16.8,20.4,181.6,22.9,181.6,22.9s91.9,99.1,36.8,159.3c-55.1,60.2-106.9,52.1-121.6,38.1
	c-14.7-14-80.9-121.7-93-110.1c-12.1,11.6,11.4,97.7,49.3,130c0,0-137.6,25-169-36.7c-31.3-61.8-6.7-102.6-26.8-140.4
	c-20.1-37.8-46.5-58-44.7-33.8c1.7,24.2,46.9,81.1,40.6,125.9c-6.3,44.8-6.6,78-52,31c-45.3-47.1-99.9-148.5-70.6-194.3
	c1.3-2,2.5-3.9,3.7-5.7c-2.7,3.3-3.7,5.7-3.7,5.7c-12.1-6.3-49.4-3.7-77.2-0.6c-4.6,0.8-11.1,1.7-20.1,2.5h0c-4,0.5-7.2,1-9.5,1.3
	c-59.8,11.1-135.7,73.4-135.7,73.4l-10.4-9.6c66.8-78.2,163.4-76.5,163.4-76.5c72.5-5.1,118.8-36.4,118.8-36.4
	s-7.6-140.9,102.1-142.4C2033.9,867.8,2107,875.9,2145.9,909.5z"/>
<path class="st4" d="M725.7,1399.9h1032.8l93.8-1130.2l-1091,1c-9.5,0-51.7-1-54.1,37.7l-42.4,1005.8
	C663.1,1360.9,690.8,1399.9,725.7,1399.9z"/>
<g class="st5">
	<path class="st2" d="M1477.6,351.6c0,0,19.2-161.1,101.8-257.2c11-12.8,32-4.6,31.6,12.2c0,0.3,0,0.6,0,0.9
		C1609.8,136.2,1517.4,257.4,1477.6,351.6z"/>
	<path class="st2" d="M1467.5,397.7c0,0,82.2-201.3,222.7-290.3c8.6-5.4,20.2-3.5,25.9,4.9c3.7,5.4,5.4,13.9,1.2,27.2
		C1706.2,174.9,1549.5,294.1,1467.5,397.7z"/>
</g>
<g>
	<path class="st6" d="M634.4,1023.4c0,0,101.3-56.7,54-133.7c0,0-37.8-47.3-78.3-59.4c0,0,21.6,114.8,0,117.5
		c-21.6,2.7-14.9-129.6-14.9-129.6s-106.7-51.3-148.6-47.3c0,0,66.2,112.1,44.6,109.4c-21.6-2.7-95.9-116.1-95.9-116.1
		S286,743.8,268.4,808.6c-17.6,64.8,10.8,97.2,27,101.3c16.2,4.1,120.2,2.7,117.5,16.2c-2.7,13.5-72.9,35.1-112.1,23
		c0,0,43.2,106.7,99.9,101.3c56.7-5.4,74.3-40.5,109.4-43.2c35.1-2.7,60.8,6.8,43.2,16.2c-17.6,9.5-77,3.1-105.3,27.2
		c-28.4,24.1-51.3,39,1.4,49.8c52.7,10.8,147.2,4.1,166.1-36.5C634.4,1023.4,634.4,1023.4,634.4,1023.4z"/>
	<g>
		<path class="st1" d="M318.4,828.9c0,0,283.6,91.8,316,194.5c0,0-1.4,45.9,27,98.6v20.3c0,0-29.7-68.9-45.9-78.3
			C615.5,1063.9,679,974.7,318.4,828.9z"/>
		<path class="st1" d="M661.4,1121.9c0,0,43.7,66.4,18.8,147.3l-11.3-3c0,0,10.9-89-12-133.8
			C634.1,1087.6,661.4,1121.9,661.4,1121.9z"/>
	</g>
</g>
<path class="st7" d="M2039.4,1399.3l-1096.6,1c-20.5,0-38.6-18.8-42.3-43.9l-124-844.5l-7.6-51.5l-19.5-133
	c-4.4-30,13.3-56.5,37.7-56.5l1096.6-1c20.5,0,38.6,18.8,42.3,43.9l21.5,146.6l7.4,50.5l122.2,832
	C2081.6,1372.7,2063.8,1399.2,2039.4,1399.3z"/>
<path class="st8" d="M1947.6,460.3H769l-19.5-133c-4.4-30,13.3-56.5,37.7-56.5l1096.6-1c20.5,0,38.6,18.8,42.3,43.9L1947.6,460.3z"
	/>
<path class="st9" d="M1147.7,1224.2h-120.6c-10.1,0-19.6-8.2-21.1-18.3l-18.7-120.6c-1.6-10.1,5.3-18.3,15.5-18.3h120.6
	c10.1,0,19.6,8.2,21.1,18.3l18.7,120.6C1164.7,1216,1157.8,1224.2,1147.7,1224.2z"/>
<path class="st9" d="M1349.9,1224.2h-120.6c-10.1,0-19.6-8.2-21.1-18.3l-18.7-120.6c-1.6-10.1,5.3-18.3,15.5-18.3h120.6
	c10.1,0,19.6,8.2,21.1,18.3l18.7,120.6C1366.9,1216,1360,1224.2,1349.9,1224.2z"/>
<path class="st9" d="M1113,997.8H992.4c-10.1,0-19.6-8.2-21.1-18.3l-18.7-120.6c-1.6-10.1,5.3-18.3,15.5-18.3h120.6
	c10.1,0,19.6,8.2,21.1,18.3l18.7,120.6C1130,989.6,1123.1,997.8,1113,997.8z"/>
<polygon class="st10" points="1055.5,893.2 1092.2,898.1 1070.8,922.9 1083.2,957.7 1048.2,941.4 1019.2,958 1019,923.2 
	988.7,898.6 1023.5,893.4 1033.8,861.6 "/>
<path class="st9" d="M1887.3,777.9h-120.6c-10.1,0-19.6-8.2-21.1-18.3L1726.8,639c-1.6-10.1,5.3-18.3,15.5-18.3h120.6
	c10.1,0,19.6,8.2,21.1,18.3l18.7,120.6C1904.3,769.7,1897.4,777.9,1887.3,777.9z"/>
<polygon class="st4" points="1024,1188.7 1051.7,1118 1088.2,1157.3 1100.1,1141.5 1139.7,1188.6 "/>
<path class="st4" d="M1069.1,1107.8c-1-5.6,2.9-10.2,8.6-10.2c5.7,0,11.2,4.5,12.2,10.1c1,5.6-2.9,10.2-8.6,10.2
	C1075.5,1118,1070,1113.4,1069.1,1107.8z"/>
<path class="st9" d="M1552.2,1224.2h-120.6c-10.1,0-19.6-8.2-21.1-18.3l-18.7-120.6c-1.6-10.1,5.3-18.3,15.5-18.3h120.6
	c10.1,0,19.6,8.2,21.1,18.3l18.7,120.6C1569.2,1216,1562.3,1224.2,1552.2,1224.2z"/>
<g>
	<polygon class="st4" points="1429.2,1188.7 1456.9,1118 1493.3,1157.3 1505.3,1141.5 1544.9,1188.6 	"/>
	<path class="st4" d="M1474.2,1107.8c-1-5.6,2.9-10.2,8.6-10.2c5.7,0,11.2,4.5,12.2,10.1c1,5.6-2.9,10.2-8.6,10.2
		C1480.7,1118,1475.2,1113.4,1474.2,1107.8z"/>
</g>
<path class="st9" d="M1719.7,997.8h-120.6c-10.1,0-19.6-8.2-21.1-18.3l-18.7-120.6c-1.6-10.1,5.3-18.3,15.5-18.3h120.6
	c10.1,0,19.6,8.2,21.1,18.3l18.7,120.6C1736.7,989.6,1729.8,997.8,1719.7,997.8z"/>
<g>
	<polygon class="st4" points="1591.2,955.4 1618.9,884.6 1655.4,923.9 1667.3,908.2 1706.9,955.3 	"/>
	<path class="st4" d="M1636.3,874.5c-1-5.6,2.9-10.2,8.6-10.2c5.7,0,11.2,4.5,12.2,10.1c1,5.6-2.9,10.2-8.6,10.2
		C1642.7,884.6,1637.2,880.1,1636.3,874.5z"/>
</g>
<path class="st9" d="M1280.5,777.9h-120.6c-10.1,0-19.6-8.2-21.1-18.3L1120,639c-1.6-10.1,5.3-18.3,15.5-18.3h120.6
	c10.1,0,19.6,8.2,21.1,18.3l18.7,120.6C1297.6,769.7,1290.6,777.9,1280.5,777.9z"/>
<polygon class="st10" points="1169.4,652.7 1185.8,745.9 1250.1,699.2 "/>
<path class="st10" d="M1517.5,997.8h-120.6c-10.1,0-19.6-8.2-21.1-18.3L1357,858.9c-1.6-10.1,5.3-18.3,15.5-18.3H1493
	c10.1,0,19.6,8.2,21.1,18.3l18.7,120.6C1534.5,989.6,1527.6,997.8,1517.5,997.8z"/>
<polygon class="st11" points="1410.3,872.6 1426.7,965.8 1491,919.1 "/>
<path class="st9" d="M1922,997.8h-120.6c-10.1,0-19.6-8.2-21.1-18.3l-18.7-120.6c-1.6-10.1,5.3-18.3,15.5-18.3h120.6
	c10.1,0,19.6,8.2,21.1,18.3l18.7,120.6C1939,989.6,1932.1,997.8,1922,997.8z"/>
<path class="st9" d="M1754.4,1224.2h-120.6c-10.1,0-19.6-8.2-21.1-18.3l-18.7-120.6c-1.6-10.1,5.3-18.3,15.5-18.3H1730
	c10.1,0,19.6,8.2,21.1,18.3l18.7,120.6C1771.4,1216,1764.5,1224.2,1754.4,1224.2z"/>
<path class="st9" d="M1482.8,777.9h-120.6c-10.1,0-19.6-8.2-21.1-18.3L1322.3,639c-1.6-10.1,5.3-18.3,15.5-18.3h120.6
	c10.1,0,19.6,8.2,21.1,18.3l18.7,120.6C1499.8,769.7,1492.9,777.9,1482.8,777.9z"/>
<g>
	<path class="st4" d="M1447.2,677.6l-80.3,0.1c-1.6,0-2.9-1.1-3.2-2.7l0,0c-0.4-2,1.2-3.8,3.2-3.8l80.3-0.1c1.6,0,2.9,1.1,3.2,2.7
		l0,0C1450.7,675.7,1449.2,677.6,1447.2,677.6z"/>
	<path class="st4" d="M1450.4,695.9l-80.3,0.1c-1.6,0-2.9-1.1-3.2-2.7l0,0c-0.4-2,1.2-3.8,3.2-3.8l80.3-0.1c1.6,0,2.9,1.1,3.2,2.7
		l0,0C1454,694.1,1452.4,695.9,1450.4,695.9z"/>
	<path class="st4" d="M1453.7,714.3l-80.3,0.1c-1.6,0-2.9-1.1-3.2-2.7l0,0c-0.4-2,1.2-3.8,3.2-3.8l80.3-0.1c1.6,0,2.9,1.1,3.2,2.7
		l0,0C1457.2,712.5,1455.7,714.3,1453.7,714.3z"/>
</g>
<g>
	<path class="st4" d="M1886.3,897.5l-80.3,0.1c-1.6,0-2.9-1.1-3.2-2.7l0,0c-0.4-2,1.2-3.8,3.2-3.8l80.3-0.1c1.6,0,2.9,1.1,3.2,2.7
		l0,0C1889.9,895.6,1888.4,897.5,1886.3,897.5z"/>
	<path class="st4" d="M1889.6,915.9l-80.3,0.1c-1.6,0-2.9-1.1-3.2-2.7l0,0c-0.4-2,1.2-3.8,3.2-3.8l80.3-0.1c1.6,0,2.9,1.1,3.2,2.7
		l0,0C1893.1,914,1891.6,915.8,1889.6,915.9z"/>
	<path class="st4" d="M1892.8,934.2l-80.3,0.1c-1.6,0-2.9-1.1-3.2-2.7l0,0c-0.4-2,1.2-3.8,3.2-3.8l80.3-0.1c1.6,0,2.9,1.1,3.2,2.7
		l0,0C1896.4,932.4,1894.9,934.2,1892.8,934.2z"/>
</g>
<g>
	<path class="st4" d="M1314.3,1130.5l-80.3,0.1c-1.6,0-2.9-1.1-3.2-2.7l0,0c-0.4-2,1.2-3.8,3.2-3.8l80.3-0.1c1.6,0,2.9,1.1,3.2,2.7
		l0,0C1317.9,1128.6,1316.3,1130.5,1314.3,1130.5z"/>
	<path class="st4" d="M1317.5,1148.8l-80.3,0.1c-1.6,0-2.9-1.1-3.2-2.7l0,0c-0.4-2,1.2-3.8,3.2-3.8l80.3-0.1c1.6,0,2.9,1.1,3.2,2.7
		l0,0C1321.1,1147,1319.6,1148.8,1317.5,1148.8z"/>
	<path class="st4" d="M1320.8,1167.2l-80.3,0.1c-1.6,0-2.9-1.1-3.2-2.7l0,0c-0.4-2,1.2-3.8,3.2-3.8l80.3-0.1c1.6,0,2.9,1.1,3.2,2.7
		l0,0C1324.3,1165.4,1322.8,1167.2,1320.8,1167.2z"/>
</g>
<g>
	<path class="st4" d="M1718.8,1130.5l-80.3,0.1c-1.6,0-2.9-1.1-3.2-2.7l0,0c-0.4-2,1.2-3.8,3.2-3.8l80.3-0.1c1.6,0,2.9,1.1,3.2,2.7
		l0,0C1722.3,1128.6,1720.8,1130.5,1718.8,1130.5z"/>
	<path class="st4" d="M1722,1148.8l-80.3,0.1c-1.6,0-2.9-1.1-3.2-2.7l0,0c-0.4-2,1.2-3.8,3.2-3.8l80.3-0.1c1.6,0,2.9,1.1,3.2,2.7
		l0,0C1725.6,1147,1724.1,1148.8,1722,1148.8z"/>
	<path class="st4" d="M1725.3,1167.2l-80.3,0.1c-1.6,0-2.9-1.1-3.2-2.7l0,0c-0.4-2,1.2-3.8,3.2-3.8l80.3-0.1c1.6,0,2.9,1.1,3.2,2.7
		l0,0C1728.8,1165.4,1727.3,1167.2,1725.3,1167.2z"/>
</g>
<path class="st9" d="M1315.2,997.8h-120.6c-10.1,0-19.6-8.2-21.1-18.3l-18.7-120.6c-1.6-10.1,5.3-18.3,15.5-18.3h120.6
	c10.1,0,19.6,8.2,21.1,18.3l18.7,120.6C1332.2,989.6,1325.3,997.8,1315.2,997.8z"/>
<path class="st10" d="M1245.8,964.6c-0.1,0-0.2,0-0.3,0c-2.2-0.1-4.7-1.4-6.1-3.4c-12.9-17.1-28.5-33.2-46.3-47.7
	c-2.7-2.2-3.5-5.4-1.7-7.1c1.7-1.7,5.3-1.4,8,0.8c15.1,12.3,28.8,25.7,40.6,39.9c6.6-31.5,21.8-59.6,44.4-82c1.7-1.7,5.3-1.3,8,0.9
	c2.7,2.2,3.4,5.4,1.7,7.1c-24,23.8-39.3,54.5-44.4,88.6C1249.4,963.5,1247.9,964.6,1245.8,964.6z"/>
<path class="st12" d="M1035.5,561.3H915.7c-7.4,0-14.5-5.9-15.9-13.1l0,0c-1.4-7.3,3.4-13.1,10.8-13.1h119.8
	c7.4,0,14.5,5.9,15.9,13.1l0,0C1047.6,555.4,1042.8,561.3,1035.5,561.3z"/>
<path class="st12" d="M1231.8,561.3H1112c-7.4,0-14.5-5.9-15.9-13.1l0,0c-1.4-7.3,3.4-13.1,10.8-13.1h119.8
	c7.4,0,14.5,5.9,15.9,13.1l0,0C1243.9,555.4,1239.1,561.3,1231.8,561.3z"/>
<path class="st12" d="M1444.5,561.3h-119.8c-7.4,0-14.5-5.9-15.9-13.1l0,0c-1.4-7.3,3.4-13.1,10.8-13.1h119.8
	c7.4,0,14.5,5.9,15.9,13.1l0,0C1456.6,555.4,1451.8,561.3,1444.5,561.3z"/>
<path class="st12" d="M1648.3,561.3h-119.8c-7.4,0-14.5-5.9-15.9-13.1l0,0c-1.4-7.3,3.4-13.1,10.8-13.1h119.8
	c7.4,0,14.5,5.9,15.9,13.1l0,0C1660.5,555.4,1655.7,561.3,1648.3,561.3z"/>
<path class="st12" d="M1852.4,561.3h-119.8c-7.4,0-14.5-5.9-15.9-13.1l0,0c-1.4-7.3,3.4-13.1,10.8-13.1h119.8
	c7.4,0,14.5,5.9,15.9,13.1l0,0C1864.6,555.4,1859.8,561.3,1852.4,561.3z"/>
<g>
	<path class="st10" d="M1685,777.9h-120.6c-10.1,0-19.6-8.2-21.1-18.3L1524.5,639c-1.6-10.1,5.3-18.3,15.5-18.3h120.6
		c10.1,0,19.6,8.2,21.1,18.3l18.7,120.6C1702,769.7,1695.1,777.9,1685,777.9z"/>
</g>
<path class="st11" d="M1615.6,745.3c-0.1,0-0.2,0-0.3,0c-2.2-0.1-4.7-1.4-6.1-3.4c-12.9-17.1-28.5-33.2-46.3-47.7
	c-2.7-2.2-3.5-5.4-1.7-7.1c1.7-1.7,5.3-1.4,8,0.8c15.1,12.3,28.8,25.7,40.6,39.9c6.6-31.4,21.8-59.6,44.3-82c1.7-1.7,5.3-1.3,8,0.9
	c2.7,2.2,3.4,5.4,1.7,7.1c-24,23.8-39.3,54.5-44.4,88.6C1619.2,744.1,1617.7,745.2,1615.6,745.3z"/>
<g>
	<g>
		<path class="st13" d="M2222.6,862.7c0,0,8.4,26,7.7,31.9c-0.7,5.9-6,26.2-9.8,31.4c-3.8,5.2-5.6-21.1-8.6-25.1
			c-3-4-0.6,9.9-2.7,11.2c-2.1,1.3-6.5-10.2-8.4-14.3c-1.9-4.1,4.6-19,4.6-29.4C2205.4,858,2222.6,862.7,2222.6,862.7z"/>
		<path class="st14" d="M2024.4,656.5c-2.3-29.8,30-50.2,55.5-34.7c0.5,0.3,1,0.6,1.6,1c38.2,24.6,120.7,139.4,126.4,150.9
			c5.7,11.5,22.4,103,22.4,103s-20.7,7.6-30.4-0.3c0,0-33.6-86.8-38.5-91.1c-5-4.3-134.3-76.9-135.4-104.1
			C2025.7,674,2025.1,665.3,2024.4,656.5z"/>
	</g>
	<g>
		
			<rect x="1795.5" y="529" transform="matrix(-0.3288 -0.9444 0.9444 -0.3288 1804.1252 2558.9656)" class="st12" width="31.9" height="218.8"/>
		<polygon class="st15" points="1660,691.1 1713.3,689.4 1702.8,659.3 		"/>
		<path class="st15" d="M1937.6,590.8l2,5.8c2.4,6.9-1.2,14.4-8.1,16.9l-11.5,4l-10.5-30.1l12.3-4.3
			C1928.2,580.8,1935.4,584.3,1937.6,590.8z"/>
	</g>
	<g>
		<path class="st16" d="M2255.2,1328.5c0,0,15.4,14.1,12.4,24.1c-3,10-16.9,16.7-18.8,28.9c-1.9,12.2-9.4,18.9-16.2,18.9
			c-6.8,0-32.3,0-32.3,0s-5-8.6,7-11.2c12-2.6,16.6-16.9,15.8-30.3c-0.8-13.3,1.1-31.1,1.1-31.1l25.6-5.9L2255.2,1328.5z"/>
		<path class="st16" d="M2066.1,1364.8c0,0,2.8,32-4,35.3l-86.6-0.2c0,0,0-10,13.9-12.2s38.3-10.4,42.5-28.5
			C2036.1,1341.2,2066.1,1364.8,2066.1,1364.8z"/>
		<path class="st12" d="M1993,912.7c0,0,4.6,56.1,9.9,123.6c7.3,91.6,16.1,204.2,16.9,225.5c1.5,37,7.5,96.2,7.5,96.2
			s14.3,14.1,42.9,8.1c0,0,25.5-84.5,32.7-174c0.1-1.5,0.2-2.9,0.3-4.4c6.8-91,17.3-282.8,17.3-282.8L1993,912.7z"/>
		<path class="st17" d="M1993,912.7c0,0,4.6,56.1,9.9,123.6l100,155.9c0.1-1.5,0.2-2.9,0.3-4.4c6.8-91,17.3-282.8,17.3-282.8
			L1993,912.7z"/>
		<path class="st12" d="M2013.9,919.4c0,0,82.3,203.2,136.4,298.7c54.1,95.5,71,122.1,71,122.1s31-12.2,33.8-20.5
			c0,0-20.7-184.4-56.9-229.3c-20.5-25.4-44.5-101.6-45.7-128.2c-1.1-26.6-7.3-79.4-7.3-79.4L2013.9,919.4z"/>
	</g>
	<path class="st13" d="M2084.9,614.6c0,0-55.2,28-87.5,18.6c0,0,19-14.1,18.6-34.5c-0.2-11-1.7-17.1-1.7-17.1l21.1-17.3l20.1-16.6
		C2054.8,593.1,2084.9,614.6,2084.9,614.6z"/>
	<path class="st18" d="M2139.6,898.8c-22.3,13.5-43.3,23.6-68,29.3c-29.1,6.9-64.9,4.9-76.8,6.7c-1.2,0.2-2.4-0.2-3.5-0.9
		c-0.9-0.5-6.2-36-11.5-80.8c-0.2-1.8-0.5-3.6-0.6-5.4l-0.1-0.6c-2.1-17.5-3.9-35.9-5.4-54.4c-1.3-14.3-2.3-28.5-3.1-41.9
		c-0.9-16.7-1.3-32-0.9-44.6c0.2-5.8,0.5-10.9,1-15.4c3.2-26.2,15.6-44.9,27.4-58.8l9.8-11.1c11.3,0.7,22.8-1.4,33.7-8.6
		c11.9-7.8,24.8-16.3,27.2-14.9c18.3,10,33.1,35.9,43.7,70c6.1,19.7,10.8,42,13.7,65.6c1,7.3,1.8,14.9,2.4,22.4
		c0.1,1.4,0.2,2.8,0.3,4.1c1.4,20.5,3.8,39.7,6.4,56.8c3.5,23.1,7.5,42.5,10.3,56.1c1.4,6.9,2.5,12.3,3.1,16.2
		C2149.4,892.1,2142.6,896.9,2139.6,898.8z"/>
	<path class="st19" d="M2056.2,565c0,0-13.6,25.9-40.2,33.6c-1.4-12.4-1.7-17.1-1.7-17.1l21.1-17.3L2056.2,565z"/>
	<path class="st13" d="M2004.5,581c0,0,53.3,7.6,57.6-25.1c4.3-32.8,14.1-53.8-19.7-60.1c-33.8-6.3-42.1,5.4-46.3,16
		C1992,522.3,1990.7,578.2,2004.5,581z"/>
	<path class="st20" d="M2080.1,491.1c0.5-0.6,1.6-1,4-1.2c0,0-2-1.2-4.7-1.2c-0.6-3.4-2.5-9.5-8.5-10.9c0,0,3.2,1.6,3.7,5.3
		c-7-6.9-21.8-11.7-62.5-7.7c-53.6,5.3-35.2,39.3-28.2,43.3c7,4,24.3-7.6,37.3-6.8c13,0.8,15.8,19.4,20.2,21.9
		c4.4,2.5,2.6-2,8.5-4.8c5.9-2.8,6.6,7,5.1,13.5s6.7,14.7,6.7,14.7s0,0,8.1-9c8.1-9,15.1-46.8,11.2-54.8
		C2080.8,492.5,2080.5,491.8,2080.1,491.1z"/>
	<path class="st14" d="M2063.2,709.2c0,0-44.9,34.2-92.6,41.7c-0.9-16.7-1.3-32-0.9-44.6L2063.2,709.2z"/>
	<g>
		<path class="st13" d="M1787.2,665c-0.7-0.8-9.9-31.4-25.7-29.2c-10.3,1.5-27.2,7.4-22.8,21.1c1.8,5.4,33.3,23.8,33.3,23.8
			L1787.2,665z"/>
		<path class="st18" d="M2068.8,643.1c25.6,15.3,23.5,53.5-3.9,65.4c-0.6,0.2-1.1,0.5-1.7,0.7c-42.2,16.9-183.5,17.7-196.2,15.7
			c-12.7-2-97-41.3-97-41.3s5.8-21.3,17.8-24.6c0,0,90.2,22.9,96.6,21.3c6.4-1.5,140.5-65,163.3-50.1
			C2053.8,634,2061.2,638.5,2068.8,643.1z"/>
	</g>
</g>
<g>
	<path class="st13" d="M849,740.8c0,0,5-8.2,8-12.7c3-4.5,9.1-10.2,10.6-8.7c1.5,1.5-4.6,7.4-4.4,9.4c0.3,2,10.6-4.7,11.8-6.2
		c2.2-3,8.2-6.3,8.9-2.5c0.7,3.8-3.7,15.8-5.7,19.2c-2,3.4-10.4,8.9-15,10.5c-4.6,1.6-12.5,5.4-12.5,5.4L849,740.8z"/>
	<path class="st21" d="M608.5,670.6c-3.4-6.6,74.6-30.3,75.9,34.7c0,0,146.2-3.6,76.4-85.1c-24.2-28.2-21.7-51.5-21-73.2
		c0.7-21.7-15.1-84.8-69.2-78.5c0,0-14.2-5.8-31.9,3.4C598.6,492.9,508.5,694.6,608.5,670.6z"/>
	<path class="st12" d="M709.9,748.1c0,0,5.2,10.2,14.6,22c11.3,14.2,28.7,30.5,50.6,33.8c10.5,1.5,20.7-0.7,30.1-4.9c0,0,0,0,0,0
		c26.6-11.8,46.6-38.9,46.6-38.9c4.7-12.8-1.9-20.8-1.9-20.8s-54.8,11.4-59.9,8.8c-5.1-2.6-34.9-88.5-42-99.3
		c-7.1-10.8-31.3-16.4-31.3-16.4L709.9,748.1z"/>
	<path class="st22" d="M724.4,770.1c11.3,14.2,28.7,30.5,50.6,33.8c10.5,1.5,20.7-0.7,30.1-4.9c-1,0.1-27.6,3.4-38.2-15.5
		c-10.8-19.3-22.5-50-38.5-39.8C721.5,748.1,721.8,759.1,724.4,770.1z"/>
	<path class="st23" d="M509.6,1327.6c0,0-16.4,14.9-13.2,25.6c3.2,10.6,18,17.7,20,30.7c2,13,10,20.1,17.2,20.1c7.2,0,34.3,0,34.3,0
		s5.3-9.1-7.5-11.9c-12.8-2.8-17.6-18-16.8-32.2c0.8-14.2-1.2-33-1.2-33l-27.2-6.3L509.6,1327.6z"/>
	<path class="st23" d="M648.2,1333.9c0,0-5.9,63.3,1.3,66.9l92-0.2c0,0,0-10.6-14.8-13c-14.8-2.4-40.8-11-45.1-30.3
		C677.3,1338,648.2,1333.9,648.2,1333.9z"/>
	<path class="st13" d="M582.7,879.6c18.9-42.5,30.5-54.7,28.3-67.8c-1.6-9.8,5-182.9,5-182.9c2.2-0.7,6.8-1.3,9.2-1.9
		c7.8-1.7,14.2-7.2,16.9-14.7c3.2-9,5.8-22.4,5.7-39.1l2.4,0.5l40.8,8.1c0,0-0.9,12.8-1,24.9c0,0.1,0,0.2,0,0.3
		c0,10.5,6.8,19.8,16.9,22.7c5.2,1.5,9.6,2.8,9.6,2.8s15,42.8,17.8,86.7c2.9,43.9-27.2,63,0.2,150.8
		C762.7,959.6,572.2,903.1,582.7,879.6z"/>
	<path class="st24" d="M691,581.8c0,0-0.9,12.8-1,24.9c-22.8-0.6-34.9-21.5-39.8-33L691,581.8z"/>
	<path class="st13" d="M698.6,593.2c0,0-54,0.9-54-32.8c0-33.6-7-56.2,27.4-58.2c34.5-2,41.2,10.8,43.9,22.1
		C718.7,535.6,712.7,592.1,698.6,593.2z"/>
	<path class="st21" d="M696.6,501.5c0,0-14.8,39.5-37.5,45.3c-22.7,5.8-32.5-0.2-32.5-0.2s17.4-13.8,21-38
		C647.6,508.6,685.5,482.7,696.6,501.5z"/>
	<path class="st21" d="M693,504.7c0,0,11,4.1,15.5,12.1c4.4,7.8,8.2,18.2,7.3,30.9c0,0,11.1-26.8-1.4-42
		C701.1,489.6,693,504.7,693,504.7z"/>
	<path class="st0" d="M686.9,572.3c0,0,3.7,4.9,11.2,4.6c6-0.3,8.3-5.5,8.3-5.5S695.4,568.7,686.9,572.3z"/>
	<path class="st12" d="M577.4,705.4c0,0-1.4,19.3,0,42.5c0.9,15.4,16.5,36,18.7,41.1c5.5,12.8,11.8,14.9,11.8,14.9l48.3,11.8l17,4.2
		l53.6-16c0,0,24.4-68.1,14.6-106.5c-9.8-38.3-24.8-65-24.8-65s-43.7,42.8-100.6-3.6L577.4,705.4z"/>
	<path class="st21" d="M723.4,814.2c0,0,26.5,82.6,28.2,110.7c1.7,28.1-50.7,399.5-52.8,412.4c-2,12.2-17.2,20-17.2,20
		s-7,4.1-16.9,1.3c-13.8-3.9-18.2-8.6-18.2-8.6s-20.7-264.8-7.9-359.4c12.8-94.6,12.9-176.4,12.9-176.4H723.4z"/>
	<path class="st25" d="M611,811.7c0,0-40.5,54.3-44.2,91c-3.8,36.7-5.9,165.7-14,201.4c-8,35.8-37.6,104.7-37.6,216.3
		c0,0,3.1,6.4,12.5,9.8c3,1.1,7.1,2.1,11,3.1c7.8,1.8,15.8-2,19.4-9.2c20-40.2,83.6-169.9,86.8-196.8c2.3-19,22.4-145.1,66.2-219.1
		c10.5-17.8-6.5-88.4-6.5-88.4L611,811.7z"/>
	<path class="st26" d="M688.1,573.2c0,0,0.9,4,10.8,3.4c0,0,8.3-0.5,8-4.9C706.9,571.7,698.9,568.6,688.1,573.2z"/>
	<path class="st14" d="M727.6,801.5c0,0-10.7,8.4-31.8,8.9c-25.3,0.5-87.9-6.4-87.9-6.4s-2.8,7.8-2.7,16c0,0,76.5,19.3,120.8,2.8
		C726.1,822.7,731.8,811.9,727.6,801.5z"/>
	<g>
		<path class="st26" d="M690.3,819c0-7.2,5.2-13.1,11.5-13.1c6.4,0,11.5,5.9,11.5,13.1c0,7.2-5.2,13.1-11.5,13.1
			C695.5,832.1,690.3,826.2,690.3,819z M694.2,819c0,5.1,3.5,9.2,7.7,9.2c4.3,0,7.7-4.1,7.7-9.2c0-5.1-3.5-9.2-7.7-9.2
			C697.6,809.8,694.2,813.9,694.2,819z"/>
	</g>
	
		<rect x="559.5" y="725.8" transform="matrix(-0.7542 -0.6567 0.6567 -0.7542 549.2862 1799.3832)" class="st10" width="103.9" height="142.2"/>
	<path class="st13" d="M625.6,816.6c0,0,30.5,4.7,30.4,11.5c-0.1,6.8-6.3,19.1-12.5,20.1c-7.8,1.2-23.4-18.9-23.4-18.9L625.6,816.6z
		"/>
	<path class="st13" d="M626.2,818.3c0,0,10.2-3.7,17.7-2.2c7.5,1.5,14.4,0.4,12.7,3.1c-1.7,2.7-11.8,1.7-13.4,2.8
		c-1.6,1.1-1.6,0.4-1.6,0.4L626.2,818.3z"/>
	<path class="st12" d="M616,628.8c0,0-38.3,2.7-53,38.4c-14.7,35.7-42.6,95.7-42.6,105.8c0,10.1,15.6,41.2,99.2,59.1
		c0,0,8.7-9.1,8.1-16.3c0,0-52.2-44.8-52.1-50.1c0.3-9.9,8.6-23,54.4-68.9C642.5,684.4,616,628.8,616,628.8z"/>
	<g>
		<path class="st10" d="M1036.5,768.2l-120.7,39.3c-10.1,3.3-21.3-2.1-25-12.1l-44.3-119c-3.7-10,1.5-20.7,11.6-24L978.7,613
			c10.1-3.3,21.3,2.1,25,12.1l44.3,119C1051.8,754.1,1046.6,764.9,1036.5,768.2z"/>
		<g>
			<polygon class="st11" points="904.2,768.5 916.9,686.1 961.7,715 970.3,694.8 1019.8,730.7 			"/>
			<path class="st11" d="M932.1,669.9c-2.2-5.5,0.7-11.5,6.5-13.3c5.7-1.9,12.2,1.1,14.3,6.6c2.2,5.5-0.7,11.5-6.5,13.3
				C940.7,678.3,934.2,675.4,932.1,669.9z"/>
		</g>
	</g>
	<path class="st13" d="M856.9,728.1c0,0,4.9-7.3,10.6-8.7c5.7-1.4,11.3-3.8,11.3-3.8c2.4,2.6-7.7,7.3-7.8,11.7
		c-0.1,4.4,1.5,11.5-5,12.4C859.6,740.4,856.9,728.1,856.9,728.1z"/>
</g>
<path class="st14" d="M2663.4,1406.8H3c-1.7,0-3-1.4-3-3v-1c0-1.7,1.4-3,3-3h2660.4c1.7,0,3,1.4,3,3v1
	C2666.4,1405.5,2665.1,1406.8,2663.4,1406.8z"/>
<g>
	<polygon class="st27" points="1140.8,394.3 1299.2,422.8 1196.1,346.9 1189.9,369.8 1150.9,375.4 	"/>
	<polygon class="st26" points="1299.2,422.8 1169.2,349.6 1039.5,338.4 	"/>
	<polygon class="st26" points="1196.1,346.9 1299.2,422.8 1221.5,307.3 	"/>
</g>
<g>
	<polygon class="st27" points="263.5,1208.9 135.7,1231.9 218.8,1170.7 223.9,1189.2 255.3,1193.7 	"/>
	<polygon class="st26" points="135.7,1231.9 240.6,1172.9 345.2,1163.8 	"/>
	<polygon class="st26" points="218.8,1170.7 135.7,1231.9 198.4,1138.7 	"/>
</g>
<path class="st28" d="M774.3,1356.4c0,1.8,0.1,3.5,0.3,5.3c0.7,5.5,2.4,10.7,4.9,15.4c2,3.7,4.5,7,7.4,9.9
	c7.8,7.8,18.6,12.7,30.6,12.7H1426c23.9,0,43.3-19.4,43.3-43.3c0-12-4.8-22.8-12.7-30.6c-7.8-7.8-18.6-12.7-30.6-12.7H817.6
	C793.7,1313.2,774.3,1332.5,774.3,1356.4z"/>
<path class="st28" d="M820.7,1305.3h208.6c3.7,0,6.6-3,6.6-6.6l0,0c0-3.7-3-6.6-6.6-6.6H820.7c-3.7,0-6.6,3-6.6,6.6l0,0
	C814.1,1302.4,817.1,1305.3,820.7,1305.3z"/>
<rect x="832.3" y="1305.3" transform="matrix(-1 -1.224647e-16 1.224647e-16 -1 1687.1162 2618.5107)" class="st29" width="22.6" height="7.8"/>
<path class="st29" d="M779.6,1377.1c2,3.7,4.5,7,7.4,9.9c7.8,7.8,18.6,12.7,30.6,12.7h128.9v-22.6H779.6z"/>
<path class="st12" d="M1549.8,1343.8v25.3c0,2.8-0.4,5.5-1.1,8c-3.5,13-15.4,22.6-29.5,22.6H885.4c-14.1,0-26-9.6-29.5-22.6
	c-0.7-2.6-1.1-5.2-1.1-8v-25.3c0-16.9,13.7-30.6,30.6-30.6h633.8C1536.1,1313.2,1549.8,1326.9,1549.8,1343.8z"/>
<path class="st30" d="M1548.7,1377.1c-3.5,13-15.4,22.6-29.5,22.6H885.4c-14.1,0-26-9.6-29.5-22.6H1548.7z"/>
<g>
	<path class="st4" d="M1486.9,1356.6c0,13.4,4.9,25.4,12.6,33.4c0.2,0.2,0.3,0.4,0.5,0.5c6,5.9,13.5,9.5,21.7,9.5
		c12.8,0,44.6-19.4,64.3-32.2c9.8-6.4,16.6-11.2,16.6-11.2s-6.8-4.8-16.6-11.2c-19.7-12.9-51.5-32.2-64.3-32.2
		c-3.7,0-7.3,0.7-10.7,2.1c-5.7,2.3-10.7,6.3-14.7,11.6c-4.4,5.8-7.5,13.1-8.8,21.2c0,0.1,0,0.2,0,0.3
		C1487.1,1350.9,1486.9,1353.7,1486.9,1356.6z"/>
	<path class="st31" d="M1486.9,1356.6c0,13.4,4.9,25.4,12.6,33.4l97.5-33.6l-109.5-8.2C1487.1,1350.9,1486.9,1353.7,1486.9,1356.6z"
		/>
	<path class="st32" d="M1496.3,1326.8l97.3,26.6l-82.6-38.2C1505.4,1317.5,1500.3,1321.5,1496.3,1326.8z"/>
	<path class="st12" d="M1579.7,1356.6c0,5.2,2.6,9.6,6.4,11.2c9.8-6.4,16.6-11.2,16.6-11.2s-6.8-4.8-16.6-11.2
		C1582.3,1347,1579.7,1351.4,1579.7,1356.6z"/>
</g>
<path class="st18" d="M1660,691.1l10-7.4c0,0,3.2,2.9,3.5,7.4H1660z"/>
<g>
	<g>
		<path class="st26" d="M1459.1,409.9c-2.8-1.6-4.9-3.9-6.4-6.9c-1.5-3-2.3-6.4-2.3-10.3c0-4.8,0-9.6,0-14.4c0-3.9,0.8-7.3,2.3-10.3
			c1.5-3,3.7-5.3,6.4-6.9c2.8-1.6,6-2.4,9.6-2.4c3,0,5.8,0.6,8.3,1.9c2.5,1.3,4.6,3.1,6.3,5.5c1.7,2.4,2.8,5.1,3.5,8.2
			c-2.5,0-5,0-7.6,0c-0.5-1.6-1.2-3.1-2.3-4.4c-1.1-1.3-2.3-2.3-3.8-3c-1.4-0.7-2.9-1-4.5-1c-2.1,0-4,0.5-5.6,1.6
			c-1.6,1-2.9,2.5-3.8,4.4c-0.9,1.9-1.3,4-1.3,6.5c0,4.8,0,9.6,0,14.4c0,2.5,0.4,4.6,1.3,6.5c0.9,1.9,2.1,3.3,3.8,4.4
			c1.6,1,3.5,1.5,5.6,1.5c1.6,0,3.1-0.3,4.5-1c1.4-0.7,2.7-1.6,3.8-2.9c1.1-1.3,1.8-2.8,2.3-4.6c2.5,0,5,0,7.6,0
			c-0.6,3.1-1.8,5.8-3.5,8.2c-1.7,2.4-3.8,4.2-6.4,5.5c-2.5,1.3-5.3,1.9-8.3,1.9C1465,412.3,1461.8,411.5,1459.1,409.9z"/>
		<path class="st26" d="M1511.5,359.2c2.1,0,4.2,0,6.3,0c6.5,17.5,12.9,35,19.4,52.5c-2.6,0-5.3,0-7.9,0
			c-4.9-14.1-9.7-28.3-14.6-42.4c-4.9,14.1-9.7,28.3-14.6,42.4c-2.6,0-5.3,0-7.9,0C1498.6,394.2,1505.1,376.7,1511.5,359.2z
			 M1501.1,393.2c9.2,0,18.4,0,27.6,0c0,2.3,0,4.7,0,7c-9.2,0-18.4,0-27.6,0C1501.1,397.9,1501.1,395.5,1501.1,393.2z"/>
		<path class="st26" d="M1582.9,359.2c2.3,0,4.6,0,6.9,0c0,17.5,0,35,0,52.5c-2.4,0-4.8,0-7.2,0c0-13.1,0-26.2,0-39.3
			c0.1,0.8,0.2,1.5,0.4,2.3c-4.3,9.9-8.6,19.8-12.9,29.7c-1.7,0-3.4,0-5.1,0c-4.3-9.7-8.6-19.3-12.9-29c0.1-1,0.2-2,0.4-3
			c0,13.1,0,26.2,0,39.3c-2.4,0-4.8,0-7.2,0c0-17.5,0-35,0-52.5c2.3,0,4.6,0,6.9,0c5.1,11.6,10.3,23.1,15.4,34.7
			C1572.6,382.3,1577.8,370.8,1582.9,359.2z"/>
		<path class="st26" d="M1602.8,359.2c2.5,0,4.9,0,7.4,0c0,17.5,0,35,0,52.5c-2.5,0-4.9,0-7.4,0
			C1602.8,394.2,1602.8,376.7,1602.8,359.2z M1606.6,384.4c5.6,0,11.2,0,16.8,0c1.6,0,3-0.4,4.2-1.1c1.2-0.7,2.1-1.8,2.8-3.2
			c0.7-1.4,1-2.9,1-4.7c0-1.8-0.3-3.4-1-4.8c-0.7-1.4-1.6-2.4-2.8-3.2c-1.2-0.8-2.6-1.1-4.2-1.1c-5.6,0-11.2,0-16.8,0
			c0-2.3,0-4.7,0-7c5.5,0,11,0,16.5,0c3.1,0,5.9,0.7,8.3,2c2.4,1.3,4.2,3.2,5.5,5.7c1.3,2.4,2,5.3,2,8.5c0,3.2-0.7,6-2,8.4
			c-1.3,2.4-3.2,4.3-5.5,5.6c-2.4,1.3-5.1,2-8.3,2c-5.5,0-11,0-16.5,0C1606.6,389,1606.6,386.7,1606.6,384.4z"/>
		<path class="st26" d="M1663.2,359.2c2.1,0,4.2,0,6.3,0c6.5,17.5,12.9,35,19.4,52.5c-2.6,0-5.3,0-7.9,0
			c-4.9-14.1-9.7-28.3-14.6-42.4c-4.9,14.1-9.7,28.3-14.6,42.4c-2.6,0-5.3,0-7.9,0C1650.3,394.2,1656.7,376.7,1663.2,359.2z
			 M1652.7,393.2c9.2,0,18.4,0,27.6,0c0,2.3,0,4.7,0,7c-9.2,0-18.4,0-27.6,0C1652.7,397.9,1652.7,395.5,1652.7,393.2z"/>
		<path class="st26" d="M1704.2,411.7c-2.5,0-4.9,0-7.4,0c0-17.5,0-35,0-52.5c2.5,0,4.9,0,7.4,0
			C1704.2,376.7,1704.2,394.2,1704.2,411.7z"/>
		<path class="st26" d="M1753.1,383.5c0,3.1,0,6.1,0,9.2c0,3.9-0.8,7.3-2.3,10.3c-1.5,3-3.7,5.3-6.5,6.9c-2.8,1.6-6,2.4-9.7,2.4
			c-3.7,0-7-0.8-9.8-2.3c-2.8-1.5-5-3.7-6.5-6.5c-1.5-2.8-2.3-6-2.3-9.7c0-5.2,0-10.3,0-15.5c0-3.9,0.8-7.3,2.3-10.3
			c1.5-3,3.7-5.3,6.5-6.9c2.8-1.6,6-2.4,9.7-2.4c3,0,5.8,0.6,8.3,1.9c2.5,1.3,4.7,3.1,6.4,5.5c1.7,2.4,2.9,5.1,3.5,8.2
			c-2.7,0-5.3,0-8,0c-0.4-1.8-1.2-3.3-2.2-4.5c-1-1.3-2.3-2.2-3.6-2.9c-1.4-0.7-2.8-1-4.3-1c-2.2,0-4.1,0.5-5.7,1.6
			c-1.6,1-2.9,2.5-3.8,4.4c-0.9,1.9-1.3,4-1.3,6.5c0,5.2,0,10.3,0,15.5c0,2.3,0.5,4.2,1.4,5.9c0.9,1.7,2.2,3,3.9,4
			c1.7,0.9,3.6,1.4,5.8,1.4c2.2,0,4.1-0.5,5.7-1.5c1.6-1,2.9-2.4,3.8-4.2c0.9-1.9,1.3-4.1,1.3-6.6c0-0.8,0-1.5,0-2.3
			c-3.6,0-7.1,0-10.7,0c0-2.3,0-4.7,0-7C1740.9,383.5,1747,383.5,1753.1,383.5z"/>
		<path class="st26" d="M1765,359.2c2.2,0,4.5,0,6.7,0c8.6,13.5,17.1,27.1,25.7,40.6c-0.3,0.3-0.6,0.6-0.9,0.9c0-13.9,0-27.7,0-41.6
			c2.4,0,4.9,0,7.3,0c0,17.5,0,35,0,52.5c-2.3,0-4.5,0-6.8,0c-8.5-13.3-17.1-26.7-25.6-40c0.3-0.3,0.6-0.6,0.9-0.9
			c0,13.6,0,27.3,0,40.9c-2.4,0-4.9,0-7.3,0C1765,394.2,1765,376.7,1765,359.2z"/>
	</g>
</g>
</svg>
