<?xml version="1.0" encoding="utf-8"?>
<!-- Generator: Adobe Illustrator 25.2.0, SVG Export Plug-In . SVG Version: 6.00 Build 0)  -->
<svg version="1.1" id="Layer_1" xmlns="http://www.w3.org/2000/svg" xmlns:xlink="http://www.w3.org/1999/xlink" x="0px" y="0px"
	 viewBox="0 0 682.67 682.67" style="enable-background:new 0 0 682.67 682.67;" xml:space="preserve">
<style type="text/css">
	.st0{fill:#0B0754;}
</style>
<path class="st0" d="M343.82,408.93l279.95-307.27l36.96,33.67L346.39,480.36l-171.36-162.9l34.45-36.24L343.82,408.93z
	 M641.31,230.07L602.32,273c5.66,21.73,8.68,44.52,8.68,68c0,148.88-121.12,270-270,270S71,489.88,71,341S192.12,71,341,71
	c68.97,0,131.97,26.01,179.75,68.71l33.71-37.11C495.69,49.86,420.57,21,341,21c-85.47,0-165.84,33.29-226.27,93.73
	C54.29,175.16,21,255.53,21,341s33.29,165.84,93.73,226.27C175.16,627.71,255.53,661,341,661s165.84-33.29,226.27-93.73
	C627.71,506.84,661,426.47,661,341C661,302.53,654.24,265.11,641.31,230.07z"/>
</svg>
