<?xml version="1.0" encoding="utf-8"?>
<!-- Generator: Adobe Illustrator 25.2.0, SVG Export Plug-In . SVG Version: 6.00 Build 0)  -->
<svg version="1.1" id="Capa_1" xmlns="http://www.w3.org/2000/svg" xmlns:xlink="http://www.w3.org/1999/xlink" x="0px" y="0px"
	 viewBox="0 0 455.43 455.43" style="enable-background:new 0 0 455.43 455.43;" xml:space="preserve">
<style type="text/css">
	.st0{fill:#0B0754;}
	.st1{opacity:0.2;}
	.st2{fill:#FFFFFF;}
</style>
<path class="st0" d="M405.49,412.76c-69.69,56.89-287.29,56.89-355.56,0c-69.69-56.89-62.58-300.09,0-364.09s292.98-64,355.56,0
	S475.18,355.88,405.49,412.76z"/>
<g class="st1">
	<path class="st2" d="M229.14,313.21c-62.58,49.78-132.27,75.38-197.69,76.8c-48.36-82.49-38.4-283.02,18.49-341.33
		c51.2-52.62,211.91-62.58,304.36-29.87C377.05,112.68,330.12,232.14,229.14,313.21z"/>
</g>
<path class="st2" d="M195,354.45c-9.96,0-19.91-4.27-25.6-12.8l-79.64-102.4c-11.38-14.22-8.53-34.13,5.69-45.51
	s34.13-8.53,45.51,5.69L195,269.12L314.47,114.1c11.38-14.22,31.29-17.07,45.51-5.69s17.07,31.29,5.69,45.51L220.6,341.65
	C213.49,348.76,204.96,354.45,195,354.45z"/>
</svg>
