<?xml version="1.0" encoding="utf-8"?>
<!-- Generator: Adobe Illustrator 25.2.0, SVG Export Plug-In . SVG Version: 6.00 Build 0)  -->
<svg version="1.1" id="Layer_1" xmlns="http://www.w3.org/2000/svg" xmlns:xlink="http://www.w3.org/1999/xlink" x="0px" y="0px"
	 viewBox="0 0 984 337.2" style="enable-background:new 0 0 984 337.2;" xml:space="preserve">
<style type="text/css">
	.st0{fill:#E2EBFD;}
	.st1{fill:#FFFFFF;}
	.st2{opacity:0.6;fill:#E2EBFD;}
	.st3{fill:#DDE8FD;}
	.st4{fill:#93B3F4;}
	.st5{fill:#D3E0FC;}
	.st6{fill:#010117;}
	.st7{fill:#3A49CD;}
	.st8{fill:#060632;}
	.st9{fill:#BED2FA;}
	.st10{fill:#6D89CF;}
	.st11{fill:#0B0754;}
	.st12{fill:#FDA6A4;}
	.st13{fill:#FC9290;}
	.st14{fill:#9E332E;}
	.st15{fill:#030231;}
	.st16{fill:#A83F3F;}
	.st17{fill:#B05050;}
	.st18{fill:#ED6966;}
	.st19{fill:#3662C1;}
	.st20{fill:#EFA2A2;}
	.st21{fill:#3A65C2;}
	.st22{fill:#FA7269;}
</style>
<g>
	<g>
		<path class="st0" d="M312.7,102.7v233.5l-280.9,1c0.7-10.2-45.5-144.8,13.7-221.7c84.1-109.2,156-20.9,250.8-13.2
			C301.8,102.6,307.2,102.8,312.7,102.7z"/>
		<path class="st1" d="M958.2,331.7c-0.4,2.9-30.8-0.5-31.2,2.4L737,334.7H312.7v-232c5.4-0.1,10.8-0.6,16.3-1.3
			c18.6-2.5,38.1-8.9,58.8-21c214.2-124.2,388.6-90.5,486.5,6.5c12,11.9,23,24.9,32.6,38.6C948.7,184.4,967.5,257.8,958.2,331.7z"/>
		<path class="st2" d="M960.5,294.9c0,12.7-0.7,25.5-2.4,38.4c-0.4,2.9-30.8-0.5-31.2,2.4L737,336.4H312.7v-0.2l424.3-1.5l189.9-0.7
			c0.4-2.9,30.9,0.5,31.2-2.4C959.7,319.4,960.5,307.1,960.5,294.9z"/>
		<polygon class="st3" points="877,157.3 877,334.7 329.1,334.7 329.1,180.3 371.1,180.3 371.1,138.2 413.1,138.2 413.1,195.1 
			447.1,195.1 447.1,182.4 506.3,182.4 506.3,203.9 532.1,203.9 532.1,155.6 601.1,155.6 601.1,72.8 655.6,72.8 655.6,116.9 
			668.1,116.9 668.1,79.9 722.7,79.9 722.7,136.9 772.1,136.9 772.1,101.9 825,101.9 825,136.9 834.9,136.9 834.9,157.3 		"/>
		<g>
			<path class="st4" d="M248.2,172.8h-46c-3,0-5.4-2.4-5.4-5.4v-44.3c0-3,2.4-5.4,5.4-5.4h46c3,0,5.4,2.4,5.4,5.4v44.3
				C253.6,170.4,251.1,172.8,248.2,172.8z"/>
			<path class="st0" d="M246.2,170.4h-42c-2.7,0-5-2.2-5-5V125c0-2.7,2.2-5,5-5h42c2.7,0,5,2.2,5,5v40.5
				C251.1,168.2,248.9,170.4,246.2,170.4z"/>
			<g>
				<g>
					<path class="st4" d="M224,125.1c0-0.7,0.5-1.2,1.2-1.2c0.7,0,1.2,0.5,1.2,1.2c0,0.7-0.5,1.2-1.2,1.2
						C224.5,126.3,224,125.7,224,125.1z"/>
					<path class="st4" d="M233.5,126.7c0.3-0.6,1-0.8,1.6-0.5c0.6,0.3,0.8,1,0.5,1.6c-0.3,0.6-1,0.8-1.6,0.5
						C233.4,128,233.2,127.3,233.5,126.7z"/>
					<path class="st4" d="M241.6,133.2c0.5-0.4,1.3-0.2,1.6,0.4c0.4,0.5,0.2,1.3-0.4,1.6c-0.5,0.4-1.3,0.2-1.6-0.4
						C240.9,134.3,241.1,133.6,241.6,133.2z"/>
					<path class="st4" d="M245.7,143.2c0.7,0,1.2,0.5,1.2,1.2c0,0.7-0.5,1.2-1.2,1.2c-0.7,0-1.2-0.5-1.2-1.2
						C244.5,143.8,245,143.2,245.7,143.2z"/>
					<path class="st4" d="M243.6,154.8c0.5,0.5,0.5,1.2,0,1.7c-0.5,0.5-1.2,0.5-1.7,0c-0.5-0.5-0.5-1.2,0-1.7
						C242.4,154.4,243.1,154.4,243.6,154.8z"/>
					<path class="st4" d="M236.2,162.3c0.5,0.5,0.5,1.2,0,1.7c-0.5,0.5-1.2,0.5-1.7,0c-0.5-0.5-0.5-1.2,0-1.7
						C235,161.8,235.7,161.8,236.2,162.3z"/>
					<path class="st4" d="M224,166.1c0-0.7,0.5-1.2,1.2-1.2c0.7,0,1.2,0.5,1.2,1.2c0,0.7-0.5,1.2-1.2,1.2
						C224.5,167.3,224,166.7,224,166.1z"/>
				</g>
				<g>
					<path class="st4" d="M216.8,126.7c-0.3-0.6-1-0.8-1.6-0.5c-0.6,0.3-0.8,1-0.5,1.6c0.3,0.6,1,0.8,1.6,0.5
						C216.9,128,217.1,127.3,216.8,126.7z"/>
					<path class="st4" d="M208.6,133.2c-0.5-0.4-1.3-0.2-1.6,0.4c-0.4,0.5-0.2,1.3,0.4,1.6c0.5,0.4,1.3,0.2,1.6-0.4
						C209.3,134.3,209.2,133.6,208.6,133.2z"/>
					<path class="st4" d="M204.6,143.2c-0.7,0-1.2,0.5-1.2,1.2c0,0.7,0.5,1.2,1.2,1.2c0.7,0,1.2-0.5,1.2-1.2
						C205.8,143.8,205.3,143.2,204.6,143.2z"/>
					<path class="st4" d="M206.7,154.8c-0.5,0.5-0.5,1.2,0,1.7c0.5,0.5,1.2,0.5,1.7,0c0.5-0.5,0.5-1.2,0-1.7
						C207.9,154.4,207.1,154.4,206.7,154.8z"/>
					<path class="st4" d="M214.1,162.3c-0.5,0.5-0.5,1.2,0,1.7c0.5,0.5,1.2,0.5,1.7,0s0.5-1.2,0-1.7
						C215.3,161.8,214.5,161.8,214.1,162.3z"/>
				</g>
			</g>
			<g>
				<path class="st4" d="M224.8,144.4c0-0.7,0.5-1.2,1.2-1.2c0.7,0,1.2,0.5,1.2,1.2c0,0.7-0.5,1.2-1.2,1.2
					C225.4,145.6,224.8,145.1,224.8,144.4z"/>
				<g>
					<rect x="225.9" y="129.7" class="st4" width="0.3" height="14.7"/>
				</g>
				<g>
					
						<rect x="224.8" y="140.8" transform="matrix(0.7864 -0.6177 0.6177 0.7864 -38.2214 172.0974)" class="st4" width="9.9" height="1"/>
				</g>
			</g>
		</g>
		<path class="st5" d="M329.1,101.4v232.1h-32.7V102.2C307,103.1,317.8,102.9,329.1,101.4z"/>
		<path class="st5" d="M907.1,125.4v208h-32.7V86.9C886.5,98.8,897.4,111.7,907.1,125.4z"/>
		<path class="st6" d="M982.1,336.8H1.9c-1,0-1.9-0.9-1.9-1.9v-0.4c0-1,0.9-1.9,1.9-1.9h980.2c1,0,1.9,0.9,1.9,1.9v0.4
			C984,336,983.1,336.8,982.1,336.8z"/>
		<g>
			<polygon class="st7" points="355.8,251.6 350.6,251.6 357,332.7 369.7,332.7 			"/>
			<g>
				<path class="st8" d="M460,227.9l-1.1,0.2c-5,1-9.9-2.3-10.9-7.3l-1.2-5.9c-1-5,2.3-9.9,7.3-10.9l1.1-0.2c5-1,9.9,2.3,10.9,7.3
					l1.2,5.9C468.2,221.9,465,226.9,460,227.9z"/>
				<path class="st7" d="M350.6,251.6c0,0,28.6-13.4,67.8-4.5l-62.5,4.5H350.6z"/>
				<path class="st9" d="M369.7,333.5l-13.9-81.9c0,0,43.8-14.7,77.8,0l20.2,81.4L369.7,333.5z"/>
				<g>
					<path class="st10" d="M672.7,308.1c-0.8,8.9-5.8,11.6-8,11.4c-2.2-0.2-15.1-5.2-15.4-3.4c-0.3,1.8,7.5,7.7,12.9,8
						c0,0-10.3,11.3-17.1,8.1c-6.8-3.3-7.4-8.5-11.7-10.4c-4.3-1.9-7.9-1.9-6.1,0c1.8,2,9.5,3.9,11.9,8.2c0.6,1,1.1,2,1.6,2.8
						l-14.4,0c-4.6-2.3-8.4-5.4-8.7-8.8c0-0.3,0-0.5-0.1-0.7c-0.4-5.2-0.4-5.2-0.4-5.2s-7.4-8.6-3.5-15.8c0.6-1.2,1.6-2.3,2.9-3.4
						c0,0,6.9-4.2,12.5-3.8c0,0-4.3,7.3-5.6,11.6c-0.4,1.5-0.5,2.7,0.2,3c0.7,0.4,1.7-0.7,2.7-2.5c2.5-4.4,5.1-13,5.1-13
						s4.1-0.4,8.8-0.5c2.1,0,4.3,0,6.4,0.2c2.2,0.2,4.2,0.6,5.5,1.2c0,0-0.3,0.2-0.8,0.6c-0.7,0.6-1.8,1.5-3.1,2.6
						c-3.7,3.3-8.5,7.9-6.7,8.3c1.5,0.3,6-2.4,10.1-5.1c3.8-2.5,7.2-5,7.2-5S673.5,299.2,672.7,308.1z"/>
					<g>
						<path class="st10" d="M665.5,308.4c0,0-39.6-1.5-48.3,9.8c0,0-1.9,5.8-7.9,11.1l-0.9,2.5c0,0,6.9-7.2,9.3-7.7
							C617.7,324.1,613.9,310.1,665.5,308.4z"/>
						<path class="st10" d="M611,329.2c-0.3,0.4-0.8,0.9-1.6,1.5l0,0c-0.3,0.2-0.5,0.5-0.7,0.8c-0.4,0.4-0.7,0.9-1.1,1.3l-1.8,0
							c1.9-2.3,3.6-3.6,3.6-3.6s0,0,0,0C609.5,329.1,612.9,327.1,611,329.2z"/>
					</g>
				</g>
				<g>
					<path class="st10" d="M574,303.4c0,0,16-8.9,8.5-21.1c0,0-6-7.5-12.3-9.4c0,0,3.4,18.1,0,18.5c-3.4,0.4-2.3-20.4-2.3-20.4
						s-16.8-8.1-23.4-7.5c0,0,10.4,17.7,7,17.2c-3.4-0.4-15.1-18.3-15.1-18.3s-17.2-3.2-20,7c-2.8,10.2,1.7,15.3,4.3,16
						c2.6,0.6,18.9,0.4,18.5,2.6c-0.4,2.1-11.5,5.5-17.7,3.6c0,0,6.8,16.8,15.8,16c8.9-0.9,11.7-6.4,17.2-6.8
						c5.5-0.4,9.6,1.1,6.8,2.6c-2.8,1.5-12.1,0.5-16.6,4.3c-4.5,3.8-8.1,6.1,0.2,7.8c8.3,1.7,23.2,0.6,26.2-5.7
						C574,303.4,574,303.4,574,303.4z"/>
					<g>
						<path class="st10" d="M524.2,272.8c0,0,44.7,14.5,49.8,30.7c0,0-0.2,7.2,4.3,15.5v3.2c0,0-4.7-10.9-7.2-12.3
							C571,309.8,581,295.8,524.2,272.8z"/>
						<path class="st10" d="M582.4,332.8l-2.6,0c-0.1-3.7-0.5-7.8-1.8-11c0,0,0,0,0,0c-0.2-0.4-0.3-0.8-0.5-1.1c0,0,0,0,0,0
							c-0.5-1-0.9-1.8-1.1-2.4l0,0c-1.3-3.2,1.8,0.7,1.8,0.7S582,324.7,582.4,332.8z"/>
					</g>
				</g>
				<g>
					<path class="st4" d="M599.4,291.1c0,0-21-11.8-11.2-27.8c0,0,7.9-9.8,16.3-12.3c0,0-4.5,23.9,0,24.4c4.5,0.6,3.1-26.9,3.1-26.9
						s22.2-10.7,30.9-9.8c0,0-13.8,23.3-9.3,22.7c4.5-0.6,19.9-24.1,19.9-24.1s22.7-4.2,26.4,9.3c3.6,13.5-2.2,20.2-5.6,21
						c-3.4,0.8-25,0.6-24.4,3.4c0.6,2.8,15.2,7.3,23.3,4.8c0,0-9,22.2-20.8,21c-11.8-1.1-15.4-8.4-22.7-9c-7.3-0.6-12.6,1.4-9,3.4
						s16,0.6,21.9,5.7c5.9,5,10.7,8.1-0.3,10.3c-10.9,2.2-30.6,0.8-34.5-7.6C599.4,291.1,599.4,291.1,599.4,291.1z"/>
					<g>
						<path class="st10" d="M665.1,250.7c0,0-58.9,19.1-65.7,40.4c0,0,0.3,9.5-5.6,20.5v4.2c0,0,6.2-14.3,9.5-16.3
							C603.3,299.5,590.1,281,665.1,250.7z"/>
						<path class="st10" d="M596.2,310.6C596.2,310.6,596.2,310.6,596.2,310.6c-0.3,0.7-0.8,1.8-1.5,3.1c0,0,0,0,0,0
							c-0.2,0.5-0.5,1-0.7,1.5c0,0,0,0,0,0c-2,5.1-2.4,12-2.3,17.5l-3.4,0c-0.4-12.2,5.5-21.2,5.5-21.2s0,0,0,0
							C593.9,311.5,597.9,306.4,596.2,310.6z"/>
					</g>
				</g>
				<path class="st11" d="M494.6,333h-80.1c-1.2-2.9-2.2-5.9-3.1-9.1c-2.3-8-3.8-16.8-4.7-25.4c0-0.1,0-0.2,0-0.3
					c-1.6-14.9-1.6-29.3-1.4-38c0.1-5,0.3-8.1,0.3-8.2v0c0.2-0.1,0.3-0.1,0.5-0.2c4.2-1.8,8.3-3.3,12.2-4.6c0,0,0,0,0,0
					c3.3-1.1,6.4-2.1,9.5-2.9c5.3-1.5,10.3-2.5,14.9-3.3c5.4-0.9,10.3-1.3,14.7-1.4c0.2,0,0.4,0,0.6,0c1.2,0,2.3,0,3.4,0
					c11,0.2,18.3,2.4,21.9,3.9c0.5,0.2,1,0.4,1.3,0.6c0,0,0.1,0,0.1,0.1c0.4,0.2,0.7,0.3,1,0.5c0,0,0.1,0,0.1,0
					c0.1,0.1,0.2,0.1,0.3,0.2l5.8,60.7L494.6,333z"/>
				<path class="st11" d="M574.4,319.9c-8,3.7-55.7,6.9-60.3,5.5c-2.4-0.7-12.2-9.3-22.1-20c0,0,0,0,0,0
					c-9.4-10.1-18.8-21.9-22-30.5c-6.6-17.5-0.9-33.1-0.9-33.1s12.2-0.1,17.1,2.9c5,3,33.3,55.3,37.1,56.6c3.8,1.4,48.7,4,53.9,6.4
					C577.2,307.7,582.4,316.1,574.4,319.9z"/>
				<path class="st12" d="M458,241.6l0,3c0,0,0.8,9.2-10.6,10.6c-11.4,1.4-20-3.6-19.7-10.7c1-5.5,2.1-9.3,2.2-13.9
					c0-1.7-0.1-3.5-0.4-5.5l22-0.5l6.5,1.1L458,241.6z"/>
				<path class="st13" d="M458.1,225.7l-0.1,16c-2.3,1.1-5,1.8-7.9,1.8c-10.1,0-20.2-16.3-20.5-18.3L458.1,225.7z"/>
				<path class="st12" d="M459.4,233.4c0,0-28.2,5.7-31.5-11.9c-3.3-17.6-9.2-28.8,8.7-33.2c17.9-4.4,22.7,1.7,25.2,7.3
					C464.3,201.2,466.7,231.5,459.4,233.4z"/>
				<path class="st14" d="M467.2,182.5c0,0-7.9-0.6-17.2-4.6c-7.5-3.3-17,0.4-20.1,2c0.1-0.5,0.3-1.2,0.8-1.9c0,0-1.4,1-1.6,2.4
					c-0.1,0.1-0.2,0.2-0.2,0.2c0,0-1.6-0.3-2.6,0.2c0,0,0.7-0.1,1,0.4c0,0,0.1,0.1,0.1,0.1c-11.7,5.7-12.8,24.3-9,28.6
					c4.6,5.2,10,16.8,10,16.8s2-2.8,1.2-7.3c-0.8-4.6,3.1-4.6,8.1-6.6c5-2.1,0.8-7.9,5.2-11.4c4.3-3.5,20.3-1.5,20.1-4.2
					C468.8,195,467.2,183.1,467.2,182.5z"/>
				<path class="st15" d="M414.5,333c-1.2-2.9-2.2-5.9-3.1-9.1c-2.3-8-3.8-16.8-4.7-25.4c0-0.1,0-0.2,0-0.3c0.1,0,0.2,0.2,0.2,0.1
					c3.1-3.8,11.6-7.9,21.9,7.2c2.1,3,11.1,24.1,12.5,27.6H414.5z"/>
				<path class="st12" d="M422.9,333c-0.2-1.4,0-3.1,1.1-5.2c0,0,1.3-0.9,3.1-1.9c2.6-1.5,6.2-3.3,7.8-3c0.3,0.1,0.7,0.1,1.1,0.3
					c3.8,0.9,12.8,3.7,14.2,5.3c1.1,1.3,2.6,3,3.7,4.5H422.9z"/>
				<path class="st11" d="M428.8,333h-75.4c-0.2-1-0.2-1.9,0.1-2.5c2.2-5.7,6.6-15,11.7-25.1c3.7-7.4,7.8-15.1,11.6-22.1
					c5.3-9.6,10.2-17.7,13.1-21c2.3-2.6,5.1-4.8,8.1-6.6c2.5-1.5,5.2-2.8,7.6-3.8v0c0.2-0.1,0.3-0.1,0.5-0.2
					c5.3-2.1,9.4-3.1,9.4-3.1s0.1,2.4,0.1,6c0,10.6-0.4,32.1-3.8,37.3c-0.9,1.5-2.7,3.7-4.9,6.2c-0.1,0.1-0.1,0.1-0.2,0.2
					c-1.2,1.4-2.5,2.9-3.9,4.4c-7.9,8.8-17.8,19.2-19.1,20.4c-0.1,0.1-0.1,0.1-0.1,0.1h0.1l21.2,0.3l6.5,0.1l13.5,0.2
					c0.9,0.4,1.7,1.1,2.2,1.9C428.4,327.8,428.8,330.6,428.8,333z"/>
				<path class="st15" d="M574.4,319.9c-8,3.7-55.7,6.9-60.3,5.5c-2.4-0.7-12.2-9.3-22.1-20c0.5,0.1,5-7.5,25.6,10.6
					c0,0,5.4,2.4,20.1,1.1C552.5,315.7,571.3,315.2,574.4,319.9z"/>
				<g>
					<path class="st16" d="M527.5,332.8H473l0,0c0-2.4,1.9-4.3,4.3-4.3h50.2V332.8z"/>
					<polygon class="st16" points="527.4,273.4 611.7,273.4 591.5,332.8 506.6,332.8 					"/>
					<polygon class="st17" points="612.9,273.4 592.7,332.8 507.8,332.8 528.6,273.4 					"/>
					<path class="st18" d="M567.5,302.6c-0.5,2.3-2.8,4.1-5.1,4.1c-2.3,0-3.7-1.8-3.2-4.1c0.5-2.3,2.8-4.1,5.1-4.1
						C566.6,298.5,568,300.3,567.5,302.6z"/>
					<polygon class="st16" points="612.9,273.4 592.7,332.8 553.2,332.8 600.5,273.4 					"/>
				</g>
				<path class="st8" d="M436.1,227.9l-1.1,0.2c-5,1-9.9-2.3-10.9-7.3l-1.2-5.9c-1-5,2.3-9.9,7.3-10.9l1.1-0.2c5-1,9.9,2.3,10.9,7.3
					l1.2,5.9C444.3,221.9,441.1,226.9,436.1,227.9z"/>
				<g>
					<path class="st8" d="M427.3,206.7c-0.8-1.4-1.9-12.3,1.1-21c1.5-4.2,3.8-6.6,6.7-8.2c1.1-0.6,2.3-0.9,3.5-0.9l3,0
						c-9.8,4.1-12,26.2-11.3,28.6c0-0.1-0.1-0.1-0.1-0.2L427.3,206.7z"/>
				</g>
				<g>
					<path class="st8" d="M455.8,229.7c-16.4,0-24.5-13-24.6-13.1l1.5-0.9l-0.7,0.4l0.7-0.4c0.1,0.1,7.7,12.3,23.1,12.3
						c0.1,0,0.2,0,0.3,0l0,1.7C456,229.7,455.9,229.7,455.8,229.7z"/>
				</g>
				<path class="st11" d="M433.4,222.1l-0.6,0.1c-2.5,0.5-4.9-1.1-5.5-3.6l-0.6-2.9c-0.5-2.5,1.1-4.9,3.6-5.5l0.6-0.1
					c2.5-0.5,4.9,1.1,5.5,3.6l0.6,2.9C437.6,219.2,435.9,221.6,433.4,222.1z"/>
				<path class="st8" d="M457.8,230.3h-1.5c-0.8,0-1.4-0.6-1.4-1.4l0,0c0-0.8,0.6-1.4,1.4-1.4h1.5c0.8,0,1.4,0.6,1.4,1.4l0,0
					C459.3,229.6,458.6,230.3,457.8,230.3z"/>
			</g>
		</g>
		<g>
			<path class="st14" d="M129.8,204.6c0,0-13.8,7-3.7,22.1c0,0-11.8,1.4-14.8-2c0,0,0.4,1.5,1,2.2c0,0-11.4-1.5-15.6-5.8
				c-4.1-4.3,8.7-62.1,39.2-50.2c0,0,27.1,2.5,19.4,33c-7.7,30.6,2.4,32.3,2.4,32.3s-3,0.9-4.4,0.7c0,0-1.9-1.1-2.1-2.3
				c0,0,0.1,1.8,0.5,2.4c0,0-11.1-0.8-15.8-5.8C131.2,226.1,127.2,210.8,129.8,204.6z"/>
			<path class="st4" d="M149.5,219.7l-1.1,0.2c-4.9,0.7-9.5-2.8-10.2-7.7l-0.8-5.8c-0.7-4.9,2.8-9.5,7.7-10.2l1.1-0.2
				c4.9-0.7,9.5,2.8,10.2,7.7l0.8,5.8C157.8,214.5,154.4,219,149.5,219.7z"/>
			<path class="st12" d="M152.6,265.9c-4.1,3.2-6.7,14.6-13.3,16.5c-24.8,7.1-38.1-22.4-42.5-36.8c3.3-2.1,6.5-2.7,8.4-3
				c1.8-0.3,3.7-0.5,5.3-0.7c2.7-2.3,6.5-11.4,6.7-25.1l1.2,0.3l20.1,4.4c0,0-0.6,6.3-0.7,12.3c-0.1,4.7-0.3,5.8,0.1,6.3
				c1.6,0.3,3.4,4.2,3.4,4.2s0,0,0,0C141.5,244.7,147.7,253.9,152.6,265.9z"/>
			<path class="st13" d="M138.4,221.4c0,0-0.6,6.3-0.7,12.3c-11.3-0.6-17-11-19.3-16.7L138.4,221.4z"/>
			<g>
				<path class="st9" d="M240.4,325.4c0,0-11.8,0.4-24.6,0.5c-1.5,0-3,0-4.6,0c-10.4,0-20.7-0.4-25-1.5
					c-4.3-1.1-20.7-12.2-33.8-25.7c0,0,0,0,0,0c-1,2.4-1.8,4.3-1.8,4.4c-0.4,3-1,6.1-1.8,9c-3,11.1-7.9,20.4-8.1,20.7l-7,0
					l-54.9-0.1c0,0,10.4-16,7.6-56.8c-0.1-1,9.6-34,9.6-34s7.5-1.3,16.1-2c0.8,0.7,2.5,22.4,13.3,23.7c1.8,0.2,13,17.4,13,17.4
					l3.4-17.6l-4-23.3c5.2,1.5,8,2.1,12.3,3.8c2.9,1.2,5.4,3.3,6.9,6.1c7.6,13.8,32.1,58.3,34.6,59.3c2.3,1,11.2,2.7,20.5,4.4h0
					c12.5,2.3,25.9,4.4,25.9,4.4L240.4,325.4z"/>
				<path class="st9" d="M144.6,332.8l-3.9,0c0,0,0,0,0,0L144.6,332.8z"/>
			</g>
			<path class="st12" d="M141.8,227.4c0,0-26.7-0.5-26.1-17.1c0.6-16.6-2.5-27.9,14.6-28.2s20.1,6.1,21.3,11.7
				C152.7,199.3,148.7,227.1,141.8,227.4z"/>
			<path class="st4" d="M215.8,325.9c-1.5,0-3,0-4.6,0c-10.4,0-20.7-0.4-25-1.5c-4.3-1.1-20.7-12.2-33.8-25.7c0,0,0,0,0,0
				s2.8-10.6,4-12.4c1.2-1.8,5.9,15.5,16.9,22.5c11,7,28.2,11.9,36.6,9.9C215.5,317.4,216.1,322.5,215.8,325.9z"/>
			<path class="st1" d="M136.5,218.2c0,0,0.2,2,4.5,2.3c0,0,3.7,0.3,3.8-1.9C144.9,218.6,141.5,216.6,136.5,218.2z"/>
			<g>
				<path class="st8" d="M138,224.9c-15.2-4.8-18.9-19.1-18.9-19.3l1.6-0.4l-0.8,0.2l0.8-0.2c0,0.1,3.6,13.6,17.8,18.1
					c0.1,0,0.2,0.1,0.3,0.1l-0.5,1.6C138.2,225,138.1,224.9,138,224.9z"/>
			</g>
			<path class="st4" d="M139.7,226l-1.4-0.5c-0.7-0.2-1.1-1-0.9-1.7l0,0c0.2-0.7,1-1.1,1.7-0.9l1.4,0.5c0.7,0.2,1.1,1,0.9,1.7l0,0
				C141.2,225.9,140.4,226.3,139.7,226z"/>
			<path class="st14" d="M143.3,179.9c0,0-6.8,20.2-17.1,23.7c-10.2,3.4-13.6-0.6-13.6-0.6s7.5-6.9,8.4-18.2
				C121,184.8,137.5,171.6,143.3,179.9z"/>
			<path class="st14" d="M130.5,185.8c0,0,13.9-0.8,18.1,3.2c3,2.9,2.9,4.3,3.2,8.2c0,0,6.1-9.4-0.2-15.9
				C144.9,174.3,130.5,185.8,130.5,185.8z"/>
			<path class="st14" d="M142.7,182c0,0-3.5,19.4-16.2,26.4c0,0,12.3-12.6,12.6-25.2C139.2,170.5,142.7,182,142.7,182z"/>
			<path class="st14" d="M96.7,221.1c4.1,4.3,15.5,5.8,15.5,5.8c-0.5-0.7-1-2.2-1-2.2c5.9,4.8,20.3,1.3,20.3,1.3
				c-11.5-2.5-7.8-19.2-3.9-19.9c2.3-12.5,6.8-28.2,8.9-35.2c-0.5-0.1-0.8-0.1-0.8-0.1C105.4,159,92.6,216.8,96.7,221.1z"/>
			<g>
				<path class="st4" d="M121.8,218l-1.1,0.2c-4.9,0.7-9.5-2.8-10.2-7.7l-0.8-5.8c-0.7-4.9,2.8-9.5,7.7-10.2l1.1-0.2
					c4.9-0.7,9.5,2.8,10.2,7.7l0.8,5.8C130.1,212.8,126.7,217.3,121.8,218z"/>
				<g>
					<path class="st4" d="M114.6,197c-0.7-1.2,1.6-10.8,5-18.2c1.6-3.6,5.7-8.4,8.7-9.6c1.1-0.4,2.5-0.3,3.6,0
						c0.8,0.2,3.2,1.3,3.2,1.3c-9.7,3-18.1,23.3-17.4,25.4c0-0.1,0-0.1-0.1-0.1L114.6,197z"/>
				</g>
				<path class="st10" d="M119.6,212.3l-0.5,0.1c-2.4,0.3-4.7-1.4-5.1-3.8l-0.4-2.9c-0.3-2.4,1.4-4.7,3.8-5.1l0.5-0.1
					c2.4-0.3,4.7,1.4,5.1,3.8l0.4,2.9C123.7,209.7,122,212,119.6,212.3z"/>
			</g>
			<path class="st12" d="M184.3,315.8c0,0,11.4-0.7,12.6-0.1c1.8,1,7.9,4.9,8.9,6.1s3.5,5.8,3.5,5.8s-1.1,0.3-1.6-0.1
				c-0.5-0.4-4.2-4.4-4.2-4.4l3.8,5.8c0,0-1.3-0.1-1.9-0.6c-0.5-0.6-4.1-4.2-4.1-4.2l-1.2-0.2c0,0,1.2,1,1.9,1.9
				c0.7,0.9,1.1,1.9,1.1,1.9s-1.1-0.2-1.4-0.3c-0.3-0.2-3.6-3-3.6-3l1.7,2.3c0,0-1.1-0.1-1.5-0.3c-0.4-0.3-2.9-2.6-3.3-2.6
				c-0.4,0-3.6-0.1-5-0.9c-1.4-0.7-5.7-2.4-5.7-2.4L184.3,315.8z"/>
			<path class="st4" d="M113.7,236.7c0,0-7.6,2.2-9.4,4c0,0,8,20.4,19.5,30l3.1-2.2v5l11.5,7.6C138.4,281,113.1,242.9,113.7,236.7z"
				/>
			<path class="st4" d="M148.8,312.1c-3,11.1-7.9,20.4-8.1,20.7l3.9,0l-3.9,0h-36.4c0,0,4.2,0,4.2,0c-0.1-0.4,6.2-17.3-4.2-24.3
				c-10.4-7-14.2-24.1-14.2-24.1l33.1-8.1c0,0,13.6,19.9,17.5,23.7c3,2.9,9.9,3.1,9.9,3.1L148.8,312.1z"/>
			<path class="st4" d="M137.8,240c0,0,3.5,27.8,0.6,40.9c0,0,4.7-8.7,5.4-10.3l-0.8-4.8l3,1.1c0,0-2.7-22.2-5.1-26.1
				c-2.4-3.9-3.3-4.3-3.3-4.3L137.8,240z"/>
			<path class="st12" d="M240.4,325.4c0,0-14.8,0.5-29.2,0.5c-3.6-5.6,0.8-12.2,0.8-12.2h0c12.5,2.3,25.9,4.4,25.9,4.4L240.4,325.4z
				"/>
			<path class="st19" d="M241.8,332.8h-54.5l0,0c0-2.4,1.9-4.3,4.3-4.3h50.2V332.8z"/>
			<polygon class="st4" points="326,273.4 305.8,332.8 220.9,332.8 241.7,273.4 			"/>
			<polygon class="st4" points="326,273.4 306,332.3 305.8,332.8 222.2,332.8 242.9,273.4 			"/>
			<path class="st20" d="M281.8,302.6c-0.5,2.3-2.8,4.1-5.1,4.1c-2.3,0-3.7-1.8-3.2-4.1c0.5-2.3,2.8-4.1,5.1-4.1
				C280.9,298.5,282.3,300.3,281.8,302.6z"/>
			<polygon class="st19" points="326,273.4 306,332.3 267.5,332.3 314.4,273.4 			"/>
			<path class="st12" d="M184.3,320.4c0,0-28.1,2.5-43.6,1.8V307c10.2,2.8,43.6,8.9,43.6,8.9L184.3,320.4z"/>
			<path class="st9" d="M104.3,240.7c0,0-16.1,0.4-21,5.7c-5,5.4,4.9,35.7,4.9,35.7s29.9,36.7,44.9,39.2c0,0,6.5,0.9,9.6,0.9
				c0,0-3-8.7,2.6-14.2c0,0-6.4-1.8-6.7-2.6C138.3,304.7,104.3,240.7,104.3,240.7z"/>
		</g>
		<g>
			<g>
				<path class="st11" d="M775.3,171.6c0,0-16.3-6.1-26.4,5.8c-5.8,6.8-43.1,77.8-42.6,84c0.4,6.2,4,9.3,4,9.3s-1.6-5.4-0.4-8.3
					c0,0-0.7,9.6,5.2,13.7c3.1,2.1,79.8-2,86.4-11.3c14.5-20.2-17.2-30.6-16.4-52.5C785.5,199.7,797.9,172.8,775.3,171.6z"/>
				<path class="st4" d="M790.8,216.8l-1.1,0.2c-4.9,1-9.6-2.2-10.6-7l-1.2-5.7c-1-4.9,2.2-9.6,7-10.6l1.1-0.2c4.9-1,9.6,2.2,10.6,7
					l1.2,5.7C798.8,211.1,795.6,215.8,790.8,216.8z"/>
				<path class="st4" d="M860.4,332.7h-50.9c-8.6-13.7-16.2-32.2-18-46.6c-0.8-6.8-0.4-12.7,1.9-16.8c7.1-12.6-4.2-27.3-4.2-27.3
					s15.5,4.4,19.1,17.2c3.7,13,13.5,56.4,13.5,56.4l37.8,7.8C861.5,327.8,860.4,332.7,860.4,332.7z"/>
				<path class="st10" d="M860.4,332.7h-50.9c-8.6-13.7-16.2-32.2-18-46.6l7.5-2.3c0,0,9.5,43.6,15.1,44.3
					C819.7,328.7,860.4,332.7,860.4,332.7z"/>
				<path class="st12" d="M796.8,262.7c-3.9,3.4-8.9,6.4-15.4,8.7c-24.3,8.6-36.3-11.4-41.5-25.5c3.2-2.3,6.3-3.1,8.2-3.6
					c1.8-0.4,3.7-0.8,5.2-1c2.6-2.5,5.7-11.7,5.1-25.5l1.2,0.2l20.3,3.2c0,0-0.2,6.4,0,12.3c0.2,4.7,0.6,9.1,1.6,10.1
					c1.6,0.2,2.5,0.3,2.5,0.3s0,0,0,0C784.4,242.3,791.1,251,796.8,262.7z"/>
				<path class="st13" d="M779.9,219.2c0,0-0.2,6.4,0,12.3c-11.3,0.1-17.7-9.9-20.3-15.5L779.9,219.2z"/>
				<path class="st4" d="M806.4,283.8c-0.1,0.4-5.5,18.1-5.5,18.5c-1.9,14.8-5.3,30.5-5.3,30.5l-7.5,0l-49.2-0.1
					c0,0,5.9-17.9-9.7-45.3c-0.5-0.9-1-1.8-1.6-2.7c-2.2-3.7,11.8-42.8,11.8-42.8s6.2-1.1,14.8-1.8c0.8,0.7,6.8,22.7,17.7,23.4
					c14.2,0.9,8.8-23.6,8.8-23.6c5.8,1.2,7.9,1.6,15.3,5.1C796,245,806.7,281.4,806.4,283.8z"/>
				<path class="st12" d="M783.6,225c0,0-26.7,1.1-27.1-15.5c-0.4-16.6-4.2-27.7,12.8-29.1c17-1.4,20.5,4.8,22,10.3
					C792.8,196.3,790.5,224.3,783.6,225z"/>
				<path class="st1" d="M777.8,216.1c0,0,0.3,2,4.7,2c0,0,3.7,0,3.7-2.1C786.1,216,782.7,214.2,777.8,216.1z"/>
				<g>
					<path class="st8" d="M779.6,222.7c-15.4-3.8-20-17.9-20.1-18.1l1.6-0.5l-0.8,0.2l0.8-0.3c0,0.1,4.4,13.3,18.9,17
						c0.1,0,0.2,0,0.3,0.1l-0.4,1.6C779.8,222.7,779.7,222.7,779.6,222.7z"/>
				</g>
				<path class="st21" d="M781.4,223.7l-1.5-0.4c-0.7-0.2-1.2-0.9-1-1.7l0,0c0.2-0.7,0.9-1.2,1.7-1l1.5,0.4c0.7,0.2,1.2,0.9,1,1.7
					l0,0C782.9,223.4,782.1,223.9,781.4,223.7z"/>
				<path class="st11" d="M768.5,170.1c0,0,17.2-2.7,24.3,11.6c5.4,10.9,0.9,17.7-1.2,19.8c0,0-2.8-15.6-8.1-17c0,0-3.4-1-5.7,1.6
					c-2.3,2.7-5.6,14.6-9.5,16.5c0,0-11.9,2.9-12.5-1.2c-0.6-4.2-0.3-17.1,2.7-19.2C761.5,180.1,768.5,170.1,768.5,170.1z"/>
				<g>
					<path class="st4" d="M763,216.8l-1.1,0.2c-4.9,1-9.6-2.2-10.6-7l-1.2-5.7c-1-4.9,2.2-9.6,7-10.6l1.1-0.2c4.9-1,9.6,2.2,10.6,7
						l1.2,5.7C771.1,211.1,767.9,215.8,763,216.8z"/>
					<g>
						<path class="st4" d="M754.6,196.3c-0.7-1.2-1.8-10.7,1.1-18.3c1.4-3.7,3.7-5.8,6.5-7.2c1-0.5,2.2-0.8,3.4-0.8l2.9,0
							c-9.5,3.6-11.7,22.9-10.9,24.9c0-0.1-0.1-0.1-0.1-0.1L754.6,196.3z"/>
					</g>
					<path class="st10" d="M760.5,211.2l-0.5,0.1c-2.4,0.5-4.8-1.1-5.3-3.5l-0.6-2.8c-0.5-2.4,1.1-4.8,3.5-5.3l0.5-0.1
						c2.4-0.5,4.8,1.1,5.3,3.5l0.6,2.8C764.5,208.4,762.9,210.7,760.5,211.2z"/>
				</g>
				<path class="st10" d="M739,332.7c0,0,5.9-17.9-9.7-45.3l5.8-7.3c0,0,10.3,29.2,23.2,37.8c12.9,8.5,28,6.7,29.8,15L739,332.7z"/>
				<path class="st4" d="M739.5,241.9c0,0-10.6,0.9-17.7,13.5c-7.1,12.6-20.6,59.5-20.6,77.4H758c0,0,1.1-4.9-0.7-9.3l-35.1-6.8
					c0,0,21.2-31.4,21.4-45C743.8,258.1,739.5,241.9,739.5,241.9z"/>
				<path class="st12" d="M758.3,327c0,0,11.1-1.1,12.9-0.6c1.8,0.5,7.1,2.7,8.2,3.4c1.2,0.7,3.4,2.9,3.4,2.9s-1.4,0.3-2.2,0.1
					c-0.8-0.2-3.3-0.4-4-0.4c-0.7-0.1-3.1,0.4-3.1,0.4h-17.2L758.3,327z"/>
			</g>
			<g>
				<path class="st11" d="M858.5,332.8H804l0,0c0-2.4,1.9-4.3,4.3-4.3h50.2V332.8z"/>
				<polygon class="st19" points="942.7,273.4 922.5,332.8 837.6,332.8 858.4,273.4 				"/>
				<polygon class="st19" points="942.7,273.4 922.6,332.3 922.5,332.8 838.8,332.8 859.6,273.4 				"/>
				<path class="st22" d="M898.5,302.6c-0.5,2.3-2.8,4.1-5.1,4.1c-2.3,0-3.7-1.8-3.2-4.1c0.5-2.3,2.8-4.1,5.1-4.1
					C897.6,298.5,899,300.3,898.5,302.6z"/>
				<polygon class="st11" points="942.7,273.4 922.6,332.3 884.2,332.3 931.1,273.4 				"/>
			</g>
		</g>
	</g>
</g>
</svg>
