<?xml version="1.0" encoding="utf-8"?>
<!-- Generator: Adobe Illustrator 25.2.0, SVG Export Plug-In . SVG Version: 6.00 Build 0)  -->
<svg version="1.1" id="Layer_1" xmlns="http://www.w3.org/2000/svg" xmlns:xlink="http://www.w3.org/1999/xlink" x="0px" y="0px"
	 viewBox="0 0 1525.2 442.1" style="enable-background:new 0 0 1525.2 442.1;" xml:space="preserve">
<style type="text/css">
	.st0{fill:url(#SVGID_1_);}
	.st1{fill:url(#SVGID_2_);}
	.st2{fill:url(#SVGID_3_);}
	.st3{fill:url(#SVGID_4_);}
	.st4{fill:url(#SVGID_5_);}
	.st5{fill:url(#SVGID_6_);}
	.st6{fill:url(#SVGID_7_);}
	.st7{fill:url(#SVGID_8_);}
	.st8{fill:#DFEBFD;}
	.st9{fill:url(#SVGID_9_);}
	.st10{fill:#F5C99D;}
	.st11{fill:#45391D;}
	.st12{fill:#D8A982;}
	.st13{fill:#002822;}
	.st14{fill:#01483F;}
	.st15{fill:#FD9C28;}
	.st16{fill:#E65924;}
	.st17{fill:#FFFFFF;}
	.st18{fill:url(#SVGID_10_);}
	.st19{fill:url(#SVGID_11_);}
	.st20{fill:url(#SVGID_12_);}
	.st21{fill:#C9FCE9;}
	.st22{fill:#EAF7F9;}
	.st23{fill:#FFB27D;}
	.st24{fill:#4AC195;}
	.st25{fill:#067254;}
	.st26{fill:#070707;}
	.st27{fill:#847D3D;}
	.st28{fill:#679B40;}
	.st29{fill:#97C157;}
	.st30{fill:#233862;}
	.st31{fill:#BDA24D;}
</style>
<g>
	<g>
		<linearGradient id="SVGID_1_" gradientUnits="userSpaceOnUse" x1="1070.4337" y1="125.0718" x2="1160.0959" y2="125.0718">
			<stop  offset="0" style="stop-color:#CBCE55"/>
			<stop  offset="1" style="stop-color:#217B4F"/>
		</linearGradient>
		<path class="st0" d="M1070.4,165.5c0,0,60.1-91.8,85.8-79.7C1182,97.7,1070.4,165.5,1070.4,165.5z"/>
		<linearGradient id="SVGID_2_" gradientUnits="userSpaceOnUse" x1="1068.1681" y1="142.6654" x2="1251.6128" y2="142.6654">
			<stop  offset="0" style="stop-color:#CBCE55"/>
			<stop  offset="1" style="stop-color:#217B4F"/>
		</linearGradient>
		<path class="st1" d="M1068.2,181c0,0,128.8-98.2,170.9-72.2c42.1,26.1-32.5,39.1-60.6,41.7S1068.2,181,1068.2,181z"/>
		<linearGradient id="SVGID_3_" gradientUnits="userSpaceOnUse" x1="1054.1317" y1="134.1203" x2="1079.6672" y2="134.1203">
			<stop  offset="0" style="stop-color:#CBCE55"/>
			<stop  offset="1" style="stop-color:#217B4F"/>
		</linearGradient>
		<path class="st2" d="M1058.4,166.6c0,0-0.2-3.8-0.5-9.3c-0.6-10.8-1.8-28.2-3.4-37c-2.4-13.4,6-25.2,20.8-14.5
			c14.8,10.7-13.3,56.1-13.3,56.1L1058.4,166.6z"/>
	</g>
	<linearGradient id="SVGID_4_" gradientUnits="userSpaceOnUse" x1="511.7804" y1="398.0693" x2="626.7396" y2="398.0693">
		<stop  offset="0" style="stop-color:#CBCE55"/>
		<stop  offset="1" style="stop-color:#217B4F"/>
	</linearGradient>
	<path class="st3" d="M624.1,439.8l-58.7-0.2c-1.9-0.3-3.7-0.3-5.5,0l-32.2-0.1c-11.5-8.5-13.2-34.4-13.2-34.4
		c9.6,6.8,30.8,7.2,32.8,3.8c2-3.5-26.7-12.4-30.7-15c-4.1-2.6-8.9-14,1.7-30.2S557,363,557,363s10.2,37.7,15.8,40.4
		c5.7,2.7-2.4-34-2.4-34c11.8,2.6,36.5,26.3,36.5,26.3s-13.7,35.7-7.6,36.9c6.2,1.2,10.5-32.2,10.5-32.2c10,7,16.1,23.3,16.1,23.3
		C627.6,430.2,626.5,435.5,624.1,439.8z"/>
	<linearGradient id="SVGID_5_" gradientUnits="userSpaceOnUse" x1="336.9085" y1="123.707" x2="514.5734" y2="123.707">
		<stop  offset="0" style="stop-color:#CBCE55"/>
		<stop  offset="1" style="stop-color:#217B4F"/>
	</linearGradient>
	<path class="st4" d="M345.1,35.4c14.7-25.3,58.5-4.4,58.5-4.4s18.4,56.2,27.2,59.8c8.8,3.6-6.4-51.1-6.4-51.1
		c18.1,3,57.2,36.7,57.2,36.7s-17.8,55-8.4,56.3c9.4,1.3,13.3-49.5,13.3-49.5c15.7,9.7,26.3,33.9,26.3,33.9
		c11.2,37.8-37.9,50.2-37.9,50.2s-5.8,19.2,0.2,44.6l0,0c0,0,1.6,4.8,2.5,12.5l-4.7-1.3c0-1.3-0.1-2.7-0.3-4c0,0,0,0,0,0
		c0,0,0,0,0-0.1c-0.1-0.8-0.3-2-0.5-3.4c0,0,0,0,0,0c0,0,0,0,0,0c-0.7-3.2-1.1-5.5-1.3-7.1c0,0,0,0,0,0c-1.9-9.9-5-22.9-8.4-26.4
		c0,0,0.7-0.6,1.6-1.9c-0.5,0.6-1,1.2-1.6,1.9c-12.6,14.9-53.1,7.1-74.1-3.5c-21-10.5-9.6-14.2,5.1-21.1c14.7-6.9,39,2.5,47.5,0.5
		c8.5-2-1.3-8.9-16.4-11.7c-15.1-2.8-26.5,10-51,5.8s-30.6-54-30.6-54c15.1,9.6,47.2,8.4,49.8,3c2.7-5.4-41.3-16.6-47.7-20.1
		C338.7,77.6,330.4,60.8,345.1,35.4z"/>
	<linearGradient id="SVGID_6_" gradientUnits="userSpaceOnUse" x1="672.9835" y1="258.9688" x2="842.5395" y2="258.9688">
		<stop  offset="0" style="stop-color:#CBCE55"/>
		<stop  offset="1" style="stop-color:#217B4F"/>
	</linearGradient>
	<path class="st5" d="M684,163.9c17.1-23.6,58.4,1.5,58.4,1.5s12.6,57.5,21,61.9c8.3,4.4-1.2-51.2-1.2-51.2
		c17.6,4.8,53,42.1,53,42.1s-23.1,52.6-14,54.9c9.2,2.2,18.1-47.6,18.1-47.6c14.6,11.2,22.6,36.2,22.6,36.2
		c7.3,38.5-42.5,45.9-42.5,45.9s-7.6,18.4-4.2,44.1l0,0c0,0,1.1,4.9,1.2,12.6l-4.5-1.7c0.1-1.3,0.1-2.7,0.1-3.9c0,0,0,0,0,0
		c0,0,0,0,0-0.1c0-0.8-0.1-2-0.2-3.4c0,0,0,0,0,0c0,0,0,0,0,0c-0.4-3.2-0.5-5.5-0.6-7.2c0,0,0,0,0,0c-0.9-10-2.6-23.2-5.7-27
		c0,0,0.8-0.5,1.7-1.7c-0.6,0.5-1.1,1.1-1.7,1.7c-13.9,13.5-53.3,1.7-73-10.8c-19.7-12.5-8.1-15,7.1-20.4
		c15.2-5.4,38.3,6.3,46.9,5.2c8.6-1.1-0.4-8.9-15-13.2c-14.7-4.3-27.2,7.2-51,0.7c-23.8-6.6-24.9-56.5-24.9-56.5c14,11,45.8,13,49,8
		c3.2-5.1-39.2-20.5-45.1-24.7C673.4,205,666.9,187.5,684,163.9z"/>
	<g>
		<linearGradient id="SVGID_7_" gradientUnits="userSpaceOnUse" x1="769.4394" y1="425.2754" x2="798.0611" y2="425.2754">
			<stop  offset="0" style="stop-color:#CBCE55"/>
			<stop  offset="1" style="stop-color:#217B4F"/>
		</linearGradient>
		<path class="st6" d="M798.1,410.2c0,0-6.2,21.8-5,30.2l-23.5-0.1c-0.5-4.8,0.7-10,4.6-15.3C774.2,425.1,786.2,412.6,798.1,410.2z"
			/>
		<linearGradient id="SVGID_8_" gradientUnits="userSpaceOnUse" x1="798.0972" y1="418.6986" x2="896.7175" y2="418.6986">
			<stop  offset="0" style="stop-color:#CBCE55"/>
			<stop  offset="1" style="stop-color:#217B4F"/>
		</linearGradient>
		<path class="st7" d="M887.2,440.6l-89.1-0.2c3.5-9,4.5-33.3,4.5-33.3s31.7-11.8,43.6-9.6c0,0-21.8,30.2-15.6,30
			c6.2-0.2,30.4-30.6,30.4-30.6s31.7-2.9,35,16C899,429.9,892.1,438.5,887.2,440.6z"/>
	</g>
	<path class="st8" d="M1074.4,441.1l-84.4-0.2c5.5-2.3,12.6-4.5,20.3-7.2C1029.5,427.2,1055.6,436.2,1074.4,441.1z"/>
	<linearGradient id="SVGID_9_" gradientUnits="userSpaceOnUse" x1="923.5331" y1="355.1152" x2="1130.8439" y2="355.1152">
		<stop  offset="0" style="stop-color:#CBCE55"/>
		<stop  offset="1" style="stop-color:#217B4F"/>
	</linearGradient>
	<path class="st9" d="M1117.2,441.5l-76.4-0.2c1.6-3.4-8.1-10.3-22.3-14.6c-18-5.5-33.5,8.5-62.7,0.1c-29.2-8.4-29.8-69.8-29.8-69.8
		c17.1,13.7,56.1,16.7,60.1,10.5c4-6.2-47.9-25.8-55.1-31c-7.2-5.2-15-26.8,6.4-55.5c21.4-28.7,71.7,2.7,71.7,2.7
		s14.7,70.8,24.9,76.4c10.2,5.6-0.7-63-0.7-63c21.6,6.2,64.5,52.5,64.5,52.5s-29.2,64.4-18,67.2c11.3,2.9,23-58.3,23-58.3
		c17.7,14,27.2,44.8,27.2,44.8C1133.2,420.8,1126.7,433.1,1117.2,441.5z"/>
	<g>
		<g>
			<g>
				<g>
					<path class="st10" d="M397,244.4c0-0.2-2.3-5-1.6-5.3c0.7-0.4,2.1-0.3,2.2,0.5C397.8,240.4,397,244.4,397,244.4z"/>
					<path class="st11" d="M362.2,184.5c0,0-13.7-16.4-20.9-5.9c0,0-5.4,2.2-7.3,11.4c-2,9.4,4.2,16.5,7.5,14.7
						c2.1-1.1,3.6,2.5,3.6,2.5L362.2,184.5z"/>
					<path class="st10" d="M379.1,271.8c10.9-4,21.3-22.6,21.3-22.6l-3.4-2.4c-2.9,4.2-15.7,12.2-15.7,12.2
						c-0.3-3.5-0.7-6.7-1.2-9.6c-3.6-19.6-11.7-25.5-13.9-26.7c-0.4-0.2-0.6-0.3-0.6-0.3s0,0.1,0,0.4c0,0.6,0.1,1.8,0.2,3.4
						C366.7,238.5,370.1,275.2,379.1,271.8z"/>
					<path class="st11" d="M342.8,176.9c0,0-1.8-7.3-12.6-5.1c0,0,5.2-0.7,6.6,1.3c0,0-4.1-1.9-6.7-0.3c-2.6,1.6-3,6.8-2.6,8.5
						s3.2,6.4,5.1,6.4c1.9,0,4.1-1.6,4.1-1.6L342.8,176.9z"/>
					<path class="st10" d="M326.7,291.9c5.4-12,7.9-15.4,8-19.2c0.1-3-1.4-6.2-4.3-14.1c-0.7-1.9-1.1-3.8-1.4-5.7
						c-2.3-15.3,6.6-31.8,12-32.9c1.5-0.4,4.1-5.9,4.1-14.8l0.7,0.1l11.6,2.3c0,0-0.3,3.6-0.3,7.1c0,2.9,0.2,5.6,0.8,5.9
						c0.8,0.1,1.3,0.1,1.3,0.1s9.6,13.4,10.4,25.8c0.8,12.4-7.7,17.9,0.1,42.7C377.7,314.6,323.7,298.6,326.7,291.9z"/>
					<path class="st12" d="M357.4,207.5c0,0-0.3,3.6-0.3,7.1c-6.5-0.2-9.9-6.1-11.3-9.4L357.4,207.5z"/>
					<path class="st11" d="M344.6,204c0,0-3.4-5.4-4.2-9.9c-0.6-3.3,1.1-15.4,13.3-13.6c0,0,3.5,0.3,6.9,2.6
						c2.6,1.8,6.5,5.6,2.2,16.2l-1.1,3.6L344.6,204z"/>
					<path class="st10" d="M359.5,210.8c0,0-15.3,0.3-15.3-9.3c0-9.5-2-15.9,7.8-16.5c9.8-0.6,11.7,3.1,12.4,6.2
						C365.2,194.5,363.5,210.5,359.5,210.8z"/>
					<path class="st11" d="M359,184.8c0,0-4.2,11.2-10.6,12.8c-6.4,1.7-9.2-0.1-9.2-0.1s4.9-3.9,6-10.8
						C345.1,186.8,355.8,179.5,359,184.8z"/>
					<path class="st11" d="M357.9,185.7c0,0,3.1,2.5,3.9,4.9c0.8,2.4,1.1,7.4,2.6,7.3c0,0,3.2-7.6-0.4-11.9
						C360.2,181.4,357.9,185.7,357.9,185.7z"/>
					<path class="st13" d="M340.2,407.4c3.8,15.3,9.6,27,9.6,27l5-0.3c0,0-2.5-11.8-2.3-27.7c0.1-11.1,1.5-24.3,5.9-36.8
						c15.1-43.1,12.7-74.5,12.7-74.5l-28.4,3.3l-1.3,0.2c-0.1,13-0.5,30.7-0.7,44.6c-0.3,12.4-0.5,21.8-0.5,21.8
						C334.7,376.7,336.7,393.3,340.2,407.4z"/>
					<path class="st10" d="M306.8,304.7l4.6,1.4c0,0,15.2-25.1,16.5-31.7c0.4-2.1,1.6-6.4,2.8-11.2c2.7-9.9,6.1-22,6.1-22l1.1-4.9
						l3.9-16.7c0,0-7.4,0.8-11.7,2.6c-1.4,0.6-2.5,1.3-2.9,2.1c-3.2,7-6.3,24.6-8.6,37.1c-1.2,7-2.2,12.4-2.7,13.6
						C314.6,278.3,310.4,296,306.8,304.7z"/>
					<path class="st14" d="M323.9,404.9c1.6,17.4,8.8,28.7,8.8,28.7l2.4,1.8c0,0,2.3-12.3,3.9-26.9c1.5-13.9,3.6-28.6,6-33
						c9.5-17.8,12.3-84.9,12.3-84.9l-28.8-1.4c-2.9,4.9-4.2,12.8-4.5,21.9c-0.8,22.9,4.6,52.8,5.4,57.1c0,0,0,0,0,0
						c0.1,0.3,0,0.7-0.2,1C323.7,380.4,322.8,393.4,323.9,404.9z"/>
					<path class="st11" d="M358.5,186.1c0,0-3,11.7-11.1,15.5c0,0,8.1-7.2,8.8-14.9C356.9,178.9,358.5,186.1,358.5,186.1z"/>
					<path class="st15" d="M323.1,300.6c0,1,0,1.7,0.2,2.3c0.6,1.9,2.7,2.8,7.8,2.3c3.1-0.3,4.5-5.5,5.1-10
						c1.9,6.4,4.5,9.9,7.9,10.7c4.9,1.1,29.8,4.1,31.4-7.7c1.8-13-3.6-36-3.9-48.4c0.7-4.4,1-8.2,0.9-11.5
						c-0.2-8.8-2.8-13.8-4.8-15.8c-0.6-0.4-1.1-0.7-3.4-1.1c-1.2-0.2-2.8-0.4-5-0.7c0,0-0.9-0.1-0.9-0.1c0.4,0.8,6.1,9.3,5.6,11.5
						c-0.5,2.3-20.4,0.2-21.8-1c-1.4-1.3-3.6-10.9-3.6-10.9s-7.1,0.8-10.5,3.3c0,0,0,0,0,0c-0.4,0.3-0.7,0.6-0.9,1
						c-3.7,7-7.4,24.8-10,37.4c6.3,3.5,11.8,2.4,13.5,2C328.4,278.3,323.4,294,323.1,300.6z"/>
					<path class="st10" d="M397,246.9c0-0.5-0.4-7.3,0.8-8.7c1.2-1.4,3.7-3.5,4.5-3.4c0.8,0.1,3.8,4.1,2.9,7.2
						c-0.9,3.1-4.8,7.3-4.8,7.3L397,246.9z"/>
					<g>
						<path class="st15" d="M391.6,238.5l6.9,2.1c0.3,0.1,0.6-0.1,0.7-0.4l4-13.3c0.1-0.3-0.1-0.6-0.4-0.7l-6.9-2.1
							c-0.3-0.1-0.6,0.1-0.7,0.4l-4,13.3C391.1,238.1,391.3,238.5,391.6,238.5z"/>
						<path class="st16" d="M393.3,239.1l6.4,1.9c0.4,0.1,0.9-0.1,1-0.5l3.9-12.8c0.1-0.4-0.1-0.9-0.5-1l-6.4-1.9
							c-0.4-0.1-0.9,0.1-1,0.5l-3.8,12.8C392.7,238.5,392.9,238.9,393.3,239.1z"/>
					</g>
					<path class="st10" d="M323.9,404.9c1.6,17.4,8.8,28.7,8.8,28.7l2.5,2.2c0,0,2.2-12.8,3.9-27.4
						C337.3,408.6,329.8,408.9,323.9,404.9z"/>
					<path class="st12" d="M340.2,407.4c3.8,15.3,9.6,27,9.6,27l5-0.3c0,0-2.5-11.8-2.3-27.7C350.9,407.2,347.3,408.1,340.2,407.4z"
						/>
					<g>
						<path class="st13" d="M346.9,438.6h3.2c1.1-0.2,1.9-0.5,3-0.6c1.7-0.2,2.5,0.5,2.6,0.6c0,0,0,0,0,0h13.7
							c0.3-0.5,0-1.6-0.3-2.5c-0.2-0.6-0.7-1-1.3-1.2c-1.5-0.4-4.3-0.8-6.9-3.2c-1.5-1.3-7.1-4.9-7.1-4.9l0,0
							c-0.1,0-0.7,0.2-3.3,2.4c-1.3,1.1-3.6-1.6-3.6-1.6s-0.4,0.4-0.7,1c-0.3,0.5-0.4,1.2-0.3,2.1c0.2,1.2-0.5,3.5-1,5.1
							c-0.3,0.9-0.6,1.6-0.6,1.6S344.2,438.3,346.9,438.6z"/>
						<path class="st13" d="M346.2,428.7c0.8,0.5,2.4,1.6,3.5,1.7c1.5,0.2,4.2-3.5,4.2-3.5l0,0c-0.1,0-0.7,0.2-3.3,2.4
							c-1.3,1.1-3.6-1.6-3.6-1.6S346.5,428.1,346.2,428.7z"/>
						<path class="st13" d="M346.9,438.6h3.2c1.1-0.2,1.9-0.5,3-0.6c1.7-0.2,2.5,0.5,2.6,0.6c0,0,0,0,0,0h13.7
							c0.3-0.5,0-1.6-0.3-2.5c-0.4-0.4-0.5,1.6-0.8,1.9c-0.2,0.3-11.2,0.1-11.8-0.3c-0.6-0.5-2.5-1.3-5.2-0.6
							c-2.3,0.5-5.7-0.9-6.5-1.2c-0.3,0.9-0.6,1.6-0.6,1.6S344.2,438.3,346.9,438.6z"/>
					</g>
					<g>
						<path class="st13" d="M329.8,438.6h3.2c1.1-0.2,1.9-0.5,3-0.6c1.7-0.2,2.5,0.5,2.6,0.6c0,0,0,0,0,0h13.7
							c0.3-0.5,0-1.6-0.3-2.5c-0.2-0.6-0.7-1-1.3-1.2c-1.5-0.4-4.3-0.8-6.9-3.2c-1.5-1.3-7.1-4.9-7.1-4.9l0,0
							c-0.1,0-0.7,0.2-3.3,2.4c-1.3,1.1-3.6-1.6-3.6-1.6s-0.4,0.4-0.7,1c-0.3,0.5-0.4,1.2-0.3,2.1c0.2,1.2-0.5,3.5-1,5.1
							c-0.3,0.9-0.6,1.6-0.6,1.6S327,438.3,329.8,438.6z"/>
						<path class="st13" d="M329,428.7c0.8,0.5,2.4,1.6,3.5,1.7c1.5,0.2,4.2-3.5,4.2-3.5l0,0c-0.1,0-0.7,0.2-3.3,2.4
							c-1.3,1.1-3.6-1.6-3.6-1.6S329.3,428.1,329,428.7z"/>
						<path class="st13" d="M329.8,438.6h3.2c1.1-0.2,1.9-0.5,3-0.6c1.7-0.2,2.5,0.5,2.6,0.6c0,0,0,0,0,0h13.7
							c0.3-0.5,0-1.6-0.3-2.5c-0.4-0.4-0.5,1.6-0.8,1.9c-0.2,0.3-11.2,0.1-11.8-0.3c-0.6-0.5-2.5-1.3-5.2-0.6
							c-2.3,0.5-5.7-0.9-6.5-1.2c-0.3,0.9-0.6,1.6-0.6,1.6S327,438.3,329.8,438.6z"/>
					</g>
					<path class="st15" d="M366.8,222c0,0,9.5,4.8,12.7,24.2c0,0-3.1,4.3-7.5,5.5c-0.6,0.2-1.3,0.3-2,0.3
						C364.6,252.4,366.8,222,366.8,222z"/>
					<path class="st10" d="M403.1,235.2c0,0-2.9-4.5-3.7-4.3c-1,0.4,2.7,6.1,2.7,6.1s-2.7-4.3-3.2-4c-1,0.7,0.6,3.4,2.1,5.5
						c0,0-2.8-2.5-2.8-2.1c-0.3,1.6,3,5.5,3,5.5l1.9-4.3V235.2z"/>
					<path class="st10" d="M405.3,239.4c-0.1-0.6-0.9-11.4-1.2-10.4c-0.3,1-1,6.7-1,6.7L405.3,239.4z"/>
				</g>
			</g>
			<path class="st17" d="M356.5,205.1c0,0,0.3,1.1,3.1,0.9c0,0,2.3-0.1,2.3-1.4C361.9,204.7,359.6,203.8,356.5,205.1z"/>
		</g>
		<path class="st10" d="M306.8,304.7c0,0-5.5,3.7-6.4,5.2c-0.8,1.6-2.8,7.3-2.8,7.3s1.4,0.2,2.8-2.3c1.4-2.5,6.1-2.3,7.6-3.6
			c1.6-1.3,3.4-5.3,3.4-5.3L306.8,304.7z"/>
		<path class="st10" d="M310.8,307.3c0,0-0.9,4.3-2.1,5.6c-1.1,1.3-2.7,3.4-3.3,2.8c-0.6-0.6,0.7-5.3,0.7-5.3L310.8,307.3z"/>
		<path class="st10" d="M301.2,310.4c-0.1,0.2-5,5.4-5,5.4s1.8,0.8,2.3,0C298.9,315,301.2,310.4,301.2,310.4z"/>
	</g>
	<g>
		<polygon class="st16" points="702.1,55.2 747.3,62.2 717.5,41.3 715.9,47.9 704.9,49.7 		"/>
		<polygon class="st15" points="747.3,62.2 709.9,42.3 673,40 		"/>
		<polygon class="st15" points="717.5,41.3 747.3,62.2 724.4,29.9 		"/>
	</g>
	<g>
		<polygon class="st16" points="1363.2,184.8 1326.2,190.1 1350.8,173.3 1352,178.7 1361,180.3 		"/>
		<polygon class="st15" points="1326.2,190.1 1357,174.2 1387.2,172.7 		"/>
		<polygon class="st15" points="1350.8,173.3 1326.2,190.1 1345.2,163.9 		"/>
	</g>
	<linearGradient id="SVGID_10_" gradientUnits="userSpaceOnUse" x1="437.1393" y1="291.3764" x2="661.8422" y2="291.3764">
		<stop  offset="0" style="stop-color:#214A35"/>
		<stop  offset="1" style="stop-color:#022B1D"/>
	</linearGradient>
	<path class="st18" d="M437.1,143.8h224.7v59H502.1v62.8h140.8v59H502.1v114.2h-64.9V143.8z"/>
	<linearGradient id="SVGID_11_" gradientUnits="userSpaceOnUse" x1="636.5054" y1="294.3293" x2="941.0081" y2="294.3293">
		<stop  offset="0" style="stop-color:#214A35"/>
		<stop  offset="1" style="stop-color:#022B1D"/>
	</linearGradient>
	<path class="st19" d="M759.6,149.7h58.3L941,439h-66.1l-26.3-64.4H727.2L700.9,439h-64.4L759.6,149.7z M826.1,318.7l-38.2-93.2
		l-38.2,93.2H826.1z"/>
	<linearGradient id="SVGID_12_" gradientUnits="userSpaceOnUse" x1="937.8688" y1="291.7095" x2="1247.2958" y2="291.7095">
		<stop  offset="0" style="stop-color:#214A35"/>
		<stop  offset="1" style="stop-color:#022B1D"/>
	</linearGradient>
	<path class="st20" d="M1175.5,413.8c-24.2,15.6-53.3,24.6-85.4,24.6c-88.6,0-152.3-66.1-152.3-148.6c0-81.7,64.4-148.6,153.1-148.6
		c88.6,0,152.3,66.1,152.3,148.6c0,30-9,58.7-25.4,82.5l29.5,25l-40.2,44.7L1175.5,413.8z M1128.7,372.3c0,0,28.7-14.8,40.6-42.3
		c5.2-12,7.8-25,7.8-40.2c0-49.2-36.1-90.3-87-90.3c-50.9,0-86.2,40.2-86.2,90.3c0,49.2,36.1,90.3,87,90.3
		C1104.9,380.1,1117.6,377.3,1128.7,372.3z"/>
	<g>
		<path class="st12" d="M1093.6,285.6c0,0-4.8,7.2-7.6,22.2c-2.4,13.2-4.5,18.1-8,20.8c-3.5,2.7-23,10.7-23,10.7l1.5,3.4
			c0,0,28.5-3.9,31.7-8.7c3.2-4.8,15.4-32.9,14.5-39.4C1101.7,288.1,1093.6,285.6,1093.6,285.6z"/>
		<g>
			<path class="st12" d="M1014.4,436.2c-0.3,2.8-4.2,2.7-8.7,2c-4.4-0.7-3.3,0.5-9.5,0.4c-6.2-0.1-8.3-2.2-8.6-3.1
				c-0.2-0.8,2.8-1.4,6-2.1c0.4-0.1,0.8-0.2,1.2-0.3c3.7-0.8,6.1-3.5,9.3-5.7c3-2.2,7.1-10.2,7.1-10.2l8.5-0.1c0,0-3.8,7.2-5.3,10.3
				c-0.9,1.8-0.6,4.1-0.3,5.9C1014.3,434.3,1014.5,435.2,1014.4,436.2z"/>
			<path class="st13" d="M1005.7,438.2c-4.4-0.7-3.3,0.5-9.5,0.4c-6.2-0.1-8.3-2.2-8.6-3.1c-0.2-0.8,2.8-1.4,6-2.1l0,0.1
				c0,0,4,2.3,9.1,1.9c4.2-0.3,8.5-1.9,11.4-2.1c0.2,1,0.3,1.9,0.2,2.9C1014.1,439,1010.1,438.9,1005.7,438.2z"/>
		</g>
		<path class="st21" d="M1106.9,343.9c0,0-56,0.3-66.5,6.9c-10.5,6.6-34.3,74.6-34.3,74.6s1.9,2.4,4.2,2.8c3.7,0.5,5.8-0.9,5.8-0.9
			s31.9-31.7,33.6-40.4c1.7-8.7,1.3-16.4,5.1-16.6c3.9-0.2,52,5.9,59.3-7c7.3-12.8,1.3-25.5,1.3-25.5L1106.9,343.9z"/>
		<g>
			<path class="st10" d="M1044.1,434.9c-0.1,2.8-4,3-8.5,2.8c-4.5-0.3-3.2,0.8-9.5,1.2c-6.2,0.4-8.5-1.5-8.8-2.4
				c-0.3-0.8,2.7-1.6,5.8-2.6c0.4-0.1,0.8-0.2,1.2-0.4c3.6-1.1,5.8-4,8.8-6.5c2.8-2.4,6.2-10.7,6.2-10.7l8.5-0.8
				c0,0-3.2,7.5-4.4,10.7c-0.7,1.9-0.2,4.1,0.2,5.9C1043.9,433,1044.1,433.9,1044.1,434.9z"/>
			<path class="st13" d="M1035.6,437.7c-4.5-0.3-3.2,0.8-9.5,1.2c-6.2,0.4-8.5-1.5-8.8-2.4c-0.3-0.8,2.7-1.6,5.8-2.6l0,0.1
				c0,0,4.1,1.9,9.2,1.2c4.2-0.6,8.3-2.6,11.2-3.1c0.2,0.9,0.5,1.9,0.4,2.9C1044.1,437.7,1040.1,438,1035.6,437.7z"/>
		</g>
		<path class="st22" d="M1117.8,347.3c0,0-49.3,2.3-59.5,9.3s-24.5,65.9-24.5,65.9s2.1,2.8,4.3,3.6c2.8,1,6.5-0.1,6.5-0.1
			s19.8-23.9,21.2-32.6c1.4-8.7,3.5-13.2,7.3-13.6c3.9-0.4,41.7,7,59-9.3C1142.9,360.5,1117.8,347.3,1117.8,347.3z"/>
		<path class="st11" d="M1100.9,281.6c-1-1.7-2.1-4.7-2.9-10.2c0.1,0.5,1.5,7.4,4.4,11.2c11.4,6.5,29.5,30.7,29.4,35.3
			c0,0,11.1-14.7,11.2-14.8c0,0,12.5-18.2-4.3-27.1c-8.5-4.5-8.9-11-9-16.6c0-5.7-4.2-29.7-20.3-22.3c0,0-2.7-1-3.9-0.7
			c0,0,1,0.1,1.5,0.6c-1.9,0-4.6,0.3-6.8,1.8C1094.4,242.6,1091.1,273.7,1100.9,281.6z"/>
		<path class="st23" d="M1119.9,277.3c0,0-4.6-0.4-9.2,0c-3.1,0.3-6.2,1.3-8,2c-4.3,1.8-3.9,9.5,5.2,8.1
			C1117.1,286,1120.5,279.6,1119.9,277.3z"/>
		<path class="st10" d="M1103.1,282.9c-0.1,0-1.3,6.6,4.7,6.4c3.9-0.2,12.4-4.9,11.6-8.3c-0.4-1.6-3.3-5.7-3.9-15.2l-0.7,0.2
			l-12,3.2c0,0,0.5,3.8,0.8,7.4C1103.8,279.7,1103.8,282.5,1103.1,282.9z"/>
		<path class="st12" d="M1102.8,269.2c0,0,0.5,3.8,0.8,7.4c6.8-0.6,10-7.1,11.2-10.6L1102.8,269.2z"/>
		<path class="st11" d="M1115.9,264.6c0,0,3.2-5.9,3.7-10.7c0.4-3.5-2.2-16.1-14.9-13.4c0,0-3.7,0.6-7,3.2
			c-2.7,2.1-6.4,6.4-1.2,17.2l1.4,3.7L1115.9,264.6z"/>
		<path class="st10" d="M1100.7,272.8c0,0,16.1-0.8,15.5-10.8c-0.7-10,1-16.9-9.3-16.8c-10.3,0.1-12.1,4.1-12.7,7.5
			C1093.6,256,1096.5,272.7,1100.7,272.8z"/>
		<path class="st11" d="M1099.5,245.4c0,0,5.2,11.5,12.1,12.8c6.9,1.3,9.7-0.7,9.7-0.7s-5.5-3.8-7-10.9
			C1114.3,246.5,1102.5,239.6,1099.5,245.4z"/>
		<path class="st11" d="M1100.7,246.3c0,0-3.1,2.8-3.8,5.5c-0.6,2.6-0.6,7.9-2.2,7.8c0,0-3.9-7.8-0.4-12.6
			C1097.9,241.9,1100.7,246.3,1100.7,246.3z"/>
		<path class="st24" d="M1084.6,344.7c1.3,1.6,5.4,2,9.7,2.8c3.4,0.6,7,1.3,9.6,2.8c5.8,3.4,24.8,14.9,30.4,14.4
			c2.2-0.2,1.8-4.3,0.4-9.8c-2.1-8.6-6.4-20.6-6.4-25.8c0-2.8-0.9-9.6-2.2-17.3c-0.1-0.6-0.2-1.2-0.3-1.9c-2.5-15-6-32.6-6-32.6
			s-3.9,8.4-11.4,8.4c-7.5,0-5.8-6.4-5.8-6.4s-6.9,0.8-8.5,2.6c-1.6,1.7-5.7,9.3-6.6,11.4c0,0-0.2,2.6,6.3,3.9c0,0-1.6,7.1-1.8,11.9
			c-0.1,3.5,2.4,14.5,3.1,21.3c0.3,2.4,0.3,4.3-0.1,5.2c-0.5,1.1-2.1,2.2-4,3.3C1087.6,340.8,1083.1,342.9,1084.6,344.7z"/>
		<path class="st25" d="M1091.3,338.7c-4.2,7.1,11.3,9.2,13.9,10.7c5.8,3.4,23.6,15.8,29.1,15.3c2.2-0.2,1.8-4.3,0.4-9.8
			c-2.1-8.6-6.4-20.6-6.4-25.8c0-2.8-0.9-9.6-2.2-17.3l-6.7-6.4c0,0-7.2,18.6-14,21.6c-3.6,1.6-7.3,2.6-10.1,3.3
			c0.3,2.4,0.3,4.3-0.1,5.2C1094.8,336.5,1093.1,337.6,1091.3,338.7z"/>
		<path class="st10" d="M1121.9,282.9c0,0,5.7-3.5,11.3,3.1c5.5,6.6-3.9,53.8-12.1,56.2c-9.1,2.7-35.4-0.4-35.4-0.4l0.5-4.1
			c0,0,28-5.4,29.2-6.9C1116.5,329.2,1119,283.6,1121.9,282.9z"/>
		<path class="st24" d="M1119.9,277.3c0,0,11.8,1.1,15.2,4.9c3.4,3.9,4.4,14.4,4.4,14.4s-10.4,8.4-22.8,5.1L1119.9,277.3z"/>
		<path class="st10" d="M1088.4,337.4c0,0-9.1-1.8-10.2-1.3c-1,0.4-6.8,5.6-6.2,6.6c0.6,1,2.9,1.8,5.6,0.9c2.6-0.9,8.4-1.3,9.4-2.6
			C1088.1,339.6,1088.4,337.4,1088.4,337.4z"/>
		<g>
			
				<rect x="1081.1" y="347.5" transform="matrix(-1 -1.224647e-16 1.224647e-16 -1 2177.6799 696.7398)" class="st26" width="15.5" height="1.8"/>
			<path class="st26" d="M1084.4,349c-0.2-0.6-14.3-22.8-14.3-22.8h-31.4l15.8,22.2L1084.4,349z"/>
			<path class="st11" d="M1083,349.3c-0.2-0.6-14.3-23-14.3-23h-30.1l15,23H1083z"/>
			<path class="st22" d="M1056.5,337.8c0.3,0.9,1.3,1.6,2.2,1.6c0.9,0,1.4-0.7,1.1-1.6c-0.3-0.9-1.3-1.6-2.2-1.6
				C1056.7,336.2,1056.2,336.9,1056.5,337.8z"/>
		</g>
	</g>
	<g>
		<path class="st12" d="M1303,272.1c0,0,7.5,4.3,9.6,4.3c2.1,0,10.3-1.6,12.6-0.4c2.3,1.2,6.5,5.9,7.2,7.4c1.4,2.8-5.6,1.5-9-0.8
			c-0.5-0.3-1.1-0.5-1.7-0.3c-1.7,0.4-5.3,1-7,0.4c-2.3-0.9-14.6-1.8-14.6-1.8L1303,272.1z"/>
		<path class="st16" d="M1245.9,214c0,0,7.8,55.3,20.7,60.2c6.4,2.4,34.4,8,42.7,8.5c0,0,2-1.7,1.5-8.4c0,0-29.4-10.8-33.6-16.7
			c-6.2-8.7,3.9-35.7-3.9-43.9C1265.5,205.6,1252.4,202.1,1245.9,214z"/>
		<path class="st11" d="M1248.6,330.5c2.3,3.8,4.9,7.5,7.6,10.9c8.4,10.6,17.5,19.2,19,27.5c0.3,1.6,0.8,3.4,1.5,5.3
			c0.7,1.9,1.5,3.9,2.4,5.9c3.5,7.7,8.8,16.3,14.1,24.2c9.2,13.6,17.8,24.9,17.8,24.9l15.8-0.7c-0.6-1.6-7.5-20.3-16.7-43.2
			c-3.7-9.3-7.7-19.2-11.6-28.7c-0.5-1.3-1-2.5-1.5-3.8c-1.2-2.9-2.3-5.8-3.5-8.6c-8.6-21.5-15.5-38.6-15.5-38.6
			s-34.6-13.1-38.2-4.6C1236.9,307.9,1239.3,314.7,1248.6,330.5z"/>
		<path class="st11" d="M1311.5,426.2c0,0,0.8,13,3.3,13.2c0.3,0,12.8,0,12.8,0l15.9-0.1c0,0-0.1-3.8-4.7-4.6
			c-4.6-0.8-12.4-4.1-15.2-10.2C1320.6,418,1311.5,426.2,1311.5,426.2z"/>
		<path class="st11" d="M1255.4,385.2c0,0-11.8,5.6-11,8c0.1,0.3,4.7,11.9,4.7,11.9l6,14.7c0,0,3.5-1.5,2.5-6.1
			c-1-4.6-0.8-13,3.8-17.9C1266.3,390.6,1255.4,385.2,1255.4,385.2z"/>
		<path class="st27" d="M1259.6,398.2c0,0-6.6-6.7-7.8-11.1c0,0,22.8-22.1,30.9-27.5c9.3-6.2,15.4-6.2,13.9-7.7
			c-4.9-5-46.2-19.4-52.9-29.9c-2.3-3.6-3.6-7-4.3-10c-1.5-6.4-0.3-10.8-0.3-10.8l51.4-1.5c0,0,38.2,39.6,38,54.5
			C1328.1,370.3,1259.6,398.2,1259.6,398.2z"/>
		<path class="st10" d="M1276.3,210.6c-10.4,2.7-27.6-6.9-27.6-6.9s6.7-4.5,9.2-14.4c0.1-0.5,0.2-1,0.3-1.5c1.1-0.2,3.1-0.7,5.3-1.1
			l7.9,7.1c0,0-0.2,3-1.2,8c-0.2,0.9-0.4,1.8-0.6,2.8C1274,207.2,1276.3,210.6,1276.3,210.6z"/>
		<path class="st15" d="M1237.7,253.6c1.5,20-0.5,50.5,1.2,55.7c1.5,4.6,18.1,1.8,24.7,0.3c2.5-0.6,5.4-1.4,8.5-2.3
			c8.6-2.7,17.9-6.4,18.9-9.2c0-0.1,0.1-0.2,0.1-0.3c0.1-0.4,0.1-0.8,0-1.2c-0.3-1.4-1.6-3-1.8-6.5c-0.2-4-0.1-8.6-0.3-13.6
			c0-0.6,0-1.2-0.1-1.7l0-0.2c0-0.1,0-0.2,0-0.3c-0.1-5.6-0.4-11.5-0.8-17.3c-0.2-3.7-0.5-7.3-0.8-10.8c-0.7-9-1.8-16.9-3.1-22
			c-2.2-8.2-7-13.6-11.3-17.5l-3.2-2.7c-3.5,0.8-7.7,0.3-11.5-1.5c-4.1-1.9-5.5-3.3-6.2-2.8C1242.7,206.9,1236,229.2,1237.7,253.6z"
			/>
		<path class="st16" d="M1272.1,307.4c8.6-2.7,17.9-6.4,18.9-9.2c0-0.1,0.1-0.2,0.1-0.3c0-0.4,0-0.8,0-1.2c-0.3-1.4-1.6-3-1.8-6.5
			c-0.2-4-0.1-8.6-0.3-13.6c0-0.6,0-1.2-0.1-1.7l0-0.2c0-0.1,0-0.2,0-0.3l-34.6-44.1C1254.3,230.1,1231.1,278.6,1272.1,307.4z"/>
		<path class="st12" d="M1271.5,193.7c0,0-0.2,3-1.2,8c-7.8-2.5-11.3-9.5-12.4-12.5c0.1-0.5,0.2-1,0.3-1.5c1.1-0.2,3.1-0.7,5.3-1.1
			L1271.5,193.7z"/>
		<path class="st10" d="M1272.6,198.2c0,0-16.9-2.8-15-13.3c1.9-10.5,1-17.9,11.9-16.6c10.9,1.4,12.2,5.7,12.4,9.4
			C1282.1,181.3,1277,198.6,1272.6,198.2z"/>
		<g>
			
				<rect x="1345.4" y="248.2" transform="matrix(-0.9511 -0.3089 0.3089 -0.9511 2543.521 940.1634)" class="st26" width="1.6" height="41"/>
			
				<rect x="1297.5" y="285.5" transform="matrix(-0.9998 -2.134795e-02 2.134795e-02 -0.9998 2631.7466 601.5859)" class="st26" width="43.1" height="2.6"/>
		</g>
		<path class="st10" d="M1298.4,289.6c0,0,13.8,3.6,19,3.3c5.2-0.4,9.5-2.9,10.2-4.1c0.7-1.3,2-3.6-1.5-3.2
			c-3.5,0.4-8.4,1.2-8.5,0.5c-0.1-0.7,2.9-0.6,2.9-0.6s0.9-1.3-0.2-1.4c-1.2,0-4.5-1-5.8-0.3c-1.2,0.6-2.4,2.9-3.3,2.8
			c-0.9-0.1-11.6-4.8-11.6-4.8L1298.4,289.6z"/>
		<path class="st15" d="M1249.4,216.3c0,0,1.6,55.8,13.9,62.1c6,3.1,33.3,11.7,41.5,13.2c0,0,2.2-1.4,2.5-8.1c0,0-28-14-31.6-20.3
			c-5.2-9.4,7.8-35.1,0.9-44.1C1269.8,210.1,1257.1,205.1,1249.4,216.3z"/>
		<path class="st26" d="M1257.9,189.2c0,0-0.2-3.6,2-5.7c0,0-0.8-3.6,0.7-4.2c1.4-0.6,1.7,2.4,2.4,2c0.7-0.5,3.6-2.7,4.8-6.1
			c1.3-3.3,12.7,0.7,14,1.3c1.3,0.6,5.6-1.6,6.5-3.4c0,0-2.4-1.9-3.5-3.3c-1.1-1.4-8.6-11.1-19.1-8.3c-10.5,2.7-11.9,7.7-11.3,12
			C1255,177.8,1253.6,187.8,1257.9,189.2z"/>
	</g>
	<g>
		<g id="man_1_">
			<path class="st12" d="M934.4,227.4c-1.2,3.1-3.1,6.7-5.2,7.6c-2.4,1-3.4,2.4-3.4,2.4l-1.9-1.1l-2.3-1.3c0,0,0.1-0.3,0.2-0.7
				c0.1-0.4,0.3-1,0.5-1.6c0,0,0.7-0.9,0.3-2c-0.4-1.1-0.3-2.9,0.4-3.9c0.7-1.1,1.4-3.7,1.9-3.6c1.1,0.2-0.5,3.8-0.1,4.5
				c0.4,0.6,0.9,0.4,1,0.4c0,0,0,0,0,0c3-1.3,6.6-8.4,8.3-7.5C934.7,220.8,934.9,226.1,934.4,227.4z"/>
			<g>
				<path class="st15" d="M924,231.7l3.8,2.6c0.3,0.2,0.6,0.1,0.8-0.1l9.6-13.7c0.2-0.3,0.1-0.6-0.1-0.8l-3.8-2.6
					c-0.3-0.2-0.6-0.1-0.8,0.1l-9.6,13.7C923.7,231.1,923.8,231.5,924,231.7z"/>
				<path class="st16" d="M927.5,234.1l2.2,1.5c0.2,0.1,0.5,0.1,0.6-0.1l9.8-13.9c0.1-0.2,0.1-0.5-0.1-0.6l-2.2-1.5
					c-0.2-0.1-0.5-0.1-0.6,0.1l-9.8,13.9C927.2,233.7,927.3,234,927.5,234.1z"/>
			</g>
			<path class="st28" d="M870.1,212c0,0,19.1,33.4,26.1,39.5l25.4-19c0,0,3.7,1.1,5.3,4.8c0,0-15.4,31.5-30.7,32.8
				c-15.2,1.3-36.6-37.7-36.6-37.7L870.1,212z"/>
			<g>
				<path class="st26" d="M826.8,438.9h-11.1c-1.4-0.8-2.6-2.5-3-5.1c-0.5-3.6-4.5-5.5-5.4-8.4c-0.9-2.9,3.6-7,3.6-7l0.7-1l0.8-1
					l7.3,1.7c0,0,0.2,1.7,0.3,4c0.1,1.6,0.1,3.5,0,5.1c-0.2,3.9,1.1,8.1,4.5,8.8C827.2,436.7,827,438.2,826.8,438.9z"/>
				<path class="st26" d="M890.9,438.9h-25.3c-1.2-1.5-0.8-7-0.6-8.7c0-0.4,0.1-0.6,0.1-0.6s8.6-6.9,9.8-1.6c0,0.2,0.1,0.3,0.1,0.5
					c1.5,4.9,8.2,7.2,12.1,7.8C889.7,436.7,890.6,438,890.9,438.9z"/>
				<path class="st15" d="M886.1,297.9c0,0-1.3,16.3-2.9,36c-2.1,26.7-4.6,59.5-4.9,65.7c-0.4,10.8-2.2,28-2.2,28s-4.1,4.1-12.3,2.4
					c0,0-7.3-24.6-9.4-50.7c0-0.4-0.1-0.9-0.1-1.3c-1.9-26.5-5-82.4-5-82.4L886.1,297.9z"/>
				<path class="st16" d="M886.1,297.9c0,0-1.3,16.3-2.9,36l-28.7,45.4c0-0.4-0.1-0.9-0.1-1.3c-1.9-26.5-5-82.4-5-82.4L886.1,297.9z
					"/>
				<path class="st15" d="M880.1,299.8c0,0-23.6,59.2-39.1,87c-15.5,27.8-20.4,35.6-20.4,35.6s-8.9-3.6-9.7-6
					c0,0,5.9-53.7,16.3-66.8c5.9-7.4,12.8-29.6,13.1-37.4c0.3-7.8,2.1-23.1,2.1-23.1L880.1,299.8z"/>
			</g>
			<path class="st10" d="M874.3,213.5c-9.2,2.9-25.2-4.9-25.2-4.9s8.5-6.4,8.1-19.7l7.1,5.8l4.8,3.9c0,0,0,2.3-0.5,6.3
				c-0.1,1.1-0.3,2.2-0.5,3.5C872,210.6,874.3,213.5,874.3,213.5z"/>
			<path class="st12" d="M869.1,198.5c0,0,0,2.3-0.5,6.3c-5.4-0.9-11.5-9.6-11.5-9.6c2.7-0.8,5.1-0.9,7.2-0.6L869.1,198.5z"/>
			<path class="st10" d="M871.9,198.3c0,0-15.2,2.5-16.7-7c-1.4-9.5-4.4-15.6,5.3-17.6c9.7-2,12.1,1.3,13.4,4.4
				C875.2,181.2,875.9,197.4,871.9,198.3z"/>
			<path class="st29" d="M887.2,299.2c-0.3,0.2-0.6,0.4-1,0.4c-3.5,0-13.6,1.9-22.1,1c-7.2-0.7-13.6-2.8-20.4-5.9
				c-0.9-0.4-3-1.5-3-2.5c0-1.1,0.1-2.7,0.3-4.8c0.5-7.1,1.3-19.2,0.5-33.3c-0.1-2.6-0.2-5.2-0.2-7.8c-0.1-19,3.7-35.8,11.3-41.4
				c0.6-0.5,4.6,1.5,8.3,3.3c3.4,1.7,6.7,1.8,9.9,1.2l3.2,2.8c3.9,3.6,8.1,8.5,10,15.9c1.6,6.3,2.5,17.7,3,29.6
				c0.2,5.4,0.4,10.8,0.5,15.9v0.2c0,0.5,0,1.1,0,1.6C887.6,288.6,887.4,299,887.2,299.2z"/>
			<path class="st28" d="M840.9,287.4c0.5-7.1,1.3-19.2,0.5-33.3c-0.1-2.6-0.2-5.2-0.2-7.8c3.2-7.7,5.7-13.2,5.7-13.2h8
				C854.9,233.1,860.7,273,840.9,287.4z"/>
			<g>
				<path class="st25" d="M800.2,332.6l33.9,4.8c4.4,0.6,8.5-2.5,9.2-6.9l2.1-14.7c0.6-4.4-2.5-8.5-6.9-9.2l-33.9-4.8
					c-4.4-0.6-8.5,2.5-9.2,6.9l-2.1,14.7C792.7,327.8,795.8,331.9,800.2,332.6z"/>
				<path class="st24" d="M840.4,311L840.4,311c-1-2.4-3-4.3-5.6-4.9h0c0,0,0,0,0,0c-0.3-0.1-0.5-0.1-0.8-0.2l-6.8-1l0.5-3.2
					c0.1-0.7-0.1-1.4-0.5-2c-0.4-0.6-1.1-0.9-1.8-1l-1.8-0.3l-7.1-1l-1.3-0.2c-1.5-0.2-2.8,0.8-3,2.3l-0.5,3.2l-11.7-1.7
					c-4.4-0.6-8.6,2.5-9.2,6.9l-2.1,14.9c-0.6,4.4,2.5,8.6,6.9,9.2l33.9,4.8c0.6,0.1,1.2,0.1,1.8,0.1h0c0,0,0,0,0,0
					c0.9-0.1,1.8-0.3,2.6-0.7c2.5-1.1,4.4-3.4,4.8-6.3l2.1-14.9C841.1,313.7,840.9,312.3,840.4,311z M813.9,299.8
					c0.1-0.4,0.4-0.8,0.8-0.8c0.1,0,0.2,0,0.3,0l1.5,0.2l5.6,0.8l3,0.4c0.5,0.1,0.9,0.6,0.9,1.1l-0.5,3.2l-12.1-1.7L813.9,299.8z"/>
			</g>
			<path class="st10" d="M826,288.8c0,0-1.8,2.4-1.9,3.3c-0.5,6.4,2.5,7.3-5.1,10.9c0,0-3.2,1.2-3.3-1.3c-0.1-2.5,2.3-2.6,1.8-6.1
				c-0.5-4.1-0.4-4.1,2.2-6.2l1.8-2.9L826,288.8z"/>
			<path class="st29" d="M821.4,290.6c2.9,0.6,6,0.3,6,0.3s8.5-26.3,9.6-28.7c1.1-2.4,25.3-30.8,25.3-30.8l-10.1-25.2
				c0,0-26.1,43.7-28.8,49.8c-4.4,10.1-5.9,32.9-5.9,32.9S819.2,290.1,821.4,290.6z"/>
			<path class="st11" d="M855.3,190.4c0,0,1.6-0.3,1.3-2.4c-0.3-2.2-0.2-5,1.5-4.4c1.8,0.5,1.8,1.9,2.6,1.1c0.7-0.8,0.7-4.3,5.9-4.5
				c5.2-0.2,7.3,1.6,9.8,0.5c2.4-1.1,2.6-4.7,2.6-4.7s-0.7,1.3-1.7,1.7c0,0,4-5.5-0.6-9.3s-9.5-1.3-12.2-1.1
				c-6,0.4-9.8,0.7-11.8,4.6C850.6,175.8,851.4,186.6,855.3,190.4z"/>
			<path class="st10" d="M823.2,291.6c0,0,1.7,1.8,1.8,2.5c0.3,2.4,1.1,3.4,0.7,3.7c-0.8,0.5-1.9-1.2-2.5-2.8
				C822.8,293.4,823.2,291.6,823.2,291.6z"/>
		</g>
	</g>
	<g>
		<path class="st30" d="M535.8,129.7c5.1,9.4,11.8,14.1,11.8,14.1h28C575.5,143.8,531.9,122.5,535.8,129.7z"/>
		<g>
			<path class="st10" d="M555.2,202c0.7,0.9,0.8,1.8,0.4,2.8c0,0,0,0,0,0c-0.7,1.8-3,3.8-5.6,5.8c-0.3,0.3-0.6,0.5-0.9,0.7
				c-0.1,0.1-0.1,0.1-0.2,0.2c-0.1,0-0.1,0.1-0.2,0.1c-2.4,2.1-1.6,2.7-6,7c-5,4.9-8.4,4.9-9.3,4.5c-0.8-0.4,0.9-3.1,2.8-6
				c0.1-0.1,0.2-0.3,0.3-0.4c0.3-0.4,0.5-0.8,0.8-1.2c2.2-3.6,1.7-5.3,1.4-10.7c-0.3-4.4-6.2-24.8-6.2-24.8l9.4-1.4
				c0,0,2.4,16.2,5.4,18.7c1.6,1.4,3.5,1.4,5,2.5c0.1,0.1,0.2,0.1,0.3,0.2C553.6,200.5,554.5,201.2,555.2,202z"/>
			<path class="st16" d="M555.2,202c0.7,0.9,0.8,1.8,0.4,2.8c0,0,0,0,0,0c-0.9,1.8-3.1,3.8-5.6,5.8c-0.3,0.3-0.6,0.5-0.9,0.7
				c-0.1,0.1-0.1,0.1-0.2,0.2c-0.1,0-0.1,0.1-0.2,0.1c-2.4,2.1-1.6,2.7-6,7c-5,4.9-8.4,4.9-9.3,4.5c-0.8-0.4,0.9-3.1,2.8-6
				c1-0.3,5.4-2,8.9-6.2c3-3.7,5.1-8.4,7.2-11.2c0.1,0.1,0.2,0.1,0.3,0.2C553.6,200.5,554.5,201.2,555.2,202z"/>
			<path class="st10" d="M480,194.1c-0.7,2.9-4.8,2.3-9.3,1c-4.6-1.2-3.5,0.1-10-0.8c-6.5-0.9-8.4-3.4-8.6-4.4
				c-0.2-0.9,3.1-1.1,6.6-1.4c0.4,0,0.9-0.1,1.3-0.1c3.9-0.4,6.9-2.8,10.5-4.8c3.4-1.9,8.7-9.7,8.7-9.7l8.9,1c0,0-4.9,7-6.8,10.1
				c-1.1,1.8-1.1,4.2-1,6.1C480.2,192.1,480.3,193.1,480,194.1z"/>
			<path class="st16" d="M470.7,195.2c-4.6-1.2-3.5,0.1-10-0.8c-6.5-0.9-8.4-3.4-8.6-4.4c-0.2-0.9,3.1-1.1,6.6-1.4l0,0.1
				c0,0,3.8,2.9,9.3,3.2c4.4,0.2,9.2-0.9,12.2-0.8c0,1,0.1,2.1-0.2,3.1C479.4,197,475.3,196.4,470.7,195.2z"/>
			<path class="st27" d="M515.9,137.7l7.8,22.8l10.1,29.7c0,0,3,0.4,5.8-0.4c2.6-0.7,5.7-2.6,5.7-2.6s-2.2-31.7-7.4-50
				c-1.3-4.7-2.9-8.5-4.6-10.7C524.9,116,515.9,137.7,515.9,137.7z"/>
			<path class="st31" d="M525.4,102.2c5.5-1.6,21.1,1.1,36.8,4.6l3.4-5.3l34.1-1.7c0,0,10.5,25.2,4,40.9c-1,2.3-2.7,3.3-5.7,3.3
				c0,0-0.3,0-0.6,0c0,0-20.2,0.2-26.8,0c-16.9-0.5-35.5-12.9-37.9-13.5c-4-0.9-5.8,7-10,15.3c-4.2,8.3-38.6,36.1-38.6,36.1
				s-5.2-0.1-7.3-0.9c-2.3-0.9-3.1-2.1-3.1-2.1S513,105.8,525.4,102.2z"/>
			<path class="st26" d="M567.2,54.6c11.9,7,36.1,21.5,36.2,21.4c0,0,8.9,3.6,14.1,0.4c8.7-5.4,13.7-20.6-1.6-34.1
				c-7.6-6.8-13.1-8.5-13.6-19c-0.3-5.7-7.5-24.6-20.5-23.2c-1.1,0.1-2.2,0.2-3.3,0.1c-1.5-0.1-4,0.1-6.6,1.5
				C564.6,5.8,549.1,51.5,567.2,54.6z"/>
			<path class="st10" d="M577.5,49.2c-0.1,0,5.9,2.2,10,0.6c3.8-1.6,6.9-7.7,6.8-7.7c-1.7-0.1-3.6-1.7-4.7-11.6l-0.7,0.2l-12.4,4.1
				c0,0,0.8,4,1.3,7.7C578,45.8,578.1,48.8,577.5,49.2z"/>
			<path class="st12" d="M576.3,34.8c0,0,0.8,4,1.3,7.7c7.1-1.1,10.1-8,11.2-11.8L576.3,34.8z"/>
			<path class="st10" d="M574.4,38.7c0,0,16.9-1.8,15.6-12.3s0-17.8-10.8-17.1c-10.8,0.7-12.4,5-12.9,8.6
				C565.9,21.5,569.9,38.9,574.4,38.7z"/>
			<path class="st26" d="M567.1,12.1c0,0,10.5,9.6,17.8,10.5c7.3,0.9,10.2-1.3,10.2-1.3s-4.2-3.7-6.7-9.6c-0.7-1.7-2.3-2.9-4.2-3.2
				C579,8,569.1,7.6,567.1,12.1z"/>
			<path class="st26" d="M573.8,11.5c0,0-3.7,3.4-4.9,5.9c-1.2,2.5-1.7,8.4-0.8,10.8c0,0-5.3-11.1-2-16.3
				C569.6,6.4,573.8,11.5,573.8,11.5z"/>
			<path class="st14" d="M562.6,73.6c-0.4,34.1-0.6,27,3,30.3c0.9,0.8,3.4,1.3,6.7,1.6c10.4,1,28.9-0.2,29.6-2.2
				c2.6-6.6,0.9-8.7,3.2-18.9c0.2-1.1,0.5-2.3,0.9-3.5c1.9-7,3.6-9.3-2.1-20.8c-5.1-10.4-10.5-18.8-11-18.5
				c-14.5,8.1-15.4,0.9-15.4,0.9S562.8,57,562.6,73.6z"/>
			<path class="st31" d="M523.7,160.5l10.1,29.7c0,0,3,0.4,5.8-0.4c2.6-0.7,5.7-2.6,5.7-2.6s-2.2-31.7-7.4-50L523.7,160.5z"/>
			<path class="st14" d="M577.6,42.6c0,0-14.7,2.1-16.6,8.3c-1.9,6.3-13,43.1-13,43.1s7.4,1.5,10.9-1.8c3.5-3.3,12.8-31.6,12.8-31.6
				L577.6,42.6z"/>
			<path class="st13" d="M572.4,105.6c10.4,1,28.9-0.2,29.6-2.2c2.6-6.6,0.9-8.7,3.2-18.9l-4.7-14.3c0,0,0.4,15.8-4.4,19.9
				c-4.8,4-19.3,7.5-21.7,10.9C573.4,102.6,572.6,104.2,572.4,105.6z"/>
			<path class="st10" d="M584.5,99.3c0,0-10.2-2.6-11.9-1.7c-1.7,0.9-5.8,4.1-6.4,5.2c-0.5,1.1,3.7-0.8,5.1-1.1
				c0.9-0.2,3.2,0.7,4.4,1.1c4.8,1.8,7.8,1,7.8,1L584.5,99.3z"/>
			<path class="st14" d="M593,41.6c0,0,13.8,1.2,18.4,8c6.5,9.6,18.8,50.1,11,55.2c-8.8,5.8-39.4,0.5-39.4,0.5s-0.9-4.8,0.6-7.1
				c1.5-2.3,24.7-5.4,25.8-6.4c1.1-1-12.8-21.1-12.7-24.3S593,41.6,593,41.6z"/>
			<path class="st10" d="M572,100.4c0,0-2.2,2.7-3,3c-0.7,0.3-1.2,0.2-1.2,0.2l1.5-2.6L572,100.4z"/>
			<path class="st10" d="M572.6,97.6l-6.4,2.9c0,0,0.3,0.4,1,0.4s2.7-0.7,2.7-0.7L572.6,97.6z"/>
		</g>
		<g>
			<g>
				<polygon class="st15" points="568.9,107.7 519.2,106.4 505.3,68.8 554.9,70.1 				"/>
				<polygon class="st16" points="518.7,104.9 584.3,106.7 584.3,108.1 519.2,106.4 				"/>
			</g>
			<path class="st17" d="M532.3,88.1c-0.3-1.3,0.4-2.4,1.8-2.3c1.3,0,2.6,1.1,3,2.4c0.3,1.3-0.4,2.4-1.8,2.3
				C534,90.5,532.6,89.4,532.3,88.1z"/>
		</g>
	</g>
</g>
<polyline class="st26" points="0,437.8 1525.2,437.8 1525.2,441.1 0,441.1 "/>
</svg>
