<?xml version="1.0" encoding="utf-8"?>
<!-- Generator: Adobe Illustrator 25.2.0, SVG Export Plug-In . SVG Version: 6.00 Build 0)  -->
<svg version="1.1" id="Слой_1" xmlns="http://www.w3.org/2000/svg" xmlns:xlink="http://www.w3.org/1999/xlink" x="0px" y="0px"
	 viewBox="0 0 3000 2000" style="enable-background:new 0 0 3000 2000;" xml:space="preserve">
<style type="text/css">
	.st0{fill:#EBF3FA;}
	.st1{fill:#AFCDFB;}
	.st2{fill:#CDE0FB;}
	.st3{fill:#FFFFFF;}
	.st4{fill:#E7EDFF;}
	.st5{clip-path:url(#SVGID_2_);}
	.st6{fill:#88A0E2;}
	.st7{fill:#FFB27D;}
	.st8{fill:#E2915A;}
	.st9{fill:#233862;}
	.st10{fill:#AEC3FF;}
	.st11{fill:#9DB0F4;}
	.st12{clip-path:url(#SVGID_4_);}
	.st13{fill:#A9453D;}
	.st14{fill:#F99746;}
	.st15{clip-path:url(#SVGID_4_);fill:#C5D7FF;}
	.st16{fill:#ED975D;}
	.st17{fill:#2E3552;}
	.st18{fill:#0B0754;}
	.st19{fill:#5F9AA8;}
	.st20{fill:#3662C1;}
	.st21{fill:#060632;}
	.st22{fill:#295BB2;}
	.st23{fill:#2C3A64;}
	.st24{fill:#ED6966;}
	.st25{fill:#E75755;}
	.st26{fill:#120E59;}
	.st27{fill:#2A4E96;}
	.st28{fill:#ED985F;}
	.st29{fill:#D7E1FF;}
	.st30{fill:#ED7D2B;}
	.st31{fill:#93B3F4;}
	.st32{fill:#3E4DCE;}
	.st33{fill:#BED2FA;}
	.st34{fill:#EF7674;}
	.st35{fill:#FC9796;}
	.st36{fill:#AF4E4E;}
</style>
<path class="st0" d="M386.07,1742.48c0,0-270.33-236.26-217.78-625.29c54.41-402.82,340.44-617.13,713.59-535.79
	c305.01,66.49,501.51,23.84,816.93-166.22c517.23-311.66,1183.89,25.75,1009.49,629.61c-84.4,292.23,269.82,436.62-26.68,698.31
	L386.07,1742.48z"/>
<g>
	<path class="st1" d="M1984.7,693.25c0,0,167.92-169.72,217.6-132.96C2251.98,597.05,1984.7,693.25,1984.7,693.25z"/>
	<path class="st1" d="M1973.17,725.26c0,0,317.34-153.8,395.77-79.97c78.43,73.84-86.25,69.44-147.39,62.77
		C2160.41,701.4,1973.17,725.26,1973.17,725.26z"/>
	<path class="st1" d="M1958.58,690.42c0,0,1.27-8.14,2.97-20.06c3.32-23.25,8.3-60.85,8.78-80.37c0.72-29.53,23.8-51.18,50.74-21.96
		c26.94,29.22-52.73,114-52.73,114L1958.58,690.42z"/>
</g>
<path class="st2" d="M1125.47,982.65c14.7-47.72,95.46-29.88,95.46-29.88s52.3,86.19,68.28,88.75
	c15.99,2.56-30.32-82.42-30.32-82.42c31.21-1.94,109.18,38.91,109.18,38.91s-8.39,98.17,7.73,96.71s3-87.3,3-87.3
	c29.79,10.07,56.69,46.15,56.69,46.15c33.16,58.4-43.55,97.97-43.55,97.97s-2.17,34.08,17.55,73.94l0,0c0,0,4.51,7.39,8.92,19.84
	l-8.21-0.28c-0.59-2.22-1.26-4.38-2.01-6.45c0-0.02,0-0.03-0.01-0.04c-0.01-0.03-0.02-0.06-0.03-0.09c-0.52-1.29-1.26-3.12-2.2-5.35
	c0,0,0-0.01,0-0.01c0-0.01-0.01-0.01,0-0.01c-2.34-4.99-3.91-8.68-4.89-11.33c0-0.01-0.01-0.02-0.01-0.02
	c-6.98-15.67-17.12-36.11-24.19-40.57c0,0,0.95-1.25,1.89-3.7c-0.6,1.18-1.23,2.41-1.89,3.7c-15.08,29.62-85.5,32.23-124.36,22.86
	c-38.86-9.37-21.42-19.82,0.27-37.02c21.69-17.19,65.68-10.95,78.97-17.53c13.29-6.58-5.54-14.26-31.7-13.14
	c-26.16,1.11-40.1,26.75-82.38,29.32c-42.28,2.57-71.67-77.81-71.67-77.81c28.79,10.03,81.52-4.23,83.88-14.2
	c2.35-9.97-74.95-11.62-86.89-15.04S1110.77,1030.37,1125.47,982.65z"/>
<path class="st2" d="M2357.83,1042.62c-14.88-38.48-80.41-19.1-80.41-19.1s-38.12,74.07-51.15,77.1
	c-13.03,3.03,20.23-69.69,20.23-69.69c-25.84,0.21-87.74,38.39-87.74,38.39s12.6,80.43-0.78,80.16
	c-13.38-0.27-7.52-71.79-7.52-71.79c-23.98,10.02-44.05,41.32-44.05,41.32c-23.95,50.06,41.57,78.23,41.57,78.23
	s3.76,27.97-10.19,61.96v0c0,0-3.29,6.35-6.21,16.87l6.75-0.71c0.36-1.87,0.79-3.68,1.28-5.43c0-0.01,0-0.02,0.01-0.03
	c0.01-0.03,0.01-0.05,0.02-0.08c0.35-1.09,0.86-2.64,1.5-4.54c0,0,0,0,0-0.01c0,0,0,0,0-0.01c1.64-4.25,2.72-7.38,3.37-9.62
	c0-0.01,0-0.01,0-0.02c4.85-13.32,12.02-30.76,17.59-34.84c0,0-0.86-0.97-1.77-2.94c0.56,0.94,1.15,1.92,1.77,2.94
	c14.15,23.54,72.34,21.62,103.82,11.64c31.49-9.97,16.51-17.58-2.36-30.49c-18.87-12.92-54.77-5.23-66.1-9.88
	c-11.33-4.65,3.74-12.07,25.37-12.67s34.6,19.73,69.6,19.4s54.57-68.28,54.57-68.28c-23.15,9.93-67.44,1.23-69.95-6.85
	c-2.51-8.08,61.11-13.91,70.75-17.42C2357.46,1102.72,2372.71,1081.1,2357.83,1042.62z"/>
<path class="st1" d="M1170.38,531.26c38.08-74.02,165.41-21.12,165.41-21.12s60.63,156.74,86.12,165.62
	c25.49,8.87-25.67-144.13-25.67-144.13c51.79,5.94,167.8,95.79,167.8,95.79s-42.48,158.66-15.59,160.99
	c26.89,2.33,30.45-142.4,30.45-142.4c45.96,25.23,79.54,92.32,79.54,92.32c37.34,105.55-100.12,148.05-100.12,148.05
	s-13.54,55.3,7.19,126.49c0,0,0,0,0,0s5.24,13.44,8.84,35.17l-13.39-2.86c-0.33-3.82-0.79-7.55-1.41-11.17
	c0.01-0.03,0-0.04-0.01-0.07c-0.01-0.05-0.02-0.1-0.03-0.16c-0.47-2.26-1.16-5.49-2.04-9.43c0,0,0-0.01,0-0.01
	c0-0.01-0.01-0.01,0-0.02c-2.38-8.88-3.88-15.39-4.71-20.03c0-0.01,0-0.03,0-0.04c-6.88-27.75-17.53-64.28-27.84-73.66
	c0,0,1.93-1.77,4.18-5.53c-1.33,1.76-2.72,3.6-4.18,5.53c-33.42,44.21-149.74,27.89-210.78,1.15
	c-61.04-26.74-29.36-38.8,11.26-60.67c40.62-21.87,111,1.23,134.72-5.68c23.73-6.91-4.92-25.02-48.18-30.84
	c-43.26-5.83-73.64,32.18-143.78,24.03c-70.15-8.15-94.88-148.66-94.88-148.66c44.32,24.88,135.03,16.89,141.81,1.22
	c6.77-15.67-119.61-40.98-138.21-50.09C1158.27,651.91,1132.3,605.28,1170.38,531.26z"/>
<rect x="1363.93" y="639.72" class="st3" width="815.39" height="1102.64"/>
<rect x="1389.39" y="661.19" class="st4" width="757.43" height="1053.62"/>
<g>
	<defs>
		<rect id="SVGID_1_" x="1441.1" y="732.97" width="198.43" height="198.43"/>
	</defs>
	<use xlink:href="#SVGID_1_"  style="overflow:visible;fill:#FFFFFF;"/>
	<clipPath id="SVGID_2_">
		<use xlink:href="#SVGID_1_"  style="overflow:visible;"/>
	</clipPath>
	<g class="st5">
		<polygon class="st6" points="1606.21,1123.29 1449.31,1123.29 1561.79,871.1 1600.7,958.28 1614.92,1043.06 		"/>
		<path class="st3" d="M1483.69,877.62l25.13-6.52l24.41-8.65c0,0,14.17,6.77,24.26,8.65c10.99,2.05,47.68,63.34,47.68,65.9
			c0,2.56-28.69,185.05-28.69,185.05h-138.51L1483.69,877.62z"/>
		<path class="st7" d="M1552.47,881.05c-12.43,2.14-30.55-0.87-43.66-9.96c6.34-14.21,9.07-25.49,10.12-32.8
			c0.06-0.39,0.11-0.77,0.15-1.13c0.49-3.79,0.49-6.37,0.33-7.56l32,0.75c0,0,8.66,4.2,8.59,6.97c-0.03,1.48-0.05,2.89-0.06,4.24
			c-0.02,3.68,0.05,6.9,0.18,9.66c0.4,8.99,1.67,19.88,1.67,19.88S1565.02,878.89,1552.47,881.05z"/>
		<path class="st8" d="M1560.12,851.21c-24.35,4.12-38.11-9.46-41.19-12.93c-0.44-0.5-0.66-0.79-0.66-0.79
			c0.26-0.12,0.53-0.23,0.81-0.34c9.11-3.44,29.87-1.61,41.21,2.85C1560.27,843.69,1559.99,848.45,1560.12,851.21z"/>
		<path class="st7" d="M1509.96,827.31c8.24,22.24,37.76,16.36,50.33,12.7c3.54-1.02,5.73-1.88,5.73-1.88
			c3.88-1.79,5.04-8.59,4.64-17.16c-0.78-16.96-7.64-40.88-11.52-46.62c-5.84-8.65-15.55-17.42-44.14-4.93
			C1486.4,781.9,1499.39,798.81,1509.96,827.31z"/>
		<path class="st9" d="M1556.44,754.64c-10.13-7.47-19.17-9.1-25.75-9.19c-19.48-0.26-34.6,9.59-34.68,9.65
			c-22.54,14.94-25.68,34.7-7.72,61.53c18.99,28.37,30.57,22.13,30.57,22.13s-2.22-0.71-3.62-10.33c-0.08-0.55-0.14-1.01-0.18-1.4
			c-0.21-1.98-1.25-3.83-2.94-4.89c-3.5-2.18-6.39-10.1-4.24-12.82c2.58-3.28,7.46-0.68,9.28,1.64c1.51,1.6,3.77,1.87,5.56,0.26
			c6.76-6.11,0.17-14.86,6.41-21.98s43.65-3.92,46.1-24.96C1575.21,764.28,1565.85,761.57,1556.44,754.64z"/>
		<path class="st10" d="M1561.79,871.1c0,0,39.3,81.08,44.42,143.69c5.12,62.61,0,108.51,0,108.51s25.55-61.1,27.98-133.49
			c1.08-32.18-4.08-90.43-15.01-100.74C1613.84,884.03,1597.83,879.23,1561.79,871.1z"/>
		<path class="st10" d="M1518.02,978.32c-0.13,9.26-0.49,18.94-1.14,28.95c-2.31,35.17-8.31,74.53-20.83,114.77h-128.6
			c0,0,15.94-38.74,35.18-80.84c3.37-7.38,6.85-14.85,10.35-22.24c14.23-29.98,29.01-58.52,39.82-72.94
			c28.69-38.26,56.02-74.93,56.02-74.93S1518.88,914.98,1518.02,978.32z"/>
		<path class="st11" d="M1482.73,1036.4c0,0-26.41,10.47-80.1,4.8c3.37-7.38,6.85-14.85,10.35-22.24L1482.73,1036.4z"/>
		<path class="st11" d="M1518.02,978.32c-0.13,9.26-0.49,18.94-1.14,28.95c-17.31-0.94-79.2-4.35-78.9-5.23
			c0.34-1.03,5.73-24.59,5.73-24.59s52.03,12.64,74.22,0L1518.02,978.32z"/>
		<path class="st7" d="M1493.79,1006.14c0,0,18.45-10.95,26.99-10.43c8.54,0.52,22.2,3.25,24.25,10.43
			c2.05,7.17-3.07,3.67-14.52,5.9c-6.75,1.32-10.88,11.01-19.64,11.86c-3.42,0.33-17.08-2.39-17.08-2.39V1006.14z"/>
		<path class="st10" d="M1508.83,871.1c0,0-47.21,5.58-59.51,17.2c-20.8,19.64-75.49,93.91-70.09,126.49
			c3.59,21.62,103.5,21.62,103.5,21.62s12.33-8,16.88-15.22c9.23-14.69,6.03-25.46,6.03-25.46l-61.8-21c0,0,30.14-29.22,53.37-30.74
			C1514.2,942.86,1508.83,871.1,1508.83,871.1z"/>
	</g>
</g>
<g>
	<g>
		<rect x="1692.03" y="854.84" class="st10" width="248.64" height="4.99"/>
		<rect x="1692.03" y="878.12" class="st10" width="248.64" height="4.99"/>
		<rect x="1692.03" y="901.69" class="st10" width="248.64" height="4.99"/>
	</g>
	<rect x="1692.03" y="718.13" class="st3" width="76.08" height="76.08"/>
	<rect x="1844.25" y="777.56" class="st10" width="96.42" height="8.78"/>
	<rect x="1823.25" y="798.12" class="st10" width="117.43" height="8.78"/>
</g>
<g>
	<g>
		<g>
			<defs>
				<rect id="SVGID_3_" x="1441.1" y="1296.68" width="198.43" height="198.43"/>
			</defs>
			<use xlink:href="#SVGID_3_"  style="overflow:visible;fill:#FFFFFF;"/>
			<clipPath id="SVGID_4_">
				<use xlink:href="#SVGID_3_"  style="overflow:visible;"/>
			</clipPath>
			<g class="st12">
				<path class="st10" d="M1481.09,1441.33l25.13-6.52l24.41-8.65c0,0,14.17,6.77,24.26,8.65c10.99,2.05,47.68,63.34,47.68,65.9
					c0,2.56,1.03,186.29,1.03,186.29l-168.23-1.25L1481.09,1441.33z"/>
				<path class="st7" d="M1549.87,1444.75c-12.43,2.14-30.55-0.87-43.66-9.96c6.34-14.21,9.07-25.49,10.12-32.8
					c0.06-0.39,0.11-0.77,0.15-1.13c0.49-3.79,0.49-6.37,0.33-7.56l32,0.75c0,0,8.65,4.2,8.59,6.97c-0.03,1.48-0.05,2.89-0.06,4.24
					c-0.02,3.68,0.05,6.9,0.18,9.66c0.4,8.99,1.67,19.88,1.67,19.88S1562.42,1442.59,1549.87,1444.75z"/>
				<path class="st8" d="M1557.51,1414.92c-24.35,4.12-38.11-9.46-41.19-12.93c-0.44-0.5-0.66-0.79-0.66-0.79
					c0.26-0.12,0.53-0.23,0.81-0.34c9.11-3.44,29.87-1.61,41.21,2.85C1557.67,1407.4,1557.39,1412.16,1557.51,1414.92z"/>
				<path class="st7" d="M1507.36,1391.02c8.24,22.24,37.76,16.36,50.33,12.7c3.54-1.03,5.73-1.88,5.73-1.88
					c3.88-1.79,5.04-8.59,4.64-17.16c-0.78-16.96-7.64-40.88-11.52-46.62c-5.84-8.65-15.55-17.42-44.14-4.94
					C1483.8,1345.61,1496.79,1362.52,1507.36,1391.02z"/>
				<path class="st13" d="M1553.84,1318.35c-10.13-7.47-19.17-9.1-25.75-9.19c-19.48-0.26-34.6,9.59-34.68,9.65
					c-22.54,14.94-25.68,34.7-7.72,61.53c18.99,28.37,30.57,22.13,30.57,22.13s-2.22-0.71-3.62-10.33c-0.08-0.55-0.14-1-0.18-1.4
					c-0.21-1.98-1.25-3.83-2.94-4.89c-3.5-2.18-6.39-10.1-4.25-12.82c2.59-3.28,7.46-0.68,9.28,1.64c1.51,1.6,3.77,1.87,5.56,0.25
					c6.76-6.11,0.17-14.86,6.41-21.98c6.24-7.13,43.65-3.92,46.1-24.96C1572.61,1327.98,1563.25,1325.28,1553.84,1318.35z"/>
				<path class="st10" d="M1559.18,1434.8c0,0,39.3,81.08,44.42,143.69c5.12,62.61,0,108.51,0,108.51s25.55-61.1,27.98-133.49
					c1.08-32.18-4.08-90.43-15.01-100.74C1611.24,1447.73,1595.23,1442.93,1559.18,1434.8z"/>
				<path class="st10" d="M1506.23,1434.8L1506.23,1434.8L1506.23,1434.8c0,0-47.21,5.58-59.51,17.2
					c-20.8,19.64-75.49,93.92-70.09,126.49c1.2,7.22,29.2,29.29,44.6,32.49c3.9,30.66-5.76,76.01-5.76,76.01l77.98-1.25
					c12.52-40.24,18.52-79.6,20.83-114.77c0.66-10.02,1.02-19.69,1.14-28.95C1516.28,1478.69,1506.23,1434.8,1506.23,1434.8z"/>
				<path class="st14" d="M1512.38,1426.44c0,0,19.76,16.15,31.46,18.97c0,0-10.87,5.75-45.01-9.58
					C1498.84,1435.83,1503.77,1427.51,1512.38,1426.44z"/>
				<path class="st14" d="M1558.18,1424.78c0,0,2.24,6.73,5.7,11.09c0,0-3.04,10.76-20.04,9.54
					C1543.84,1445.41,1558.85,1434.63,1558.18,1424.78z"/>
				<path class="st14" d="M1530.42,1439.1l23.44-2.86c0,0-0.73,13.75-7.79,19.23C1543.5,1457.47,1530.12,1441.54,1530.42,1439.1z"/>
				<path class="st14" d="M1540.87,1447.49c0,0,5.39,98.1,2.84,141.48c-1.41,23.97-4.89,58.52-4.33,61.87
					c0.56,3.34,16.48,18.95,16.48,18.95s15.66-14.58,16.04-20.9c0.37-6.32,4.83-98.1-22.96-202.42
					C1547.98,1442.9,1540.87,1447.49,1540.87,1447.49z"/>
			</g>
			<path class="st15" d="M1510.29,1424.78c0,0-6.02,0.41-16.61,12.68c0,0,17.09,14.68,32.7,18.39c0,0-0.64-11.38,4.04-16.74
				L1510.29,1424.78z"/>
			<path class="st15" d="M1558.18,1424.78l-8.21,12.17c0,0,8.36,6.27,11.15,13.79c0,0,5.74-9.37,5.24-14.3
				C1566.36,1436.44,1562.49,1426.27,1558.18,1424.78z"/>
		</g>
	</g>
	<g>
		<g>
			<rect x="1692.03" y="1438.33" class="st10" width="262.88" height="4.99"/>
			<rect x="1692.03" y="1461.61" class="st10" width="262.88" height="4.99"/>
			<rect x="1692.03" y="1485.17" class="st10" width="262.88" height="4.99"/>
		</g>
		<rect x="1692.03" y="1301.62" class="st3" width="76.08" height="76.08"/>
		<rect x="1852.96" y="1361.05" class="st10" width="101.94" height="8.78"/>
		<rect x="1830.76" y="1381.6" class="st10" width="124.15" height="8.78"/>
	</g>
</g>
<g>
	<g>
		<rect x="1441.1" y="1010.1" class="st3" width="198.43" height="198.42"/>
		<g>
			<g>
				<g>
					<path class="st9" d="M1560.93,1027.06c-12.16-3.38-28.95-0.56-31.73-0.33c-33.24,2.64-42.53,53.8-40.6,68.27
						c3.57,26.67-9.44,33.67-25.41,54.31c-17.41,22.51-19.52,43.35-13.87,59.23h84.4c18.1-15.92,42.83-37.75,58.35-51.26
						c2.16-0.8,4.11-1.82,5.86-3.03C1631.87,1130.85,1590.4,1035.23,1560.93,1027.06z"/>
					<path class="st7" d="M1563.55,1148.55c0.15,0.06-13.8,8.46-24.85,6.18c-10.39-2.14-20.94-16.18-20.8-16.22
						c4.27-1.13,8.19-5.93,6.48-31.45l1.98,0.26l33.28,4.43c0,0-0.09,10.39,0.5,20.14
						C1560.64,1140.06,1561.63,1147.79,1563.55,1148.55z"/>
					<path class="st16" d="M1559.65,1111.75c0,0-0.09,10.39,0.5,20.14c-18.42,0.64-29.21-15.52-33.78-24.57L1559.65,1111.75z"/>
					<path class="st7" d="M1566.37,1120.58c0,0-43.47,3.47-45.21-23.64c-1.74-27.1-8.53-44.91,19.15-48.27
						c27.68-3.36,33.74,6.63,36.52,15.54C1579.62,1073.12,1577.63,1118.98,1566.37,1120.58z"/>
					<path class="st9" d="M1572.18,1050.16c0,0-22,29.15-39.99,35.01c-17.99,5.86-26.23,1.46-26.23,1.46s8.89-11.35,12.28-27.29
						c1-4.7,4.42-8.51,9.01-9.93C1540.15,1045.44,1564.93,1039.54,1572.18,1050.16z"/>
					<path class="st9" d="M1554.83,1051.73c0,0,10.94,6.79,15.19,12.66c4.1,5.67,8.17,20.46,7.26,26.88c0,0,8.17-30.46-2.69-42.04
						C1563.07,1036.94,1554.83,1051.73,1554.83,1051.73z"/>
					<path class="st10" d="M1602.88,1161.81c-0.77-2.82-2.54-5.34-4.95-7.57c-11.42-10.65-37.07-14.99-37.07-14.99v0.01
						c0,0-0.01,0.1-0.06,0.28v0.02c-0.37,1.37-2.32,6.87-10.97,6.87c-5.84,0-14.74-2.52-28.26-10.5c-0.07-0.04-0.13-0.08-0.2-0.12
						c-0.01-0.01-0.02,0-0.02-0.01v-0.01c0,0-35.54,2.18-47.83,19.34c-6.68,9.31-15.87,30.31-23.54,53.41h165.64
						C1609.95,1187.73,1604.67,1168.34,1602.88,1161.81z"/>
				</g>
			</g>
		</g>
	</g>
	<g>
		<g>
			<rect x="1692.03" y="1149.75" class="st10" width="258.01" height="4.99"/>
			<rect x="1692.03" y="1173.04" class="st10" width="258.01" height="4.99"/>
			<rect x="1692.03" y="1196.6" class="st10" width="258.01" height="4.99"/>
		</g>
		<rect x="1692.03" y="1013.04" class="st3" width="76.08" height="76.08"/>
		<rect x="1833.11" y="1072.48" class="st10" width="107.56" height="8.78"/>
		<rect x="1809.68" y="1093.03" class="st10" width="130.99" height="8.78"/>
	</g>
	<polygon class="st9" points="1706.41,1044.53 1730.07,1077.14 1758.25,1025.02 1725.55,1054.75 	"/>
</g>
<g>
	<rect x="1575.87" y="1598.85" class="st10" width="261.08" height="4.38"/>
	<rect x="1575.87" y="1619.78" class="st10" width="261.08" height="4.38"/>
	<rect x="1575.87" y="1645.08" class="st10" width="261.08" height="4.38"/>
</g>
<g>
	<path class="st10" d="M1467.24,1608.2c3.51-4.95,7.19-13.62,4.4-19.74c-2.55-5.61-7.6-3.01-11.03,0.24
		c-5.12,4.85-8.02,11.51-10.21,18.09c-2.67,8.02-4.84,16.38-5.7,24.81c-0.7,6.78-1.16,17.23,3.21,23.01
		c3.71,4.91,9.67,0.88,13.78-1.42c12.98-7.28,23.79-18.91,26.8-33.8c0.39-1.92-1.98-3.67-3.49-2.03c-2.98,3.24-4.98,7.2-5.1,11.67
		c-0.07,2.46,0.16,6.36,3.12,7.06c3.48,0.83,6.19-4,7.69-6.31c3.01-4.64,4.85-9.84,5.76-15.27c-1.34-0.37-2.69-0.74-4.03-1.11
		c-0.58,3.95,0.13,11,6,9.78c5.55-1.15,6.02-10.7,6.19-14.98c0.09-2.32-3.64-2.89-4.11-0.56c-0.77,3.86-0.73,7.66,0.49,11.43
		c0.61,1.9,1.55,3.58,2.45,5.35c0.88,1.42,1.63,2.9,2.25,4.46c1.31,3.2,0.18,4.56-3.38,4.08c-0.42,1.02-0.83,2.05-1.25,3.07
		c9.85-3.88,20.55-9.2,21.1-21.15c0.12-2.69-4.06-2.68-4.18,0c-0.45,9.81-10.14,14.02-18.03,17.12c-1.3,0.51-1.91,1.77-1.25,3.07
		c2.29,4.52,8.58,4.06,10.71-0.42c1.41-2.98,0.74-6.22-0.58-9.09c-2.66-5.77-5.63-10.12-4.3-16.81c-1.37-0.19-2.74-0.37-4.11-0.56
		c-0.09,2.26-0.3,4.48-0.92,6.67c-0.18,0.79-0.43,1.55-0.77,2.29c-0.66,2.61-1.42,1.73-2.28-2.64c0.38-2.61-3.59-3.78-4.03-1.11
		c-0.85,5.1-2.49,9.92-5.34,14.28c-1.29,1.98-3.2,5.94-3.01,1.35c0.14-3.42,1.61-6.25,3.88-8.72c-1.16-0.68-2.33-1.36-3.49-2.03
		c-1.97,9.77-7.44,18.04-14.99,24.45c-3.6,3.06-8.27,6.86-12.83,8.42c-1.76,0.6-4.62,0.75-6.18-0.76c-0.62-0.6-0.84-2.94-1.02-3.78
		c-0.71-3.31-0.93-6.71-0.86-10.1c0.23-10.66,3.21-21.84,6.98-31.79c1.81-4.77,4.26-9.52,8.01-13.06c4.76-4.49,4.78,2.65,4.08,5.9
		c-0.67,3.15-2.18,5.94-4.03,8.54C1462.07,1608.29,1465.69,1610.38,1467.24,1608.2L1467.24,1608.2z"/>
</g>
<path class="st17" d="M2885.95,1745.44H202.16c-1.64,0-2.98-1.34-2.98-2.98v-0.85c0-1.64,1.34-2.98,2.98-2.98h2683.79
	c1.64,0,2.98,1.34,2.98,2.98v0.85C2888.93,1744.1,2887.59,1745.44,2885.95,1745.44z"/>
<g>
	<g>
		<path class="st7" d="M1939.03,1727.78c-0.75,10.24-15.2,10.35-31.59,8.45c-16.39-1.9-12.04,2.25-34.99,2.57
			c-22.95,0.32-30.86-7.27-31.98-10.55c-0.99-2.91,10.06-5.36,21.89-8.24c1.49-0.36,2.98-0.73,4.47-1.11
			c13.33-3.39,22.17-13.37,33.57-22.08c10.81-8.25,24.74-38.13,24.74-38.13l31.36-1.42c0,0-13.2,26.78-18.16,38.33
			c-2.92,6.79-1.68,15.13-0.41,21.54C1938.62,1720.62,1939.3,1724.18,1939.03,1727.78z"/>
		<path class="st9" d="M1907.44,1736.23c-16.39-1.9-12.04,2.25-34.99,2.57c-22.95,0.32-30.86-7.27-31.98-10.55
			c-0.99-2.91,10.06-5.36,21.89-8.24l0.14,0.22c0,0,14.78,7.93,33.68,6.03c15.41-1.54,31.13-7.97,41.75-9.13
			c0.68,3.48,1.36,7.04,1.09,10.65C1938.28,1738.02,1923.83,1738.13,1907.44,1736.23z"/>
	</g>
	<g>
		<path class="st7" d="M2155.58,1729.91c-0.74,10.24-15.19,10.36-31.58,8.48c-16.39-1.88-12.03,2.26-34.99,2.6
			c-22.95,0.34-30.87-7.24-31.99-10.51c-0.99-2.91,10.06-5.37,21.88-8.26c1.49-0.36,2.98-0.74,4.47-1.11
			c13.33-3.4,22.15-13.39,33.55-22.12c10.8-8.27,0.01-57.2,0.01-57.2l34.49-3.36c0,0-1.65,41.2-1.63,59.94
			c0.01,7.39,3.41,14.5,4.68,20.9C2155.17,1722.74,2155.85,1726.3,2155.58,1729.91z"/>
		<path class="st9" d="M2124,1738.38c-16.39-1.88-12.03,2.26-34.99,2.6c-22.95,0.34-30.87-7.24-31.99-10.51
			c-0.99-2.91,10.06-5.37,21.88-8.26l0.14,0.22c0,0,14.79,7.92,33.69,6c15.41-1.56,31.12-8.01,41.75-9.17
			c0.68,3.48,1.36,7.04,1.1,10.65C2154.84,1740.15,2140.39,1740.27,2124,1738.38z"/>
	</g>
	<path class="st18" d="M2053.93,884.12c-5.94-24.42,2.67-35.79,10.43-41.85c3.68-8.99,7.89-15.47,12.18-17.91
		c7.84-4.46,17.23-4.94,23.8-4.55c-1.69-1.75-5.02-2.38-5.02-2.38c4.07-0.61,13.17,3.44,13.17,3.44
		c56.67-21.84,65.58,61.6,64.38,80.99c-1.18,19.38-1.02,42.21,28.46,57.49c56.25,29.14-18.7,138.96-18.7,138.96
		c1.43-15.67-70.85-98.33-108.56-123.09c-9.18-13.51-12.44-37.39-12.69-39.27c1.58,18.93,4.82,29.55,7.72,35.53
		C2051.93,955.65,2049.38,917.67,2053.93,884.12z"/>
	<path class="st7" d="M2077.32,976.44c-0.19,0.08,18.21,9.64,32.04,5.85c13.02-3.55,21.52-20.43,21.34-20.46
		c-5.51-1.09-7.1-8.67-6.98-41.22l-2.49,0.49l-41.9,8.3c0,0,0.95,13.19,0.98,25.61C2080.34,965.44,2079.71,975.33,2077.32,976.44z"
		/>
	<path class="st16" d="M2079.33,929.4c0,0,0.95,13.19,0.98,25.61c23.45-0.66,35.84-22.05,40.92-33.9L2079.33,929.4z"/>
	<path class="st18" d="M1908.86,1675.29c-2.05,6.44,2.56,13.08,9.32,13.39l16.37,0.76l17.32,0.53c4.33,0.13,8.47-1.76,11.21-5.12
		c13.82-16.96,56.38-73.48,82.19-155.61c0.73-2.3,1.49-4.63,2.3-6.99c17.05-49.71,52.39-112.1,71.01-168.57
		c2.96-9,5.62-17.46,8.01-25.48c0.76-2.57,1.51-5.09,2.22-7.57c13.72-47.68,17.7-78.99,21.36-112.44l-134.48,1.08
		C2015.69,1209.27,1987.38,1429.31,1908.86,1675.29z"/>
	<path class="st3" d="M2034.51,1132c0.34,63.99-9.39,91.45-9.39,91.45s57.58,29.25,126.01,7.72c0.81-0.25,48.96-13.89,48.96-13.89
		c-1.15-2.59-10.66-45.41-11.78-47.78c-14.45-31.03-18.39-44.05-20.1-53.59c-3.18-17.81-3.25-36.23-1.66-53.61
		c4.17-46,16.59-84.19,16.59-84.19c-18.65-4.24-36.11-11.7-55.51-18.97c-4.46,5.56-18.11,11.37-29.95,11.11
		c-13.63-0.3-18.05-6.14-17.34-12.51c-14.53,8.08-26.12,15.72-26.12,15.72c-12.35,21.44-37.38,42.27-39.2,75.17
		C2014.58,1056.7,2034.5,1130.21,2034.51,1132z"/>
	<path class="st19" d="M2150.16,1139.13c5.88,8.32,17.15,58.89,45.19,65.25c-14.45-36.04-25.42-51.84-27.13-62.92
		c-3.18-20.69-3.25-42.09-1.66-62.28c-9.39-16.45-16.39-27.73-16.39-27.73c-0.74-2.66-14.92-46.5-19.46-7.31
		C2126.17,1083.33,2143.6,1129.83,2150.16,1139.13z"/>
	<path class="st7" d="M2071.5,941.16c0,0,55.47,0.91,55.51-33.64c0.04-34.55,7.22-57.71-28.19-59.75
		c-35.42-2.05-42.31,11.13-45.13,22.66C2050.87,881.96,2057.07,940.03,2071.5,941.16z"/>
	<path class="st18" d="M2073.55,846.92c0,0,15.19,40.54,38.5,46.53c23.31,5.99,33.42-0.25,33.42-0.25s-17.88-14.2-21.59-39
		C2123.88,854.21,2085.01,827.63,2073.55,846.92z"/>
	<path class="st18" d="M2077.32,850.21c0,0-11.34,9.05-14.11,17.85c-2.77,8.8-4.01,26.91-9.29,26.3c0,0-11.44-27.55,1.42-43.14
		C2068.97,834.69,2077.32,850.21,2077.32,850.21z"/>
	<polygon class="st7" points="1984.22,1176.41 1958.01,1256.29 1972.96,1262.29 2016.28,1191.71 	"/>
	<path class="st20" d="M2054.86,968.74c0,0-30.89,12.26-39.83,31.37c-8.94,19.11-22.48,147.32-27.87,160.48
		c-5.39,13.17-9.45,23.59-9.45,23.59s15.58,13.12,31.24,14.09C2024.61,1199.24,2054.86,968.74,2054.86,968.74z"/>
	<path class="st20" d="M2080.34,957.72c0,0-32.09,79.29-33.04,95.33c-0.94,16.04-3.78,262.4-3.78,262.4s1.89,11.33-19.82,6.61
		c-21.71-4.72-27.37-9.44-27.37-9.44s20.77-151.97,15.1-204.82s43.42-139.06,43.42-139.06L2080.34,957.72z"/>
	<path class="st21" d="M1934.54,1689.44l18.8,0.58c3.36,0.1,6.58-1.34,8.72-3.94c12.64-15.31,56.72-72.61,83.19-156.83
		c0.73-2.3,1.49-4.63,2.3-6.99c17.05-49.71,52.39-112.1,71.01-168.57c2.96-9,5.62-17.46,8.01-25.48c0.76-2.57,1.51-5.09,2.22-7.57
		l-19.8-15.03c0,0-59.46,96.28-77.86,186.88C2015.15,1571.19,1951.12,1665.89,1934.54,1689.44z"/>
	<path class="st18" d="M2106.93,1500.93c-0.32,41.68,1.66,134.59,6.73,180c0.46,4.16,3.98,7.29,8.16,7.29h14.03
		c5.91,0,10.34-0.04,13.28-0.09c2.54-0.04,4.71-1.86,5.21-4.36c13.95-71,23.94-129.99,31.25-180.96
		c6.12-42.66,11.55-79.24,15.73-110.73c4.21-31.69,7.14-58.22,8.18-80.64c0.16-3.53,0.28-6.97,0.35-10.3
		c0.07-3.35,0.09-6.61,0.06-9.77l-116.19-11.33C2095.18,1357.26,2107.12,1475.32,2106.93,1500.93z"/>
	<path class="st21" d="M2135.85,1688.22c5.31,0,9.42-0.04,12.33-0.07c3.09-0.04,5.73-2.25,6.33-5.29
		c13.86-70.6,23.79-129.3,31.07-180.05c6.12-42.66,11.55-79.24,15.73-110.73c4.21-31.69,7.14-58.22,8.18-80.64l-42.64,25.08
		c0,0,27.21,9.6,16.83,82.28S2150.3,1677.94,2135.85,1688.22z"/>
	<path class="st20" d="M2130.37,1310.74c0,0,8.18,29.57,36.5,25.8c28.32-3.78,68.58-20.76,68.58-20.76s-12.1-38.24-27.15-88.47
		c-18.22-60.81-40.77-139.21-51.39-188.66c-2.98-13.86-5.02-25.43-5.78-33.72l-23.49-45.58c0,0-35.03,78.62-36.92,98.44
		S2130.37,1310.74,2130.37,1310.74z"/>
	<path class="st7" d="M2158.64,1054.82l-31.01-95.48c0.08,0.04,39.16,11.63,58.82,21.56c0,0,12.29,15.84,19.89,52.38
		c0,0,8.03,87.74-9.9,119.83c0,0-56.63,11.33-147.25-19.82v-20.77c0,0,99.11,5.19,119.4,7.55L2158.64,1054.82z"/>
	<path class="st22" d="M2131.62,1099.31c1.26,32.09,8.82,94.39,76.14,127.74c0.18,0.08,0.36,0.18,0.54,0.25
		c-18.22-60.81-40.77-139.21-51.39-188.66C2144.54,1057.12,2130.93,1081.64,2131.62,1099.31z"/>
	<path class="st20" d="M2127.63,959.34c0,0,57.48,4.05,71.32,34.88c13.84,30.83,18.25,133.4,0.63,163.61c0,0-24.26,6.91-67.16-1.11
		c-0.53-0.1-1.05-0.2-1.58-0.3c0,0-13.69-33.51-1.42-40.12c0,0,36.18,1.89,32.41-10.07
		C2158.05,1094.27,2127.63,959.34,2127.63,959.34z"/>
	<g>
		<path class="st13" d="M1983.53,1125.35l1.69,5.44l94.31-29.34c0,0,1.26-1.43,0.64-3.34c-0.69-2.1-2.33-2.11-2.33-2.11
			L1983.53,1125.35z"/>
		<polygon class="st13" points="1976.71,1130.5 1983.53,1125.35 1985.22,1130.79 		"/>
	</g>
	<path class="st7" d="M1961.74,1254.11c0,0-23.92,13.22-27.07,23.29c-3.15,10.07-0.99,31.17,2.81,30.85
		c3.8-0.32,9.46-22.67,12.61-24.24c3.15-1.57,7.55-6.29,7.55-2.83s-3.15,9.76-1.57,10.7c1.57,0.94,6.61-8.81,10.07-10.7
		s4.92-17.46,8.28-21.64C1977.79,1255.37,1961.74,1254.11,1961.74,1254.11z"/>
	<path class="st7" d="M2049.19,1112.52c0,0-21.4-13.18-30.37-11.15c-8.98,2.03-31.85,18.59-20.85,22.18
		c11,3.59,19.91-0.18,24.14,2.43s7.36,7.37,27.08,7.3C2068.91,1133.22,2049.19,1112.52,2049.19,1112.52z"/>
</g>
<g>
	
		<rect x="932.62" y="1033.14" transform="matrix(-0.9966 0.0821 -0.0821 -0.9966 2083.6584 2151.5569)" class="st3" width="129.91" height="171"/>
	
		<rect x="938.62" y="1038.77" transform="matrix(-0.9966 0.0821 -0.0821 -0.9966 2083.7717 2151.1729)" class="st4" width="118.03" height="159.35"/>
	<g>
		
			<rect x="948.08" y="1115.57" transform="matrix(-0.9966 0.0821 -0.0821 -0.9966 2046.0774 2147.9734)" class="st10" width="61.53" height="1.01"/>
		
			<rect x="948.47" y="1120.27" transform="matrix(-0.9966 0.0821 -0.0821 -0.9966 2047.2357 2157.3164)" class="st10" width="61.53" height="1.01"/>
		
			<rect x="948.86" y="1125.02" transform="matrix(-0.9966 0.0821 -0.0821 -0.9966 2048.3909 2166.7881)" class="st10" width="61.53" height="1.01"/>
	</g>
	
		<rect x="948.25" y="1100.02" transform="matrix(-0.9966 0.0821 -0.0821 -0.9966 2016.8002 2119.3005)" class="st10" width="33.13" height="2.22"/>
	
		<rect x="948.24" y="1105.5" transform="matrix(-0.9966 0.0821 -0.0821 -0.9966 2024.4337 2129.9343)" class="st10" width="40.34" height="2.22"/>
	<g>
		
			<rect x="1020.97" y="1093.2" transform="matrix(-0.9966 0.0821 -0.0821 -0.9966 2157.7144 2125.9373)" class="st3" width="28.31" height="28.31"/>
		<polygon class="st9" points="1043.19,1103.56 1036.46,1114.65 1026.03,1098.66 1037.32,1107.34 		"/>
	</g>
	<g>
		
			<rect x="952.66" y="1171.58" transform="matrix(-0.9966 0.0821 -0.0821 -0.9966 2059.8018 2259.4263)" class="st10" width="61.53" height="1.01"/>
		
			<rect x="953.05" y="1176.27" transform="matrix(-0.9966 0.0821 -0.0821 -0.9966 2060.959 2268.7703)" class="st10" width="61.53" height="1.01"/>
		
			<rect x="953.44" y="1181.02" transform="matrix(-0.9966 0.0821 -0.0821 -0.9966 2062.1299 2278.2253)" class="st10" width="61.53" height="1.01"/>
	</g>
	
		<rect x="952.83" y="1156.02" transform="matrix(-0.9966 0.0822 -0.0822 -0.9966 2030.5674 2230.7107)" class="st10" width="33.13" height="2.22"/>
	
		<rect x="952.81" y="1161.5" transform="matrix(-0.9966 0.0821 -0.0821 -0.9966 2038.1732 2241.3721)" class="st10" width="40.34" height="2.22"/>
	<g>
		
			<rect x="1025.55" y="1149.2" transform="matrix(-0.9966 0.0821 -0.0821 -0.9966 2171.4548 2237.3755)" class="st3" width="28.31" height="28.31"/>
		<polygon class="st9" points="1047.77,1159.56 1041.04,1170.66 1030.61,1154.67 1041.89,1163.35 		"/>
	</g>
	<g>
		
			<rect x="942.39" y="1070.1" transform="matrix(-0.9966 0.0821 -0.0821 -0.9966 2030.9507 2057.6548)" class="st10" width="61.53" height="1.01"/>
		
			<rect x="942.77" y="1074.79" transform="matrix(-0.9966 0.0821 -0.0821 -0.9966 2032.1068 2066.9995)" class="st10" width="61.53" height="1.01"/>
		
			<rect x="943.17" y="1079.54" transform="matrix(-0.9966 0.0821 -0.0821 -0.9966 2033.2952 2076.4365)" class="st10" width="61.53" height="1.01"/>
	</g>
	
		<rect x="942.55" y="1054.54" transform="matrix(-0.9966 0.0821 -0.0821 -0.9966 2001.6891 2028.9661)" class="st10" width="33.13" height="2.22"/>
	
		<rect x="942.54" y="1060.02" transform="matrix(-0.9966 0.0821 -0.0821 -0.9966 2009.3223 2039.5997)" class="st10" width="40.34" height="2.22"/>
	<g>
		
			<rect x="1015.27" y="1047.72" transform="matrix(-0.9966 0.0821 -0.0821 -0.9966 2142.6028 2035.6035)" class="st3" width="28.31" height="28.31"/>
		<polygon class="st9" points="1037.49,1058.08 1030.76,1069.18 1020.33,1053.19 1031.62,1061.87 		"/>
	</g>
</g>
<g>
	<path class="st7" d="M915.55,1062.34c2.24-1.58,3.99-5.11,6.29-7.74c1.71-1.95,4.96-3.84,4.96-3.84s0.33,4.58,0.68,8.28
		c6.8-2.54,17.03-4.88,33.36-1.74c3.27,0.63,6.23,2.49,8.03,5.29c1.66,2.59,2.29,5.83-1.88,8.42c-8.33,5.18-5.92,2.08-17.5,9.62
		c-11.58,7.54-25.76,9.47-34.23,4.17l-11.37-1.89l-1.41-18.7C902.49,1064.21,908.97,1063.44,915.55,1062.34z"/>
	<path class="st7" d="M617.66,905.51c0,0,26.8,31.79,60.93,18.49c0,0,7.34-17.76,7.45-30.85c0.01-1.61,0.03-3.17,0.06-4.66
		c0.18-14.74,0.68-23.01,0.68-23.01s-0.01,0-0.03-0.01c-1.55-0.65-52.17-21.43-52.13-19.7
		C635.47,885.65,617.66,905.51,617.66,905.51z"/>
	<path class="st16" d="M639.69,855.29c4.88,9.05,21.63,26.75,46.4,33.22c0.18-14.74,0.68-23.01,0.68-23.01s-0.01,0-0.03-0.01
		C685.33,865.11,638.23,852.62,639.69,855.29z"/>
	<path class="st7" d="M697.37,863.96c0,0-56.93,13.38-64.72-22.2c-7.79-35.58-20.38-57.81,15.64-67.86
		c36.02-10.05,46.07,1.98,51.56,13.22C705.34,798.36,711.98,859.56,697.37,863.96z"/>
	<path class="st13" d="M634.6,851.46c-0.78,0.5-13.03,4.26-36.22-41.95c-3.64-7.25-6.12-22.95,2.37-36.81
		c8.49-13.87,38.59-24.77,63.59-29.51c25.01-4.74,31.01,9.33,36.9,23.47c6.18,14.85,24.03,27.07,24.03,27.07
		c-21.56,12.05-47.54-5.18-56.53-2.35c-9,2.83-12.18,17.01-12.85,21.56c-0.67,4.55-1.71,8.32-13.03,4.26
		c-11.32-4.06-5.12,16.03-3.3,19.88C639.56,837.06,641.09,847.3,634.6,851.46z"/>
	<g>
		<path class="st23" d="M487.96,1738.73h-34.47c-7.23,0-15.26-7.24-17.27-20.48c-2.01-13.26-16.86-20.48-20.08-31.33
			c-3.22-10.84,13.26-26.11,13.26-26.11l2.75-3.54l2.86-3.69l27.31,6.42c0,0,0.67,6.5,1.1,14.78c0.29,5.98,0.45,12.89,0.11,18.95
			c-0.8,14.46,4.05,30.03,16.89,32.84C493.27,1729.4,487.96,1738.73,487.96,1738.73z"/>
		<path class="st23" d="M727.92,1738.73h-91.37c-0.87-0.17-1.54-0.36-1.94-0.56c-6.1-3.05-4.19-26.41-3.46-33.63
			c0.14-1.34,0.24-2.12,0.24-2.12s32.13-25.7,36.55-6.02c0.14,0.61,0.3,1.22,0.47,1.81v0.01c5.58,18.41,30.51,26.77,44.91,29.1
			C724.34,1729.11,727.19,1735.53,727.92,1738.73z"/>
		<path class="st24" d="M709.51,1211.82c0,0-4.88,60.88-10.61,134.06c-7.8,99.41-17.17,221.52-18.1,244.65
			c-1.6,40.17-8.04,104.42-8.04,104.42s-15.25,15.27-45.78,8.83c0,0-27.2-91.72-34.98-188.77c-0.12-1.59-0.24-3.19-0.36-4.8
			c-7.23-98.79-18.47-306.83-18.47-306.83L709.51,1211.82z"/>
		<path class="st25" d="M709.51,1211.82c0,0-4.88,60.88-10.61,134.06L592,1515.01c-0.12-1.59-0.24-3.19-0.36-4.8
			c-7.23-98.79-18.47-306.83-18.47-306.83L709.51,1211.82z"/>
		<path class="st24" d="M687.22,1219.05c0,0-87.95,220.48-145.78,324.09c-57.83,103.61-75.9,132.53-75.9,132.53
			s-33.13-13.25-36.14-22.29c0,0,22.11-200.03,60.84-248.79c21.88-27.55,47.59-110.24,48.8-139.16c1.2-28.92,7.83-86.14,7.83-86.14
			L687.22,1219.05z"/>
	</g>
	<g>
		<path class="st7" d="M486.65,1178.99l-0.93,14.18c0,0,9.35,25.19-16.85,38.11c0,0-11.22,4.52-11.67-4.21
			c-0.45-8.73,0.98-5.45,0.07-17.74c-0.91-12.3,3.92-23.92,12.06-27.83l6.67-7.7L486.65,1178.99z"/>
		<path class="st21" d="M476.41,1189.32c9.73,3.12,11.29,2.42,11.29,2.42s47.38-86.26,52.18-94.16c4.8-7.9,100.6-96.74,100.6-96.74
			l-24.62-91.81c0,0-108.96,141.1-120.73,161.35c-19.44,33.46-30.84,111.16-30.84,111.16S468.77,1186.86,476.41,1189.32z"/>
	</g>
	<path class="st26" d="M728.07,1036.88c-0.34,18.85-1.44,40.05-2.91,61.57c-0.09,1.28-0.18,2.55-0.27,3.83
		c-0.94,13.34-4.99,59.85-5.21,61.72c-4.8,48.82-9.84,87.39-10.77,87.98c-1.12,0.74-2.37,1.12-3.75,0.96
		c-12.8-1.61-51,1.3-82.28-5.51c-26.39-5.57-49.11-16.12-73.19-30.35c-3.2-1.89-10.48-6.89-9.89-10.63
		c0.58-4.11,1.66-10.05,3.02-17.52c4.74-25.97,12.93-70.64,15.73-122.92c0.54-9.74,1.34-19.36,2.36-28.81
		c2.68-24.63,6.98-48.03,12.75-68.81c10.72-38.61,26.48-68.18,46.25-79.74c2.58-1.45,16.48,7.4,29.24,15.59
		c11.79,7.56,24.2,9.65,36.27,8.59l10.62,11.75c12.86,14.95,26.56,34.86,30.3,63.16c0.28,2.09,0.52,4.31,0.72,6.67
		C728.11,1005.95,728.36,1020.54,728.07,1036.88z"/>
	<path class="st21" d="M728.07,1036.88c-0.34,18.85-1.44,40.05-2.91,61.57c-0.09,1.28-0.18,2.55-0.27,3.83
		c-73.13-45.78-84.4-129.54-84.4-129.54c35.98,1.58,64.56,9.85,86.59,21.68C728.11,1005.95,728.36,1020.54,728.07,1036.88z"/>
	<path class="st26" d="M912.85,1072.94c0.75-10.85-4.86-12.65-4.86-12.65s-110.26-19.98-119.64-22.93
		c-9.37-2.95-89.52-86.33-89.52-86.33s-30.72-34.65-55.88-27c-21.86,6.65-30.4,23.7-33.31,39.94c-3.47,19.36,5.46,38.84,22.22,49.12
		c37.63,23.08,112.96,68.55,130.7,73.76c39.49,11.58,145.58,0.93,145.58,0.93S912.26,1081.46,912.85,1072.94z"/>
</g>
<g>
	<g>
		<path class="st1" d="M932.73,922.97h-97.91v-97.91h97.91V922.97z M838.89,918.9h89.78v-89.78h-89.78V918.9z"/>
	</g>
	<polygon class="st1" points="851.23,862.38 883.07,906.28 921.01,836.12 876.99,876.14 	"/>
</g>
<g>
	<g>
		<path class="st1" d="M1077.22,804.6H979.3v-97.91h97.91V804.6z M983.37,800.53h89.78v-89.78h-89.78V800.53z"/>
	</g>
	<polygon class="st1" points="995.71,744.01 1027.56,787.91 1065.5,717.75 1021.47,757.77 	"/>
</g>
<g>
	<path class="st7" d="M2583.99,1119.37c0,0-2.25-22.33,9.43-21.57c11.68,0.76,14.77,6.12,13.47,10.41s-12.66,18.49-12.66,18.49
		L2583.99,1119.37z"/>
	<path class="st25" d="M2565.74,1238.09c-20.38,0.82-61.21-11.15-76.61-17.48c-14.63-6.01-27.29-12.44-38.09-18.74
		c-2.9-1.69-5.66-3.36-8.29-5.02c-27.8-17.53-40.73-32.73-40.73-32.73s52.1-45.04,73.12-33.25c24.66,13.84,67.17,58.56,74.34,53.97
		c8.08-5.17,30.65-68.55,30.65-68.55c14.85-2.83,18.07,8.41,18.07,8.41S2594.66,1236.93,2565.74,1238.09z"/>
	<path class="st9" d="M2479.69,1711.39c0,0-2.14,24.71,3.09,27.28l66.83-0.14c0,0,0-7.71-10.73-9.43c-10.73-1.71-29.59-8-32.78-22
		C2502.9,1693.11,2479.69,1711.39,2479.69,1711.39z"/>
	<path class="st27" d="M2528.76,1412.39c-0.33,16.15-1.11,32.82-2.63,47.79c-7.22,71.06-9.75,156.91-10.79,173.47
		c-1.8,28.73-7.47,74.64-7.47,74.64s-11.26,10.69-33.21,5.59c0,0-18.18-66.12-22.24-135.73c-0.06-1.14-0.13-2.29-0.18-3.44
		c-0.47-9.2-0.96-19.73-1.47-31.08c-3.34-76.01-6.98-188.93-6.98-188.93l83.86-19.69C2527.65,1335,2529.58,1372.12,2528.76,1412.39z
		"/>
	<path class="st9" d="M2528.76,1412.39c-21.25,36.67-61.77,104.23-77.99,131.24c-3.34-76.01-6.98-188.93-6.98-188.93l83.86-19.69
		C2527.65,1335,2529.58,1372.12,2528.76,1412.39z"/>
	<path class="st7" d="M2353.83,1400.45c0,0-5.2,20.41-4.35,24.95s5.94,19.9,9.1,23.71c3.17,3.81,3.3-16.57,5.41-19.77
		c2.11-3.2,0.97,7.61,2.65,8.49c1.69,0.88,4.5-8.19,5.76-11.4s-4.5-14.41-5.03-22.44
		C2366.84,1395.96,2353.83,1400.45,2353.83,1400.45z"/>
	<path class="st9" d="M2313.21,1683.31c0,0-11.89,10.86-9.57,18.57c2.32,7.71,13.06,12.86,14.51,22.28
		c1.45,9.43,7.25,14.57,12.47,14.57c5.22,0,24.9,0,24.9,0s3.84-6.63-5.44-8.63c-9.28-2-12.79-13.08-12.2-23.36
		c0.58-10.28-0.87-24-0.87-24l-19.73-4.57L2313.21,1683.31z"/>
	<path class="st27" d="M2514.44,1356.42c0,0-78.51,167.97-120.28,241.67c-41.78,73.7-54.83,94.27-54.83,94.27
		s-23.93-9.43-26.11-15.86c0,0,15.98-142.28,43.95-176.97c15.81-19.6,34.38-78.42,35.25-98.98c0.87-20.57,19.21-69.66,19.21-69.66
		L2514.44,1356.42z"/>
	<path class="st24" d="M2529.06,1347.68c0,0-25.56,27.51-69,35.82c-19.06,3.65-57.76,7.17-67.36-6.4c-2.25-3.19-2.27-7.9-1.77-15.27
		c1.29-19.15,6.11-56.16-15.63-130.55c-2.03-6.92-3.39-13.56-4.18-19.88c-4.75-38.05,11.3-65.06,30.15-77.11
		c45.96-29.4,68.42-9.09,68.42-9.09s26.31,12.3,38.33,48.13C2532.05,1244.99,2529.06,1347.68,2529.06,1347.68z"/>
	<path class="st7" d="M2414.95,1126.59c0,0,26.31,8.53,50.31-1.33c0,0,4.63-2.42,0.84-7.64c0.41-5.03,0.33-4.57,0.38-8.25
		c0.29-8.51-0.13-13.27-0.13-13.27l-17.68-11.52l-16.78-11.04C2436.24,1108.4,2414.95,1126.59,2414.95,1126.59z"/>
	<path class="st28" d="M2432.8,1086.94c0,0,12.58,18.76,33.68,22.44c0.29-8.51-0.27-17.2-0.27-17.2l-17.54-7.59L2432.8,1086.94z"/>
	<path class="st7" d="M2482.05,1091.62c0,0-42.59,15.89-52.06-10.35c-9.48-26.24-21.35-41.86,5.44-53.12
		c26.79-11.26,35.72-3.13,41.05,4.85C2481.8,1040.99,2492.88,1086.81,2482.05,1091.62z"/>
	<path class="st23" d="M2403.46,1031.1c-0.49-0.38-1.48-0.57-3.56-0.27c0,0,1.44-1.35,3.62-1.84c-0.13-2.94,0.39-8.28,5.05-10.48
		c0,0-2.36,1.93-2.11,5.03c4.53-6.96,15.87-13.62,50.13-17.62c45.14-5.27,36.12,26.08,31.03,30.61c-5.08,4.53-21.41-1.91-31.96,1.06
		c-10.55,2.97-9.53,18.87-12.75,21.71s-2.53-1.2-7.89-2.45c-5.36-1.25-4.22,7-1.75,12.02s-2.91,13.35-2.91,13.35s0,0-8.29-6.01
		c-8.29-6.01-20.88-35.91-19.09-43.17C2403.14,1032.4,2403.29,1031.75,2403.46,1031.1z"/>
	<path class="st25" d="M2390.93,1361.83c1.29-19.15,6.11-56.16-15.63-130.55c-2.03-6.92-3.39-13.56-4.18-19.88l0.01,0
		c16.15-5.33,45.59,6.52,45.59,6.52S2423.63,1316.25,2390.93,1361.83z"/>
	<path class="st24" d="M2403.19,1133.07c0,0-33.35,18.89-44.75,61.03c-9.35,34.53-23.8,85.89-25.54,101.95s17.63,110.1,17.63,110.1
		s2.73,1.99,9.43,0.65c6.41-1.28,9.39-5.61,9.39-5.61s4.63-62.67,3.44-92.27c-0.5-12.3,56.92-90.04,87.9-100.06
		C2472.85,1204.92,2403.19,1133.07,2403.19,1133.07z"/>
	<path class="st25" d="M2426.29,1110.7c0,0-5.57,2.72-16.37,17.09c0,0,20.11,25.22,49.13,21.93c0,0-3.58-13.07-3.39-21.37
		C2455.66,1128.34,2431.4,1125.64,2426.29,1110.7z"/>
	<path class="st25" d="M2455.66,1128.34c0,0,15.5,4.04,19.22,15.19c0,0,3.29-9.59,0.39-15c-2.9-5.41-9.18-10.91-9.18-10.91
		S2468.21,1124.47,2455.66,1128.34z"/>
	<g>
		<g>
			<path class="st3" d="M2669.04,1066.11c0,0-57.46-1.63-123.76,10.57l-6.93-17.46l-7.6-19.12c0,0,66.56-28.66,106.57-68.56
				L2669.04,1066.11z"/>
			<path class="st14" d="M2636.42,970.62l32.99,97.38l0,0c4.82-1.43,7.46-6.61,5.78-11.35l-29.03-81.82
				C2644.75,970.86,2640.27,968.92,2636.42,970.62L2636.42,970.62z"/>
			<path class="st29" d="M2669.04,1066.11c0,0-57.46-1.63-123.76,10.57l-6.93-17.46C2600.65,1046.5,2669.04,1066.11,2669.04,1066.11
				z"/>
			<path class="st14" d="M2563.61,1073.17l-17.95,3.16c0.27,0.01-16.68,3.3-22.23-11.73c-0.51-1.03-0.84-2.04-1.06-3.24
				c-4.32-18.73,5.96-22.18,5.96-22.18l23.1-9l7.34,25.98c0,0,0,0,0,0.09L2563.61,1073.17z"/>
			<path class="st30" d="M2563.61,1073.17l-17.95,3.16c0.27,0.01-16.68,3.3-22.23-11.73c10.16-7.39,35.34-8.44,35.34-8.44
				s0,0,0,0.09L2563.61,1073.17z"/>
		</g>
		<path class="st29" d="M2604.93,1138.58L2604.93,1138.58c-6.41,1.28-12.71-2.92-13.99-9.33l-11.36-56.83
			c-1.28-6.41,2.92-12.71,9.33-13.99l0,0c6.41-1.28,12.71,2.92,13.99,9.33l11.36,56.83
			C2615.55,1131.01,2611.35,1137.3,2604.93,1138.58z"/>
	</g>
	<path class="st7" d="M2603.4,1083.55c0,0-8.78,3.5-7.17,7.37c1.61,3.87,12.78,9.18,14.54,6.13
		C2612.53,1094,2608.93,1080.29,2603.4,1083.55z"/>
	<path class="st7" d="M2583.82,1115.86c0,0-1.66-8.98-1.76-13.11c-0.1-4.13-1.3-7.25-0.33-7.36s1.51,0.6,1.91,1.93
		s2.79,9.35,2.79,9.35l-0.77,7.94L2583.82,1115.86z"/>
</g>
<rect x="1441.1" y="732.97" class="st3" width="198.43" height="198.43"/>
<rect x="1439.86" y="1010.1" class="st3" width="198.43" height="198.43"/>
<rect x="1439.86" y="1296.68" class="st3" width="198.43" height="198.43"/>
<polygon class="st9" points="1705.41,749.34 1729.07,781.95 1757.25,729.83 1724.55,759.55 "/>
<g>
	<path class="st31" d="M1384.61,1452.17c0,0-49.09,36.5-58.66,34.29c-9.57-2.21,35.87-39.4,35.87-39.4
		c-17.1-8.22-70.26-3.07-70.26-3.07s-17.71,57.1-26.44,52.6c-8.73-4.5,18.26-49.76,18.26-49.76c-19.05-1.15-42.41,12.99-42.41,12.99
		c-31.98,25.26,2.1,65.02,2.1,65.02s-6.56,19.66-26.76,37.56c0,0-28.84,21.33-30.85,59.45l5.23,0.47c0,0,8.3-35.5,23.38-52.29
		c0.59-0.61,1.44-1.48,2.49-2.54c2.46-2.27,4.18-3.98,5.34-5.25c7.51-7.21,17.88-16.4,22.88-17.29c0,0-0.25-0.92-0.21-2.51
		c0.07,0.8,0.14,1.63,0.21,2.51c1.71,20.1,40.7,37.65,64.68,41.26c23.99,3.61,16.57-6.25,8.31-20.87
		c-8.26-14.62-34.42-21.16-40.38-27.89c-5.97-6.73,6.37-6.75,20.82-0.15c14.45,6.6,16.43,24.2,39.61,35.3
		c23.18,11.1,58.06-27.37,58.06-27.37c-18.48-0.94-44.86-21-43.9-27.14c0.96-6.14,44.79,10.59,52.28,11.39
		c7.49,0.8,24.54-8.52,27.18-38.7C1434.09,1460.59,1384.61,1452.17,1384.61,1452.17z"/>
	<g>
		<path class="st31" d="M1123.92,1474.84c0,0,54.22-30.36,28.92-71.57c0,0-20.24-25.3-41.93-31.81c0,0,11.57,61.45,0,62.89
			c-11.57,1.45-7.95-69.4-7.95-69.4s-57.11-27.47-79.52-25.3c0,0,35.42,60,23.86,58.55c-11.57-1.45-51.32-62.17-51.32-62.17
			s-58.55-10.84-67.95,23.85s5.78,52.05,14.46,54.22c8.67,2.17,64.34,1.45,62.89,8.67c-1.45,7.23-39.03,18.8-60,12.29
			c0,0,23.13,57.11,53.49,54.22c30.36-2.89,39.76-21.69,58.55-23.13c18.79-1.45,32.53,3.61,23.13,8.68
			c-9.4,5.06-41.2,1.66-56.38,14.56c-15.18,12.91-27.47,20.86,0.72,26.64c28.19,5.78,78.79,2.17,88.91-19.52
			C1123.92,1474.84,1123.92,1474.84,1123.92,1474.84z"/>
		<path class="st32" d="M1138.38,1527.61c-15.18-28.19-14.46-52.77-14.46-52.77c-17.35-54.94-169.15-104.1-169.15-104.1
			c193.01,78.07,159.03,125.78,159.03,125.78c5.2,3.03,13,17.5,18.41,28.6c0.77,1.89,1.99,4.5,3.8,8.05l0,0
			c0.73,1.6,1.32,2.92,1.73,3.83c9.94,24.86,4.67,67.8,4.67,67.8l6.02,1.62C1161.79,1563.16,1138.38,1527.61,1138.38,1527.61z"/>
	</g>
	<g>
		<path class="st33" d="M1210.17,1432.96c0,0-71.47-40.02-38.12-94.34c0,0,26.68-33.35,55.27-41.93c0,0-15.25,81,0,82.9
			c15.25,1.91,10.48-91.48,10.48-91.48s75.28-36.21,104.82-33.35c0,0-46.69,79.09-31.45,77.18c15.25-1.91,67.66-81.95,67.66-81.95
			s77.19-14.29,89.57,31.44c12.39,45.74-7.62,68.61-19.06,71.47s-84.81,1.91-82.9,11.44s51.46,24.78,79.09,16.2
			c0,0-30.49,75.28-70.51,71.47c-40.02-3.81-52.41-28.59-77.19-30.49c-24.78-1.91-42.88,4.76-30.49,11.43
			c12.39,6.67,54.32,2.19,74.33,19.2c20.01,17.01,36.21,27.49-0.95,35.12c-37.16,7.62-103.87,2.86-117.21-25.73
			C1210.17,1432.96,1210.17,1432.96,1210.17,1432.96z"/>
		<path class="st32" d="M1433.15,1295.75c0,0-200.11,64.8-222.98,137.22c0,0,0.95,32.4-19.06,69.56c0,0-30.86,46.86-13.27,103.91
			l7.94-2.13c0,0-6.94-56.6,6.16-89.38c0.53-1.21,1.31-2.94,2.28-5.05l0,0c2.39-4.68,4-8.13,5.02-10.62
			c7.13-14.63,17.42-33.7,24.27-37.7C1223.51,1461.55,1178.73,1398.66,1433.15,1295.75z"/>
	</g>
	<path class="st34" d="M1207.76,1730.14c77.32,0,139.99-62.68,139.99-139.99h-279.98
		C1067.77,1667.46,1130.45,1730.14,1207.76,1730.14z"/>
	<path class="st35" d="M1242.21,1729.07c-5.69,0.71-11.5,1.07-17.39,1.07c-77.31,0-139.99-62.68-139.99-139.99h34.78
		C1119.61,1661.57,1173.1,1720.5,1242.21,1729.07z"/>
	<path class="st34" d="M1332.42,1720.51h-249.31c-9.54,0-17.27,7.73-17.27,17.27h283.85
		C1349.69,1728.24,1341.96,1720.51,1332.42,1720.51z"/>
	<path class="st36" d="M1348.79,1590.14h-283.48c-1.19,0-2.15,0.96-2.15,2.15c0,1.19,0.96,2.15,2.15,2.15h283.48
		c1.19,0,2.15-0.96,2.15-2.15C1350.94,1591.1,1349.98,1590.14,1348.79,1590.14z"/>
</g>
</svg>
