<?xml version="1.0" encoding="utf-8"?>
<!-- Generator: Adobe Illustrator 25.2.0, SVG Export Plug-In . SVG Version: 6.00 Build 0)  -->
<svg version="1.1" id="Layer_1" xmlns="http://www.w3.org/2000/svg" xmlns:xlink="http://www.w3.org/1999/xlink" x="0px" y="0px"
	 viewBox="0 0 393.94 201.94" style="enable-background:new 0 0 393.94 201.94;" xml:space="preserve">
<style type="text/css">
	.st0{fill:#DEE7F6;}
	.st1{fill:#F37269;}
	.st2{fill:#7089C5;}
	.st3{fill:#4163AE;}
	.st4{fill:#AE4E49;}
	.st5{fill:#E75755;}
	.st6{fill:#A9403F;}
	.st7{fill:#98B2DD;}
	.st8{fill:#4B58A7;}
	.st9{fill:#C1D2EC;}
	.st10{fill:#EE7770;}
	.st11{fill:#F69695;}
	.st12{fill:#EA8787;}
	.st13{fill:#1D1852;}
	.st14{fill:#101131;}
	.st15{fill:#F59191;}
	.st16{fill:#9E332F;}
	.st17{fill:#EC6966;}
	.st18{fill:#221D55;}
	.st19{fill:#0C0D18;}
</style>
<g>
	<g>
		<path class="st0" d="M19.68,201.88c0,0-42.32-90.12,41.09-90.12c44.07,0,25.91-24.73,55.87-53.34
			C146.6,29.81,251.37,6.95,273.68,62.2c22.3,55.26-32.81,97.21,20.44,90.01c64-8.65,89.28,49.67,89.28,49.67H19.68z"/>
		<path class="st1" d="M362.41,190.45c-3.95-2.89-12.02-0.94-17.97,1.15c-0.89-1.25-1.97-2.54-3.27-3.8
			c12.83-8.26,30.55-25.89,21.16-27.38c-8.16-1.3-19.18,14.57-25.07,24.23c-6.11-4.11-15.48-7.14-29.79-6.09
			c-37.13,2.72-66.13-21.23-87.51-13.24c-17,6.35-32.58,9.91-47.6,8.69c0.65-10.98,0.79-32.52-7.83-34.76
			c-8.75-2.27-0.17,22.2,4.6,34.42c-1.12-0.14-2.24-0.31-3.35-0.51c-3.09-6.09-8.18-14.06-13.77-14.33
			c-5.26-0.26,1.23,6.91,7.63,12.98c-18.37-3.86-40.17,11.08-40.53,28.74h229.37c0,0-0.41-2.58-2.21-5.98
			C355.13,194.39,366.7,193.58,362.41,190.45z"/>
		<g>
			<g>
				<rect x="108.68" y="186.89" class="st2" width="60.45" height="13.65"/>
				<rect x="90.04" y="186.89" class="st3" width="60.45" height="13.65"/>
			</g>
		</g>
		<g>
			<g>
				<g>
					
						<rect x="192.92" y="137.62" transform="matrix(-1 -1.224647e-16 1.224647e-16 -1 430.85 338.1525)" class="st4" width="45.02" height="62.92"/>
					
						<rect x="179.04" y="137.62" transform="matrix(-1 -1.224647e-16 1.224647e-16 -1 403.0904 338.1525)" class="st5" width="45.02" height="62.92"/>
				</g>
			</g>
			<polygon class="st6" points="224.05,137.62 237.93,147.06 237.93,137.62 			"/>
		</g>
		<g>
			<path class="st7" d="M85.09,151.55c0,0-8.42,6.26-10.06,5.88c-1.64-0.38,6.15-6.76,6.15-6.76c-2.93-1.41-12.05-0.53-12.05-0.53
				s-3.04,9.79-4.53,9.02c-1.5-0.77,3.13-8.53,3.13-8.53c-3.27-0.2-7.27,2.23-7.27,2.23c-5.48,4.33,0.36,11.15,0.36,11.15
				s-1.13,3.37-4.59,6.44c0,0-4.95,3.66-5.29,10.2l0.9,0.08c0,0,1.42-6.09,4.01-8.97c0.1-0.1,0.25-0.25,0.43-0.44
				c0.42-0.39,0.72-0.68,0.91-0.9c1.29-1.24,3.07-2.81,3.92-2.97c0,0-0.04-0.16-0.04-0.43c0.01,0.14,0.02,0.28,0.04,0.43
				c0.29,3.45,6.98,6.46,11.09,7.08c4.11,0.62,2.84-1.07,1.42-3.58c-1.42-2.51-5.9-3.63-6.93-4.78c-1.02-1.15,1.09-1.16,3.57-0.03
				c2.48,1.13,2.82,4.15,6.79,6.05c3.98,1.9,9.96-4.69,9.96-4.69c-3.17-0.16-7.69-3.6-7.53-4.65c0.16-1.05,7.68,1.82,8.97,1.95
				c1.29,0.14,4.21-1.46,4.66-6.64C93.58,153,85.09,151.55,85.09,151.55z"/>
			<g>
				<path class="st7" d="M40.38,155.44c0,0,9.3-5.21,4.96-12.27c0,0-3.47-4.34-7.19-5.45c0,0,1.98,10.54,0,10.79
					c-1.98,0.25-1.36-11.9-1.36-11.9s-9.79-4.71-13.64-4.34c0,0,6.07,10.29,4.09,10.04c-1.98-0.25-8.8-10.66-8.8-10.66
					s-10.04-1.86-11.65,4.09c-1.61,5.95,0.99,8.93,2.48,9.3c1.49,0.37,11.03,0.25,10.79,1.49c-0.25,1.24-6.69,3.22-10.29,2.11
					c0,0,3.97,9.79,9.17,9.3c5.21-0.5,6.82-3.72,10.04-3.97c3.22-0.25,5.58,0.62,3.97,1.49c-1.61,0.87-7.07,0.28-9.67,2.5
					c-2.6,2.21-4.71,3.58,0.12,4.57c4.84,0.99,13.51,0.37,15.25-3.35C40.38,155.44,40.38,155.44,40.38,155.44z"/>
				<path class="st8" d="M42.86,164.49c-2.6-4.83-2.48-9.05-2.48-9.05c-2.98-9.42-29.01-17.85-29.01-17.85
					c33.1,13.39,27.27,21.57,27.27,21.57c0.89,0.52,2.23,3,3.16,4.91c0.13,0.32,0.34,0.77,0.65,1.38l0,0
					c0.13,0.28,0.23,0.5,0.3,0.66c1.7,4.26,0.8,11.63,0.8,11.63l1.03,0.28C46.88,170.59,42.86,164.49,42.86,164.49z"/>
			</g>
			<g>
				<path class="st9" d="M55.18,148.26c0,0-12.26-6.86-6.54-16.18c0,0,4.58-5.72,9.48-7.19c0,0-2.61,13.89,0,14.22
					c2.61,0.33,1.8-15.69,1.8-15.69s12.91-6.21,17.98-5.72c0,0-8.01,13.56-5.39,13.24c2.61-0.33,11.6-14.05,11.6-14.05
					s13.24-2.45,15.36,5.39c2.12,7.84-1.31,11.77-3.27,12.26s-14.54,0.33-14.22,1.96c0.33,1.63,8.82,4.25,13.56,2.78
					c0,0-5.23,12.91-12.09,12.26c-6.86-0.65-8.99-4.9-13.24-5.23c-4.25-0.33-7.35,0.82-5.23,1.96c2.12,1.14,9.32,0.37,12.75,3.29
					c3.43,2.92,6.21,4.72-0.16,6.02c-6.37,1.31-17.81,0.49-20.1-4.41C55.18,148.26,55.18,148.26,55.18,148.26z"/>
				<path class="st8" d="M93.42,124.73c0,0-34.32,11.11-38.24,23.53c0,0,0.16,5.56-3.27,11.93c0,0-5.29,8.04-2.28,17.82l1.36-0.37
					c0,0-1.19-9.71,1.06-15.33c0.09-0.21,0.22-0.5,0.39-0.87l0,0c0.41-0.8,0.69-1.39,0.86-1.82c1.22-2.51,2.99-5.78,4.16-6.47
					C57.47,153.16,49.78,142.38,93.42,124.73z"/>
			</g>
			<path class="st10" d="M54.76,199.22c13.26,0,24.01-10.75,24.01-24.01H30.76C30.76,188.48,41.5,199.22,54.76,199.22z"/>
			<path class="st11" d="M60.67,199.04c-0.98,0.12-1.97,0.18-2.98,0.18c-13.26,0-24.01-10.75-24.01-24.01h5.96
				C39.65,187.47,48.82,197.57,60.67,199.04z"/>
			<path class="st10" d="M76.14,197.57H33.39c-1.64,0-2.96,1.33-2.96,2.96H79.1C79.1,198.9,77.78,197.57,76.14,197.57z"/>
			<path class="st4" d="M78.95,175.22H30.33c-0.2,0-0.37,0.16-0.37,0.37c0,0.2,0.16,0.37,0.37,0.37h48.62c0.2,0,0.37-0.16,0.37-0.37
				C79.32,175.38,79.15,175.22,78.95,175.22z"/>
		</g>
		<g>
			<path class="st12" d="M264.22,48.79c-0.7-0.11-2.79,1.83-2.79,1.83l0,0c-4.48,0.52-11.02,1.71-13.38,2.16
				c-1.67,0.32-6.16-1.21-10.55-2.97c-5.22-2.09-10.29-4.51-10.29-4.51c-2.9-0.15-6.19,5.14-0.31,8.5c0.9,0.51,4.27,1.39,8.14,2.19
				c0,0,0,0,0,0c5.35,1.1,11.67,2.06,13.83,1.72c2.5-0.39,9.58-2.98,13.79-4.96v0c0,0,0,0,0.01-0.01c0.02-0.01,0.03-0.01,0.05-0.02
				c0.25-0.12,1.28-0.58,1.97-0.54c0.79,0.05,2.54-1.4,2.6-1.78C267.32,50.02,264.91,48.89,264.22,48.79z"/>
			<path class="st13" d="M258.75,115.36l-2.47,0.5c0,0-11.28-12.68-13.02-18.01c-0.93-2.85-6.89-4.08-13.11-5.69
				c-5.42-1.4-11.04-3.09-13.72-6.38C210.65,78.7,220.05,70,220.05,70s9.99,5.94,18.61,12.07c6.02,4.29,11.38,8.67,12.18,11.19
				C252.79,99.38,256.95,111.02,258.75,115.36z"/>
			<path class="st14" d="M255.45,119.54h1.39c0.46-0.07,0.81-0.21,1.28-0.27c0.72-0.09,1.06,0.2,1.12,0.27
				c0.01,0.01,0.01,0.01,0.01,0.01h5.89c0.15-0.21,0.01-0.7-0.13-1.06c-0.09-0.25-0.3-0.43-0.55-0.5c-0.62-0.18-1.86-0.34-2.98-1.36
				c-0.63-0.57-3.06-2.11-3.06-2.11l-0.01,0c-0.05,0-0.31,0.08-1.41,1.01c-0.57,0.48-1.54-0.68-1.54-0.68s-0.18,0.15-0.32,0.43
				c-0.11,0.22-0.19,0.53-0.13,0.9c0.09,0.53-0.2,1.52-0.42,2.18c-0.14,0.4-0.25,0.69-0.25,0.69S254.26,119.39,255.45,119.54z"/>
			<path class="st14" d="M238.65,82.07l-8.51,10.08c-5.42-1.4-11.04-3.09-13.72-6.38C210.65,78.7,220.05,70,220.05,70
				S230.04,75.94,238.65,82.07z"/>
			<path class="st13" d="M230.92,76.81c0,0-0.69,2.16-1.8,5.42c-1.41,4.11-3.51,9.97-5.79,15.4c-0.5,1.19-1.01,2.37-1.52,3.5
				c-1.9,4.18-3.84,7.76-5.55,9.58c-3.07,3.27-10.54,24.32-10.54,24.32l-1.86-0.51c0,0-2.59-17.97,6.59-28.19
				c0.1-0.11,0.18-0.24,0.19-0.38c0,0,0,0,0,0c0.12-1.51,0.56-8.29,1.51-15.16c0.23-1.69,0.5-3.37,0.8-4.99
				c0.02-0.1,0.04-0.21,0.06-0.31c1.4-7.48,2.74-10.81,4.46-12.49l12.7,3.62L230.92,76.81z"/>
			<path class="st14" d="M203.65,137.6h1.39c0.46-0.07,0.81-0.21,1.28-0.27c0.72-0.09,1.06,0.2,1.12,0.27
				c0.01,0.01,0.01,0.01,0.01,0.01h5.89c0.15-0.21,0.01-0.7-0.13-1.06c-0.09-0.25-0.3-0.43-0.55-0.5c-0.62-0.18-1.86-0.34-2.98-1.36
				c-0.63-0.57-3.06-2.11-3.06-2.11l-0.01,0c-0.05,0-0.31,0.08-1.41,1.01c-0.57,0.48-1.55-0.68-1.55-0.68s-0.18,0.15-0.32,0.43
				c-0.11,0.22-0.19,0.53-0.13,0.9c0.09,0.53-0.2,1.52-0.42,2.18c-0.14,0.4-0.25,0.69-0.25,0.69S202.46,137.45,203.65,137.6z"/>
			<path class="st15" d="M206.38,52.37c0,0-2.13,5.2-4.58,10.26c-2.06,4.26-4.35,8.41-5.8,9.3c-2.05,1.25-7.69,4.78-11.35,7.41
				c0,0-2.86-0.02-3.3,0.52c-0.44,0.55-1.47,3-1.17,3.25c0.3,0.25,2.57,0.13,3.12-0.43c0.48-0.49,1.55-0.85,1.82-0.93
				c0.02-0.01,0.03-0.01,0.05-0.02c0.01,0,0.01,0,0.01,0v0c4.45-1.37,11.42-4.22,13.53-5.61c1.82-1.2,5.85-6.16,9.06-10.58
				c0,0,0,0,0,0c2.33-3.2,4.23-6.12,4.55-7.1C214.41,52,208.42,50.31,206.38,52.37z"/>
			<path class="st13" d="M217.49,31.98c-0.25-0.37-0.51-0.69-0.76-0.98c0.31,0.01,0.66-0.02,0.94-0.14
				c0.75-0.31,1.09-2.68,0.97-3.38c-0.11-0.7-1.15-2.73-2.43-2.94c-1.28-0.2-2.6,1.22-2.6,1.22c0.24-1.02,2.4-1.62,2.4-1.62
				c-4.45,0.82-4.23,3.79-4.2,4.07c-4.08-1.45-6.47,6.23-6.47,6.23l10.56,6.22c0,0,0.03-1.7,1.04-1.59
				C218.52,39.24,219.83,35.38,217.49,31.98z"/>
			<path class="st15" d="M218.17,48.09c-2.42,1.14-5.64-0.5-5.62-0.52c0.21-0.21,0.13-0.83-0.06-1.64
				c-0.19-0.85-0.64-2.01-1.47-3.39c-0.17-0.29-0.35-0.59-0.55-0.9l0.28-0.1l4.71-1.89c0,0,0.76,1.37,1.56,2.61
				c0.67,1.04,1.38,1.97,1.7,1.94C218.72,44.18,221.83,46.32,218.17,48.09z"/>
			<path class="st12" d="M215.45,40.11c-0.12,1.68-0.69,4.71-2.96,5.82c-0.19-0.85-0.64-2.01-1.47-3.39L215.45,40.11z"/>
			<path class="st15" d="M210.74,44.44c0,0,6.13-2.42,4.57-6.21c-1.56-3.79-1.82-6.66-5.8-5.28c-3.98,1.38-4.14,3.14-3.92,4.53
				C205.79,38.88,209.11,44.97,210.74,44.44z"/>
			<path class="st13" d="M213.03,37.37c2.83-0.4,3.66-1.54,3.66-1.54s-2.61-0.75-4.14-3.3c0,0-3.18-1.07-5.54,0.72
				c-0.14,0.19-0.25,0.41-0.3,0.66c-0.54-0.18-1.35-0.13-1.82,1.4c-0.7,2.29,1.8,4.8,1.8,4.8c0.61-0.17-0.08-2.22-0.17-3.31
				c-0.07-0.8,0.36-1.83,0.6-2.32c0.3,0.39,3.29,4.14,6.93,4.29c0,0-1.93-0.67-3.68-1.98C211.24,37.22,212.16,37.49,213.03,37.37z"
				/>
			<path class="st3" d="M229.84,55.9c-0.05-0.18-0.11-0.37-0.17-0.57c0.91-1.74,1.36-3.31,1.55-4.64c0.42-2.8-0.29-4.54-0.29-4.54
				s-4.25-2.25-6.13-2.54c-0.01,0-0.02-0.01-0.02-0.01c-0.02,0-0.05-0.01-0.08-0.01c-1.89-0.26-6,0.58-6,0.58s0.79,2.11-1.44,3.51
				c-2.23,1.4-4.62-0.36-4.62-0.36c-0.07,0.05-0.15,0.1-0.23,0.16l0,0c0,0-5.87,3.88-6.4,4.76c-0.53,0.89-2.79,5.27-2.79,5.27
				s0.72,3.68,8.65,3.99c0.65,1.58,1.15,3.13,1.31,4.41c0.63,5-0.1,8.94,0.63,11.86c0.73,2.92,13.98,1.25,16.37,0.69
				c2.4-0.56,1.86-3.12,2.04-5.61C232.47,69.75,230.62,58.66,229.84,55.9z"/>
			<path class="st8" d="M231.22,50.7c-0.19,1.33-0.64,2.91-1.56,4.66c-0.21-0.92-1.06-4.28-2.42-5.8
				C227.24,49.56,229.54,49.77,231.22,50.7z"/>
		</g>
		<g>
			<path class="st12" d="M177.3,83.46c0,0,2.47-2.99,3-3.34c0.53-0.35,2.86-0.97,2.99-0.85c0.13,0.12,0.14,0.31-0.15,0.56
				c-0.29,0.25-1.39,0.9-1.23,0.97c0.16,0.07,3.48-1.58,3.96-1.03c0.48,0.56-0.27,2.85-1.55,3.96c-1.28,1.1-5.1,1.57-5.35,1.73
				C176.94,86.76,177.3,83.46,177.3,83.46z"/>
			<path class="st15" d="M133.87,76.55c0,0,3.54,4.2,8.06,2.45c0,0,0.97-2.35,0.98-4.08c0-0.21,0-0.42,0.01-0.62
				c0.02-1.95,0.09-3.04,0.09-3.04s0,0,0,0c-0.21-0.09-6.9-2.83-6.89-2.61C136.23,73.93,133.87,76.55,133.87,76.55z"/>
			<path class="st12" d="M136.78,69.91c0.65,1.2,2.86,3.54,6.14,4.39c0.02-1.95,0.09-3.04,0.09-3.04s0,0,0,0
				C142.82,71.21,136.59,69.56,136.78,69.91z"/>
			<path class="st15" d="M144.41,71.06c0,0-7.53,1.77-8.56-2.94c-1.03-4.7-2.7-7.65,2.07-8.97c4.76-1.33,6.09,0.26,6.82,1.75
				C145.47,62.39,146.34,70.48,144.41,71.06z"/>
			<path class="st16" d="M136.11,69.41c-0.1,0.07-1.72,0.56-4.79-5.55c-0.48-0.96-0.81-3.03,0.31-4.87c1.12-1.83,5.1-3.28,8.41-3.9
				c3.31-0.63,4.1,1.23,4.88,3.1c0.82,1.96,3.18,3.58,3.18,3.58c-2.85,1.59-6.29-0.69-7.48-0.31c-1.19,0.37-1.61,2.25-1.7,2.85
				c-0.09,0.6-0.23,1.1-1.72,0.56c-1.5-0.54-0.68,2.12-0.44,2.63C136.77,67.5,136.97,68.86,136.11,69.41z"/>
			<g>
				<path class="st14" d="M116.72,186.89h-4.56c-0.96,0-2.02-0.97-2.28-2.74c-0.27-1.78-2.23-2.74-2.66-4.2
					c-0.43-1.45,1.75-3.5,1.75-3.5l0.36-0.47l0.38-0.49l3.61,0.86c0,0,0.09,0.87,0.14,1.98c0.04,0.8,0.06,1.73,0.01,2.54
					c-0.11,1.94,0.54,4.02,2.23,4.4C117.42,185.64,116.72,186.89,116.72,186.89z"/>
				<path class="st14" d="M148.45,186.93h-12.08c-0.12-0.02-0.2-0.05-0.26-0.08c-0.81-0.42-0.55-3.6-0.46-4.58
					c0.02-0.18,0.03-0.29,0.03-0.29s4.25-3.5,4.83-0.82c0.02,0.08,0.04,0.17,0.06,0.25v0c0.74,2.51,4.03,3.65,5.94,3.96
					C147.98,185.62,148.35,186.5,148.45,186.93z"/>
				<path class="st17" d="M146.02,117.06c0,0-0.65,8.05-1.4,17.73c-1.03,13.15-2.27,29.29-2.39,32.35
					c-0.21,5.31-1.06,13.81-1.06,13.81s-2.02,2.02-6.05,1.17c0,0-3.6-12.13-4.63-24.96c-0.02-0.21-0.03-0.42-0.05-0.63
					c-0.96-13.06-2.44-40.57-2.44-40.57L146.02,117.06z"/>
				<path class="st5" d="M146.02,117.06c0,0-0.65,8.05-1.4,17.73l-14.13,22.37c-0.02-0.21-0.03-0.42-0.05-0.63
					c-0.96-13.06-2.44-40.57-2.44-40.57L146.02,117.06z"/>
				<path class="st17" d="M143.07,118.02c0,0-11.63,29.16-19.28,42.86c-7.65,13.7-10.04,17.53-10.04,17.53s-4.38-1.75-4.78-2.95
					c0,0,2.92-26.45,8.05-32.9c2.89-3.64,6.29-14.58,6.45-18.4c0.16-3.82,1.04-11.39,1.04-11.39L143.07,118.02z"/>
			</g>
			<g>
				<path class="st12" d="M116.44,113.16c0,0-0.3,3.64-0.52,4.2c-0.22,0.56-1.69,2.29-1.86,2.27c-0.17-0.02-0.27-0.16-0.19-0.51
					c0.09-0.35,0.59-1.44,0.43-1.41c-0.16,0.03-1.84,3.1-2.51,2.93c-0.67-0.17-1.33-2.36-0.93-3.9c0.4-1.54,3.11-3.96,3.21-4.21
					C114.95,110.41,116.44,113.16,116.44,113.16z"/>
				<path class="st14" d="M115.19,114.08c1.29,0.41,1.49,0.32,1.49,0.32s6.27-11.41,6.9-12.45c0.63-1.04,13.3-12.79,13.3-12.79
					l-3.26-12.14c0,0-14.41,18.66-15.96,21.34c-2.57,4.42-4.08,14.7-4.08,14.7S114.18,113.76,115.19,114.08z"/>
			</g>
			<path class="st18" d="M148.47,93.93c-0.05,2.49-0.19,5.3-0.39,8.14c-0.01,0.17-0.02,0.34-0.04,0.51
				c-0.12,1.76-0.26,3.53-0.42,5.25c-0.06,0.69-0.13,1.37-0.2,2.05l-0.01,0.09c-0.01,0.25-0.04,0.52-0.06,0.77
				c-0.64,6.46-1.3,11.56-1.42,11.63c-0.15,0.1-0.31,0.15-0.5,0.13c-1.69-0.21-6.74,0.17-10.88-0.73c-3.49-0.74-6.49-2.13-9.68-4.01
				c-0.42-0.25-1.39-0.91-1.31-1.41c0.08-0.54,0.22-1.33,0.4-2.32c0.63-3.43,1.71-9.34,2.08-16.25c0.07-1.29,0.18-2.56,0.31-3.81
				c0.35-3.26,0.92-6.35,1.69-9.1c1.42-5.11,3.5-9.02,6.12-10.55c0.34-0.19,2.18,0.98,3.87,2.06c1.56,1,3.2,1.28,4.8,1.14l1.4,1.55
				c1.7,1.98,3.51,4.61,4.01,8.35c0.04,0.28,0.07,0.57,0.1,0.88C148.48,89.84,148.51,91.77,148.47,93.93z"/>
			<path class="st14" d="M148.47,93.93c-0.05,2.49-0.19,5.3-0.39,8.14c-0.01,0.17-0.02,0.34-0.04,0.51
				c-9.67-6.05-11.16-17.13-11.16-17.13c4.76,0.21,8.54,1.3,11.45,2.87C148.48,89.84,148.51,91.77,148.47,93.93z"/>
			<g>
				<path class="st18" d="M178.77,83.76c-0.5-1.35-1.27-1.26-1.27-1.26s-14.38,3.58-15.67,3.74c-1.29,0.15-15.48-5.54-15.48-5.54
					s-5.59-2.51-8.2-0.22c-2.27,1.99-2.38,4.51-1.85,6.63c0.63,2.52,2.77,4.39,5.35,4.71c5.79,0.74,17.34,2.13,19.77,1.79
					c5.39-0.75,17.6-7.8,17.6-7.8S179.16,84.82,178.77,83.76z"/>
			</g>
		</g>
		<g id="man_2_">
			<g>
				<path class="st13" d="M320.55,110.11c0,0,2,1.85,1.61,3.17c-0.39,1.32-2.19,2.19-2.44,3.8c-0.24,1.61-1.22,2.48-2.1,2.48
					c-0.88,0-4.18,0-4.18,0s-0.65-1.13,0.91-1.47s2.15-2.23,2.05-3.98c-0.1-1.75,0.15-4.09,0.15-4.09l3.31-0.78L320.55,110.11z"/>
				<path class="st13" d="M295.66,119.34c-0.2,0.1-0.91,0.17-1.89,0.22h-9.46c0.03-0.28,0.25-1.28,1.8-1.53
					c1.75-0.28,4.77-1.3,5.45-3.53c0.02-0.07,0.04-0.15,0.06-0.22c0.54-2.39,4.43,0.73,4.43,0.73s0.01,0.1,0.03,0.26
					C296.16,116.14,296.39,118.98,295.66,119.34z"/>
				<path class="st2" d="M286.57,55.49c0,0,0.59,7.39,1.29,16.26c0.95,12.06,2.08,26.88,2.2,29.68c0.19,4.87,0.97,12.67,0.97,12.67
					s1.85,1.85,5.55,1.07c0,0,3.3-11.13,4.24-22.9c0.01-0.19,0.03-0.39,0.04-0.58c0.88-11.99,2.24-37.23,2.24-37.23L286.57,55.49z"
					/>
				<path class="st3" d="M286.57,55.49c0,0,0.59,7.39,1.29,16.26l12.97,20.52c0.01-0.19,0.03-0.39,0.04-0.58
					c0.88-11.99,2.24-37.23,2.24-37.23L286.57,55.49z"/>
				<path class="st2" d="M289.27,56.37c0,0,10.67,26.75,17.69,39.32c7.02,12.57,9.21,16.08,9.21,16.08s4.02-1.61,4.39-2.7
					c0,0-2.68-24.27-7.38-30.18c-2.65-3.34-5.77-13.37-5.92-16.88c-0.15-3.51-0.95-10.45-0.95-10.45L289.27,56.37z"/>
			</g>
			<g>
				<path class="st15" d="M256.36,41.86c0,0-2.89-0.66-3.38-0.63c-0.49,0.03-2.19,0.75-2.21,0.88c-0.02,0.14,0.06,0.25,0.35,0.27
					c0.29,0.02,1.26-0.1,1.2,0.01c-0.06,0.12-2.85,0.67-2.88,1.23c-0.03,0.56,1.5,1.61,2.79,1.68c1.29,0.07,3.83-1.43,4.05-1.45
					C258.12,43.69,256.36,41.86,256.36,41.86z"/>
				<path class="st5" d="M255.12,42.59c-0.41-1.32-0.32-1.53-0.32-1.53s11.73-6.34,12.81-6.99c1.07-0.64,13.2-13.55,13.2-13.55
					l12.42,3.42c0,0-19.22,14.64-21.97,16.22c-4.55,2.61-15.09,4.08-15.09,4.08S255.45,43.63,255.12,42.59z"/>
			</g>
			<path class="st15" d="M284.57,14.25c0,0-4.35,7.66-8.61,8.66c0,0,0.18-2.57,1.21-4.33c-0.42-0.5-0.8-0.96-1.12-1.37
				c-1.07-1.37-1.58-2.21-1.58-2.21l1.44-3.88l0.98-2.63c0.47,0.85,0.99,1.58,1.53,2.21C281.22,13.89,284.57,14.25,284.57,14.25z"/>
			<path class="st12" d="M278.43,10.69c0,0,0.52,3.84-2.38,6.52c-1.07-1.37-1.58-2.21-1.58-2.21l1.44-3.88
				C277.47,10.64,278.43,10.69,278.43,10.69z"/>
			<path class="st15" d="M273.33,15.56c0,0,6.51-2.54,4.86-6.56c-1.64-4.03-1.91-7.07-6.13-5.62c-4.22,1.45-4.4,3.31-4.18,4.79
				C268.11,9.65,271.59,16.12,273.33,15.56z"/>
			<path class="st17" d="M306.93,53.56c-2.62,3.77-22.24,8.81-22.01,6.2c0.09-1,0.21-2.76,0-5.15c-0.05-0.56-0.12-1.15-0.21-1.78
				c-0.5-3.43-1.68-7.84-4.32-12.95c-0.2-0.38-0.4-0.77-0.62-1.16c-1.09-1.98-2.01-4.07-2.72-6.11c-1.36-3.93-1.91-7.69-1.22-10.14
				c0-0.01,0.01-0.02,0.01-0.03c4.1-1.9,5.69-9.25,5.69-9.25s13.99,2.51,21.83,21.16C303.36,34.35,309.22,50.28,306.93,53.56z"/>
			<path class="st5" d="M284.92,54.61c-0.05-0.56-0.12-1.15-0.21-1.78c-0.5-3.43-1.68-7.84-4.32-12.95
				c0.45-2.75,1.08-5.03,1.77-6.06c2.79-4.18,4.42-4.84,4.42-4.84S290.75,46.63,284.92,54.61z"/>
			<g>
				<path class="st15" d="M262.86,50.42c0,0-3.87,0.2-4.47,0.42c-0.6,0.22-2.48,1.72-2.46,1.9c0.02,0.18,0.16,0.29,0.54,0.21
					c0.38-0.08,1.55-0.58,1.51-0.41c-0.04,0.17-3.34,1.86-3.18,2.57c0.16,0.72,2.46,1.48,4.1,1.11c1.65-0.37,4.3-3.17,4.57-3.27
					C265.73,52.08,262.86,50.42,262.86,50.42z"/>
				<path class="st17" d="M262.13,51.88c-0.78-1.25-0.22-1.82-0.22-1.82s11.96-9.36,12.89-10.31c0.94-0.95,5.28-16.01,5.28-16.01
					s1.49-6.09,4.99-6.77c3.04-0.58,5.14,0.92,6.52,2.68c1.64,2.1,1.8,5,0.44,7.29c-3.05,5.14-9.21,15.36-11.01,17.1
					c-4,3.88-17.39,9.31-17.39,9.31S262.74,52.87,262.13,51.88z"/>
			</g>
			<path class="st13" d="M279.13,1.52c0.05-0.09,0.18-0.19,0.5-0.28c0,0-0.3-0.1-0.65-0.02c-0.18-0.45-0.63-1.2-1.46-1.21
				c0,0,0.48,0.12,0.65,0.6c-1.14-0.72-3.26-0.93-8.54,0.83c-6.96,2.32-3.48,6.36-2.43,6.68c1.05,0.32,3-1.75,4.74-2.04
				c1.75-0.28,2.69,2.15,3.36,2.35c0.67,0.2,0.29-0.35,0.98-0.91c0.7-0.55,1.1,0.75,1.08,1.67c-0.02,0.92,1.34,1.78,1.34,1.78
				s0,0,0.8-1.46c0.8-1.46,0.58-6.77-0.18-7.73C279.26,1.69,279.19,1.61,279.13,1.52z"/>
		</g>
		<path class="st19" d="M393.4,201.94H0.53c-0.29,0-0.53-0.24-0.53-0.53v-0.34c0-0.29,0.24-0.53,0.53-0.53H393.4
			c0.29,0,0.53,0.24,0.53,0.53v0.34C393.94,201.7,393.7,201.94,393.4,201.94z"/>
		<polygon class="st9" points="169.13,186.73 169.13,194.61 150.49,186.73 		"/>
		<rect x="267.02" y="119.56" class="st2" width="61.65" height="80.97"/>
		<rect x="248.01" y="119.56" class="st3" width="61.65" height="80.97"/>
		<polygon class="st9" points="328.66,119.56 328.66,131.67 309.66,119.56 		"/>
	</g>
</g>
</svg>
