<?xml version="1.0" encoding="utf-8"?>
<!-- Generator: Adobe Illustrator 25.2.0, SVG Export Plug-In . SVG Version: 6.00 Build 0)  -->
<svg version="1.1" xmlns="http://www.w3.org/2000/svg" xmlns:xlink="http://www.w3.org/1999/xlink" x="0px" y="0px"
	 viewBox="0 0 2806.4 2724.2" style="enable-background:new 0 0 2806.4 2724.2;" xml:space="preserve">
<style type="text/css">
	.st0{fill:url(#SVGID_1_);}
	.st1{fill:url(#SVGID_2_);}
	.st2{fill:url(#SVGID_3_);}
	.st3{fill:url(#SVGID_4_);}
	.st4{fill:url(#SVGID_5_);}
	.st5{fill:#91B3FA;}
	.st6{fill:#BDD0FB;}
	.st7{opacity:0.74;fill:#FFFFFF;}
	.st8{opacity:0.53;fill:#FFFFFF;}
</style>
<g id="Background">
</g>
<g id="Illustration">
	<linearGradient id="SVGID_1_" gradientUnits="userSpaceOnUse" x1="2985.9592" y1="3159.6931" x2="1058.1722" y2="1107.5333">
		<stop  offset="0" style="stop-color:#DAE3FE"/>
		<stop  offset="1" style="stop-color:#E9EFFD"/>
	</linearGradient>
	<path class="st0" d="M2407.1,2336.4c-71.2,73.4-134.8,116.5-183.6,149c-475.5,317.5-1019,226-1187.1,194.7
		c-271.1-50.5-500-86.1-696.6-263.7C-106.9,2012.7-85.2,1170.6,256.2,649c40.5-61.9,381.4-567.2,926.1-638.4
		c13.3-1.7,23.3-2.7,32-3.7c84.3-8.9,606.4-56,1032.2,300.7c60.9,51.1,159,143.2,250,283.6C2829,1104.9,2830.1,1900.4,2407.1,2336.4
		z"/>
	<g>
		<g>
			<linearGradient id="SVGID_2_" gradientUnits="userSpaceOnUse" x1="1510.5754" y1="2083.0842" x2="1442.9502" y2="2996.0232">
				<stop  offset="0" style="stop-color:#09005D"/>
				<stop  offset="0.2568" style="stop-color:#0B0262"/>
				<stop  offset="0.5758" style="stop-color:#100672"/>
				<stop  offset="0.9265" style="stop-color:#180D8B"/>
				<stop  offset="1" style="stop-color:#1A0F91"/>
			</linearGradient>
			<polygon class="st1" points="1188.9,2080.5 1130,2608.7 1813.3,2608.7 1724.3,2080.5 			"/>
			<linearGradient id="SVGID_3_" gradientUnits="userSpaceOnUse" x1="1521.8711" y1="183.3038" x2="1346.0453" y2="1934.797">
				<stop  offset="0" style="stop-color:#09005D"/>
				<stop  offset="1" style="stop-color:#1A0F91"/>
			</linearGradient>
			<path class="st2" d="M0,741.5v1244.7c0,102.4,81.6,186.1,184,188.8c454.6,11.7,2044.7,40.1,2477.5,33.8
				c74.4-1.1,134.6-60.6,136.8-135c8.3-289.2,21.9-984.5-28.3-1307.3c-10.6-68-67.9-118.8-136.7-121
				c-380.9-12.2-2066.5-50.9-2499.1-41.2C59.6,605.9,0,666.9,0,741.5z"/>
			<linearGradient id="SVGID_4_" gradientUnits="userSpaceOnUse" x1="1514.158" y1="-224.0476" x2="1299.9169" y2="2540.8962">
				<stop  offset="0" style="stop-color:#53D8FF"/>
				<stop  offset="1" style="stop-color:#3840F7"/>
			</linearGradient>
			<path class="st3" d="M78.1,735.4V1918c0,59.8,48,108.5,107.8,109.4l2413.3,29.8c59.3,0.9,107.8-46.8,108.1-106.1l4-1172
				c0.2-42.4-33.6-77.1-76-78.1L164.5,651.1C117.1,649.9,78.1,688,78.1,735.4z"/>
			<linearGradient id="SVGID_5_" gradientUnits="userSpaceOnUse" x1="1553.9982" y1="1995.8112" x2="1398.4612" y2="3138.6755">
				<stop  offset="0" style="stop-color:#09005D"/>
				<stop  offset="1" style="stop-color:#1A0F91"/>
			</linearGradient>
			<path class="st4" d="M1960.4,2716.8h-1000c-27.2,0-47.6-19.3-42.3-40.1l12.8-50.7c3.9-15.3,20.6-26.5,40.6-27.1l964-30.1
				c20.8-0.6,39.3,10.4,43.8,26.3l23.1,80.8C2008.5,2696.8,1988,2716.8,1960.4,2716.8z"/>
			<path class="st5" d="M78.1,735.4V1918c0,59.8,48,108.5,107.8,109.4l2413.3,29.8c59.3,0.9,107.8-46.8,108.1-106.1l4-1172
				c0.2-42.4-33.6-77.1-76-78.1L164.5,651.1C117.1,649.9,78.1,688,78.1,735.4z"/>
			<path class="st6" d="M2710.9,916.2l0.5-137.3c0.2-42.4-33.6-77-76-78L165.2,651c-47.4-1.2-85.8,37-85.8,84.4v180.8H2710.9z"/>
			<g>
				
					<ellipse transform="matrix(0.227 -0.9739 0.9739 0.227 -607.4869 858.4162)" class="st7" cx="237" cy="811.9" rx="28.3" ry="28.3"/>
				
					<ellipse transform="matrix(0.7071 -0.7071 0.7071 0.7071 -475.9667 474.6982)" class="st7" cx="335" cy="811.9" rx="28.3" ry="28.3"/>
				
					<ellipse transform="matrix(0.8954 -0.4453 0.4453 0.8954 -316.5425 276.4217)" class="st7" cx="430" cy="811.9" rx="28.3" ry="28.3"/>
			</g>
			<path class="st6" d="M2564.2,1992.5l-2319.8-33.4c-35.3-0.5-63.6-29.2-63.6-64.5v-232.2c0-32.8,26.8-59.3,59.6-58.9l2325.3,26.4
				c26.7,0.3,48.2,22,48.2,48.7v264.9C2613.9,1970.9,2591.6,1992.9,2564.2,1992.5z"/>
			<path class="st6" d="M1729.1,1574.5l-1482.9-21.3c-36.2-0.5-65.3-30-65.3-66.2v-459.1c0-25.9,21-46.9,46.9-46.9h1491.4
				c29.8,0,53.9,24.1,53.9,53.9v496.3C1773.1,1555.3,1753.3,1574.8,1729.1,1574.5z"/>
			<path class="st6" d="M2571.6,1575.1h-719.4c-21.5,0-39-17.5-39-39v-506.7c0-26.8,21.7-48.6,48.6-48.6h722.8
				c16.2,0,29.3,13.1,29.3,29.3v522.7C2613.9,1556.2,2595,1575.1,2571.6,1575.1z"/>
		</g>
	</g>
	<g>
		<g>
			<path class="st5" d="M1926.4,2718.7c0,0-253.6-19.4-278.3-180.9c-19.8-129.8,66.9,9.1,175.6,99.7c8.5,7.1,19.6-5.1,11.7-12.9
				c-77.7-76.6-188.2-199.7-161.2-257c40.7-86.4,44.6-36.3,115.7,75.2c71.1,111.5,112.3,111.6,75.6,31.3
				c-36.7-80.3-156-160.8-142.7-211.5c13.4-50.7,68-115.2,88.3-147s170.8,74.9,163.2,141.2c-7.6,66.4-66.1,160.9-46.3,217.3
				c19.7,56.4,55.1-48.3,69.6-107.1c14.5-58.9,33.3-92.3,70.4-26.1c37.1,66.3-10.9,153.8-60.1,202c-49.2,48.2-63.2,92.6-37.2,70.9
				c26-21.7,100.4-95.1,110.3-133.2C2091,2442.7,2166,2601.3,1926.4,2718.7z"/>
			<path class="st8" d="M1916.4,2708.9c-0.7-0.4-1.1-1.2-1.1-2.1c11.3-194.6-65.9-446.1-66.7-448.6c-0.4-1.2,0.3-2.4,1.5-2.8
				c1.2-0.4,2.4,0.3,2.8,1.5c0.8,2.5,78.3,254.8,66.9,450.2c-0.1,1.2-1.1,2.2-2.4,2.1C1917.1,2709.2,1916.7,2709,1916.4,2708.9z"/>
		</g>
		<g>
			<path class="st6" d="M1933.2,2717c0,0-197.3-164.8-122.7-312.2c59.9-118.4,49.7,46.8,85.9,185.1c2.8,10.9,19.1,7.3,17.2-3.7
				c-18.9-108.6-37.5-274.8,18.2-306c84.2-47.2,58-3.7,51,129.8c-7,133.5,26.9,157.8,43.8,70.1c16.9-87.6-33.9-223.9,6.8-257.7
				c40.7-33.9,123.5-54.9,158.9-69.1c35.4-14.3,96.5,161.9,51.4,212s-148.8,93.6-165.7,151.6c-16.9,58,73.7-7.3,120.2-47.2
				c46.5-39.9,81.6-56.4,73.2,19.9c-8.4,76.3-99.3,120.1-168,130.9c-68.7,10.8-106.3,39.1-72.2,36.5c34.1-2.6,138.4-19.3,168.9-44.8
				C2230.6,2586.5,2199.2,2761.1,1933.2,2717z"/>
			<path class="st8" d="M1930.8,2703c-0.3-0.7-0.2-1.6,0.3-2.3c123.5-153.4,207.6-405.6,208.4-408.1c0.4-1.2,1.7-1.8,2.9-1.4
				c1.2,0.4,1.8,1.7,1.4,2.9c-0.8,2.5-85.1,255.5-209.2,409.6c-0.8,1-2.2,1.1-3.2,0.3C1931.2,2703.6,1930.9,2703.3,1930.8,2703z"/>
		</g>
	</g>
</g>
</svg>
