<?xml version="1.0" encoding="utf-8"?>
<!-- Generator: Adobe Illustrator 25.2.0, SVG Export Plug-In . SVG Version: 6.00 Build 0)  -->
<svg version="1.1" id="Layer_1" xmlns="http://www.w3.org/2000/svg" xmlns:xlink="http://www.w3.org/1999/xlink" x="0px" y="0px"
	 viewBox="0 0 2604.4 1817.3" style="enable-background:new 0 0 2604.4 1817.3;" xml:space="preserve">
<style type="text/css">
	.st0{opacity:0.1;fill:#9BC1F9;}
	.st1{fill:#256653;}
	.st2{fill:#3C8F7C;}
	.st3{fill:#327F6B;}
	.st4{fill:#50BFA5;}
	.st5{fill:#96D9C9;}
	.st6{fill:#F8A492;}
	.st7{fill:#355389;}
	.st8{fill:#FE875E;}
	.st9{fill:#13375B;}
	.st10{fill:#F7CC7F;}
	.st11{fill:#F48C7F;}
	.st12{fill:#F47458;}
	.st13{fill:#184655;}
	.st14{fill:#F7A491;}
	.st15{fill:#466EB6;}
	.st16{fill:#FFFFFF;}
	.st17{fill:#DD513A;}
	.st18{fill:#E0973F;}
	.st19{fill:#0E2E35;}
	.st20{fill:#6A97CE;}
	.st21{fill:#9BC1F9;}
</style>
<g>
	<path class="st0" d="M223.2,1806h2277.5c188.8-157.5,91.6-631.3-66-727.4c-169.7-103.4,99.8-461-161.7-577.1
		c-170.7-75.8-442.2,6.8-405.7-195.9C1917.9,24.4,1326-47.6,889.9,28.2C418.5,110.1,849,513,330.5,594.1
		C63.9,635.9,115.4,993,140.3,1066.7c21.7,64.3,164.9,166.2-34.2,306.6C-185.8,1579.2,216.3,1802.2,223.2,1806z"/>
	<g>
		<g>
			<path class="st1" d="M2246.2,603.3c0,0-37.3,81.2-62.4,115.5c-25.1,34.3-49,67.1-69,162.2c-20,95.2-16.6,104.7-22.1,129.3
				c-5.5,24.6-41.1,124.2-41.3,142.4c-0.2,18.3-72.1,122.2-90.5,170.9c-18.4,48.7-51,118.2-49.2,153.5l8.2-2.1
				c0,0,6.7-82.5,63.5-165.9c56.8-83.4,48.7-99.1,113.2-142c64.5-42.8,106.2-161.2,106.2-161.2s65.6-128.5,62.6-195.3
				S2279.7,683.6,2246.2,603.3z"/>
			<path class="st1" d="M2158.9,478.4c0,0-2.2,53.3-19.4,85c-17.2,31.7-32,50.9-35.1,85.2c-3.1,34.3-13.9,122.6-61.9,165.7
				c-48,43.1-54.1,172.4-90.6,211.5c-36.5,39.1-41.3,67.2-34.5,134.2c6.7,67.1,29.6,160-23.3,281.3l-12-30.2
				c0,0,37.9-99.8,28.7-158.2c-9.2-58.4-41.1-146.7-29.4-189c11.7-42.3-31.8-50.6-5.6-114.7c26.2-64,15.4-86.3,51-141.7
				c0,0,3.7-2.6,13-49.4c9.4-46.8,84.8-132.7,119.6-162C2094.2,566.8,2144.3,519.9,2158.9,478.4z"/>
			<path class="st2" d="M2017.2,742.4c0,0-41.6,71.3-42.2,117.2c-0.6,45.9,4.4,83.2-16.7,146.1c-21.1,62.8,20.8,102.6,8.7,137.3
				c-12.1,34.7-13,75.8-12.6,106.9c0.4,31.2-47.7,134.3-55,186.5s2,52.4,2,52.4s8-68.9,19-91.7c11.1-22.8,44.7-101.4,52.5-131.8
				c7.9-30.4,29.2-49.9,47.5-101.4c18.4-51.5,44.5-94.8,42.5-167.9C2061,922.9,2090.4,845.8,2017.2,742.4z"/>
			<path class="st2" d="M1929,1440.9c0,0,19.4-90.5,101.3-99.5c81.9-9,130,7.2,187.9-59s91.5-171,109.9-189.1c0,0-29.1-15-77.4,30.2
				c-48.3,45.2-82.3,79.5-110.3,105.8c-28,26.3-50.7,9.2-80.2,26.5c-24.8,14.5-56.8,56.5-70.9,78.5c-4.6,7.1-10,13.7-16.2,19.5
				c-5.7,5.2-12.4,11.7-16.8,16.4c-8.7,9.4-33.7,71-33.7,71L1929,1440.9z"/>
			<path class="st2" d="M1900.2,1424.9c0,0,28.9-110.7,9.5-164.8c-19.3-54.2-79.9-94.2-77.4-128.3c2.4-34,41.3-126,9.6-194.4
				c0,0-12,61.1-23.9,74.6c-11.9,13.6-93.4,68.4-78.9,140.7c14.4,72.3,93.7,89.3,113.2,110.6c19.5,21.3,45.9,21.3,46,35.4
				c0.2,14.2,5.3,65.7-3.4,116.5L1900.2,1424.9z"/>
			<path class="st3" d="M1931.7,1350.9l40.5-116.8c0,0,23.8-93.9,37.6-172.3c13.8-78.3,7.3-319.4,7.3-319.4s-41.6,71.3-42.2,117.2
				c-0.6,45.9,4.4,83.2-16.7,146.1c-21.1,62.8,20.8,102.6,8.7,137.3c-12.1,34.7-13,75.8-12.6,106.9s-47.7,134.3-55,186.5
				c-4,28.6-3,41.6-1.3,47.5C1891.5,1438.2,1931.7,1350.9,1931.7,1350.9z"/>
			<path class="st3" d="M2131.5,1281.3c-36.2,7.2-68.5,4.8-111.5,36.7c-42.9,32-68.2,66.1-68.2,66.1s-19.3,34.5-27.3,52.7
				c-1.2,2.8-1.8,4.4-1.8,4.4l6.3-0.3c0,0,19.4-90.5,101.3-99.5c81.9-9,130,7.2,187.9-59s91.5-171,109.9-189.1
				c0,0-61.5,47.9-99.6,90.2C2190.6,1225.9,2167.6,1274.1,2131.5,1281.3z"/>
			<path class="st3" d="M1818,1012.1c-11.9,13.6-93.4,68.4-78.9,140.7c14.4,72.3,93.7,89.3,113.2,110.6c19.5,21.3,45.9,21.3,46,35.4
				c0.2,14.2,5.3,65.7-3.4,116.5l2.3,4.2c4.3-19.8,10.2-50,12.1-73c3.1-37.2-2.9-52.7-14.9-82.8c-12-30.2-86.3-91.6-105-123.9
				c-18.6-32.3,35.9-86.3,48-112.4c12.1-26.1,4.4-90,4.4-90S1829.9,998.5,1818,1012.1z"/>
		</g>
		<g>
			<path class="st4" d="M2011.3,1371.5l12.7-30.8c9.9-22.6,35.2-33.4,56.5-24.1l0,0c53.7,23.4,77,88.7,52.1,145.7l-18.2,41.7
				c-8,18.3-5.2,38.4,5.6,52.5c9.8,12.9,11.4,30.8,4.6,46.3l-9.6,22c-10.4,23.8-30.6,41.4-54.6,48.7c-14,4.2-26.4,14.8-32.9,29.8
				l-13.6,31.1c-15,34.4-53.5,50.8-85.8,36.7l-18.5-8.1c-32.4-14.1-46.5-53.5-31.5-87.9l0,0c24.3-41.1,22.4-71.8,13.7-92.7
				c-12.7-30.6-12.5-65.9,1.2-97.2l1.9-4.4c14.4-33.1,42.3-57.8,75.6-68.4C1985.2,1407.7,2000.5,1396.3,2011.3,1371.5z"/>
			<path class="st5" d="M1782.1,1806c26.1-33.8,168.9-214.7,262-244.9c102.8-33.3,5.9,98.9,5.9,98.9s182.4-199.4,249.3-181.5
				c61.4,16.5,0,140.1,0,140.1s69.1-68.5,152.9-68.5c81.6,0-57,242.8-64.5,255.8H1782.1z"/>
			<g>
				<g>
					<path class="st2" d="M2331.7,1414.5c-74.5,116.4-128.9,245.7-160,383l-5.1-1.4c31-134.5,85-263.5,159.4-379.8
						c17.3-27,36-59.1,68.3-69.6c0.6-0.2,0.9,0.7,0.3,1C2365.1,1358.9,2347.9,1389.3,2331.7,1414.5z"/>
				</g>
				<g>
					<path class="st2" d="M2189.7,1802.4c83.3-113.2,184.5-217.9,304.9-308.9c1.2-0.9,2.8,1.2,1.6,2.1
						C2382,1583.3,2281,1687,2196,1804.1L2189.7,1802.4z"/>
				</g>
				<path class="st2" d="M2338.6,1342.3c1.9,2.8,9.3,10.2,11.4,19.8c2.9,9.2,0.6,20.7,0.4,20.2c-0.6,0.2,8.5-7.4,11.3-19.6
					c3.7-11.7,1.1-27.9-3.5-33.2c-7.9-12.1-21.6-13.4-24.3-7.5C2331.1,1328,2334.7,1335.9,2338.6,1342.3z"/>
				<path class="st2" d="M2356.4,1446.2c-2.8-2-10-9.5-19.6-11.8c-9.1-3.1-20.6-1-20.2-0.8c-0.2,0.5,7.6-8.3,19.8-10.9
					c11.7-3.4,27.9-0.5,33.2,4.1c12,8.1,12.9,21.9,7,24.4C2370.6,1454,2362.7,1450.2,2356.4,1446.2z"/>
				<path class="st2" d="M2329.5,1491.8c-2.8-2-10-9.5-19.6-11.8c-9.1-3.1-20.6-1-20.2-0.8c-0.2,0.5,7.6-8.3,19.8-10.9
					c11.7-3.4,27.9-0.5,33.2,4.1c12,8.1,12.9,21.9,7,24.4C2343.7,1499.5,2335.8,1495.7,2329.5,1491.8z"/>
				<path class="st2" d="M2425.4,1597.4c-2.8-2-10-9.5-19.6-11.8c-9.1-3.1-20.6-1-20.2-0.8c-0.2,0.5,7.6-8.3,19.8-10.9
					c11.7-3.4,27.9-0.5,33.2,4.1c12,8.1,12.9,21.9,7,24.4C2439.7,1605.1,2431.8,1601.4,2425.4,1597.4z"/>
				<path class="st2" d="M2474.5,1554.2c-2.8-2-10-9.5-19.6-11.8c-9.1-3.1-20.6-1-20.2-0.8c-0.2,0.5,7.6-8.3,19.8-10.9
					c11.7-3.4,27.9-0.5,33.2,4.1c12,8.1,12.9,21.9,7,24.4C2488.7,1561.9,2480.8,1558.2,2474.5,1554.2z"/>
				<path class="st2" d="M2300.9,1393.9c2.3,2.5,10.8,8.6,14.4,17.8c4.3,8.6,3.9,20.3,3.6,19.9c-0.5,0.3,7.2-8.7,8.1-21.1
					c1.8-12.1-3.3-27.7-8.7-32.3c-9.7-10.7-23.4-9.8-25.1-3.6C2291.3,1380.9,2296.1,1388.1,2300.9,1393.9z"/>
				<path class="st2" d="M2261.4,1445.5c3.3,1.8,15,5,20.8,13.7c6.6,7.7,7.5,21,7,20.7c-0.6,0.6,8.3-12.8,7.9-27.1
					c0.8-14.3-7.7-29.5-15.1-32.3c-13.8-7.8-31.5-0.8-33,6.8C2247.3,1435.1,2254.4,1441.2,2261.4,1445.5z"/>
				<path class="st2" d="M2219.7,1523.7c3.6,1.2,15.6,2.4,22.8,10c7.8,6.5,10.9,19.4,10.4,19.2c-0.5,0.7,6-14,3.2-28
					c-1.6-14.2-12.5-27.8-20.3-29.3c-15-5.4-31.2,4.5-31.4,12.3C2204.1,1515.8,2212.1,1520.6,2219.7,1523.7z"/>
				<path class="st2" d="M2342.9,1578.2c2.6,1.6,11.9,4.9,16.2,12.3c4.9,6.7,4.9,17.5,4.5,17.3c-0.5,0.4,7.5-9.9,8-21.6
					c1.5-11.6-4.5-24.4-10.5-27.1c-10.8-7.2-25.6-2.5-27.2,3.7C2332.1,1568.9,2337.5,1574.3,2342.9,1578.2z"/>
				<path class="st2" d="M2407.1,1360.7c-1.6-1.3-5.5-6-11.1-7.8c-5.3-2.2-12.2-1.5-11.9-1.3c-0.2,0.3,4.9-4.6,12.2-5.6
					c7.1-1.5,16.5,0.9,19.4,3.9c6.7,5.3,6.7,13.5,3.1,14.7C2415.1,1365.9,2410.7,1363.3,2407.1,1360.7z"/>
				<path class="st2" d="M2392.1,1327.4c0.1,2,1.4,8-0.6,13.6c-1.5,5.5-6.2,10.6-6.2,10.3c-0.3-0.1,6.6-1,11.9-6.2
					c5.5-4.7,9.4-13.6,8.8-17.8c-0.1-8.6-6.6-13.5-9.8-11.4C2392.9,1317.9,2392.2,1323,2392.1,1327.4z"/>
				<path class="st2" d="M2509.8,1510.2c-1.6-1.3-5.5-6-11.1-7.8c-5.3-2.2-12.2-1.5-11.9-1.3c-0.2,0.3,4.9-4.6,12.2-5.6
					c7.1-1.5,16.5,0.9,19.4,3.9c6.7,5.3,6.7,13.5,3.1,14.7C2517.9,1515.4,2513.4,1512.8,2509.8,1510.2z"/>
				<path class="st2" d="M2491.8,1476.7c0.2,2,2.1,7.9,0.6,13.6c-1,5.6-5.3,11-5.4,10.7c-0.4,0,6.5-1.6,11.3-7.2
					c5.1-5.1,8.2-14.4,7.3-18.4c-0.8-8.5-7.7-13-10.7-10.6C2491.8,1467.1,2491.5,1472.2,2491.8,1476.7z"/>
			</g>
			<g>
				<g>
					<path class="st2" d="M2479.2,1693.3c-76.1,8.3-147,41.9-215.2,74.7c-46,22.1-43.7,28.4-53.1,31.7c-1.5,0.5-3-1.1-2.3-2.6
						c3.6-7.1,13.1-12,19.6-16.1c7.7-4.8,15.7-9,23.8-12.9c17.4-8.4,35.2-16,52.9-23.7c36-15.6,72.6-30.4,110.6-40.3
						c20.9-5.5,42.1-9.4,63.6-11.3C2479.6,1692.6,2479.6,1693.2,2479.2,1693.3L2479.2,1693.3z"/>
				</g>
				<path class="st2" d="M2410.6,1669.7c0.5,3.1,3.7,12.2,1.7,21.1c-1.2,8.8-7.6,17.5-7.7,17.1c-0.6,0,10-2.9,17.2-12
					c7.7-8.3,11.9-22.9,10.2-29.2c-1.8-13.3-12.8-19.7-17.4-15.8C2410.1,1654.7,2409.9,1662.8,2410.6,1669.7z"/>
				<path class="st2" d="M2343.6,1693.7c0.5,3.1,3.7,12.2,1.7,21.1c-1.2,8.8-7.6,17.5-7.7,17.1c-0.6,0,10.1-2.9,17.2-12
					c7.7-8.3,11.9-22.9,10.2-29.2c-1.8-13.3-12.8-19.7-17.4-15.8C2343,1678.7,2342.9,1686.8,2343.6,1693.7z"/>
				<path class="st2" d="M2275.5,1724c0.5,3.1,3.7,12.2,1.7,21.1c-1.2,8.8-7.6,17.5-7.7,17.1c-0.6,0,10.1-2.9,17.2-12
					c7.7-8.3,11.9-22.9,10.2-29.2c-1.8-13.3-12.8-19.7-17.4-15.8C2274.9,1709.1,2274.8,1717.1,2275.5,1724z"/>
				<path class="st2" d="M2430.6,1732.3c-1.4-2.6-4-11.1-10.5-16.5c-5.8-5.8-15.4-8.7-15.2-8.3c-0.4,0.3,9-3.5,19.4-0.8
					c10.3,1.9,21.6,10.2,23.8,15.8c6.1,10.8,1.5,21.7-4,21.4C2438.6,1743.7,2434,1737.8,2430.6,1732.3z"/>
				<path class="st2" d="M2360.9,1757c-1.4-2.6-4-11.1-10.5-16.5c-5.8-5.8-15.4-8.7-15.2-8.3c-0.4,0.3,9-3.5,19.4-0.8
					c10.3,1.9,21.6,10.2,23.8,15.8c6.1,10.8,1.5,21.7-4,21.4C2368.9,1768.4,2364.3,1762.5,2360.9,1757z"/>
				<path class="st2" d="M2483.8,1706.9c-1.2-1.4-4-6.4-8.8-9c-4.4-2.9-10.8-3.4-10.7-3.2c-0.2,0.3,5.2-3.4,12.1-3.1
					c6.7-0.2,14.9,3.6,17.1,6.8c5.2,6,3.8,13.4,0.3,14C2490.2,1713,2486.6,1709.9,2483.8,1706.9z"/>
				<path class="st2" d="M2475.7,1674.1c-0.3,1.9,0,7.6-2.8,12.3c-2.2,4.8-7.4,8.6-7.4,8.3c-0.3-0.1,6.2,0.2,11.9-3.7
					c5.8-3.4,10.8-10.8,11-14.7c1.3-7.8-3.8-13.4-7-12.1C2478,1665.6,2476.5,1670.1,2475.7,1674.1z"/>
			</g>
		</g>
	</g>
	<g>
		<g>
			<path class="st2" d="M515.9,1228c-89.4-79.7-135.4-194.2-158.2-276.2c-24.8-89-28.4-160.1-28.4-160.8l-4.9-0.3
				c0,0.7,3.7,72.3,28.6,161.9c23,82.8,69.5,198.5,160,279.2L515.9,1228z"/>
		</g>
		<g>
			<path class="st2" d="M339.5,770.4c4.4,20.5,0.7,39.9-8.7,53.8c-14.7-10.8-26.3-28.2-30.7-48.7c-4.4-20.5-0.7-39.9,8.7-53.8
				C323.5,732.5,335.1,749.9,339.5,770.4z"/>
		</g>
		<g>
			<path class="st2" d="M312.1,828.8c15.4,14.3,24.4,33.2,26.2,51.3c-16.9,0.8-35.5-6.1-50.9-20.4c-15.4-14.3-24.4-33.2-26.2-51.3
				C278,807.6,296.6,814.4,312.1,828.8z"/>
		</g>
		<g>
			<path class="st2" d="M304.8,890.1c19.1,6,34.8,19.3,44.1,35.5c-13.9,8.9-32.5,11.5-51.7,5.5c-19.1-6-34.8-19.3-44.1-35.5
				C267.1,886.7,285.7,884.1,304.8,890.1z"/>
		</g>
		<g>
			<path class="st2" d="M334.3,963.9c15.2,4.8,27.3,17,34.2,32.5c-11.5,9.7-26.6,13.3-41.7,8.5c-15.2-4.8-27.3-17-34.2-32.5
				C304.1,962.8,319.1,959.1,334.3,963.9z"/>
		</g>
		<g>
			<path class="st2" d="M360.2,858.6c11.9-12,27.7-17.1,43-15.5c0.8,16.2-4.7,32.6-16.7,44.6c-11.9,12-27.7,17.1-43,15.5
				C342.7,887,348.3,870.6,360.2,858.6z"/>
		</g>
		<g>
			<path class="st2" d="M374,911.5c11.9-12,27.7-17.1,43-15.5c0.8,16.2-4.7,32.6-16.7,44.6c-11.9,12-27.7,17.1-43,15.5
				C356.5,939.9,362.1,923.5,374,911.5z"/>
		</g>
	</g>
	<g>
		<g>
			<path class="st4" d="M462,1336.2c-82.6-12-153.2-61-198-99.9c-48.6-42.2-77.9-82.2-78.2-82.6l-2.9,1.7
				c0.3,0.4,29.9,40.6,78.8,83.2c45.2,39.3,116.6,88.7,200.2,100.9L462,1336.2z"/>
		</g>
		<g>
			<path class="st4" d="M183.9,1137.8c10.4,10.2,15.7,22.9,15.6,34.6c-12.7-0.7-26.1-6.3-36.6-16.5c-10.4-10.2-15.7-22.9-15.6-34.6
				C160,1122,173.4,1127.6,183.9,1137.8z"/>
		</g>
		<g>
			<path class="st4" d="M190.3,1182.3c14.5,2.4,26.9,9.9,34.9,19.8c-9.5,6.9-23,10.1-37.4,7.7c-14.5-2.4-26.9-9.9-34.9-19.8
				C162.4,1183,175.9,1179.9,190.3,1182.3z"/>
		</g>
		<g>
			<path class="st4" d="M209.7,1220.7c13.4-3.9,27.7-2.1,39.3,3.7c-4.7,10.5-14.5,19.2-27.9,23c-13.4,3.9-27.7,2.1-39.3-3.7
				C186.4,1233.2,196.2,1224.6,209.7,1220.7z"/>
		</g>
		<g>
			<path class="st4" d="M255.1,1252.3c10.7-3,22.4-0.6,32.3,5.8c-3,10-10.3,17.9-21,21c-10.7,3-22.4,0.6-32.3-5.8
				C237.1,1263.2,244.5,1255.3,255.1,1252.3z"/>
		</g>
		<g>
			<path class="st4" d="M229.7,1181.1c2.3-11.6,9.6-20.6,19.1-25.5c6.7,9.1,9.8,20.8,7.4,32.3c-2.3,11.6-9.6,20.6-19.1,25.5
				C230.5,1204.4,227.4,1192.7,229.7,1181.1z"/>
		</g>
		<g>
			<path class="st4" d="M258.1,1206.6c2.3-11.6,9.6-20.6,19.1-25.5c6.7,9.1,9.8,20.8,7.4,32.3c-2.3,11.6-9.6,20.6-19.1,25.5
				C258.8,1229.8,255.8,1218.1,258.1,1206.6z"/>
		</g>
	</g>
	<g>
		<g>
			<path class="st5" d="M511.8,1583.3c-95.2,36.2-200.1,17.1-271.3-5.3c-77.3-24.3-132.7-57.6-133.2-58l-2.1,4
				c0.6,0.3,56.4,33.9,134.2,58.4c71.9,22.6,177.8,41.9,274.2,5.3L511.8,1583.3z"/>
		</g>
		<g>
			<path class="st5" d="M95.5,1500.7c17.3,6.7,30.6,19.8,37.6,35.1c-14,7.1-31.7,8.2-48.9,1.5c-17.3-6.7-30.6-19.8-37.6-35.1
				C60.5,1495,78.2,1493.9,95.5,1500.7z"/>
		</g>
		<g>
			<path class="st5" d="M129.3,1554.2c16.9-5.9,34.7-4,49.1,3.8c-6,15-18.4,27.5-35.3,33.4c-16.9,5.9-34.7,4-49.1-3.8
				C100,1572.6,112.4,1560.1,129.3,1554.2z"/>
		</g>
		<g>
			<path class="st5" d="M173.1,1591.9c12-13.4,28.2-20.1,44.1-19.8c1.4,16.5-3.9,33.9-15.8,47.3c-12,13.4-28.2,20.1-44.1,19.8
				C155.8,1622.7,161.1,1605.3,173.1,1591.9z"/>
		</g>
		<g>
			<path class="st5" d="M234.4,1611.3c12-13.4,28.2-20.1,44.1-19.8c1.4,16.5-3.9,33.9-15.8,47.3c-12,13.4-28.2,20.1-44.1,19.8
				C217.2,1642.1,222.4,1624.8,234.4,1611.3z"/>
		</g>
		<g>
			<path class="st5" d="M176.7,1548.5c-10.5-13.7-15.2-30.3-14.1-45.3c13.9,1.6,28.1,9.7,38.6,23.4c10.5,13.7,15.2,30.3,14.1,45.3
				C201.5,1570.3,187.3,1562.2,176.7,1548.5z"/>
		</g>
		<g>
			<path class="st5" d="M240.4,1568.4c-10.7-13.6-15.7-30.1-14.8-45.1c13.9,1.4,28.2,9.2,38.9,22.8c10.7,13.6,15.7,30.1,14.8,45.1
				C265.4,1589.8,251.2,1582,240.4,1568.4z"/>
		</g>
		<g>
			<path class="st5" d="M315,1616.7c2.8-7.2,8.4-12.1,15-14.2c3.1,6.6,3.7,14.5,0.9,21.6c-2.8,7.2-8.4,12.1-15,14.2
				C312.7,1631.7,312.2,1623.8,315,1616.7z"/>
		</g>
	</g>
	<path class="st2" d="M716.2,1799c0,0,121.4-479.9,81.1-528.2c-55.6-66.6-101.5,154.4-106,135.7c-42.5-177.3-53.8-404.3-191-428.3
		c-78-13.7,18,168.7,12.2,218.1c-5.8,49.3-146.3-114.4-231.6-200.2c-85.4-85.8-129.5-31.5-75.5,76.4
		c52.2,104.3,220.9,218.3,186.1,231.9c-34.8,13.5-245.9-121.2-271.8-63.6c-31.7,70.6,285,166.7,255.2,182.6
		c-29.8,15.9-181.2-36.4-177.1,17.6c4.1,54,207.6,52,204.2,75.7c-5.6,38.5-140.2-48.6-146.1,4.6c-6.1,54.4,177.1,44.5,173.9,87
		c-1.8,24.4-41.1-12.4-46.9,21.4c-13.2,77.1,228.2,170.9,228.2,170.9L716.2,1799z"/>
	<g>
		<path class="st4" d="M808.7,1801.9c0,0-115.5-177.1-171.1-210.5c-59.2-35.6-14.1,71-14.1,71s-121-144-154.6-114.7
			c-33.6,29.3-3.1,63.1-3.1,63.1s-108.6-32.2-128.2,7.7c-30,61.3,148.9,112.1,148.9,112.1s-76.8-0.8-62.7,40.6
			C445.1,1833.5,808.7,1801.9,808.7,1801.9z"/>
		<path class="st5" d="M337.6,1618.5c19.5-39.9,128.2-7.7,128.2-7.7s-30.5-33.9,3.1-63.1c33.6-29.3,130.4,58.3,130.4,58.3
			s-10.1-72.2,62.7-8.6c52.1,45.4,146.7,204.5,146.7,204.5L337.6,1618.5z"/>
	</g>
	<g>
		<g>
			<g>
				<path class="st5" d="M668.5,1357.3l5.2-3.5c-94-142.4-122.7-311.5-130.3-428.2c-8.2-126.7,6.2-220.9,6.3-221.8l-6.4-1.9
					c-0.1,0.9-14.6,95.7-6.4,223.2C544.5,1042.8,573.5,1213.4,668.5,1357.3z"/>
			</g>
			<g>
				<path class="st5" d="M568.3,681.6c0.2,28.6-9.7,52.3-25.6,66.4c-16.1-20.5-26.4-48.1-26.6-76.7c-0.2-28.6,9.7-52.3,25.6-66.4
					C557.8,625.3,568.1,652.9,568.3,681.6z"/>
			</g>
			<g>
				<path class="st5" d="M517.3,745.9c16,25.3,22.6,53.7,20,78.1c-22-6.3-44.1-23.2-60.2-48.5c-16-25.3-22.6-53.7-20-78.1
					C479.2,703.6,501.3,720.6,517.3,745.9z"/>
			</g>
			<g>
				<path class="st5" d="M491.6,822.7c23.1,16,39.7,40.2,47.4,65.3c-20.3,5.7-45,1-68-15c-23.1-16-39.7-40.2-47.4-65.3
					C443.9,802,468.6,806.6,491.6,822.7z"/>
			</g>
			<g>
				<path class="st5" d="M521.7,956.8c10.1,6,17.7,15.6,21.6,26c-8.3,3.1-18.6,1.9-28.7-4.1c-10.1-6-17.7-15.6-21.6-26
					C501.3,949.7,511.7,950.8,521.7,956.8z"/>
			</g>
			<g>
				<path class="st5" d="M529.9,1006.5c10.1,6,17.7,15.6,21.6,26c-8.3,3.1-18.6,1.9-28.7-4.1c-10.1-6-17.7-15.6-21.6-26
					C509.5,999.3,519.9,1000.5,529.9,1006.5z"/>
			</g>
			<g>
				<path class="st5" d="M571.4,805.4c18.6-10.5,40.3-10.4,59.6-1.7c-3.2,21.5-14.8,40.5-33.4,51c-18.6,10.5-40.3,10.4-59.6,1.7
					C541.3,834.9,552.8,815.9,571.4,805.4z"/>
			</g>
			<g>
				<path class="st5" d="M575.1,880.2c18.6-10.5,40.3-10.4,59.6-1.7c-3.2,21.5-14.8,40.5-33.4,51c-18.6,10.5-40.3,10.4-59.6,1.7
					C545,909.7,556.6,890.8,575.1,880.2z"/>
			</g>
			<g>
				<path class="st5" d="M571.5,987.3c12.1-6.9,26.2-6.8,38.8-1.1c-2.1,14-9.6,26.3-21.7,33.2c-12.1,6.9-26.2,6.8-38.8,1.1
					C551.8,1006.6,559.4,994.2,571.5,987.3z"/>
			</g>
		</g>
	</g>
	<g>
		<path class="st6" d="M1898.3,1409.6c10.9,1.8,10.3,3.6,11.7,3.7c1.7,0.2,21.4-9.7,21.4-9.7s58.3-28.8,61.4-30.5l42.1-53l32.4,15
			c0,0-47.3,56.3-50.3,58.8c-3,2.5-86.6,31.8-93.9,34.6c0,0-7.3,6.7-12.1,10.8c-4.7,4-11.1,5.7-12.6,6.6c-0.2,0.1-5.5,2.9-12.9,4.5
			c-6.4,1.4-1.1-2.9-1.1-2.9s11.3-4.8,10.7-5.6c-0.4-0.7-6.4,2.3-13.5,3.9c-1.8,0.4-3.6,0.8-5.2,1.2c-4.3,0.9-6.2-1.5-1.9-3.3
			c1.5-0.6,4.1-1.6,6-2c2.1-0.4,3.8-1.5,5.5-2.2c3.4-1.3,5.8-2.2,5.7-2.3c-0.2-0.2,0.3-0.9-1.6-0.5c-2.3,0.5-7,2.5-10.5,2.9
			c-2,0.2-6.1,0.9-6.1,0.9s-7.2,0.7-7.3-0.3c-0.1-2.2,4.3-3.5,7.1-3.4c1.7-0.9,6.1-1.5,6.1-1.5s8.4-3.3,7.9-4.6
			c-0.2-0.5-5.3,0.3-10.7,0.6c-5.7,0.4-9.8,0.4-10.1-0.7c-0.5-1.8,4.1-2.4,4.1-2.4s4-0.6,5.3-0.9c1.5-0.3,6-1.8,6-1.8
			s15.4-5.7,14.9-6.8c-0.6-1.1-3.1-3.5-4.2-3.5c-1.1,0-3,1.1-4.1,1.1c-1.1,0-3.4-0.2-3.6-1.6c-0.2-1.4,5.9-4.2,5.9-4.2
			S1895.1,1409.1,1898.3,1409.6z"/>
		<path class="st7" d="M2005.6,1353.1c0,0,10.5,9.5,14.9,12.7c3.6,2.6,21.3,11.1,21.3,11.1s17.6-27,25.3-40.5
			c9.3-16.4,15.8-40.8,13.6-41.5c-6.2-1.9-14.7-3-22.6,0.6C2030.8,1308.1,2005.6,1353.1,2005.6,1353.1z"/>
		<path class="st8" d="M1908.5,1423.7c-4.7,0.7-9.5-0.2-11.5-4.4C1896.5,1424.4,1904.2,1426.9,1908.5,1423.7z"/>
	</g>
	<path class="st9" d="M603,1234.6c0.6-15.7-1.7-31.2-8.6-45.8c-6-12.6-20.9-19.7-34.5-19.7c-43.1-0.1-48.6,57.2-76.1,79.2
		c-8.4,6.7-17.8,12.2-25.7,19.5c-29.3,26.9-16.1,76.6,10.8,100.1c18.7,16.3,48,25.6,71,12.8c12-6.7,21.1-17.7,27.6-29.9
		c9.2-17.2,15.2-37.1,21.7-55.5C596.3,1275.8,602.2,1255.5,603,1234.6z"/>
	<path class="st10" d="M610.1,1310.6c-13.5-40.9-31.2-40.2-31.2-40.2l14.4,87c8.3-2.3,19.1-7.3,27.5-9.7
		C617.9,1334.8,613.4,1320.7,610.1,1310.6z"/>
	<path class="st11" d="M678.2,1450l-49.2-37.6c0,0-5-35-11.6-66.1c-8.3,2.3-15.8,8.9-24.1,11.1l12.5,69.6l64.5,33.3l18.2,23.4
		l4.1-24L678.2,1450z"/>
	<path class="st12" d="M1127,1391.3c15.3,0,29.6,4,42,11.1c1.6,0.9,3.3,1.7,5.1,2.4c37.8,15.5,79.2-13.2,79.2-54.1v-201.2h-201.2
		c-40.9,0-69.7-41.4-54.1-79.2c0.7-1.8,1.6-3.5,2.4-5.1c7-12.4,11.1-26.8,11.1-42c0-48.5-40.4-87.5-89.4-85.2
		c-44.3,2.1-80,38.4-81.2,82.8c-0.4,15.8,3.4,30.6,10.5,43.4c0.9,1.6,1.7,3.3,2.4,5.2c15.4,38.5-13.8,80.2-55.3,80.2H599.2v458.4
		c0,108.1,87.7,195.8,195.8,195.8h458.4v-200.5c0-41.1-41.5-70.1-79.6-54.6c-1.8,0.7-3.5,1.5-5.1,2.4c-13.6,7.6-29.4,11.6-46.3,10.7
		c-43.4-2.3-78.5-37.6-80.6-81C1039.5,1431.8,1078.5,1391.3,1127,1391.3z"/>
	<path class="st10" d="M1563,1279.7c0.7-15.3,5.4-29.4,13-41.5c1-1.5,1.9-3.2,2.7-5c17.3-37.1-9.5-79.8-50.4-81.7l-201-9.4l-9.4,201
		c-1.9,40.9-44.6,67.7-81.7,50.4c-1.8-0.8-3.4-1.7-5-2.7c-12.1-7.6-26.2-12.3-41.5-13c-48.4-2.3-89.3,36.3-89.3,85.3
		c0,44.3,34.7,81.7,78.9,85c15.7,1.2,30.7-2,43.9-8.4c1.6-0.8,3.4-1.5,5.3-2.2c39.1-13.6,79.5,17.6,77.5,58.9l-9.3,199.2l457.9,21.4
		c108,5,199.7-78.4,204.7-186.4l21.4-457.9l-200.3-9.4c-41.1-1.9-71.9,38.2-58.2,77c0.7,1.9,1.4,3.6,2.2,5.2
		c7,13.9,10.2,29.9,8.6,46.7c-4.3,43.3-41.2,76.7-84.7,76.7C1599.3,1369,1560.8,1328.1,1563,1279.7z"/>
	<path class="st4" d="M1003.1,963.3c0.8,15.3-2.5,29.8-9,42.5c-0.8,1.6-1.5,3.4-2.2,5.2c-13.6,38.6,17.2,78.5,58.1,76.4l200.9-10.1
		l-10.1-200.9c-2.1-40.9,37.9-71.7,76.4-58.1c1.8,0.7,3.6,1.4,5.2,2.2c12.7,6.4,27.3,9.7,42.5,9c48.4-2.4,85.3-44.7,80.6-93.5
		c-4.3-44.1-42.4-77.9-86.7-76.9c-15.8,0.4-30.4,4.9-42.8,12.6c-1.6,1-3.2,1.8-5,2.7c-37.6,17.3-80.8-9.8-82.9-51.2L1218,424
		l-457.8,23c-108,5.4-191.1,97.4-185.7,205.4l23,457.8l200.3-10.1c41.1-2.1,67.9-45,50.5-82.3c-0.8-1.8-1.7-3.4-2.7-5
		c-8.3-13.2-13.1-28.8-13-45.7c0.1-43.5,33.6-80.3,76.9-84.5C958.3,877.9,1000.6,914.9,1003.1,963.3z"/>
	<path class="st13" d="M1414.3,852.4c-15.3,0-29.6-4-42-11.1c-1.6-0.9-3.3-1.7-5.1-2.4c-37.8-15.5-79.2,13.2-79.2,54.1v201.2h201.2
		c40.9,0,69.7,41.4,54.1,79.2c-0.7,1.8-1.6,3.5-2.5,5.1c-7,12.4-11.1,26.8-11.1,42c0,48.5,40.4,87.5,89.4,85.2
		c44.3-2.1,80-38.4,81.2-82.8c0.4-15.8-3.4-30.6-10.5-43.4c-0.9-1.6-1.7-3.3-2.4-5.2c-15.4-38.5,13.8-80.2,55.3-80.2h199.4V635.8
		c0-108.1-87.7-195.8-195.8-195.8h-458.4v200.5c0,41.1,41.5,70.1,79.6,54.6c1.8-0.7,3.5-1.5,5.1-2.4c13.6-7.6,29.4-11.6,46.3-10.7
		c43.4,2.3,78.5,37.6,80.6,81C1501.8,812,1462.8,852.4,1414.3,852.4z"/>
	<path class="st14" d="M468.3,1740.1c0,0-3,21.1-8.3,27.9c-1.8,2.3-5,5.2-7.1,9.3c-3.3,6.4-1.5,16,1,21.3c1.2,2.7-0.1,2.7,2.7,3.6
		c8.4,2.6,17.3-1.8,20.8-9.8c2-4.5,3.7-10.5,4.1-18c0.9-19.2,6.8-28.9,6.8-28.9L468.3,1740.1z"/>
	<path class="st14" d="M559.7,1749.7c0,0,1.9,23.8,0.4,31.6c-0.8,4.1-5.4,12.7-3.3,16.6c2.1,3.9,4.5,4.9,4.5,4.9l54,0.9
		c2.9,0,1-1.8-1.4-3.6c-3.9-2.9-7-4.8-19.4-10.8c-0.8-0.4-3.8-2.3-4.8-2.9c-2.7-1.6-5.4-4.2-7.7-6.8c-3.9-4.3-4.2-25.3-4.2-25.3
		L559.7,1749.7z"/>
	<path class="st7" d="M601.9,1433.2c0,0,6.8,38.7,2.3,64s-25.9,260.3-25.9,260.3l-23.8,1.3c0,0-5-98.2-4.1-111.8
		c0.9-13.7,8-36.5,8-36.5l-2.4-79.2l30-104.1L601.9,1433.2z"/>
	<path class="st15" d="M531.9,1425.1c0,0-18.7,28.3-23.2,51.7c-4.5,23.4,3.3,95.3-5.3,126c-4.6,16.6-22.3,42.2-24.9,63.7
		c-2.7,21.5-13.2,77.6-13.2,77.6l23.8,4.7l55.3-140.3l43.4-126.8l11.1-65.3L531.9,1425.1z"/>
	<path class="st10" d="M547.1,1264.2c0,0-24.8-1.6-34.6,9.1c-9.8,10.7,21.8,95.6,23.6,109.2c1.8,13.6-9.1,49.9-9.1,49.9
		s58.3,11.8,75,0.7c0,0,1.8-98.2,0-107.9c-1.8-9.8-16.7-49.4-20.2-53.3C578.1,1268.1,547.1,1264.2,547.1,1264.2z"/>
	<path class="st14" d="M555.3,1230.9c0,0-0.1,0.7-0.4,2c-1.1,6-5.4,25.8-8.2,31.3c-3.5,6.6,11.9,27.6,26.7,25
		c4.4-0.8-3.7-19.3-3.3-21.3c0.7-3.8,1.8-8.9,2.8-14.2c0.6-3,1.2-6,1.7-8.8c1.6-8,2.9-14.6,2.9-14.6L555.3,1230.9z"/>
	<path class="st12" d="M555,1232.9c0.2-1.2,0.4-2,0.4-2l22.2-0.6c0,0-1.3,6.6-2.9,14.6c-0.6,2.8-1.1,5.8-1.7,8.8
		c-3.4-0.5-7-2.2-10.6-5.3c-3.9-3.4-6.5-7.6-8-12C554.6,1235.1,554.8,1233.9,555,1232.9z"/>
	<path class="st14" d="M570.3,1180.4c0,0-10.5-1.2-17,7.3c-6.6,8.5-13.6,34.8,2.7,49.1c16.3,14.3,32.4-1.9,34.8-19
		C593.1,1200.6,594,1179.8,570.3,1180.4z"/>
	<path class="st14" d="M595.5,1217.5c-1.9,3.8-5.2,5.9-7.3,4.7c-2.1-1.2-2.2-5.2-0.2-9c1.9-3.8,5.2-5.9,7.3-4.7
		C597.4,1209.6,597.5,1213.7,595.5,1217.5z"/>
	<path class="st9" d="M571.5,1177.6c0,0-14,25-24,26.2c-10,1.2-11.3,14.4-11.3,14.4s3.6-30.6,13.5-36.5
		C559.5,1175.8,571.5,1177.6,571.5,1177.6z"/>
	<path class="st12" d="M479,1788.2c-13,2.4-21.6-5.2-26.1-10.9c-3.3,6.4-4.9,16.1-2.5,21.4c2.1,4.7,8.4,4.5,13.3,4.7
		c5.2,0.2,9.2-2.7,11.8-7.2C476.8,1794,478,1791.4,479,1788.2z"/>
	<path class="st12" d="M589.6,1786.3c-14.3,3.7-24.8,1.2-30.7-1.2c-1.5,4.3-3.5,9.7-2.5,12.9c1.3,3.8,3.2,4.7,4.8,4.7
		c13,0.3,47.8,0.8,57.7,0.9c1.4,0,2.2-1.6,1.3-2.7C617.7,1798.1,590.7,1787,589.6,1786.3z"/>
	<path class="st14" d="M550.1,1210c0.8,4.4-0.8,8.5-3.7,9.1c-2.8,0.6-5.8-2.5-6.6-7c-0.8-4.4,0.8-8.5,3.7-9.1
		C546.3,1202.4,549.3,1205.6,550.1,1210z"/>
	<path class="st16" d="M566.4,1225.4l12.6,0.6c0,0-0.5,4.8-6.1,4.7C566.2,1230.5,566.4,1225.4,566.4,1225.4z"/>
	<g>
		<path class="st17" d="M1642.4,219.3c1.6,0.1,5.9,1.5,12.2,13.4c8,15.2,19.8,61.1,19.8,61.1l-35.1,13.1l-4.5-9.6l-7.4-73.8
			C1627.4,223.5,1642,219.2,1642.4,219.3z"/>
		<path class="st12" d="M1596,212.6c10,0,34.8,2.9,46.4,6.6c0,0,8.5,72.7-7.6,128c-3.6,12.4,3,51.3,3,51.3l-103.9-1.4
			c0,0,12.3-94.1,7.7-109.3c-4.6-15.2-4.7-68.2-4.7-68.2s0.7-0.1,23.4-4C1570.6,213.9,1585.3,212.6,1596,212.6z"/>
		<path class="st14" d="M1583.9,533.5c0,0,2.3,26.5,6.5,33.9c4.2,7.3-0.2,19.8-0.4,21.6c-0.2,1.7-8.9,4.2-22.7,2.7
			c-13.8-1.5-13.6-4.7-12.5-9.8c1.1-5.1,8.5-11.8,8.9-16.7c0.4-4.9-4.2-22.5-4.2-22.5L1583.9,533.5z"/>
		<path class="st18" d="M1626,376.6c0,0,71.8-4,87.8,5.7c16,9.7-11.4,57.3-11.4,57.3s-49.9-2.3-147.7,3.3
			c-23.2,1.3-25.2-60.4-20.8-65.5C1538.2,372.4,1626,376.6,1626,376.6z"/>
		<path class="st17" d="M1565.6,593.7c-14.2-1.5-12.4-8.5-11.3-13.8c0.7-3.3,4.8-7.2,7.2-10.9c1.3,1,3.3,2.8,9.5,4.6
			c6.4,1.9,15.2-1.9,20.8-4.2c2,7.4,2.1,16.9,1.9,18.3C1593.5,589.5,1579.8,595.3,1565.6,593.7z"/>
		<path class="st10" d="M1573.4,428c2.9,21.7,17.1,129.7,17.1,129.7l-32.9,4.1c0,0-40.5-140.9-38.4-162.5
			c2.1-21.6,17.2-23.4,17.2-23.4S1565.8,370.5,1573.4,428z"/>
		<path class="st14" d="M1535.6,227.8c9.7-3.6,14.5,83.9,15.8,120c17.2,1.7,47.2,0,54.7-0.5c3.5-0.3,11.6-3.2,15.1-3.7
			c3.6-0.5,6.8-0.7,8.6-0.4c0.6,0.1,18.6,7.4,20.1,9.1c1.9,2,7,7,6.2,9.2c-0.9,2.2-9.9-6.1-9.9-6.1l-4.4-2.5
			c5.5,5.4,16,12.4,14.5,15c-1.5,2.5-10.9-4.7-17.7-9.5c5.8,5.2,13,14.6,11.3,16c-1.5,1.3-9.6-9.5-18.4-12.6c-3.2-1.2-6.5,2-9,2.4
			c-1.9,0.3-4.8,0.9-6.6,0.4l-9.4-2.7c-3.2,0.3-3.3,2.2-6.5,2.9c-3.8,0.8-10,1.6-14.8,2.8c-27.7,6.8-36.9,9.9-45.4,9.9
			C1514.1,377.4,1512.6,236.4,1535.6,227.8z"/>
		<path class="st17" d="M1517.2,310c-1.8-36.9-1.6-82.4,19.1-90.2c8.2-3.1,22.6,15.4,20,90.9C1545.2,311.7,1529,312.4,1517.2,310z"
			/>
		<path class="st14" d="M1680.2,556.2c0,0-2.9,9.2,2.3,15.3c5.1,6.1,26.5,12.1,29.3,15.4c2.8,3.3,2.6,6.1,2.6,6.1l-60-1.7l0.7-18.1
			l2.8-13L1680.2,556.2z"/>
		<path class="st17" d="M1686.2,574.6c0,0-15.4,6.2-22.9,2.5c-7.4-3.7-7.2-4.7-9.4-3.3c-2.2,1.4-2.9,18.4-2.9,18.4l67.5,2
			c4.7-0.1,7.1-3.6,3.3-6.5c-2.6-2-5.6-3.4-7.4-4.4C1709.1,580.2,1686.2,574.6,1686.2,574.6z"/>
		<path class="st10" d="M1677.9,393.6c4.6-9.8,15.2-22.5,33.7-14.8c17.7,7.3,22.5,25.2,16.9,43.6c-5.6,18.4-42.4,126.4-43.6,141.2
			l-29.4,0.2c0,0,5.3-85.5,6.6-106.2C1663.5,437.8,1669.9,410.5,1677.9,393.6z"/>
		<path d="M1725.6,294.2h-98.1c-2.6,0-4.9,1.6-5.9,4l-30.2,73.9h-54.1c-1.5,0-2.7,1.2-2.7,2.7l0,0c0,1.5,1.2,2.7,2.7,2.7h154
			c4.2,0,8.1-2.5,9.8-6.4l30.4-68C1733.3,299,1730.2,294.2,1725.6,294.2z"/>
		<path class="st16" d="M1672.8,337.2c-0.7,3.3-3.5,5.5-6.4,5c-2.9-0.6-4.7-3.7-4-7.1c0.7-3.3,3.6-5.5,6.5-5
			C1671.6,330.8,1673.4,333.9,1672.8,337.2z"/>
		<g>
			<path class="st19" d="M1619.3,123.8c-3-1-5.9-2.1-8.7-3.5c-3.2-1.5-7.3-3.3-9.9-3.7c-5.5-0.8-14.9-0.3-20.1,5.4
				c-6.5,7-18,1.3-15.7,38c2.6,41.6,25.8,37.1,26.3,36.4c0.6-0.7,20.6-26.6,20.6-26.6s7,15.4,7,14.8
				C1619,184,1654.9,135.8,1619.3,123.8z"/>
			<path class="st14" d="M1601.8,199.4l2,14.9c0,0,4.5,21.4-1.3,25.6c-5.8,4.1-24.5-26.2-24.5-26.2l2-37.7L1601.8,199.4z"/>
			<path class="st12" d="M1579.3,188.2c4.8,12.9,16.1,20.8,24.1,23.8l-1.7-12.6L1580,176L1579.3,188.2z"/>
			<path class="st14" d="M1600.6,135c12.2-2,23.1,7.8,22.8,20.1c-0.1,5.3-0.6,11.9-1.7,19.1c-2.7,17.2-14.4,32.3-22.1,30.9
				s-27.2-16.2-23.8-40.6C1578,149.4,1587.8,137.1,1600.6,135z"/>
			<path class="st14" d="M1581.2,167.4c-0.7,3.8-3.7,6.4-6.8,5.9c-3.1-0.5-5-4-4.4-7.8c0.7-3.8,3.7-6.4,6.8-5.9
				C1579.9,160.1,1581.9,163.6,1581.2,167.4z"/>
			<path class="st19" d="M1576.8,159.6c0,0,9.4,2.3,12.8-3.7c3.5-6,15.9-19,31.7-13.6c15.8,5.4-13.9-13.1-15.2-13.1
				c-1.3,0-16.4-0.1-16.4-0.1s-11.7,9.6-12.1,10.7c-0.4,1.1-3.8,12.6-3.8,12.6L1576.8,159.6z"/>
		</g>
		<path class="st16" d="M1594,184.7l17,3.3c0,0-1.6,6.4-9.2,5.2C1592.7,191.7,1594,184.7,1594,184.7z"/>
	</g>
	<g>
		<path class="st6" d="M1305.7,1371.2c0.7,2.2,1,3,1.9,4.5c5.3,9.7,17.7,23.6,17.7,23.6l9.6-21.6c0,0-1.6-6.8-4.3-16.5
			C1321.3,1363.6,1312.5,1365,1305.7,1371.2z"/>
		<path class="st9" d="M1360.7,1352.4c0,0-53.5,23-55.2,22.6c-1.1-0.3-21.9-35.1-22.2-67.9c-0.1-15.1,15.6-33.4,33.2-29.8
			c8.8,1.8,8.7,4.3,21.8,23.3C1351.3,1319.6,1360.7,1352.4,1360.7,1352.4z"/>
		<path class="st14" d="M1406.3,1765.5c0,0-1.3,21-1.3,21.1c-0.5,2.7-2.3,9.3-2.3,11.7c0,9.1,43.3-7.7,33.6-11.8
			c-0.9-0.4-5.5-3.1-5.8-6.2c-0.4-4.8-1.6-14.4-1.6-14.4L1406.3,1765.5z"/>
		<path class="st17" d="M1436.2,1786.3c0,0-10.2,2.8-15.4,3.5c-5.2,0.7-12.1-5.2-15.7-3.6c-4,1.7-3.9,17.4-3.9,17.4
			s54.5,4.5,69.8-0.2C1477.1,1801.7,1457,1792.8,1436.2,1786.3z"/>
		<path class="st14" d="M1317.9,1765.5c0,0-1.3,21-1.3,21.1c-0.5,2.7-2.3,9.3-2.3,11.7c0,9.1,43.3-7.7,33.6-11.8
			c-0.9-0.4-6.8-5.2-7.1-8.3c-0.4-4.8-0.2-12.4-0.2-12.4L1317.9,1765.5z"/>
		<path class="st17" d="M1347.7,1786.3c0,0-10.2,2.8-15.4,3.5c-5.2,0.7-12.1-5.2-15.7-3.6c-4,1.7-4.2,17.4-4.2,17.4
			s54.7,5.2,70.1-0.2C1388.5,1801.5,1368.5,1792.8,1347.7,1786.3z"/>
		<g>
			<path class="st14" d="M1331.1,1382.8l38.1-53.4c0.2-0.5,0.5-1.4,1-2.9c1.9-5.3,5.9-16.3,9.4-27.3l0-0.1c1.1-3.8,3.4-10.5,5.6-17
				c2.5-7.2,5.6-16.1,5.7-17.6c-0.1-0.3-0.3-0.7-0.5-1.3c-1.4-3.6-3.3-12.3-4-16c-0.4-2.4-0.8-8.2,2-8.2c4.5,0,2.3,5.8,4.4,9.4
				c0.8-2.4,2.3-7.2,3.1-12.1l0.7-11.3c0.1-0.9-0.8-7.1,2.4-7.1l0.1,0c2.8,0.2,2.8,6.9,3.9,18.1c0.4-1.3,0.7-2.9,1-4.3
				c0-0.8,0.5-4.2,1-5.9c-0.6-3.1-0.2-8.1,3.1-7.6c1.7,0.2,1.5,7.1,1.5,7.1c0,0.9-0.1,8.2-0.1,9.7c0.3-2.4,1.7-12.9,4.3-12.9
				c2.2,0,2.3,2.8,2.3,5c0,1.3-1.4,12.6-1.5,14c1-1.7,2.2-11.7,3.2-11.7c4.2,0,2.7,14.2,1.1,17.9c-0.1,0.4-0.3,1.1-0.5,2
				c-0.5,2.5-1.4,6.8-3.6,10.6c-2.7,4.6-6.3,11.8-6.9,12.9c-0.4,2.3-1.7,10.4-3.3,20.6c-0.7,4.4-1.4,9.2-2.2,14.1l0,0
				c-0.1,1.1-0.9,4.5-4,17.3c-4.1,17.6-4.6,18.3-4.7,18.6c-1.8,3.2-42.9,59-44.6,61.3l-1,1.4L1331.1,1382.8z"/>
			<path class="st12" d="M1401.9,1258.3c0,0-3.1-7.9-8.6-7.9c0,0,3.1-1.1,5.7,1C1401.7,1253.5,1401.9,1258.3,1401.9,1258.3z"/>
		</g>
		<g>
			<path class="st14" d="M1321.9,1243.1l-4.9,31c0,0,18.7,15,29.6,11.8c9.1-2.7,2.9-14.6,2.9-14.6s-4.9-16.6-3.4-25.2
				C1347.5,1237.4,1321.9,1243.1,1321.9,1243.1z"/>
			<path class="st8" d="M1325.4,1252.4c4.7,2.2,13.9,5.2,21.2,6c-0.7-4.3-1.1-8.9-0.5-12.3c0.7-4-4.4-5-10.1-4.8
				c-7.4,0.6-14.1,1.8-14.1,1.8l-0.9,6C1322.3,1250.5,1323.8,1251.7,1325.4,1252.4z"/>
			<path class="st14" d="M1298.3,1207.3c-0.8,0,7.4,34.7,20,40.6c12.6,6,31.5,2.9,35-6.5c3.9-10.3-10.3-45.7-28.1-50.2
				C1307.4,1186.8,1298.3,1207.3,1298.3,1207.3z"/>
			<path class="st9" d="M1312.9,1175.5c-10.1,5.8-14.7,14.4-16.3,18c-4.7,2.2-10.5,7.1-13.2,20.2c-3.4,16.1,8.6,28.5,21.4,32.2
				c12.7,3.7,14.7,12.2,14.7,12.2l1.4-9.1c0,0-2.8-7.9-7.1-11.9c-4.3-4,2-9.7,2.6-14.4c0.4-3.6-2.2-10.6-1.7-16.6
				c0,0,7.1-10.7,14.1-13.4C1340.7,1188.2,1325.8,1168,1312.9,1175.5z"/>
			<path class="st14" d="M1318.3,1228.7c1.6,4,1,8-1.5,8.9c-2.5,0.9-5.8-1.6-7.5-5.6c-1.6-4-1-8,1.5-8.9
				C1313.3,1222.2,1316.6,1224.7,1318.3,1228.7z"/>
		</g>
		<path class="st6" d="M1365.3,1383.7l73.5-12c0,0-8.4-21.1-11.3-21.1s-55.6,23-55.6,23l-4.2,8.4L1365.3,1383.7z"/>
		<path class="st13" d="M1327.7,1434.1c0,0-7.3,35.4-4.3,62.3c3,26.9,3.2,122.3,3.2,122.3l-11.4,152.7l27.1,0.6
			c0,0,32.1-152.7,31.5-148.7c-0.6,3.9,10.8-107.5,10.8-107.5l-38.2-85.1L1327.7,1434.1z"/>
		<path class="st9" d="M1334.8,1432.4c0,0-4.8,31.9,1.2,45.9c6,14,51.2,151.3,51.8,162.5c0.6,11.2,15.7,135,15.7,135l31.5-0.9
			l6.8-137.6l-14.2-172.9l-13.8-43.7L1334.8,1432.4z"/>
		<path class="st14" d="M1317,1274.1c0,0,7.8,5.1,15,4.5c7.2-0.6,17.5-7.3,17.5-7.3l-1.4-4.8c0,0-18.7-2.7-19.2-2.4
			C1328.3,1264.4,1317,1274.1,1317,1274.1z"/>
		<path class="st6" d="M1399.6,1349.6c0,0,27.8,26.2,40.3,21.8c12.5-4.5,17.7-19.8-12.9-42.2
			C1399.7,1309.1,1399.6,1349.6,1399.6,1349.6z"/>
		<path class="st7" d="M1418.5,1382c-4.1-22.5-34.1-92.4-36.4-105.3c-1.2-6.3-17.3-6.4-32.7-5.6c-16.2,0.9-32.4,2.9-32.4,2.9
			s-14.4,2.4-20.7,8.3c-6.3,5.9-8,22.3,1.1,53.4c7.2,24.6,16.1,38.1,20.5,55.9c0.9,6,1.7,11.9,2.7,18.8c1.6,26.8,0,62.1,0,62.1
			s78.3,16.2,107.6-8.4C1428,1464.3,1422.7,1405,1418.5,1382z"/>
		<path class="st15" d="M1438.4,1333.7c0,0-30.7,25.4-32.5,25.4c-1.2,0-43.8-31.4-53.7-57.2c-5.4-14.3,6-30.2,19-30.2
			c9,0,13.1,2.4,31,17.5S1438.4,1333.7,1438.4,1333.7z"/>
	</g>
	<path class="st9" d="M898.1,202c5-12.1,10.2-24.2,23.2-30.4c10.6-5,21.6-3.1,31,4c26.6,20,3.4,42.1,33.7,80
		c9.4,11.8,20.8,21.3,26.4,35.1c7.9,19.3-1.5,28.6-16.6,37.9c-72.1,44.3-109.9-46.7-108.5-67.5C888.4,245.7,894.9,209.8,898.1,202z"
		/>
	<path class="st14" d="M823.3,437.8c3-0.5,10.4-5.8,13-6.2c2-0.4,6.4-1,8.2-1.3c2.3-8.5,13.9-54.9,15.2-68.5
		c1.4-14.7,11.8-78.5,11.8-78.5l27,4.9c0,0-11.2,49.1-14.3,72.8c-2.7,20.4-25.1,66.4-27.9,71.2c0,0.1,0,0.2,0,0.4
		c-0.4,7.2-3.9,4.8-3.9,4.8l-5.6,1.4c0,0-20,1.9-21.3,2.4C824.2,441.7,820.3,438.3,823.3,437.8z"/>
	<path class="st20" d="M895.1,246c-19.1,6.5-29.9,58.3-29.9,58.3s29.9,8.4,37.6,4c0,0,8.7-38.6,11.8-37.2L895.1,246z"/>
	<path class="st14" d="M747.5,527.5c-5.8,15.4-8.9,30.2-9.1,32c-0.1,0.9,1.1,5,1,5.9c-11.7,16-28.6,19.5-43,20.5
		c7.4-7.2,18.2-14,18.7-16.3c0.8-3.6,5.3-19.7,7.5-42.1C731.5,531.7,737.6,528.4,747.5,527.5z"/>
	<path class="st1" d="M913.6,355.2l25.8,72.6c0,0-41.4,7.8-56.9,10.6c-15.5,2.8-102,6.6-104.2,8.2c-1.6,1.1-19.5,59-27.5,90.9
		c-9.1,2-24.6-0.4-32.8-3.2c4.5-45.6,20.6-117.9,25.7-125.8C752,395.7,913.6,355.2,913.6,355.2z"/>
	<path class="st14" d="M812.9,559.3c-2.9,16.2-3,31.4-3,33.2c0,0.9,2,4.8,2.1,5.7c-8.5,17.9-24.4,24.5-38.4,28.2
		c5.9-8.4,15.2-17.1,15.3-19.5c0.1-3.7,1.5-20.4-0.6-42.7C797.9,566.5,803.3,562.1,812.9,559.3z"/>
	<path class="st3" d="M943.7,359l10,17.1c15.2,26,3.6,59.5-24.5,70.4c-0.2,0.1-0.3,0.1-0.4,0.2c-14.7,5.7-99,25.6-100.9,27.5
		c-1.4,1.4-8.1,61.6-10,94.4c-8.5,3.7-24.2,4.2-32.8,3c-4.2-45.7-1.9-119.7,1.7-128.4C792.5,429,943.7,359,943.7,359z"/>
	<path class="st9" d="M808.6,593c2.2-2.5,10.5,11.2,12.5,14.1c2.3,3.3,1.7,5.7,1.4,6.3c-0.7,1.4-44.2,26.9-54.8,28.7
		c-1,0.2-2.7-0.5-3.2-0.8c-4.1-3.7,14.9-30.7,23.5-34.3C793.6,604.6,798.5,604.1,808.6,593z"/>
	<path class="st9" d="M737,560c2.7-2,8.2,12.9,9.7,16.2c1.7,3.7,0.6,6,0.2,6.4c-1,1.2-48.5,18.2-59.2,18c-1,0-2.6-1-3-1.4
		c-3.4-4.4,20.4-27.4,29.5-29.3C720.1,568.6,725,569,737,560z"/>
	<path class="st21" d="M913.2,245.8L913.2,245.8L913.2,245.8c-0.5,0-1.2-0.2-1.9-0.4c-3.5-0.6-11.3-1.6-17.3,1
		c-7.3,3.1-18.7,32-18,61.7c0.3,4.5,0.5,8.6,0.8,11.4c1.9,22.4,8.3,64.5,8.6,64.7c8.7,5.6,61.5-16.2,65.1-21
		c3.6-4.8,5.8-63,7.5-65.9l3.5-50.7C955.4,244.8,922.6,245.8,913.2,245.8z"/>
	<path class="st14" d="M934.6,227.2c0,0-3.4,17.6-2.7,24.5c0.7,6.9-2.6,29.3-17.3,29.3c-14.7,0.1-2.8-28.4-1.4-35.2
		c1.4-6.8,1.7-27.8,1.7-27.8L934.6,227.2z"/>
	<path class="st12" d="M914.6,228.5c0.2-5.8,0.3-10.6,0.3-10.6l19.7,9.2c0,0-0.7,3.6-1.4,8.2C924.6,237.1,918.4,233.9,914.6,228.5z"
		/>
	<path class="st14" d="M941.8,178.7c0,0,7.6,4.2,10.4,13.3c2.8,9.1-0.4,32.6-20,38.3c-19.6,5.7-28.1-13-24-27.5
		C912.2,188.2,921,169.8,941.8,178.7z"/>
	<path class="st14" d="M905.7,197.1c0.4,3.9,2.5,6.9,4.8,6.7c2.3-0.2,3.8-3.6,3.4-7.5c-0.4-3.9-2.5-6.9-4.8-6.7
		C906.8,189.9,905.3,193.2,905.7,197.1z"/>
	<path class="st9" d="M939.5,177.5c0,0,3.6,26.2,12,31c8.5,4.7,4.9,16.4,4.9,16.4s7.7-27,1-35.7
		C950.7,180.4,939.5,177.5,939.5,177.5z"/>
	<path class="st14" d="M946.5,212.2c-2.3,3.4-2.3,7.5,0,9c2.3,1.6,6,0,8.4-3.4c2.3-3.4,2.3-7.5,0-9
		C952.6,207.3,948.8,208.8,946.5,212.2z"/>
	<path class="st16" d="M918,213.7l13.8,3.5c0,0-1.7,5.2-7.8,3.9C916.5,219.4,918,213.7,918,213.7z"/>
	<path class="st4" d="M986.5,435.7c0.7,0,59.5-3,59.5-3s-24.4,17.5-24.9,17.5c-0.5,0-19.4-7.5-20.3-7.5
		C1000,442.7,986.5,435.7,986.5,435.7z"/>
	<path class="st14" d="M2178,1766.3c0,0,1.2,20.6,1.2,20.7c0.4,2.6,2.1,9.1,2.1,11.5c0,9-39.7-7.6-30.8-11.6c0.8-0.4,5-3.1,5.3-6.1
		c0.4-4.7,1.4-14.2,1.4-14.2L2178,1766.3z"/>
	<path class="st10" d="M2150.1,1787c0,0,9.3,2.7,14.1,3.4c4.8,0.7,11.1-5.1,14.4-3.5c3.7,1.7,3.6,17.1,3.6,17.1s-50,4.4-64.1-0.2
		C2112.5,1802.1,2131,1793.4,2150.1,1787z"/>
	<path class="st14" d="M2244.1,1765.3c0,0,1.2,20.6,1.2,20.7c0.4,2.6,2.1,9.1,2.1,11.5c0,9-39.7-7.6-30.8-11.6
		c0.8-0.4,6.3-5.1,6.5-8.1c0.4-4.7,0.2-12.2,0.2-12.2L2244.1,1765.3z"/>
	<path class="st10" d="M2216.7,1785.8c0,0,9.3,2.7,14.1,3.4c4.8,0.7,11.1-5.1,14.4-3.5c3.7,1.7,3.9,17.1,3.9,17.1s-49.6,2-64.3-0.2
		C2178.9,1801.8,2197.6,1792.1,2216.7,1785.8z"/>
	<path class="st7" d="M2232.3,1437.4c0,0,6.7,34.8,4,61.2c-2.7,26.4-3,120.2-3,120.2l12.6,150l-27,0.6c0,0-29.4-150-28.9-146.1
		c0.5,3.9-9.9-105.6-9.9-105.6l35.1-83.6L2232.3,1437.4z"/>
	<path class="st15" d="M2222.9,1414.9c0,0,30.5,32.1,19.1,67.2c-4.6,14.1-47,148.7-47.6,159.7c-0.5,11-14.4,132.6-14.4,132.6
		l-28.9-0.9l-6.2-135.2l8.3-182.1l17.5-30.7L2222.9,1414.9z"/>
	<path class="st12" d="M2037.8,1310.4c10-11.1,31.7-27,31.7-27s12.9-11.1,18.2-12.9c7.8-2.7,21.1-9.8,40.3,19.3
		c13.8,20.9,100.7,128.9,114.9,132.6l-93.1,44.6c-2.6-21.3-48.6-61.5-55.2-69C2079.8,1381.2,2028.4,1320.9,2037.8,1310.4z"/>
	<path class="st14" d="M2042.1,1265.1l29,17c0,0,0.8,24.8-8.7,31.2c-8,5.4-14-7.6-14-7.6s-10.8-15-19-19.6
		C2021.3,1281.5,2042.1,1265.1,2042.1,1265.1z"/>
	<path class="st12" d="M2047,1276c-1.1,5.2-3.6,12.6-7.5,18.8c-3.2-3.5-6.8-6.9-10-8.7c-3.8-2.1-1.4-6.8,2.3-11.2
		c5.2-5.4,10.3-9.9,10.3-9.9l5.6,3.3C2048.1,1270.5,2047.4,1274.3,2047,1276z"/>
	<path class="st14" d="M2027,1222.6c0.5-0.6,24.3,29.1,21.4,43c-2.9,13.9-17.4,26.6-27.4,23.1c-11.1-3.9-31.7-38.8-24.3-55.8
		C2004.1,1216,2027,1222.6,2027,1222.6z"/>
	<path class="st9" d="M2000.9,1213.2c10.4-5.8,27.4-7.4,40-0.8c15.6,8.2,19.1,28.7,14.3,41.2c-4.9,12.5,0.7,19.6,0.7,19.6l-8.3-4.8
		c0,0-4.8-7.5-5.5-13.5c-0.6-6-9.4-4.9-13.7-7.7c-3.3-2.1-7.5-8.9-12.8-12.4c0,0-13.4-1.6-20,2.1
		C1984.4,1243.1,1986,1221.5,2000.9,1213.2z"/>
	<path class="st14" d="M2035.2,1252.2c-0.1,4.5,2,8.1,4.7,8.1c2.7,0,4.9-3.5,5-8c0.1-4.5-2-8.1-4.7-8.1
		C2037.5,1244.1,2035.3,1247.7,2035.2,1252.2z"/>
	<path class="st16" d="M2010.8,1275.8l12.6-9.4c0,0,3.3,5.1-2.1,9.4C2014.7,1281,2010.8,1275.8,2010.8,1275.8z"/>
	<path class="st6" d="M1979.1,1463.6c3.2-4.6,4.5-11.3,8.9-16.4c1.5-1.7,3.8-3.6,6.5-5.6c21-12.3,75.8-44,78-46.5
		c2.5-2.9,39.9-65.1,39.9-65.1l-33.6-7.6l-32.8,58c-2.7,2.2-54.9,40.7-54.9,40.7s-10.4,8.1-16,11.9c-2.9,1.7-5.6,2.8-8.1,3.6
		c-3.1,1.1-8.9,4-10.1,5c-1.4,1.2-4.1,3.8-5.7,5.4c-1.6,1.6-3.6,3.3-4.4,4.3c-0.5,0.6-1.9,1.4-3,1.9c-1.6,0.8-1.4,3.1,0.3,3.6
		c1.6,0.5,3.8-0.5,5.1-1.2c3.8-1.8,8.4-6.6,8.6-6c0.2,0.6-4.4,10.8-4.9,12c-0.5,1.2-5.8,13.2-6.1,15.8c-0.3,2.7,1.3,3.3,2.5,2.3
		c1-0.8,9.7-16.8,9.7-16.8s1.1-2,1.5-0.9c0.4,1.2-7.4,15.7-8.2,18c-0.8,2.4-0.2,4.3,2,3.5c2.7-1,10.1-17,10.1-17s1-2,1.6-1.3
		c0.7,0.7-6.2,12.9-6.3,14.3c-0.1,1.4,1.2,2.8,3,1.6c2.2-1.4,8.7-15.7,8.7-15.7s0.8-0.9,1.1-0.3c0.3,0.7-4.9,11.5-4.5,13.1
		c0.3,1.3,1.5,1.1,1.5,1.1C1972.4,1479.5,1975.9,1468.2,1979.1,1463.6z"/>
	<path class="st7" d="M2103.2,1362.9c0,0-10.9-3.5-18-6.7c-4.7-2.2-25.2-12.4-25.2-12.4s8.8-37.3,14.8-50.7
		c21.9-49.2,46.8-15.3,50.2-7.4C2132.6,1303.5,2103.2,1362.9,2103.2,1362.9z"/>
	<path class="st16" d="M1339,1234.1l10.4-7.8c0,0,2.8,4.2-1.7,7.8C1342.3,1238.4,1339,1234.1,1339,1234.1z"/>
	<path class="st13" d="M2561.2,1803H142.5c-3,0-5.5,3.1-5.5,7l0,0c0,3.9,2.5,7,5.5,7h2418.7c3,0,5.5-3.1,5.5-7l0,0
		C2566.7,1806.1,2564.2,1803,2561.2,1803z"/>
	<path class="st14" d="M1047.4,432.6c-0.2-0.6-0.8-0.6-1.4-0.7c-5.5-0.2-10.9-0.4-16.3-1.2c-0.9-0.1-1.8-0.3-2.6-0.7
		c-1.5-0.6-3-0.6-4.5-0.2c-0.8,0.2-1.7,0.3-2.5,0.3c-2.7,0-10.6-2.7-14.6-3.4c-0.9-0.2-1.6-0.9-1.9-1.8c-4-15.7-12.5-50.8-13.6-62.3
		c-1.4-14.8-11.6-81.4-11.6-81.4l-27.3,7.6c0,0,11.2,49.2,14.3,73c2.4,18.4,20.8,57.5,26.6,68.7c2.8,8.4,9.1,8.6,10.6,8.8
		c0.8,0.1,1.6,0.5,2.2,1.2c1,1.2,2.1,2.2,3.4,3c1,0.6,1.7,1.4,2.4,2.3c1.2,1.7,2.2,3.5,3.2,5.2c0.7,1.2,1.4,1.5,2.4,1.3
		c1.1-0.3,1.6-1.1,1.6-2.4c0-1.9-0.7-3.7-1.6-5.4c-0.9-1.6-0.9-2.5,0.2-3.9c0.6-0.8,1.2-1.6,2.1-2.3c0.8-0.7,1.7-1.2,2.8-1
		c2,0.5,3.9,0.9,6,1.1l1.7,0.3c0.1,0,0.9,0.2,0.9,0.2c0.1,0,3,0.4,4,0.4c0.8,0,2.1,0.1,3.2,0.1c1,0,3.1-0.5,3.2-0.5
		c1,0,1.8-0.4,2.5-1c0.3-0.3,0.6-0.6,0.4-1c-0.1-0.4-0.5-0.6-0.9-0.7c-0.7-0.1-4-0.5-4-0.7c1,0,4.2-0.1,5.2-0.1
		c1.4,0,2.5-0.5,3.5-1.5C1047.2,433.6,1047.6,433.2,1047.4,432.6z"/>
	<path class="st21" d="M961.8,246.5c13.5-2.4,24.6,57.8,24.6,57.8s-29.9,8.4-37.6,4c0,0-8.7-38.6-11.8-37.2L961.8,246.5z"/>
	<path class="st14" d="M636.1,1330c0.9-2.6-11.5-4.6-12.2-7.2c-0.7-2.6,15.7-2.8,16.3-5.1c1.1-4.2-17.9-0.9-17.5-2.8
		c0.4-2,19.8-6.3,17.7-9.7c-2.1-3.4-19.7,6.6-20.2,4.4c-0.5-2.3,17.2-7.8,16.9-12.8c-0.2-2.7-29.1,13.3-32.4,11.9
		c-3.4-1.5,3.6-14,0.9-15.9c-2.7-1.9-10.3,25.5-12.2,26.4c-1.8,0.9-40.9,23.2-54.8,26.7c-1.7-4.7-5.3-10.9-6.8-15.3
		c-7.8,5.5-13.6,8.3-21.6,13.4c5.8,14.6,14.1,30.6,18.2,32.4c12.4,5.6,60.2-34.1,69.7-40.8c9.6-6.8,15-4.6,21.5-6.7
		C625.9,1326.7,635.2,1332.6,636.1,1330z"/>
	<path class="st10" d="M508.4,1351c0,0-10.7-47.3-8.8-61c1.9-13.7,18.1-26.5,29.4-21.7c11.3,4.7,16.4,70.7,16.4,70.7L508.4,1351z"/>
</g>
</svg>
