<?xml version="1.0" encoding="utf-8"?>
<!-- Generator: Adobe Illustrator 25.2.0, SVG Export Plug-In . SVG Version: 6.00 Build 0)  -->
<svg version="1.1" id="Layer_1" xmlns="http://www.w3.org/2000/svg" xmlns:xlink="http://www.w3.org/1999/xlink" x="0px" y="0px"
	 viewBox="0 0 298.1 252" style="enable-background:new 0 0 298.1 252;" xml:space="preserve">
<style type="text/css">
	.st0{fill:#525EAA;}
	.st1{fill:#56779F;}
	.st2{opacity:0.5;fill:#DEE7F5;}
	.st3{fill:#C1D1EC;}
	.st4{fill:#F37268;}
	.st5{fill:#99B3DD;}
	.st6{fill:#E8625E;}
	.st7{fill:#DEE7F5;}
	.st8{fill:#8197CD;}
	.st9{fill:#1D1952;}
	.st10{fill:#FFFFFF;}
	.st11{opacity:0.3;fill:#525EAA;}
	.st12{fill:#DAEEF6;}
</style>
<path class="st0" d="M268.8,252H34.5c-0.9,0-1.6-0.7-1.6-1.6v-1.6c0-0.9,0.7-1.6,1.6-1.6h234.3c0.9,0,1.6,0.7,1.6,1.6v1.6
	C270.3,251.3,269.7,252,268.8,252z"/>
<path class="st1" d="M255.8,176.1c-4.8,1.7-8.4,4.3-11.1,7.2c1,2,2,4.3,2,4.3l-3.7-2.2c-8.7,12.3-4.3,29.7-4.3,29.7
	c10.6-3.6,16.3-8.9,18.9-14.4c-1.1-1.1-2.7-2.7-2.7-2.7l3.5,0.9c1.1-2.8,1.4-5.6,1.4-8.2c-1.8-0.5-3.9-1.1-3.9-1.1l3.7-1.5
	C259,181.4,255.8,176.1,255.8,176.1z"/>
<path class="st2" d="M276.2,66.9c7.2,4-1,12.4-3.2,14.6c1.3,2.8,2.3,5.5,3,7.9c1.5-3.7,0.2-7.5,1.9-9.5c1.8-2.2,5.2-3,5.6,2.5
	c0.3,4.4-5,7-7.2,7.9c1.2,4.3,1.6,7.9,1.7,10.6c2.3-3.9,1.4-8.5,3.5-10.5c2.3-2.2,6.1-2.7,5.8,3.5c-0.3,5.1-6.9,7.3-9.2,7.9
	c0,2.5-0.2,3.9-0.2,4.1c-0.4,3-0.9,5.8-1.6,8.5c2.1-3.4,2.1-7.4,4.2-8.9c2.6-1.8,6.5-1.8,5.3,4.3c-1,4.8-7.3,6.1-9.9,6.5
	c-1.5,5.6-3.4,10.5-5.6,14.8c3-2.2,5.6-7.6,9-8.6c2.3-0.7,3.6,0.4,4.3,1.4c0.6,0.9,0.8,1.9,0.5,3c-1.6,5.8-11.3,5.3-14.2,5.1
	c-2.7,5.3-5.7,9.5-8.5,12.9c1.5-1.1,3.9-2.8,5-3.8c1.8-1.5,5.1-2.5,7.2-1.7c0.1,0,0.2,0.1,0.3,0.1c1.6,0.7,2.3,2.5,1.9,4.2
	c-1.8,6.5-13,3.2-15.4,2.5c0,0,0,0-0.1,0.1c-7.2,8.3-13.7,12-13.9,12.1l-0.6-1c0.1,0,6.2-3.5,13.1-11.2c-4.9-9.7-1.3-15.6,1.4-15.6
	c2.8,0,5.8,3,3.1,7.1c-1.6,2.3-2.7,5.2-3.3,7.1c2.8-3.4,5.9-7.7,8.7-13.1c-10.4-10-3.6-15.9-0.3-14.6c3.4,1.3,3.5,4,2,7.7
	c-1,2.5-1.3,4.9-1.3,6.2c2.1-4.2,4.1-9,5.5-14.5c-2.6-0.4-9-1.8-9.9-6.7c-1.1-6.1,2.8-6,5.3-4.2c2.3,1.7,1.9,6.4,4.8,10.1
	c0.8-3,1.4-6.3,1.9-9.7c0-0.1,0.4-3-0.1-7.8c-2.6-0.1-9.1-0.7-10.6-5.4c-1.8-5.9,2-6.3,4.8-4.8c2.5,1.4,2.7,5.9,5.7,9.1
	c-0.6-4-1.8-9.2-4.4-14.8c-2.7-0.1-9-0.8-10.5-5.4c-1.8-5.9,2-6.3,4.8-4.8c2.5,1.4,2.7,6,5.8,9.2l0.1-0.1c-0.3-1.6-0.9-5.1-1.3-6.8
	c-0.5-2.2,0-5.4,1.7-6.8C274.4,66.1,276.2,66.9,276.2,66.9z"/>
<path class="st3" d="M206.4,38.8c10.6-0.6,7.6,14.3,6.6,18.3c3.3,2.2,6.2,4.4,8.7,6.6c-0.9-5.1-4.9-8.4-4.5-11.7
	c0.5-3.6,3.6-6.9,7.8-1.1c3.3,4.6-0.6,11.1-2.4,13.6c4.2,3.9,7.2,7.6,9.2,10.5c-0.1-5.9-4.4-10.3-3.4-13.9c1-3.9,4.9-7.2,8.8-0.2
	c3.2,5.8-2.6,12.8-4.7,15c1.8,2.7,2.5,4.4,2.6,4.6c1.6,3.5,3,7,4.1,10.4c0-5.2-2.9-9.6-1.6-12.7c1.6-3.8,5.8-6.4,8.7,1
	c2.3,5.9-3.8,11.8-6.4,14c2.2,7.1,3.5,13.8,4.1,20c1.7-4.5,0.9-12.1,3.9-15.6c2-2.3,4.2-2.1,5.7-1.5c1.3,0.5,2.2,1.6,2.6,2.9
	c2.3,7.4-8.7,13.7-12.1,15.4c0.7,7.6,0.3,14.4-0.4,20c0.9-2.3,2.3-5.8,2.9-7.6c1-2.9,3.9-6.3,6.7-6.9c0.1,0,0.2,0,0.4-0.1
	c2.2-0.3,4.3,1.2,4.9,3.3c2.6,8.4-12,12.6-15.2,13.4c0,0,0,0.1,0,0.1c-2.1,14-6.7,22.5-6.9,22.9l-1.3-0.7c0-0.1,4.4-8.2,6.6-21.3
	c-12.1-7.2-12.2-16.1-9.3-18.1c3.1-2,8.5-0.7,8.3,5.6c-0.1,3.6,0.7,7.5,1.3,10.1c0.8-5.6,1.2-12.5,0.5-20.4
	c-18.4-3.8-15-14.9-10.5-15.8c4.6-0.9,6.6,1.9,7.5,7.1c0.6,3.5,2,6.2,2.9,7.7c-0.6-6.1-1.8-12.7-4-19.7c-3.1,1.3-11.1,4.2-15.5-0.5
	c-5.4-5.9-1.1-8.5,3-8.2c3.7,0.3,6.6,5.7,12.2,7.7c-1.2-3.9-2.8-7.9-4.6-11.9c0-0.1-1.6-3.6-5.5-8.4c-2.9,1.7-10.5,5.6-15.3,1.4
	c-6.1-5.2-2.2-8.3,1.9-8.6c3.6-0.2,7,4.6,12.5,6c-3.4-4-8.3-8.8-15-13.2c-3,1.8-10.4,5.4-15.2,1.3c-6.1-5.2-2.2-8.3,1.9-8.6
	c3.7-0.2,7.1,4.7,12.8,6.1l0.1-0.1c-1.4-1.6-4.5-5-6.1-6.5c-2.1-2.1-3.7-5.9-2.8-8.6C203.8,39.3,206.4,38.8,206.4,38.8z"/>
<path class="st4" d="M249.6,133.1c-0.2,3.2,1.4,6.8,4.4,10c2.7,3,6.4,5.4,10.3,6.7c0.3,0.1,0.7,0.2,1,0.3l1.2,0.3l0.5,0.2
	c0.3,0.1,0.7,0.3,1,0.4c3.9,1.3,8.2,1.7,12.2,0.9c4.3-0.8,7.8-2.7,9.6-5.3c2.3-3.3,1.7-7.3-1.6-10.9c-1.8-2-4-2.9-6.5-2.6
	c-3.4,0.4-7.1,3-11,7.8c-1,1.2-1.9,2.5-2.6,3.5c0.1-1.3,0.1-2.8,0-4.4c-0.2-6.2-1.6-10.6-4-12.9c-1.8-1.7-4.1-2.3-6.7-1.8
	C252.6,126.3,249.8,129.1,249.6,133.1z M270.8,147.8c0.8-1.2,1.8-2.7,3.1-4.2c3.1-3.8,6.1-6.1,8.3-6.3c0.4,0,0.8,0,1.4,0.1
	c0.5,0.2,1.1,0.5,1.7,1.2c2,2.2,2.4,4.2,1.3,5.9C284.4,147.6,277.5,149.5,270.8,147.8z M258.1,129.4c0.9-0.2,1.6-0.1,2.1,0.1
	c0.5,0.2,0.9,0.5,1.2,0.7c1.6,1.5,2.6,5.1,2.8,10.1c0.1,2,0,3.8-0.1,5.2c-6.4-2.7-10.7-8.3-10.5-12.2
	C253.7,131.3,255.2,129.9,258.1,129.4z"/>
<path class="st3" d="M223.5,193.4l48.9,16.5c2.6,0.9,5.5-0.5,6.4-3.2l14.5-43.1c0.9-2.6-0.5-5.5-3.2-6.4l-48.9-16.5
	c-2.6-0.9-5.5,0.5-6.4,3.2L220.3,187C219.4,189.7,220.8,192.5,223.5,193.4z"/>
<path class="st5" d="M227.6,165.5l58.4,19.7l6.8-20.2c1.1-3.4-0.7-7-4.1-8.2l-46.1-15.5c-3.4-1.1-7,0.7-8.2,4.1L227.6,165.5z"/>
<path class="st3" d="M228.8,158.5l60.4,20.4c1.7,0.6,3.6-0.3,4.2-2.1l4.5-13.4c0.6-1.7-0.3-3.6-2.1-4.2l-60.4-20.4
	c-1.7-0.6-3.6,0.3-4.2,2.1l-4.5,13.4C226.1,156,227.1,157.9,228.8,158.5z"/>
<rect x="249.4" y="147.4" transform="matrix(-0.9477 -0.3192 0.3192 -0.9477 443.4754 423.0755)" class="st4" width="14" height="55.5"/>
<rect x="250.5" y="168.4" transform="matrix(-0.9477 -0.3192 0.3192 -0.9477 446.7195 416.9555)" class="st6" width="14" height="7"/>
<rect x="31.8" y="129" transform="matrix(-0.9388 0.3446 -0.3446 -0.9388 180.5731 302.6116)" class="st3" width="63.3" height="76.8"/>
<rect x="62.4" y="123.5" transform="matrix(-0.9388 0.3446 -0.3446 -0.9388 207.4909 286.9243)" class="st5" width="31.6" height="76.8"/>
<path class="st7" d="M71.1,130.7L71.1,130.7c0.6-0.3,0.9-1,0.6-1.7c-1-2.1-3.5-6.6-7.2-10.7c-6.7-7.5-14.3-10.1-21.9-7.7
	c-4.2,1.3-7.4,4-9.4,7.8c-4.5,8.7-1.7,21-0.6,24.9c0.2,0.7,0.9,1.1,1.6,0.8l0,0c0.6-0.2,1-0.9,0.8-1.5c-1-3.6-3.7-15.4,0.4-23.2
	c1.7-3.2,4.3-5.5,7.9-6.6c6.8-2.1,13.3,0.2,19.3,7c3.5,3.9,5.8,8.2,6.8,10.2C69.8,130.7,70.5,130.9,71.1,130.7z"/>
<path class="st0" d="M263.1,171.9c-6.4,1.1-11.4,3.4-15.4,6.5c0.7,2.6,1.6,5.8,1.6,5.8l-4.2-3.6c-13.7,13.3-12.2,36.1-12.2,36.1
	c14.1-2.1,22.3-7.4,26.9-13.6c-1.1-1.6-2.8-4-2.8-4l4.2,2c1.9-3.2,3-6.6,3.6-9.9c-2.2-1-4.6-2.2-4.6-2.2l5-1
	C265.8,179.1,263.1,171.9,263.1,171.9z"/>
<path class="st8" d="M297.2,184.8c-10.5-1.5-19.5-0.3-27.2,2.6c-0.1,4.5-0.4,9.8-0.4,9.8l-4.8-7.6c-27.8,14.1-36.5,50.3-36.5,50.3
	c23,3.6,38.3-0.6,48.5-8.1c-0.9-3.1-2.4-7.6-2.4-7.6l5.6,5.1c4.6-4.1,8-8.9,10.4-13.7c-2.9-2.6-6.1-5.7-6.1-5.7l8.3,0.9
	C297.9,197.4,297.2,184.8,297.2,184.8z"/>
<path class="st0" d="M276.9,231.8c-0.9-3.1-2.4-7.6-2.4-7.6l5.6,5.1c4.6-4.1,8-8.9,10.4-13.7c-2.9-2.6-6.1-5.7-6.1-5.7l8.3,0.9
	c5.2-13.3,4.5-25.9,4.5-25.9c-34,13.6-68.8,55.1-68.8,55.1C251.3,243.5,266.7,239.3,276.9,231.8z"/>
<path class="st4" d="M289.1,233.2c-4.8-5.1-10-8.2-15.2-9.9c-1.9,2.3-4.3,4.9-4.3,4.9l0.7-5.9c-20.2-4.2-39.7,10.9-39.7,10.9
	c10.4,11.4,20.1,15.5,28.5,15.9c0.8-2,1.9-4.9,1.9-4.9l0.8,4.9c4.1-0.2,7.8-1.3,11.1-2.8c-0.4-2.6-0.8-5.5-0.8-5.5l3.9,3.9
	C284.3,240,289.1,233.2,289.1,233.2z"/>
<path class="st6" d="M259.1,249.1c0.8-2,1.9-4.9,1.9-4.9l0.8,4.9c4.1-0.2,7.8-1.3,11.1-2.8c-0.4-2.6-0.8-5.5-0.8-5.5l3.9,3.9
	c8.2-4.7,13.1-11.6,13.1-11.6c-23.3-7.1-58.5,0-58.5,0C241,244.6,250.7,248.8,259.1,249.1z"/>
<path class="st9" d="M75.2,184.8l-4.1-5.7c-0.7-1-2.2-1.2-3.2-0.5l-2,1.5c-1,0.7-1.2,2.2-0.5,3.2l4.1,5.7c0.7,1,2.2,1.2,3.2,0.5
	l2-1.5C75.7,187.2,76,185.8,75.2,184.8z"/>
<path class="st8" d="M0,169.3c12.2-1.9,22.8-0.6,31.8,2.7c0.2,5.3,0.6,11.5,0.6,11.5l5.5-8.9c32.7,16.1,43.4,58.3,43.4,58.3
	c-26.8,4.5-44.8-0.2-56.9-8.8c1.1-3.6,2.7-9,2.7-9l-6.4,6c-5.4-4.7-9.4-10.3-12.4-15.9c3.4-3.1,7.1-6.7,7.1-6.7l-9.7,1.1
	C-0.6,184.1,0,169.3,0,169.3z"/>
<path class="st0" d="M24.4,224.1c1.1-3.6,2.7-9,2.7-9l-6.4,6c-5.4-4.7-9.4-10.3-12.4-15.9c3.4-3.1,7.1-6.7,7.1-6.7l-9.7,1.1
	C-0.6,184.1,0,169.3,0,169.3c40,15.4,81.3,63.6,81.3,63.6C54.5,237.4,36.5,232.7,24.4,224.1z"/>
<path class="st3" d="M8.8,225.8c6.5-5.1,13-7.8,19.3-8.8c1.8,3,4.1,6.5,4.1,6.5l0.3-6.9c24.2-1.4,44.1,19.6,44.1,19.6
	c-14,11.4-26,14.5-35.7,13.4c-0.6-2.4-1.4-6.1-1.4-6.1l-1.7,5.6c-4.7-1-8.8-2.9-12.4-5.2c0.9-2.9,1.9-6.2,1.9-6.2l-5.2,3.8
	C13.2,234.5,8.8,225.8,8.8,225.8z"/>
<path class="st5" d="M40.7,249.5c-0.6-2.4-1.4-6.1-1.4-6.1l-1.7,5.6c-4.7-1-8.8-2.9-12.4-5.2c0.9-2.9,1.9-6.2,1.9-6.2l-5.2,3.8
	c-8.7-6.9-13.2-15.7-13.2-15.7c28.2-4.1,67.7,10.2,67.7,10.2C62.5,247.4,50.5,250.5,40.7,249.5z"/>
<path class="st7" d="M82.8,18.5c0,0,0.2,2.4,2.1,2.5c-1.9,0.2-2.1,2.5-2.1,2.5s-0.2-2.4-2.1-2.5C82.6,20.9,82.8,18.5,82.8,18.5z"/>
<path class="st7" d="M123.4,95.6c0,0,0.4,4,3.6,4.3c-3.2,0.3-3.6,4.3-3.6,4.3s-0.4-4-3.6-4.3C123,99.7,123.4,95.6,123.4,95.6z"/>
<path class="st7" d="M226.2,19.7c0,0,0.2,2,1.8,2.2c-1.6,0.1-1.8,2.2-1.8,2.2s-0.2-2-1.8-2.2C226,21.8,226.2,19.7,226.2,19.7z"/>
<path class="st8" d="M14.8,50c0,0,0.4,4,3.6,4.3c-3.2,0.3-3.6,4.3-3.6,4.3s-0.4-4-3.6-4.3C14.4,54,14.8,50,14.8,50z"/>
<path class="st3" d="M61.4,64.8c0,0,0.4,4.4,3.9,4.7c-3.4,0.3-3.9,4.7-3.9,4.7s-0.4-4.4-3.9-4.7C60.9,69.1,61.4,64.8,61.4,64.8z"/>
<path class="st3" d="M160.4,18.9c0,0,0.4,4.4,3.9,4.7c-3.4,0.3-3.9,4.7-3.9,4.7s-0.4-4.4-3.9-4.7C160,23.3,160.4,18.9,160.4,18.9z"
	/>
<path class="st8" d="M114.8,0c0,0,0.4,4.4,3.9,4.7c-3.4,0.3-3.9,4.7-3.9,4.7s-0.4-4.4-3.9-4.7C114.3,4.4,114.8,0,114.8,0z"/>
<path class="st4" d="M41.3,5.5c0,0,0.4,4.4,3.9,4.7c-3.4,0.3-3.9,4.7-3.9,4.7s-0.4-4.4-3.9-4.7C40.8,9.9,41.3,5.5,41.3,5.5z"/>
<path class="st4" d="M248.1,42.6c0,0,0.4,4.4,3.9,4.7c-3.4,0.3-3.9,4.7-3.9,4.7s-0.4-4.4-3.9-4.7C247.6,46.9,248.1,42.6,248.1,42.6z
	"/>
<path class="st4" d="M164.5,66c0,0,0.3,2.5,2.2,2.7c-2,0.2-2.2,2.7-2.2,2.7s-0.3-2.5-2.2-2.7C164.3,68.5,164.5,66,164.5,66z"/>
<g>
	<path class="st9" d="M237.6,247.7H72.5c-3.4,0-6.2-2.8-6.2-6.2V124.1c0-3.4,2.8-6.2,6.2-6.2h165.1c3.4,0,6.2,2.8,6.2,6.2v117.4
		C243.8,244.9,241,247.7,237.6,247.7z"/>
	<g>
		<path class="st7" d="M231.1,242.6H72.9c-1.1,0-2-0.9-2-2V125.1c0-1.1,0.9-2,2-2h158.2V242.6z"/>
		<rect x="77.5" y="138.9" class="st10" width="146.1" height="101.6"/>
		<path class="st4" d="M223.6,141.7v-7.5c0-2.6-2.1-4.7-4.7-4.7H82.1c-2.6,0-4.7,2.1-4.7,4.7v7.5H223.6z"/>
		<path class="st10" d="M214.7,138.6H157c-1.4,0-2.6-1.2-2.6-2.6v-0.8c0-1.4,1.2-2.6,2.6-2.6h57.7c1.4,0,2.6,1.2,2.6,2.6v0.8
			C217.3,137.4,216.2,138.6,214.7,138.6z"/>
		<path class="st10" d="M89.5,135.3c0.2,1.7-1.2,3.1-2.9,2.9c-1.1-0.1-2.1-1.1-2.2-2.2c-0.2-1.7,1.2-3.1,2.9-2.9
			C88.4,133.2,89.4,134.1,89.5,135.3z"/>
		<path class="st10" d="M100.8,135.3c0.2,1.7-1.2,3.1-2.9,2.9c-1.1-0.1-2.1-1.1-2.2-2.2c-0.2-1.7,1.2-3.1,2.9-2.9
			C99.7,133.2,100.6,134.1,100.8,135.3z"/>
		<path class="st10" d="M112,135.3c0.2,1.7-1.2,3.1-2.9,2.9c-1.1-0.1-2.1-1.1-2.2-2.2c-0.2-1.7,1.2-3.1,2.9-2.9
			C110.9,133.2,111.9,134.1,112,135.3z"/>
		<path class="st7" d="M117.3,216.7H88.1c-2.1,0-3.9-1.7-3.9-3.9v-58c0-2.1,1.7-3.9,3.9-3.9h29.2c2.1,0,3.9,1.7,3.9,3.9v58
			C121.2,214.9,119.5,216.7,117.3,216.7z"/>
		<path class="st7" d="M165.1,216.7h-29.2c-2.1,0-3.9-1.7-3.9-3.9v-58c0-2.1,1.7-3.9,3.9-3.9h29.2c2.1,0,3.9,1.7,3.9,3.9v58
			C169,214.9,167.3,216.7,165.1,216.7z"/>
		<path class="st0" d="M119.3,176.7c-3.3-9.7-11.7-13.5-11.7-13.5c-0.4,3.5-3.3,4-4.7,4v0c0,0-0.1,0-0.3,0c-0.2,0-0.3,0-0.3,0v0
			c-1.4,0-4.3-0.5-4.7-4c0,0-8.4,3.8-11.7,13.5c0,0,1.7,2,5.1,2l-0.4,22.2c0,0,2,1.5,10.7,1.3c0.9,0,1.8,0,2.7,0
			c8.6,0.2,10.7-1.3,10.7-1.3l-0.4-22.2C117.6,178.7,119.3,176.7,119.3,176.7z"/>
		<g>
			<path class="st4" d="M87.6,185.2h-5.8c-0.5,0-1-0.4-1-1v-3c0-0.5,0.4-1,1-1h5.8c0.5,0,1,0.4,1,1v3
				C88.5,184.8,88.1,185.2,87.6,185.2z"/>
			<polygon class="st10" points="87.3,182.6 83.3,182.6 84.4,181.5 84.2,181.2 82.5,182.8 84.2,184.3 84.4,184 83.3,182.9 
				87.3,182.9 			"/>
		</g>
		<path class="st4" d="M168,237.9h-33.9c-1.8,0-3.3-1.5-3.3-3.3v-1c0-1.8,1.5-3.3,3.3-3.3H168c1.8,0,3.3,1.5,3.3,3.3v1
			C171.3,236.4,169.8,237.9,168,237.9z"/>
		<g>
			<path class="st10" d="M143.3,234.7c0,0.1,0,0.2,0,0.3c0,0.1-0.1,0.2-0.1,0.2c0,0.1-0.1,0.1-0.2,0.2c-0.1,0.1-0.1,0.1-0.2,0.1
				c-0.1,0-0.2,0.1-0.3,0.1c-0.1,0-0.2,0-0.3,0h-0.9c0,0-0.1,0-0.1,0c0,0-0.1-0.1-0.1-0.1v-2.9c0-0.1,0-0.1,0.1-0.1c0,0,0.1,0,0.1,0
				h0.7c0.2,0,0.4,0,0.5,0.1c0.1,0,0.2,0.1,0.3,0.2c0.1,0.1,0.1,0.2,0.2,0.3c0,0.1,0.1,0.2,0.1,0.4c0,0.1,0,0.2,0,0.2
				c0,0.1,0,0.1-0.1,0.2c0,0.1-0.1,0.1-0.1,0.2c-0.1,0-0.1,0.1-0.2,0.1c0.1,0,0.2,0,0.3,0.1c0.1,0,0.1,0.1,0.2,0.2
				c0.1,0.1,0.1,0.2,0.1,0.2C143.3,234.5,143.3,234.6,143.3,234.7z M142.7,233.2c0-0.1,0-0.2,0-0.2c0-0.1-0.1-0.1-0.1-0.2
				c0,0-0.1-0.1-0.2-0.1c-0.1,0-0.2,0-0.3,0h-0.5v1.1h0.5c0.1,0,0.2,0,0.3,0c0.1,0,0.1-0.1,0.2-0.1c0,0,0.1-0.1,0.1-0.2
				C142.7,233.4,142.7,233.3,142.7,233.2z M142.9,234.7c0-0.1,0-0.2,0-0.3c0-0.1-0.1-0.1-0.1-0.2c-0.1-0.1-0.1-0.1-0.2-0.1
				c-0.1,0-0.2,0-0.3,0h-0.5v1.2h0.6c0.1,0,0.2,0,0.3,0c0.1,0,0.1-0.1,0.2-0.1c0.1,0,0.1-0.1,0.1-0.2
				C142.9,234.9,142.9,234.8,142.9,234.7z"/>
			<path class="st10" d="M146.5,234.4c0,0.2,0,0.4-0.1,0.5c-0.1,0.2-0.1,0.3-0.3,0.4c-0.1,0.1-0.2,0.2-0.4,0.2
				c-0.2,0.1-0.3,0.1-0.5,0.1c-0.2,0-0.3,0-0.5-0.1c-0.1-0.1-0.3-0.1-0.4-0.2c-0.1-0.1-0.2-0.2-0.2-0.4c-0.1-0.2-0.1-0.3-0.1-0.5v-2
				c0,0,0,0,0,0c0,0,0,0,0,0c0,0,0,0,0.1,0c0,0,0.1,0,0.1,0c0,0,0.1,0,0.1,0c0,0,0.1,0,0.1,0c0,0,0,0,0,0c0,0,0,0,0,0v2
				c0,0.2,0,0.3,0.1,0.4c0,0.1,0.1,0.2,0.2,0.3c0.1,0.1,0.2,0.1,0.3,0.2c0.1,0,0.2,0.1,0.3,0.1c0.1,0,0.2,0,0.3-0.1
				c0.1,0,0.2-0.1,0.3-0.2c0.1-0.1,0.1-0.2,0.2-0.3c0-0.1,0.1-0.2,0.1-0.4v-2c0,0,0,0,0,0c0,0,0,0,0,0c0,0,0,0,0.1,0
				c0,0,0.1,0,0.1,0c0,0,0.1,0,0.1,0c0,0,0.1,0,0.1,0c0,0,0,0,0,0c0,0,0,0,0,0V234.4z"/>
			<path class="st10" d="M149.2,235.5C149.2,235.5,149.2,235.5,149.2,235.5c0,0.1,0,0.1,0,0.1c0,0,0,0,0,0c0,0,0,0,0,0h-1.6
				c0,0-0.1,0-0.1,0c0,0-0.1-0.1-0.1-0.1v-2.9c0-0.1,0-0.1,0.1-0.1c0,0,0.1,0,0.1,0h1.6c0,0,0,0,0,0c0,0,0,0,0,0c0,0,0,0,0,0.1
				c0,0,0,0.1,0,0.1c0,0,0,0.1,0,0.1c0,0,0,0,0,0.1c0,0,0,0,0,0c0,0,0,0,0,0h-1.3v1h1.1c0,0,0,0,0,0c0,0,0,0,0,0c0,0,0,0,0,0.1
				c0,0,0,0.1,0,0.1c0,0,0,0.1,0,0.1c0,0,0,0,0,0.1c0,0,0,0,0,0c0,0,0,0,0,0h-1.1v1.2h1.3c0,0,0,0,0,0c0,0,0,0,0,0
				C149.2,235.3,149.2,235.4,149.2,235.5C149.2,235.4,149.2,235.4,149.2,235.5z"/>
			<path class="st10" d="M153.6,235.5C153.6,235.5,153.6,235.5,153.6,235.5c0,0.1,0,0.1-0.1,0.1c0,0,0,0-0.1,0c0,0,0,0-0.1,0h-0.1
				c0,0-0.1,0-0.1,0c0,0-0.1,0-0.1-0.1c0,0-0.1-0.1-0.1-0.1c0,0-0.1-0.1-0.1-0.2l-1-1.9c-0.1-0.1-0.1-0.2-0.2-0.3
				c-0.1-0.1-0.1-0.2-0.1-0.3h0c0,0.1,0,0.2,0,0.4c0,0.1,0,0.3,0,0.4v2c0,0,0,0,0,0c0,0,0,0,0,0c0,0,0,0-0.1,0c0,0-0.1,0-0.1,0
				c0,0-0.1,0-0.1,0c0,0,0,0-0.1,0c0,0,0,0,0,0c0,0,0,0,0,0v-3c0-0.1,0-0.1,0.1-0.1c0,0,0.1,0,0.1,0h0.2c0.1,0,0.1,0,0.1,0
				c0,0,0.1,0,0.1,0c0,0,0.1,0,0.1,0.1c0,0,0.1,0.1,0.1,0.1l0.8,1.4c0,0.1,0.1,0.2,0.1,0.3c0,0.1,0.1,0.2,0.1,0.2
				c0,0.1,0.1,0.2,0.1,0.2c0,0.1,0.1,0.2,0.1,0.2h0c0-0.1,0-0.3,0-0.4c0-0.1,0-0.3,0-0.4v-1.8c0,0,0,0,0,0c0,0,0,0,0,0
				c0,0,0,0,0.1,0c0,0,0.1,0,0.1,0c0,0,0.1,0,0.1,0c0,0,0.1,0,0.1,0c0,0,0,0,0,0c0,0,0,0,0,0V235.5z"/>
			<path class="st10" d="M157.2,234c0,0.3,0,0.5-0.1,0.7c-0.1,0.2-0.2,0.4-0.3,0.5c-0.1,0.2-0.3,0.3-0.5,0.3
				c-0.2,0.1-0.4,0.1-0.7,0.1c-0.2,0-0.5,0-0.6-0.1c-0.2-0.1-0.3-0.2-0.4-0.3c-0.1-0.1-0.2-0.3-0.3-0.5c-0.1-0.2-0.1-0.4-0.1-0.7
				c0-0.3,0-0.5,0.1-0.7c0.1-0.2,0.2-0.4,0.3-0.5c0.1-0.1,0.3-0.3,0.5-0.3c0.2-0.1,0.4-0.1,0.7-0.1c0.2,0,0.5,0,0.6,0.1
				c0.2,0.1,0.3,0.2,0.4,0.3c0.1,0.1,0.2,0.3,0.3,0.5C157.2,233.5,157.2,233.7,157.2,234z M156.8,234c0-0.2,0-0.4,0-0.5
				c0-0.2-0.1-0.3-0.2-0.4c-0.1-0.1-0.2-0.2-0.3-0.3c-0.1-0.1-0.3-0.1-0.5-0.1c-0.2,0-0.3,0-0.5,0.1c-0.1,0.1-0.2,0.2-0.3,0.3
				c-0.1,0.1-0.1,0.3-0.2,0.4c0,0.2-0.1,0.3-0.1,0.5c0,0.2,0,0.4,0,0.5s0.1,0.3,0.2,0.4c0.1,0.1,0.2,0.2,0.3,0.3
				c0.1,0.1,0.3,0.1,0.5,0.1c0.2,0,0.4,0,0.5-0.1c0.1-0.1,0.2-0.2,0.3-0.3c0.1-0.1,0.1-0.3,0.2-0.4
				C156.7,234.3,156.8,234.2,156.8,234z"/>
			<path class="st10" d="M161,235.6C161,235.6,161,235.6,161,235.6C161,235.6,160.9,235.6,161,235.6c-0.1,0.1-0.1,0.1-0.2,0.1
				c0,0-0.1,0-0.1,0c-0.1,0-0.1,0-0.1,0c0,0-0.1,0-0.1,0c0,0,0,0-0.1,0c0,0,0,0,0-0.1l-0.7-2.5h0l-0.6,2.5c0,0,0,0,0,0.1
				c0,0,0,0-0.1,0c0,0-0.1,0-0.1,0c0,0-0.1,0-0.1,0c-0.1,0-0.1,0-0.1,0c0,0-0.1,0-0.1,0c0,0,0,0-0.1,0c0,0,0,0,0-0.1l-0.9-3
				c0,0,0-0.1,0-0.1c0,0,0,0,0-0.1c0,0,0,0,0.1,0c0,0,0.1,0,0.1,0c0.1,0,0.1,0,0.1,0c0,0,0.1,0,0.1,0c0,0,0,0,0,0c0,0,0,0,0,0
				l0.7,2.8h0l0.7-2.8c0,0,0,0,0,0c0,0,0,0,0,0c0,0,0,0,0.1,0c0,0,0.1,0,0.1,0c0,0,0.1,0,0.1,0c0,0,0.1,0,0.1,0c0,0,0,0,0,0
				c0,0,0,0,0,0l0.8,2.8h0l0.7-2.8c0,0,0,0,0,0c0,0,0,0,0,0c0,0,0,0,0.1,0c0,0,0.1,0,0.1,0c0.1,0,0.1,0,0.1,0c0,0,0.1,0,0.1,0
				c0,0,0,0,0,0.1c0,0,0,0.1,0,0.1L161,235.6z"/>
		</g>
		<path class="st0" d="M119.3,176.7c-3.3-9.7-11.7-13.5-11.7-13.5c-0.4,3.5-3.3,4-4.7,4v0c0,0-0.1,0-0.2,0v35c0.4,0,0.8,0,1.2,0
			c8.6,0.2,10.7-1.3,10.7-1.3l-0.4-22.2C117.6,178.7,119.3,176.7,119.3,176.7z"/>
		<path class="st4" d="M167.2,176.7c-3.3-9.7-11.7-13.5-11.7-13.5c-0.4,3.5-3.3,4-4.7,4v0c0,0-0.1,0-0.3,0c-0.2,0-0.3,0-0.3,0v0
			c-1.4,0-4.3-0.5-4.7-4c0,0-8.4,3.8-11.7,13.5c0,0,1.7,2,5.1,2l-0.4,22.2c0,0,2,1.5,10.7,1.3c0.9,0,1.8,0,2.7,0
			c8.6,0.2,10.7-1.3,10.7-1.3l-0.4-22.2C165.5,178.7,167.2,176.7,167.2,176.7z"/>
		<path class="st4" d="M167.2,176.7c-3.3-9.7-11.7-13.5-11.7-13.5c-0.4,3.5-3.3,4-4.7,4v0c0,0-0.1,0-0.2,0v35c0.4,0,0.8,0,1.2,0
			c8.6,0.2,10.7-1.3,10.7-1.3l-0.4-22.2C165.5,178.7,167.2,176.7,167.2,176.7z"/>
		<rect x="85.9" y="219.9" class="st7" width="31.1" height="1.4"/>
		<rect x="85.9" y="223.2" class="st7" width="31.1" height="1.4"/>
		<rect x="85.9" y="226.5" class="st7" width="31.1" height="1.4"/>
		<rect x="135.5" y="219.9" class="st7" width="31.1" height="1.4"/>
		<rect x="135.5" y="223.2" class="st7" width="31.1" height="1.4"/>
		<path class="st7" d="M212.9,216.7h-29.2c-2.1,0-3.9-1.7-3.9-3.9v-58c0-2.1,1.7-3.9,3.9-3.9h29.2c2.1,0,3.9,1.7,3.9,3.9v58
			C216.8,214.9,215.1,216.7,212.9,216.7z"/>
		<path class="st5" d="M215,176.7c-3.3-9.7-11.7-13.5-11.7-13.5c-0.4,3.5-3.3,4-4.7,4v0c0,0-0.1,0-0.3,0c-0.2,0-0.3,0-0.3,0v0
			c-1.4,0-4.3-0.5-4.7-4c0,0-8.4,3.8-11.7,13.5c0,0,1.7,2,5.1,2l-0.4,22.2c0,0,2,1.5,10.7,1.3c0.9,0,1.8,0,2.7,0
			c8.6,0.2,10.7-1.3,10.7-1.3l-0.4-22.2C213.3,178.7,215,176.7,215,176.7z"/>
		<path class="st5" d="M215,176.7c-3.3-9.7-11.7-13.5-11.7-13.5c-0.4,3.5-3.3,4-4.7,4v0c0,0-0.1,0-0.2,0v35c0.4,0,0.8,0,1.2,0
			c8.6,0.2,10.7-1.3,10.7-1.3l-0.4-22.2C213.3,178.7,215,176.7,215,176.7z"/>
		<rect x="183.3" y="219.9" class="st7" width="31.1" height="1.4"/>
		<rect x="183.3" y="223.2" class="st7" width="31.1" height="1.4"/>
		<path class="st4" d="M125.7,154.3c0.2,4.2-3.2,7.6-7.4,7.4c-3.6-0.2-6.5-3.1-6.7-6.7c-0.2-4.2,3.2-7.6,7.4-7.4
			C122.6,147.8,125.5,150.7,125.7,154.3z"/>
		<g>
			<path class="st10" d="M118.7,153.1c0,0.3,0,0.5-0.1,0.8c-0.1,0.2-0.2,0.4-0.3,0.6c-0.1,0.2-0.3,0.3-0.5,0.4
				c-0.2,0.1-0.4,0.1-0.7,0.1c-0.3,0-0.5,0-0.7-0.1c-0.2-0.1-0.3-0.2-0.5-0.4c-0.1-0.2-0.2-0.3-0.3-0.6c-0.1-0.2-0.1-0.5-0.1-0.8
				c0-0.3,0-0.5,0.1-0.7c0.1-0.2,0.1-0.4,0.3-0.6c0.1-0.2,0.3-0.3,0.5-0.4c0.2-0.1,0.4-0.1,0.7-0.1c0.3,0,0.5,0,0.7,0.1
				c0.2,0.1,0.3,0.2,0.5,0.4c0.1,0.2,0.2,0.4,0.2,0.6C118.6,152.6,118.7,152.8,118.7,153.1z M117.1,158.3
				C117.1,158.4,117.1,158.4,117.1,158.3c-0.1,0.1-0.1,0.1-0.2,0.1c0,0-0.1,0-0.1,0c0,0-0.1,0-0.2,0c-0.1,0-0.1,0-0.2,0
				c0,0-0.1,0-0.1-0.1c0,0,0-0.1,0-0.1c0,0,0-0.1,0.1-0.1l4.8-6.9c0,0,0-0.1,0.1-0.1c0,0,0.1,0,0.1,0c0,0,0.1,0,0.1,0
				c0,0,0.1,0,0.2,0c0.1,0,0.1,0,0.2,0c0,0,0.1,0,0.1,0.1c0,0,0,0.1,0,0.1c0,0,0,0.1-0.1,0.1L117.1,158.3z M117.9,153.1
				c0-0.2,0-0.4,0-0.5c0-0.2-0.1-0.3-0.1-0.4c-0.1-0.1-0.1-0.2-0.2-0.2c-0.1-0.1-0.2-0.1-0.3-0.1c-0.1,0-0.2,0-0.3,0.1
				c-0.1,0-0.2,0.1-0.2,0.2c-0.1,0.1-0.1,0.2-0.1,0.4c0,0.1,0,0.3,0,0.5c0,0.2,0,0.4,0.1,0.6c0,0.2,0.1,0.3,0.1,0.4
				c0.1,0.1,0.1,0.2,0.2,0.2c0.1,0,0.2,0.1,0.3,0.1c0.1,0,0.3,0,0.4-0.1c0.1-0.1,0.2-0.1,0.2-0.2c0.1-0.1,0.1-0.2,0.1-0.4
				C117.9,153.5,117.9,153.3,117.9,153.1z M122.8,156.5c0,0.3,0,0.5-0.1,0.8c-0.1,0.2-0.2,0.4-0.3,0.6c-0.1,0.2-0.3,0.3-0.5,0.4
				c-0.2,0.1-0.4,0.1-0.7,0.1c-0.3,0-0.5,0-0.7-0.1c-0.2-0.1-0.3-0.2-0.5-0.4c-0.1-0.2-0.2-0.3-0.3-0.6c-0.1-0.2-0.1-0.5-0.1-0.8
				c0-0.3,0-0.5,0.1-0.7c0.1-0.2,0.1-0.4,0.3-0.6c0.1-0.2,0.3-0.3,0.5-0.4c0.2-0.1,0.4-0.1,0.7-0.1c0.3,0,0.5,0,0.7,0.1
				c0.2,0.1,0.3,0.2,0.5,0.4c0.1,0.2,0.2,0.4,0.2,0.6C122.7,156.1,122.8,156.3,122.8,156.5z M122,156.6c0-0.2,0-0.4,0-0.5
				c0-0.2-0.1-0.3-0.1-0.4c-0.1-0.1-0.1-0.2-0.2-0.2c-0.1-0.1-0.2-0.1-0.3-0.1c-0.1,0-0.2,0-0.3,0.1c-0.1,0.1-0.2,0.1-0.2,0.2
				c-0.1,0.1-0.1,0.2-0.1,0.4c0,0.1,0,0.3,0,0.5c0,0.2,0,0.4,0.1,0.6c0,0.2,0.1,0.3,0.1,0.4c0.1,0.1,0.1,0.2,0.2,0.2
				c0.1,0,0.2,0.1,0.3,0.1c0.1,0,0.3,0,0.4-0.1c0.1-0.1,0.2-0.1,0.2-0.2c0.1-0.1,0.1-0.2,0.1-0.4C122,156.9,122,156.8,122,156.6z"/>
		</g>
	</g>
	<path class="st11" d="M242.1,182.5c0.2,2.8-2.1,5.1-4.8,4.8c-2.2-0.2-3.9-1.9-4.1-4.1c-0.2-2.8,2.1-5.1,4.8-4.8
		C240.2,178.5,242,180.3,242.1,182.5z"/>
	<g>
		<path class="st12" d="M239,184.7h-2.7c-0.3,0-0.5-0.2-0.5-0.5v-2.7c0-0.3,0.2-0.5,0.5-0.5h2.7c0.3,0,0.5,0.2,0.5,0.5v2.7
			C239.5,184.5,239.3,184.7,239,184.7z M236.3,181.1c-0.2,0-0.4,0.2-0.4,0.4v2.7c0,0.2,0.2,0.4,0.4,0.4h2.7c0.2,0,0.4-0.2,0.4-0.4
			v-2.7c0-0.2-0.2-0.4-0.4-0.4H236.3z"/>
	</g>
</g>
<path class="st2" d="M75.8,86.4c0.8-3.6,4.1-6.3,8-6.3c0.7,0,1.4,0.1,2.1,0.3c1.9-4.1,6.1-6.9,10.9-6.9c1.2,0,2.5,0.2,3.6,0.5
	c2.6-4.3,7.3-7.2,12.7-7.2c6.4,0,11.9,4.1,14,9.8c1.5-0.8,3.2-1.3,5-1.3c5.6,0,10.2,4.6,10.2,10.2c0,0.3,0,0.7,0,1H75.8z"/>
<path class="st2" d="M34.4,57.7c0.5-2.1,2.4-3.7,4.6-3.7c0.4,0,0.8,0.1,1.2,0.2c1.1-2.4,3.5-4,6.3-4c0.7,0,1.4,0.1,2.1,0.3
	c1.5-2.5,4.2-4.2,7.3-4.2c3.7,0,6.9,2.4,8.1,5.6c0.8-0.5,1.8-0.7,2.9-0.7c3.3,0,5.9,2.6,5.9,5.9c0,0.2,0,0.4,0,0.6H34.4z"/>
<path class="st2" d="M126,34.4c0.2-0.9,1.1-1.7,2.1-1.7c0.2,0,0.4,0,0.5,0.1c0.5-1.1,1.6-1.8,2.8-1.8c0.3,0,0.6,0,0.9,0.1
	c0.7-1.1,1.9-1.9,3.3-1.9c1.7,0,3.1,1.1,3.6,2.6c0.4-0.2,0.8-0.3,1.3-0.3c1.5,0,2.7,1.2,2.7,2.7c0,0.1,0,0.2,0,0.3H126z"/>
<path class="st2" d="M178.2,48.3c-0.5-2.1-2.4-3.7-4.6-3.7c-0.4,0-0.8,0.1-1.2,0.2c-1.1-2.4-3.5-4-6.3-4c-0.7,0-1.4,0.1-2.1,0.3
	c-1.5-2.5-4.2-4.2-7.3-4.2c-3.7,0-6.9,2.4-8.1,5.6c-0.8-0.5-1.8-0.7-2.9-0.7c-3.3,0-5.9,2.6-5.9,5.9c0,0.2,0,0.4,0,0.6H178.2z"/>
</svg>
