<?xml version="1.0" encoding="utf-8"?>
<!-- Generator: Adobe Illustrator 25.2.0, SVG Export Plug-In . SVG Version: 6.00 Build 0)  -->
<svg version="1.1" id="Illustration" xmlns="http://www.w3.org/2000/svg" xmlns:xlink="http://www.w3.org/1999/xlink" x="0px"
	 y="0px" viewBox="0 0 2081.1 1379.6" style="enable-background:new 0 0 2081.1 1379.6;" xml:space="preserve">
<style type="text/css">
	.st0{fill:url(#SVGID_1_);}
	.st1{fill:#91B3FA;}
	.st2{fill:#BDD0FB;}
	.st3{fill:#7D97F4;}
</style>
<linearGradient id="SVGID_1_" gradientUnits="userSpaceOnUse" x1="0" y1="689.1614" x2="2081.0547" y2="689.1614">
	<stop  offset="0" style="stop-color:#DAE3FE"/>
	<stop  offset="1" style="stop-color:#E9EFFD"/>
</linearGradient>
<path class="st0" d="M424.3,62.5c-119.3,79.9-203.7,18.2-275.8,102.8c-225,264,60.1,364.1-72.3,404.6
	c-143.8,44-54.4,238.1,26.6,294.1c80.9,56.1,141.1,89.8,26.1,147.2C13.9,1068.6-6.2,1132,42,1235.1
	c48.2,103.2,139.6,135.7,519.1,141.8s1114.7-6.9,1315.2-65.6s54.3-209.8,138.7-322.6c84.3-112.8,100.9-179.1-28.2-288.5
	c-129.1-109.5-55.6-222.7-16.8-302.6c38.8-79.9,68.6-224.8-87-266.1c-155.6-41.3-336.5,123.6-414.8,39.8
	C1390,87.5,1424.4-23.6,1253.5,4.4c-170.9,28-228.4,244.5-377.4,232.6C727,225.1,677.2-106.9,424.3,62.5z"/>
<g>
	<g>
		<path class="st1" d="M141.1,944.9c-27.8-48.4-11.2-110.3,37.2-138.1c48.4-27.8,110.2-11.1,138,37.3c0,0,0,0,0,0
			c15.5,26.9,41.7,45.9,72.1,52.2c34.9,7.2,66.8,28.7,86,62.1c0,0,0,0,0,0c18.7,32.6,51.5,54.6,88.8,59.6
			c43.5,5.9,84,31.2,107.6,72.2c40.3,70.2,16.2,159.7-53.9,200c-70.1,40.3-159.6,16.1-199.9-54.1c-2.2-3.8-4.1-7.6-5.9-11.4
			c-17.5-37.7-49.8-66.6-89.2-79.7c-28.9-9.7-54.6-29.6-71-58.1c-7.2-12.5-12.1-25.8-14.7-39.2c-5.3-27-23.5-49.7-48.6-60.9
			C168.6,978.5,152.1,964.2,141.1,944.9z"/>
		<path class="st2" d="M631,1220.5c-0.6,0.2-1.2,0.2-1.8-0.1c-251.2-145.3-403.8-318.1-405.3-319.8c-0.7-0.8-0.7-2.1,0.2-2.9
			c0.8-0.7,2.1-0.7,2.9,0.2c1.5,1.7,153.6,174,404.3,319c1,0.6,1.3,1.8,0.7,2.8C631.7,1220.1,631.3,1220.3,631,1220.5z"/>
		<path class="st2" d="M292.8,967c-0.5,0.2-1.1,0.2-1.6,0c-1-0.5-1.5-1.7-1.1-2.7c11.7-26.8-4.5-89.9-4.7-90.6
			c-0.3-1.1,0.4-2.2,1.5-2.5c1.1-0.3,2.2,0.4,2.5,1.5c0.7,2.6,16.8,65.1,4.5,93.3C293.7,966.4,293.3,966.8,292.8,967z"/>
		<path class="st2" d="M291.1,968c-0.1,0.1-0.3,0.1-0.4,0.1c-1.8,0.3-44.4,7.6-78.9-2.5c-1.1-0.3-1.7-1.5-1.4-2.5
			c0.3-1.1,1.5-1.7,2.5-1.4c33.5,9.8,76.6,2.5,77,2.4c1.1-0.2,2.2,0.5,2.4,1.7C292.5,966.7,291.9,967.6,291.1,968z"/>
		<path class="st2" d="M408.1,1066.9c-0.4,0.2-0.8,0.2-1.3,0.1c-1.1-0.3-1.8-1.4-1.5-2.5c11.7-46.6-10.6-104.6-10.8-105.2
			c-0.4-1,0.1-2.2,1.2-2.6c1-0.4,2.2,0.1,2.6,1.2c0.2,0.6,23,59.7,11,107.6C409.2,1066.2,408.7,1066.7,408.1,1066.9z"/>
		<path class="st2" d="M403.3,1070.4c-12.5,5.3-48.4,17.1-98.7,4.5c-1.1-0.3-1.8-1.4-1.5-2.5c0.3-1.1,1.4-1.8,2.5-1.5
			c60.2,15,100.1-6.2,100.5-6.4c1-0.5,2.2-0.2,2.8,0.8c0.5,1,0.2,2.2-0.8,2.8C407.7,1068.3,406.1,1069.2,403.3,1070.4z"/>
		<path class="st2" d="M547.5,1184.3c-17.4,7.4-52.9,19-92.6,12.2c-1.1-0.2-1.9-1.2-1.7-2.4c0.2-1.1,1.2-1.9,2.4-1.7
			c54.5,9.3,100.7-16.9,101.2-17.1c1-0.6,2.2-0.2,2.8,0.8c0.6,1,0.2,2.2-0.8,2.8C558.7,1179,554.6,1181.3,547.5,1184.3z"/>
		<path class="st2" d="M559.8,1177.6c-0.4,0.2-1,0.2-1.5,0.1c-1.1-0.4-1.6-1.5-1.3-2.6c0.1-0.4,14.3-43.7-10.5-100.4
			c-0.5-1,0-2.2,1.1-2.7c0,0,0,0,0,0c1-0.4,2.2,0,2.7,1.1c25.5,58.3,11.2,101.6,10.6,103.4C560.8,1177,560.4,1177.4,559.8,1177.6z"
			/>
	</g>
	<g>
		<path class="st2" d="M114.5,1231.7c-37.8-25.2-48.1-76.3-22.9-114.1c25.2-37.8,76.3-48.1,114.1-22.9c0,0,0,0,0,0
			c21,14,47.1,18.3,71.5,11.8c28.1-7.5,59.1-3.3,85.2,14c0,0,0,0,0,0c25.5,16.9,57.3,21.1,86.3,11.2c33.8-11.5,72.5-7.8,104.6,13.6
			c54.8,36.5,69.7,110.4,33.2,165.3c-36.5,54.8-110.4,69.7-165.3,33.2c-2.9-1.9-5.7-4-8.4-6.2c-26.4-21.1-60.4-30.4-93.9-25.7
			c-24.6,3.5-50.5-1.7-72.8-16.5c-9.8-6.5-18.1-14.4-25-23.2c-13.7-17.7-35.1-27.7-57.5-26.7
			C146.8,1246.2,129.6,1241.7,114.5,1231.7z"/>
		<path class="st1" d="M571,1255.3c-0.3,0.1-0.6,0.2-1,0.2c-235.8-14.6-409.7-85.1-411.4-85.8c-1-0.4-1.5-1.6-1.1-2.7
			c0.4-1,1.6-1.5,2.7-1.1c1.7,0.7,175,70.9,410.1,85.5c1.1,0.1,2,1,1.9,2.2C572.1,1254.3,571.7,1255,571,1255.3z"/>
		<path class="st1" d="M232.7,1193.4c-0.2,0.1-0.5,0.2-0.8,0.2c-1.1,0.1-2.1-0.8-2.1-1.9c-1.2-23.7-35.8-63.6-36.2-64
			c-0.7-0.9-0.7-2.1,0.2-2.9c0.8-0.7,2.1-0.7,2.9,0.2c1.5,1.7,35.9,41.5,37.2,66.5C233.9,1192.3,233.4,1193.1,232.7,1193.4z"/>
		<path class="st1" d="M202.1,1212c-8.7,4-18.6,7.6-28.4,9.4c-1.1,0.2-2.2-0.5-2.4-1.7c-0.2-1.1,0.5-2.2,1.7-2.4
			c27.9-5,56.6-25.9,56.8-26.2c0.9-0.7,2.2-0.5,2.9,0.4c0.7,0.9,0.5,2.2-0.4,2.9C231.4,1195.1,218.8,1204.3,202.1,1212z"/>
		<path class="st1" d="M353,1224.3c-0.1,0.1-0.3,0.1-0.4,0.1c-1.1,0.2-2.2-0.5-2.4-1.6c-8.3-38.1-45.5-72.1-45.9-72.5
			c-0.8-0.8-0.9-2-0.1-2.9c0.8-0.8,2-0.9,2.9-0.1c1.6,1.4,38.5,35.2,47.1,74.6C354.3,1223,353.8,1223.9,353,1224.3z"/>
		<path class="st1" d="M311.3,1257.2c-8.7,4-18.8,7.6-30.4,10.2c-1.1,0.2-2.2-0.5-2.4-1.6c-0.2-1.1,0.5-2.2,1.6-2.4
			c49.2-10.9,70.5-40.7,70.7-41c0.6-0.9,1.9-1.2,2.8-0.5c0.9,0.6,1.2,1.9,0.5,2.8C353.4,1225.7,340.4,1243.8,311.3,1257.2z"/>
		<path class="st1" d="M449.7,1295.5c-4.8,2.2-9.8,4.2-15.2,5.8c-1.1,0.3-2.2-0.3-2.5-1.4c-0.3-1.1,0.3-2.2,1.4-2.5
			c42.9-13,67.1-48.7,67.3-49.1c0.6-0.9,1.9-1.2,2.8-0.6c0.9,0.6,1.2,1.9,0.6,2.8C503.9,1250.9,484.5,1279.5,449.7,1295.5z"/>
		<path class="st1" d="M503.6,1249.9c-0.2,0.1-0.4,0.1-0.6,0.2c-1.1,0.2-2.1-0.6-2.3-1.7c0-0.4-5.4-36.9-43.9-69.1
			c-0.9-0.7-1-2-0.3-2.9c0.7-0.9,2-1,2.9-0.3c39.8,33.3,45.1,70.2,45.3,71.7C504.9,1248.6,504.4,1249.5,503.6,1249.9z"/>
	</g>
	<g>
		<path class="st2" d="M432.9,361.3c-57.1-52.6-145.1-48.1-196.5,10c-51.4,58.1-46.8,147.9,10.3,200.5c33,25.8,52.9,65.6,54,107.9
			c1.4,58.1,26.8,118,54,143.1c38.4,35.4,77.4,50.3,73.4,102.8c-4.7,61.5-1.2,161.3,47.2,205.9c82.7,76.2,210.2,69.7,284.7-14.5
			c74.5-84.2,67.8-214.2-14.9-290.4c-0.8-0.7-3.4-2.5-7.4-5.1c-51.5-33.1-86.3-87.5-95.2-148.9c-7.5-51.5-30.2-100-50.1-118.4
			c-7.7-7.1-28-19.4-51.7-29.6c-34.3-14.8-59.7-45.5-68.2-82.5C464.3,407,446.8,374.1,432.9,361.3z"/>
		<path class="st1" d="M660.2,1116.1c-0.1,0-0.1,0-0.2,0.1c-1.2,0.4-2.4-0.3-2.8-1.4c-122.5-387.2-310.2-647.4-312.1-650
			c-0.7-1-0.5-2.4,0.4-3.1c1-0.7,2.3-0.5,3.1,0.5c1.9,2.6,190,263.3,312.8,651.3C661.9,1114.5,661.3,1115.7,660.2,1116.1z"/>
		<path class="st1" d="M417.1,576.6c-0.1,0.1-0.3,0.1-0.4,0.1c-41.2,8.5-120.4-32.1-123.8-33.8c-1.1-0.6-1.5-1.9-1-3
			c0.5-1.1,1.9-1.5,2.9-1c0.8,0.4,81.2,41.6,120.9,33.4c1.2-0.2,2.3,0.5,2.6,1.7C418.6,575.1,418.1,576.2,417.1,576.6z"/>
		<path class="st1" d="M418.9,574.5c-0.5,0.2-1.1,0.2-1.7,0c-1.1-0.5-1.7-1.8-1.2-2.9c0.2-0.6,22.6-57.7,19.1-106.7
			c-0.1-1.2,0.8-2.3,2-2.4c1.2-0.1,2.3,0.8,2.3,2.1c3.6,50.1-19.2,108.1-19.4,108.7C419.9,573.9,419.5,574.3,418.9,574.5z"/>
		<path class="st1" d="M518.1,764.6c-0.2,0.1-0.5,0.2-0.8,0.2c-67.8,2.3-140.6-46.5-141.3-47c-1-0.7-1.3-2.1-0.6-3.1
			c0.7-1,2-1.3,3-0.6c0.7,0.5,72.4,48.5,138.7,46.2c1.2,0,2.2,0.9,2.3,2.2C519.5,763.4,519,764.3,518.1,764.6z"/>
		<path class="st1" d="M520,764.6c-0.7,0.3-1.6,0.2-2.3-0.4c-0.9-0.8-1-2.2-0.2-3.2c0.4-0.5,40.6-49.2,37.9-136.5
			c0-1.2,0.9-2.3,2.1-2.3c1.2,0,2.2,0.9,2.3,2.2c2.8,89.2-38.5,139.1-38.9,139.6C520.6,764.3,520.3,764.5,520,764.6z"/>
		<path class="st1" d="M625.3,1004.5c-0.8,0.3-1.7,0.2-2.3-0.4c-0.9-0.8-1-2.2-0.2-3.2c0.5-0.6,49.2-56.5,52.5-134.2
			c0.1-1.2,1.1-2.2,2.3-2.1c1.2,0.1,2.1,1.1,2.1,2.3c-3.4,79.3-53.1,136.4-53.6,137C625.9,1004.2,625.6,1004.4,625.3,1004.5z"/>
		<path class="st1" d="M623.1,1005.8c-0.2,0.1-0.4,0.1-0.6,0.2c-0.6,0.1-64.7,6.9-135.6-45.2c-1-0.7-1.2-2.1-0.5-3.1
			c0.7-1,2.1-1.2,3.1-0.5c69.5,51.1,131.9,44.4,132.5,44.4c1.2-0.1,2.3,0.7,2.4,2C624.6,1004.5,624,1005.4,623.1,1005.8z"/>
	</g>
</g>
<g>
	<g>
		<path class="st2" d="M1566.7,333.3c46.4-68.5,138.8-85.3,206.4-37.5c67.5,47.8,84.6,142.1,38.2,210.6c-28,34.8-39,80.9-29.7,125.1
			c12.7,60.6,0.9,129-21.2,161.6c-31.2,46-68.1,71-51.1,124.5c19.9,62.7,40.6,167,1.2,225.1c-67.3,99.2-201.1,123.5-298.9,54.2
			c-97.8-69.2-122.5-205.8-55.3-304.9c0.6-0.9,2.9-3.4,6.4-7.1c45.4-46.9,68.2-111.8,62.5-177.7c-4.8-55.2,7-111.2,23.2-135
			c6.2-9.2,24.3-26.9,46.4-43.3c32-23.7,50.8-61.8,50.7-102.2C1545.2,388.3,1555.4,350,1566.7,333.3z"/>
		<path class="st1" d="M1514.5,1171.8c0.1,0,0.1,0,0.2,0c1.3,0.1,2.4-0.9,2.5-2.2c32.8-431.6,164.3-747.2,165.6-750.3
			c0.5-1.2,0-2.6-1.2-3.1c-1.2-0.5-2.6,0-3.1,1.2c-1.3,3.1-133.1,319.4-166,751.8C1512.5,1170.5,1513.3,1171.6,1514.5,1171.8z"/>
		<path class="st1" d="M1635.5,552.8c0.1,0,0.3,0,0.4,0c44.8-1.2,117.1-62.6,120.2-65.2c1-0.8,1.1-2.3,0.3-3.4
			c-0.8-1-2.3-1.1-3.3-0.3c-0.7,0.6-74.1,63-117.3,64.1c-1.3,0-2.3,1.1-2.3,2.4C1633.5,551.7,1634.4,552.6,1635.5,552.8z"/>
		<path class="st1" d="M1633.1,551.1c0.6,0.1,1.2,0,1.7-0.4c1.1-0.8,1.3-2.2,0.5-3.3c-0.4-0.5-37.5-54.3-45.8-106.1
			c-0.2-1.3-1.4-2.2-2.7-2c-1.3,0.2-2.1,1.4-1.9,2.7c8.5,52.9,46.2,107.5,46.6,108.1C1631.9,550.7,1632.5,551,1633.1,551.1z"/>
		<path class="st1" d="M1576.4,772.5c0.3,0,0.5,0,0.8,0c70.9-14.1,134.5-82.4,135.1-83.1c0.9-1,0.8-2.5-0.1-3.4
			c-0.9-0.9-2.4-0.9-3.3,0.1c-0.6,0.7-63.3,67.9-132.7,81.7c-1.3,0.3-2.1,1.5-1.8,2.8C1574.7,771.6,1575.5,772.3,1576.4,772.5z"/>
		<path class="st1" d="M1574.5,773c0.8,0.1,1.7-0.2,2.3-0.9c0.8-1.1,0.5-2.6-0.5-3.3c-0.5-0.4-54.1-41.2-72.5-132.4
			c-0.3-1.3-1.5-2.1-2.8-1.9c-1.3,0.3-2.1,1.5-1.8,2.8c18.8,93.2,73.8,134.9,74.4,135.4C1573.8,772.8,1574.1,772.9,1574.5,773z"/>
		<path class="st1" d="M1523.6,1047.5c0.9,0.1,1.8-0.2,2.3-1c0.7-1.1,0.5-2.6-0.6-3.3c-0.6-0.5-64.8-46.7-87.2-126.4
			c-0.4-1.3-1.6-2-2.9-1.7c-1.2,0.4-2,1.7-1.6,2.9c22.8,81.5,88.3,128.6,89,129.1C1522.9,1047.3,1523.3,1047.4,1523.6,1047.5z"/>
		<path class="st1" d="M1526.2,1048.2c0.2,0,0.4,0,0.6,0c0.7-0.1,68.8-8.5,129.7-79.9c0.8-1,0.7-2.5-0.2-3.4c-1-0.9-2.5-0.8-3.3,0.2
			c-59.7,70-126,78.2-126.7,78.3c-1.3,0.1-2.2,1.3-2,2.6C1524.3,1047.2,1525.2,1048.1,1526.2,1048.2z"/>
	</g>
	<g>
		<path class="st2" d="M1915.9,899.5c19-52.5-8-110.5-60.5-129.6c-52.5-19-110.4,8.1-129.5,60.6c0,0,0,0,0,0
			c-10.6,29.2-33.2,52.4-62.1,63.8c-33.2,13.1-60.8,39.8-73.9,76c0,0,0,0,0,0c-12.8,35.3-41.3,62.7-77.1,74
			c-41.9,13.3-77.3,45.2-93.5,89.7c-27.6,76.1,11.6,160.1,87.6,187.7c76,27.6,159.9-11.7,187.5-87.8c1.5-4.1,2.8-8.2,3.9-12.3
			c10.7-40.2,37.6-74.1,74.1-93.9c26.8-14.5,48.7-38.5,59.9-69.5c4.9-13.6,7.4-27.5,7.7-41.2c0.6-27.5,14.6-53,37.4-68.4
			C1894.6,937.4,1908.4,920.5,1915.9,899.5z"/>
		<path class="st1" d="M1481,1255.5c0.6,0.1,1.3,0,1.8-0.4c222.4-186.5,342.8-383,344-385c0.6-1,0.3-2.2-0.7-2.8
			c-1-0.6-2.2-0.3-2.8,0.7c-1.2,2-121.3,197.9-343.1,384c-0.9,0.7-1,2-0.3,2.9C1480.2,1255.2,1480.6,1255.4,1481,1255.5z"/>
		<path class="st1" d="M1770.3,947.4c0.5,0.1,1.1,0,1.6-0.3c0.9-0.6,1.2-1.9,0.6-2.8c-16.2-24.4-11.1-89.4-11-90
			c0.1-1.1-0.7-2.1-1.9-2.2c-1.1-0.1-2.1,0.7-2.2,1.9c-0.2,2.7-5.3,67.1,11.7,92.6C1769.3,947,1769.8,947.3,1770.3,947.4z"/>
		<path class="st1" d="M1772.1,948.1c0.1,0,0.3,0.1,0.5,0.1c1.8,0,45.1-0.2,77.3-16.1c1-0.5,1.4-1.7,0.9-2.7c-0.5-1-1.7-1.4-2.7-0.9
			c-31.3,15.5-75,15.7-75.5,15.7c-1.1,0-2,0.9-2,2C1770.6,947.1,1771.2,947.9,1772.1,948.1z"/>
		<path class="st1" d="M1673.9,1065.8c0.4,0.1,0.9,0.1,1.3-0.1c1-0.5,1.5-1.7,1-2.7c-19.6-43.9-7.6-104.8-7.5-105.4
			c0.2-1.1-0.4-2.2-1.6-2.4c-1.1-0.2-2.2,0.5-2.4,1.6c-0.1,0.6-12.4,62.8,7.8,107.9C1672.8,1065.2,1673.3,1065.6,1673.9,1065.8z"/>
		<path class="st1" d="M1679.3,1068.4c13.2,3.1,50.6,8.5,98-12.6c1-0.5,1.5-1.7,1-2.7c-0.5-1-1.7-1.5-2.7-1
			c-56.7,25.2-99.7,11.2-100.1,11.1c-1.1-0.4-2.2,0.2-2.6,1.3c-0.4,1.1,0.2,2.2,1.3,2.6C1674.6,1067.1,1676.3,1067.7,1679.3,1068.4z
			"/>
		<path class="st1" d="M1556.9,1205.4c18.4,4.3,55.4,9.6,93.3-3.9c1.1-0.4,1.6-1.5,1.2-2.6c-0.4-1.1-1.5-1.6-2.6-1.2
			c-52,18.5-102.1,0.8-102.6,0.6c-1.1-0.4-2.2,0.2-2.6,1.2c-0.4,1.1,0.2,2.2,1.2,2.6C1545,1202.1,1549.4,1203.7,1556.9,1205.4z"/>
		<path class="st1" d="M1543.6,1201c0.5,0.1,1,0.1,1.4-0.2c1-0.5,1.3-1.8,0.8-2.8c-0.2-0.4-21.6-40.5-7-100.7
			c0.3-1.1-0.4-2.2-1.5-2.5c0,0,0,0,0,0c-1.1-0.3-2.2,0.4-2.4,1.5c-15,61.8,6.5,102,7.4,103.7
			C1542.6,1200.5,1543.1,1200.9,1543.6,1201z"/>
	</g>
	<g>
		<g>
			<path class="st1" d="M1966.1,1172.8c34.6-33,35.9-88,3-122.7c-32.9-34.7-87.5-36.1-122.1-3c0,0,0,0,0,0
				c-19.2,18.4-45.3,27.6-71.7,25.3c-30.4-2.6-61.7,7.3-85.5,30.1c0,0,0,0,0,0c-23.2,22.2-55.5,32.3-87.2,27.3
				c-37.1-5.8-76.3,5.1-105.6,33.1c-50,47.8-52,127.4-4.4,177.7c47.6,50.3,126.8,52.3,176.8,4.4c2.7-2.6,5.2-5.2,7.6-7.9
				c23.5-26.7,56.9-42.6,92.4-43.7c26-0.9,51.9-11,72.2-30.4c8.9-8.6,16.1-18.3,21.6-28.7c10.9-20.9,31.3-35.1,54.6-38.2
				C1935.4,1193.7,1952.4,1186,1966.1,1172.8z"/>
		</g>
		<g>
			<path class="st2" d="M1498.6,1280.4c0.3,0.1,0.7,0.1,1,0c241.1-58.1,408-162.9,409.7-164c1-0.6,1.3-2,0.7-3c-0.6-1-2-1.3-3-0.7
				c-1.7,1-168,105.5-408.4,163.4c-1.2,0.3-1.9,1.4-1.6,2.6C1497.3,1279.6,1497.9,1280.2,1498.6,1280.4z"/>
		</g>
		<g>
			<path class="st2" d="M1837.1,1154.6c0.3,0.1,0.5,0.1,0.8,0.1c1.2-0.1,2-1.2,1.9-2.4c-3.1-24.8,25.5-72.6,25.8-73.1
				c0.6-1,0.3-2.3-0.7-3c-1-0.6-2.3-0.3-2.9,0.7c-1.2,2-29.6,49.6-26.4,75.9C1835.6,1153.7,1836.3,1154.4,1837.1,1154.6z"/>
		</g>
		<g>
			<path class="st2" d="M1872.1,1168.3c9.7,2.6,20.6,4.5,31.1,4.6c1.2,0,2.1-1,2.2-2.1c0-1.2-0.9-2.2-2.1-2.2
				c-29.8-0.1-63.2-16.6-63.5-16.8c-1.1-0.5-2.3-0.1-2.9,1c-0.5,1.1-0.1,2.4,1,2.9C1838.8,1156.1,1853.4,1163.4,1872.1,1168.3z"/>
		</g>
		<g>
			<path class="st2" d="M1718.4,1208.5c0.1,0,0.3,0.1,0.5,0.1c1.2,0,2.2-0.9,2.2-2.1c1.7-41.1,34-83.2,34.3-83.6
				c0.7-0.9,0.6-2.3-0.4-3c-0.9-0.7-2.3-0.6-3,0.4c-1.4,1.8-33.4,43.6-35.2,86.1C1716.7,1207.4,1717.4,1208.3,1718.4,1208.5z"/>
		</g>
		<g>
			<path class="st2" d="M1767.4,1235.1c9.7,2.6,20.8,4.4,33.3,5c1.2,0.1,2.2-0.9,2.2-2.1c0.1-1.2-0.9-2.2-2-2.2
				c-52.9-2.4-80.3-29.5-80.5-29.7c-0.8-0.8-2.2-0.8-3,0c-0.8,0.8-0.8,2.2,0,3C1718.2,1210,1734.8,1226.5,1767.4,1235.1z"/>
		</g>
		<g>
			<path class="st2" d="M1631.2,1300.1c5.3,1.4,10.9,2.5,16.8,3.2c1.2,0.1,2.2-0.7,2.4-1.9c0.1-1.2-0.7-2.3-1.9-2.4
				c-46.6-5.7-78.2-38.4-78.5-38.7c-0.8-0.9-2.2-0.9-3-0.1c-0.9,0.8-0.9,2.2-0.1,3C1567.2,1263.6,1592.4,1289.8,1631.2,1300.1z"/>
		</g>
		<g>
			<path class="st2" d="M1567.3,1262.5c0.2,0.1,0.4,0.1,0.6,0.1c1.2,0,2.1-1,2.1-2.2c0-0.4-1.1-39.3,32.9-79.8
				c0.8-0.9,0.6-2.3-0.3-3c-0.9-0.8-2.3-0.6-3,0.3c-35.1,41.9-33.9,81.1-33.9,82.7C1565.7,1261.5,1566.4,1262.3,1567.3,1262.5z"/>
		</g>
	</g>
</g>
<g>
	<path class="st3" d="M266.5,471.5l-2.9,0.9c-0.6,0.2-1.3-0.1-1.5-0.8c-0.2-0.6,0.1-1.3,0.8-1.5l0,0l2.9-0.9
		c0.6-0.2,1.3,0.1,1.5,0.8C267.5,470.6,267.1,471.3,266.5,471.5z"/>
	<path class="st3" d="M257,474.7l-2.8,1c-0.6,0.2-1.3-0.1-1.6-0.7c-0.2-0.6,0.1-1.3,0.7-1.6l0,0l2.8-1c0.6-0.2,1.3,0.1,1.6,0.7
		C258,473.8,257.7,474.5,257,474.7z"/>
	<path class="st3" d="M247.7,478.1l-2.8,1.1c-0.6,0.2-1.4-0.1-1.6-0.7c-0.2-0.6,0.1-1.4,0.7-1.6l0,0l2.8-1.1
		c0.6-0.2,1.4,0.1,1.6,0.7C248.6,477.2,248.3,477.9,247.7,478.1z"/>
	<path class="st3" d="M238.4,481.8l-2.8,1.2c-0.6,0.3-1.4,0-1.6-0.7c-0.3-0.6,0-1.4,0.7-1.6l0,0l2.8-1.2c0.6-0.3,1.4,0,1.6,0.7
		C239.4,480.8,239.1,481.6,238.4,481.8z"/>
	<path class="st3" d="M229.3,485.8l-2.7,1.2c-0.6,0.3-1.4,0-1.7-0.6c-0.3-0.6,0-1.4,0.6-1.7l0,0l2.7-1.2c0.6-0.3,1.4,0,1.6,0.6
		C230.2,484.8,229.9,485.5,229.3,485.8z"/>
	<path class="st3" d="M220.2,490l-2.7,1.3c-0.6,0.3-1.4,0-1.7-0.6c-0.3-0.6,0-1.4,0.6-1.7l0,0l2.7-1.3c0.6-0.3,1.4,0,1.7,0.6
		C221.1,488.9,220.9,489.7,220.2,490z"/>
	<path class="st3" d="M211.3,494.4l-2.7,1.4c-0.6,0.3-1.4,0.1-1.7-0.5c-0.3-0.6-0.1-1.4,0.5-1.7l0,0l2.7-1.4
		c0.6-0.3,1.4-0.1,1.7,0.5C212.2,493.3,211.9,494.1,211.3,494.4z"/>
	<path class="st3" d="M202.5,499l-2.6,1.4c-0.6,0.3-1.4,0.1-1.7-0.5c-0.3-0.6-0.1-1.4,0.5-1.7l0,0l2.6-1.4c0.6-0.3,1.4-0.1,1.7,0.5
		C203.3,497.9,203.1,498.7,202.5,499z"/>
	<path class="st3" d="M193.8,503.9l-2.6,1.5c-0.6,0.4-1.4,0.2-1.7-0.5c-0.4-0.6-0.2-1.4,0.5-1.7l0,0l2.6-1.5
		c0.6-0.4,1.4-0.1,1.7,0.5C194.6,502.8,194.4,503.6,193.8,503.9z"/>
	<path class="st3" d="M185.3,509l-2.5,1.6c-0.6,0.4-1.4,0.2-1.8-0.4c-0.4-0.6-0.2-1.4,0.4-1.8l0,0l2.6-1.6c0.6-0.4,1.4-0.2,1.8,0.4
		C186,507.9,185.9,508.7,185.3,509z"/>
	<path class="st3" d="M176.8,514.4l-2.5,1.6c-0.6,0.4-1.4,0.2-1.8-0.4c-0.4-0.6-0.2-1.4,0.4-1.8l0,0l2.5-1.6
		c0.6-0.4,1.4-0.2,1.8,0.4S177.4,514,176.8,514.4z"/>
	<path class="st3" d="M168.6,519.9l-2.5,1.7c-0.6,0.4-1.4,0.3-1.8-0.3c-0.4-0.6-0.3-1.4,0.3-1.8l0,0l2.5-1.7
		c0.6-0.4,1.4-0.3,1.8,0.3C169.3,518.7,169.2,519.5,168.6,519.9z"/>
	<path class="st3" d="M160.4,525.7l-2.4,1.8c-0.6,0.4-1.4,0.3-1.8-0.3c-0.4-0.6-0.3-1.4,0.3-1.8l0,0l2.4-1.8
		c0.6-0.4,1.4-0.3,1.8,0.3C161.1,524.5,161,525.3,160.4,525.7z"/>
	<path class="st3" d="M152.5,531.7l-2.4,1.8c-0.6,0.4-1.4,0.3-1.8-0.2c-0.4-0.6-0.3-1.4,0.2-1.8l0,0l2.4-1.8
		c0.6-0.4,1.4-0.3,1.8,0.2C153.1,530.4,153,531.2,152.5,531.7z"/>
	<path class="st3" d="M144.7,537.9l-2.3,1.9c-0.6,0.5-1.4,0.4-1.8-0.2c-0.5-0.6-0.4-1.4,0.2-1.8l0,0l2.3-1.9
		c0.6-0.5,1.4-0.4,1.8,0.2C145.3,536.6,145.2,537.4,144.7,537.9z"/>
	<path class="st3" d="M137,544.3l-2.3,2c-0.6,0.5-1.4,0.4-1.9-0.1c-0.5-0.6-0.4-1.4,0.1-1.9l0,0l2.3-2c0.6-0.5,1.4-0.4,1.9,0.1
		C137.6,543,137.6,543.8,137,544.3z"/>
	<path class="st3" d="M129.5,550.8l-2.2,2c-0.5,0.5-1.4,0.5-1.9-0.1c-0.5-0.5-0.5-1.4,0.1-1.9l0,0l2.2-2c0.5-0.5,1.4-0.5,1.9,0.1
		C130.1,549.5,130.1,550.4,129.5,550.8z"/>
	<path class="st3" d="M122.2,557.6l-2.2,2.1c-0.5,0.5-1.4,0.5-1.9,0c-0.5-0.5-0.5-1.4,0-1.9l0,0l2.2-2.1c0.5-0.5,1.4-0.5,1.9,0
		C122.8,556.3,122.7,557.1,122.2,557.6z"/>
	<path class="st3" d="M115.1,564.6l-2.1,2.1c-0.5,0.5-1.4,0.5-1.9,0c-0.5-0.5-0.5-1.4,0-1.9l0,0l2.1-2.1c0.5-0.5,1.4-0.5,1.9,0
		C115.6,563.2,115.6,564.1,115.1,564.6z"/>
	<path class="st3" d="M108.2,571.8l-2.1,2.2c-0.5,0.5-1.4,0.6-1.9,0.1s-0.6-1.4-0.1-1.9l0,0l2.1-2.2c0.5-0.5,1.4-0.6,1.9-0.1
		C108.6,570.4,108.7,571.2,108.2,571.8z"/>
	<path class="st3" d="M101.4,579.1l-2,2.2c-0.5,0.6-1.3,0.6-1.9,0.1c-0.6-0.5-0.6-1.3-0.1-1.9l0,0l2-2.2c0.5-0.6,1.3-0.6,1.9-0.1
		C101.9,577.7,101.9,578.5,101.4,579.1z"/>
	<path class="st3" d="M94.9,586.6l-1.9,2.3c-0.5,0.6-1.3,0.6-1.9,0.2c-0.6-0.5-0.6-1.3-0.2-1.9l0,0l1.9-2.3c0.5-0.6,1.3-0.6,1.9-0.2
		C95.3,585.2,95.4,586,94.9,586.6z"/>
	<path class="st3" d="M88.5,594.3l-1.9,2.3c-0.5,0.6-1.3,0.7-1.9,0.2c-0.6-0.5-0.7-1.3-0.2-1.9l0,0l1.9-2.3c0.5-0.6,1.3-0.7,1.9-0.2
		C88.9,592.8,89,593.7,88.5,594.3z"/>
	<path class="st3" d="M82.4,602.1l-1.8,2.4l0,0c-0.5,0.6-1.3,0.7-1.9,0.3c-0.6-0.5-0.7-1.3-0.3-1.9l0,0l1.8-2.4
		c0.5-0.6,1.3-0.7,1.9-0.3C82.7,600.7,82.9,601.5,82.4,602.1z"/>
	<path class="st3" d="M76.5,610.2l-1.7,2.4c-0.4,0.6-1.3,0.8-1.9,0.3c-0.6-0.4-0.8-1.3-0.3-1.9l0,0l1.7-2.4c0.4-0.6,1.3-0.8,1.9-0.3
		C76.8,608.7,76.9,609.6,76.5,610.2z"/>
	<path class="st3" d="M70.8,618.3l-1.7,2.5c-0.4,0.6-1.3,0.8-1.9,0.4c-0.6-0.4-0.8-1.3-0.4-1.9l0,0l1.7-2.5c0.4-0.6,1.3-0.8,1.9-0.4
		C71.1,616.9,71.2,617.7,70.8,618.3z"/>
	<path class="st3" d="M65.3,626.7l-1.6,2.5c-0.4,0.6-1.3,0.8-1.9,0.4c-0.6-0.4-0.8-1.3-0.4-1.9l0,0l1.6-2.5c0.4-0.6,1.3-0.8,1.9-0.4
		C65.6,625.2,65.8,626,65.3,626.7z"/>
	<path class="st3" d="M60.1,635.1l-1.5,2.6c-0.4,0.7-1.2,0.9-1.9,0.5c-0.7-0.4-0.9-1.2-0.5-1.9l0,0l1.5-2.6c0.4-0.7,1.2-0.9,1.9-0.5
		C60.3,633.6,60.5,634.5,60.1,635.1z"/>
	<path class="st3" d="M55.1,643.8l-1.5,2.6c-0.4,0.7-1.2,0.9-1.9,0.5c-0.7-0.4-0.9-1.2-0.5-1.9l0,0l1.5-2.6c0.4-0.7,1.2-0.9,1.9-0.5
		C55.2,642.2,55.5,643.1,55.1,643.8z"/>
	<path class="st3" d="M50.3,652.5l-1.4,2.7c-0.4,0.7-1.2,1-1.9,0.6c-0.7-0.4-1-1.2-0.6-1.9l0,0l1.4-2.7c0.4-0.7,1.2-0.9,1.9-0.6
		C50.4,651,50.7,651.8,50.3,652.5z"/>
	<path class="st3" d="M45.7,661.4l-1.3,2.7c-0.3,0.7-1.2,1-1.9,0.6c-0.7-0.3-1-1.2-0.6-1.9l0,0l1.3-2.7c0.3-0.7,1.2-1,1.9-0.6
		C45.8,659.8,46.1,660.7,45.7,661.4z"/>
	<path class="st3" d="M41.4,670.3l-1.3,2.7c-0.3,0.7-1.2,1-1.9,0.7s-1-1.2-0.7-1.9l0,0l1.3-2.7c0.3-0.7,1.2-1,1.9-0.7
		C41.4,668.8,41.8,669.6,41.4,670.3z"/>
	<path class="st3" d="M37.4,679.4l-1.2,2.8c-0.3,0.7-1.1,1.1-1.9,0.7c-0.7-0.3-1.1-1.1-0.7-1.9l0,0l1.2-2.8c0.3-0.7,1.1-1.1,1.9-0.7
		C37.3,677.9,37.7,678.7,37.4,679.4z"/>
	<path class="st3" d="M33.5,688.6l-1.1,2.8c-0.3,0.7-1.1,1.1-1.9,0.8c-0.7-0.3-1.1-1.1-0.8-1.9l0,0l1.1-2.8c0.3-0.7,1.1-1.1,1.9-0.8
		C33.4,687.1,33.8,687.9,33.5,688.6z"/>
	<path class="st3" d="M29.9,697.9l-1,2.8c-0.3,0.7-1.1,1.1-1.8,0.9c-0.7-0.3-1.1-1.1-0.9-1.8l0,0l1-2.8c0.3-0.7,1.1-1.1,1.8-0.8
		C29.8,696.3,30.2,697.2,29.9,697.9z"/>
	<path class="st3" d="M26.6,707.3l-1,2.8c-0.3,0.8-1.1,1.2-1.8,0.9c-0.8-0.3-1.2-1.1-0.9-1.8l0,0l1-2.8c0.3-0.8,1.1-1.2,1.8-0.9
		C26.4,705.7,26.8,706.5,26.6,707.3z"/>
	<path class="st3" d="M23.4,716.8l-0.9,2.9c-0.2,0.8-1,1.2-1.8,1c-0.8-0.2-1.2-1-1-1.8l0,0l0.9-2.9c0.2-0.8,1-1.2,1.8-1
		C23.3,715.2,23.7,716,23.4,716.8z"/>
	<path class="st3" d="M20.6,726.3l-0.8,2.9c-0.2,0.8-1,1.2-1.8,1c-0.8-0.2-1.2-1-1-1.8l0,0l0.8-2.9c0.2-0.8,1-1.2,1.8-1
		C20.4,724.7,20.8,725.5,20.6,726.3z"/>
	<path class="st3" d="M18,735.9l-0.7,2.9c-0.2,0.8-1,1.3-1.8,1.1c-0.8-0.2-1.3-1-1.1-1.8l0,0l0.7-2.9c0.2-0.8,1-1.3,1.8-1.1
		C17.7,734.3,18.2,735.1,18,735.9z"/>
	<path class="st3" d="M15.6,745.6l-0.7,2.9c-0.2,0.8-1,1.3-1.8,1.1c-0.8-0.2-1.3-1-1.1-1.8l0,0l0.7-2.9c0.2-0.8,1-1.3,1.8-1.1
		C15.3,744,15.8,744.8,15.6,745.6z"/>
	<path class="st3" d="M13.5,755.3l-0.6,2.9c-0.2,0.8-0.9,1.3-1.7,1.2c-0.8-0.2-1.3-0.9-1.2-1.7l0,0l0.6-2.9c0.2-0.8,0.9-1.3,1.7-1.2
		C13.1,753.8,13.7,754.5,13.5,755.3z"/>
	<path class="st3" d="M11.7,765.1l-0.5,3c-0.1,0.8-0.9,1.3-1.7,1.2c-0.8-0.1-1.3-0.9-1.2-1.7l0,0l0.5-3c0.1-0.8,0.9-1.3,1.7-1.2
		C11.3,763.6,11.8,764.3,11.7,765.1z"/>
	<path class="st3" d="M10.1,775l-0.4,3c-0.1,0.8-0.9,1.4-1.7,1.3c-0.8-0.1-1.4-0.9-1.3-1.7l0,0l0.4-3c0.1-0.8,0.9-1.4,1.7-1.3
		C9.6,773.4,10.2,774.1,10.1,775z"/>
	<path class="st3" d="M8.8,784.8l-0.3,3c-0.1,0.8-0.8,1.4-1.7,1.3c-0.8-0.1-1.4-0.8-1.3-1.7l0,0l0.4-3c0.1-0.8,0.8-1.4,1.7-1.3
		C8.3,783.3,8.8,784,8.8,784.8z"/>
	<path class="st3" d="M7.7,794.7l-0.3,3c-0.1,0.8-0.8,1.4-1.6,1.4c-0.8-0.1-1.4-0.8-1.4-1.6l0,0l0.3-3c0.1-0.8,0.8-1.4,1.6-1.4
		C7.2,793.2,7.8,793.9,7.7,794.7z"/>
	<path class="st3" d="M6.9,804.7l-0.2,3c-0.1,0.8-0.8,1.5-1.6,1.4c-0.8-0.1-1.5-0.8-1.4-1.6l0,0l0.2-3c0.1-0.8,0.8-1.5,1.6-1.4
		C6.3,803.1,7,803.8,6.9,804.7z"/>
	<path class="st3" d="M6.4,814.6l-0.1,3c0,0.8-0.7,1.5-1.6,1.5c-0.8,0-1.5-0.7-1.5-1.6v0l0.1-3c0-0.8,0.7-1.5,1.6-1.5
		C5.8,813.1,6.4,813.8,6.4,814.6z"/>
	<path class="st3" d="M6.1,824.5l0,3c0,0.8-0.7,1.5-1.5,1.5c-0.8,0-1.5-0.7-1.5-1.5v0l0-3c0-0.8,0.7-1.5,1.5-1.5
		C5.5,823,6.1,823.7,6.1,824.5z"/>
	<path class="st3" d="M6.2,834.5l0.1,3c0,0.8-0.6,1.5-1.5,1.6c-0.8,0-1.5-0.6-1.6-1.5v0l-0.1-3c0-0.8,0.6-1.5,1.5-1.6
		C5.5,833,6.2,833.7,6.2,834.5z"/>
	<path class="st3" d="M6.6,844.4l0.2,3c0.1,0.8-0.6,1.6-1.4,1.6c-0.8,0.1-1.6-0.6-1.6-1.4l0,0l-0.2-3c-0.1-0.8,0.6-1.6,1.4-1.6
		C5.8,843,6.5,843.6,6.6,844.4z"/>
	<path class="st3" d="M7.3,854.4l0.3,3c0.1,0.8-0.5,1.6-1.4,1.7c-0.8,0.1-1.6-0.5-1.7-1.4l0,0l-0.3-3c-0.1-0.8,0.5-1.6,1.4-1.7
		C6.5,852.9,7.2,853.5,7.3,854.4z"/>
	<path class="st3" d="M8.4,864.2l0.4,3c0.1,0.8-0.5,1.6-1.3,1.7c-0.8,0.1-1.6-0.5-1.7-1.3l0,0l-0.4-3c-0.1-0.8,0.5-1.6,1.3-1.7
		C7.5,862.8,8.3,863.4,8.4,864.2z"/>
	<path class="st3" d="M9.8,874.1l0.5,3c0.1,0.8-0.4,1.6-1.3,1.8c-0.8,0.1-1.6-0.4-1.8-1.3l0,0l-0.5-3c-0.1-0.8,0.4-1.6,1.3-1.8
		C8.9,872.7,9.7,873.2,9.8,874.1z"/>
	<path class="st3" d="M11.7,883.8l0.6,2.9c0.2,0.8-0.3,1.7-1.2,1.8c-0.8,0.2-1.7-0.3-1.8-1.2l0,0l-0.6-2.9c-0.2-0.8,0.3-1.7,1.2-1.8
		C10.7,882.5,11.5,883,11.7,883.8z"/>
	<path class="st3" d="M14,893.5l0.8,2.9c0.2,0.8-0.3,1.7-1.1,1.9c-0.8,0.2-1.7-0.3-1.9-1.1l0,0l-0.8-2.9c-0.2-0.8,0.3-1.7,1.1-1.9
		C12.9,892.2,13.7,892.7,14,893.5z"/>
	<path class="st3" d="M16.7,903.1l0.9,2.9c0.3,0.8-0.2,1.7-1,2c-0.8,0.3-1.7-0.2-2-1l0,0l-0.9-2.9c-0.3-0.8,0.2-1.7,1-2
		C15.5,901.8,16.4,902.2,16.7,903.1z"/>
	<path class="st3" d="M19.8,912.5l1.1,2.8c0.3,0.8-0.1,1.7-0.9,2c-0.8,0.3-1.7-0.1-2-0.9l0,0l-1-2.8c-0.3-0.8,0.1-1.7,0.9-2
		C18.6,911.2,19.5,911.6,19.8,912.5z"/>
	<path class="st3" d="M23.5,921.7l1.2,2.7c0.3,0.8,0,1.7-0.8,2.1c-0.8,0.3-1.7,0-2.1-0.8l0,0l-1.2-2.8c-0.3-0.8,0-1.7,0.8-2.1
		C22.2,920.5,23.1,920.9,23.5,921.7z"/>
	<path class="st3" d="M27.7,930.7l1.4,2.7c0.4,0.8,0.1,1.7-0.7,2.1c-0.8,0.4-1.7,0.1-2.1-0.7l0,0l-1.4-2.7c-0.4-0.8-0.1-1.7,0.7-2.1
		C26.3,929.6,27.3,929.9,27.7,930.7z"/>
	<path class="st3" d="M32.3,939.4l1.5,2.6c0.4,0.8,0.2,1.7-0.6,2.2c-0.8,0.4-1.7,0.2-2.2-0.6l0,0l-1.5-2.6c-0.4-0.8-0.2-1.7,0.6-2.2
		C30.9,938.4,31.9,938.6,32.3,939.4z"/>
	<path class="st3" d="M37.5,947.8l1.7,2.5c0.5,0.7,0.3,1.7-0.4,2.2c-0.7,0.5-1.7,0.3-2.2-0.4l0,0l-1.7-2.5c-0.5-0.7-0.3-1.7,0.4-2.2
		C36.1,946.9,37,947.1,37.5,947.8z"/>
	<path class="st3" d="M43.3,955.8l1.8,2.4c0.5,0.7,0.4,1.7-0.3,2.2c-0.7,0.5-1.7,0.4-2.2-0.3l0,0l-1.8-2.4c-0.5-0.7-0.4-1.7,0.3-2.2
		S42.7,955.2,43.3,955.8z"/>
	<path class="st3" d="M49.6,963.5l2,2.2c0.6,0.7,0.5,1.7-0.1,2.3c-0.7,0.6-1.7,0.5-2.3-0.1l0,0l-2-2.2c-0.6-0.7-0.5-1.7,0.1-2.3
		C48,962.8,49,962.8,49.6,963.5z"/>
	<path class="st3" d="M56.4,970.7l2.2,2.1c0.6,0.6,0.7,1.6,0,2.3c-0.6,0.6-1.6,0.7-2.3,0l0,0l-2.2-2.1c-0.6-0.6-0.7-1.6,0-2.3
		C54.7,970.1,55.7,970,56.4,970.7z"/>
	<path class="st3" d="M63.7,977.3l2.3,1.9c0.7,0.6,0.8,1.6,0.2,2.3c-0.6,0.7-1.6,0.8-2.3,0.2l0,0l-2.3-1.9c-0.7-0.6-0.8-1.6-0.2-2.3
		C62,976.8,63,976.7,63.7,977.3z"/>
	<path class="st3" d="M71.4,983.4l2.4,1.8c0.7,0.5,0.9,1.5,0.4,2.3c-0.5,0.7-1.5,0.9-2.3,0.4l0,0l-2.4-1.8c-0.7-0.5-0.9-1.5-0.4-2.3
		C69.7,983.1,70.7,982.9,71.4,983.4z"/>
	<path class="st3" d="M79.6,989l2.5,1.6c0.8,0.5,1,1.5,0.5,2.3c-0.5,0.8-1.5,1-2.3,0.5l0,0l-2.5-1.6c-0.8-0.5-1-1.5-0.5-2.2
		C77.8,988.8,78.8,988.6,79.6,989z"/>
	<path class="st3" d="M88.1,994.1l2.6,1.4c0.8,0.4,1.1,1.4,0.7,2.2c-0.4,0.8-1.4,1.1-2.2,0.7l0,0l-2.6-1.4c-0.8-0.4-1.1-1.4-0.7-2.2
		C86.3,994,87.3,993.7,88.1,994.1z"/>
	<path class="st3" d="M96.9,998.6l2.7,1.2c0.8,0.4,1.2,1.4,0.8,2.2c-0.4,0.8-1.4,1.2-2.2,0.8l0,0l-2.7-1.3c-0.8-0.4-1.2-1.4-0.8-2.2
		C95.1,998.5,96.1,998.2,96.9,998.6z"/>
	<path class="st3" d="M106,1002.5l2.8,1.1c0.9,0.3,1.3,1.3,0.9,2.1c-0.3,0.9-1.3,1.3-2.1,0.9l0,0l-2.8-1.1c-0.8-0.3-1.3-1.3-0.9-2.1
		C104.2,1002.6,105.1,1002.2,106,1002.5z"/>
	<path class="st3" d="M115.3,1005.9l2.9,0.9c0.9,0.3,1.4,1.2,1.1,2.1c-0.3,0.9-1.2,1.4-2.1,1.1l0,0l-2.9-0.9
		c-0.9-0.3-1.4-1.2-1.1-2.1C113.5,1006.1,114.4,1005.6,115.3,1005.9z"/>
	<path class="st3" d="M124.8,1008.7l2.9,0.7c0.9,0.2,1.4,1.1,1.2,2c-0.2,0.9-1.1,1.4-2,1.2l0,0l-2.9-0.7c-0.9-0.2-1.4-1.1-1.2-2
		C123,1009,123.9,1008.4,124.8,1008.7z"/>
	<path class="st3" d="M134.4,1010.9l2.9,0.6c0.9,0.2,1.5,1.1,1.3,2c-0.2,0.9-1.1,1.5-2,1.3l0,0l-2.9-0.6c-0.9-0.2-1.5-1.1-1.3-2
		C132.7,1011.3,133.5,1010.8,134.4,1010.9z"/>
	<path class="st3" d="M144.2,1012.6l3,0.4c0.9,0.1,1.6,1,1.4,1.9c-0.1,0.9-1,1.6-1.9,1.4l0,0l-3-0.4c-0.9-0.1-1.6-1-1.4-1.9
		C142.4,1013.1,143.3,1012.5,144.2,1012.6z"/>
	<path class="st3" d="M154,1013.8l3,0.2c0.9,0.1,1.6,0.9,1.5,1.8c-0.1,0.9-0.9,1.6-1.8,1.5l0,0l-3-0.2c-0.9-0.1-1.6-0.9-1.5-1.8
		C152.3,1014.4,153.1,1013.7,154,1013.8z"/>
	<path class="st3" d="M163.9,1014.4l3,0.1c0.9,0,1.7,0.8,1.7,1.7c0,0.9-0.8,1.7-1.7,1.7h0l-3-0.1c-0.9,0-1.7-0.8-1.6-1.7
		C162.2,1015.1,163,1014.3,163.9,1014.4z"/>
	<path class="st3" d="M173.8,1014.4l3-0.1c0.9,0,1.7,0.7,1.8,1.6c0,0.9-0.7,1.7-1.6,1.8l0,0l-3,0.1c-0.9,0-1.7-0.7-1.8-1.6
		C172.2,1015.2,172.9,1014.4,173.8,1014.4z"/>
	<path class="st3" d="M183.7,1013.8l3-0.3l0,0c0.9-0.1,1.8,0.6,1.9,1.5c0.1,0.9-0.6,1.8-1.5,1.9l0,0l-3,0.3
		c-0.9,0.1-1.8-0.6-1.8-1.5C182.1,1014.7,182.8,1013.9,183.7,1013.8L183.7,1013.8z"/>
	<path class="st3" d="M193.6,1012.7l3-0.4c0.9-0.1,1.8,0.5,1.9,1.4c0.1,0.9-0.5,1.8-1.4,1.9l0,0l-3,0.4c-0.9,0.1-1.8-0.5-1.9-1.4
		C192,1013.7,192.6,1012.9,193.6,1012.7z"/>
	<path class="st3" d="M203.4,1011.1l2.9-0.6c0.9-0.2,1.8,0.4,2,1.3c0.2,0.9-0.4,1.8-1.3,2l0,0l-2.9,0.6c-0.9,0.2-1.8-0.4-2-1.3
		C201.8,1012.2,202.4,1011.3,203.4,1011.1z"/>
	<path class="st3" d="M213,1009l2.9-0.7c0.9-0.2,1.9,0.3,2.1,1.2c0.2,0.9-0.3,1.9-1.2,2.1l0,0l-2.9,0.7c-0.9,0.2-1.9-0.3-2.1-1.2
		C211.6,1010.1,212.1,1009.2,213,1009z"/>
	<path class="st3" d="M222.6,1006.4l2.9-0.9c0.9-0.3,1.9,0.2,2.2,1.1c0.3,0.9-0.2,1.9-1.1,2.2l0,0l-2.9,0.9
		c-0.9,0.3-1.9-0.2-2.2-1.1C221.2,1007.6,221.7,1006.6,222.6,1006.4z"/>
	<path class="st3" d="M232,1003.3l2.8-1c0.9-0.3,1.9,0.1,2.2,1c0.3,0.9-0.1,1.9-1,2.2l0,0l-2.8,1c-0.9,0.3-1.9-0.1-2.2-1
		C230.7,1004.6,231.1,1003.6,232,1003.3z"/>
	<path class="st3" d="M241.3,999.8l2.8-1.1c0.9-0.4,1.9,0.1,2.3,0.9s-0.1,1.9-0.9,2.3l0,0l-2.8,1.1c-0.9,0.4-1.9-0.1-2.3-0.9
		C240,1001.2,240.4,1000.2,241.3,999.8z"/>
	<path class="st3" d="M250.4,995.9l2.7-1.3c0.9-0.4,1.9,0,2.3,0.8c0.4,0.9,0,1.9-0.8,2.3l0,0l-2.7,1.3c-0.9,0.4-1.9,0-2.3-0.8
		C249.2,997.3,249.5,996.3,250.4,995.9z"/>
	<path class="st3" d="M259.3,991.5l2.7-1.4c0.9-0.4,1.9-0.1,2.4,0.7c0.4,0.9,0.1,1.9-0.7,2.4l0,0l-2.7,1.4c-0.9,0.4-1.9,0.1-2.4-0.7
		C258.2,993,258.5,992,259.3,991.5z"/>
	<path class="st3" d="M268.1,986.8l2.6-1.5c0.8-0.5,1.9-0.2,2.4,0.6c0.5,0.8,0.2,1.9-0.6,2.4l0,0l-2.6,1.5c-0.8,0.5-1.9,0.2-2.4-0.6
		C266.9,988.4,267.2,987.3,268.1,986.8z"/>
	<path class="st3" d="M276.6,981.7l2.5-1.6c0.8-0.5,1.9-0.3,2.4,0.5c0.5,0.8,0.3,1.9-0.5,2.4l0,0l-2.5,1.6c-0.8,0.5-1.9,0.3-2.4-0.6
		C275.5,983.3,275.8,982.3,276.6,981.7z"/>
	<path class="st3" d="M284.9,976.3l2.5-1.7c0.8-0.6,1.9-0.4,2.5,0.5c0.6,0.8,0.4,1.9-0.5,2.5l0,0l-2.5,1.7c-0.8,0.6-1.9,0.3-2.5-0.5
		C283.9,978,284.1,976.9,284.9,976.3z"/>
	<path class="st3" d="M293,970.6l2.4-1.8c0.8-0.6,1.9-0.4,2.5,0.4c0.6,0.8,0.4,1.9-0.4,2.5l0,0l-2.4,1.8c-0.8,0.6-1.9,0.4-2.5-0.4
		C292.1,972.3,292.2,971.2,293,970.6z"/>
	<path class="st3" d="M300.9,964.5l2.3-1.9c0.8-0.6,1.9-0.5,2.5,0.3c0.6,0.8,0.5,1.9-0.3,2.5l0,0l-2.3,1.9c-0.8,0.6-1.9,0.5-2.5-0.3
		C300,966.2,300.1,965.1,300.9,964.5z"/>
	<path class="st3" d="M308.5,958.1l2.3-2c0.7-0.7,1.9-0.6,2.5,0.2c0.7,0.7,0.6,1.9-0.2,2.5l0,0l-2.3,2c-0.7,0.6-1.9,0.6-2.5-0.2
		C307.7,959.9,307.8,958.8,308.5,958.1z"/>
	<path class="st3" d="M315.9,951.5l2.2-2.1c0.7-0.7,1.9-0.7,2.5,0.1c0.7,0.7,0.7,1.9-0.1,2.5l0,0l-2.2,2.1c-0.7,0.7-1.9,0.6-2.5-0.1
		C315.2,953.3,315.2,952.2,315.9,951.5z"/>
	<path class="st3" d="M323,944.6l2.1-2.2c0.7-0.7,1.8-0.7,2.5,0c0.7,0.7,0.7,1.8,0,2.5l0,0l-2.1,2.2c-0.7,0.7-1.8,0.7-2.5,0
		C322.3,946.4,322.3,945.3,323,944.6z"/>
	<path class="st3" d="M329.8,937.3l2-2.3c0.7-0.8,1.8-0.8,2.6-0.2c0.8,0.7,0.8,1.8,0.2,2.6l0,0l-2,2.3c-0.7,0.7-1.8,0.8-2.5,0.2
		C329.2,939.2,329.1,938.1,329.8,937.3z"/>
	<path class="st3" d="M336.2,929.8l1.8-2.4c0.6-0.8,1.8-0.9,2.5-0.3c0.8,0.6,0.9,1.8,0.3,2.5l0,0L339,932c-0.6,0.8-1.8,0.9-2.5,0.3
		C335.7,931.7,335.5,930.5,336.2,929.8z"/>
	<path class="st3" d="M342,921.8l1.7-2.5c0.6-0.8,1.7-1.1,2.5-0.5s1.1,1.7,0.5,2.5l0,0l-1.7,2.5c-0.6,0.8-1.7,1.1-2.5,0.5
		C341.7,923.8,341.5,922.6,342,921.8z"/>
	<path class="st3" d="M347.3,913.5l1.5-2.6c0.5-0.9,1.6-1.2,2.5-0.7c0.9,0.5,1.2,1.6,0.7,2.5l0,0l-1.5,2.6c-0.5,0.9-1.6,1.2-2.5,0.7
		C347.1,915.5,346.8,914.4,347.3,913.5z"/>
	<path class="st3" d="M351.9,904.8l1.2-2.7c0.4-0.9,1.5-1.3,2.4-0.9c0.9,0.4,1.3,1.5,0.9,2.4l0,0l-1.2,2.7c-0.4,0.9-1.5,1.3-2.4,0.9
		C351.9,906.8,351.5,905.7,351.9,904.8z"/>
	<path class="st3" d="M355.6,895.7l1-2.8c0.3-1,1.4-1.5,2.3-1.2c1,0.3,1.5,1.4,1.2,2.3l0,0l-1,2.8c-0.3,1-1.4,1.5-2.3,1.1
		C355.8,897.7,355.3,896.7,355.6,895.7z"/>
	<path class="st3" d="M358.4,886.3l0.7-2.9c0.2-1,1.2-1.6,2.2-1.4c1,0.2,1.6,1.2,1.4,2.2l0,0l-0.7,2.9c-0.2,1-1.2,1.6-2.2,1.4
		C358.8,888.3,358.2,887.3,358.4,886.3z"/>
	<path class="st3" d="M360.2,876.7l0.3-3c0.1-1,1-1.8,2-1.6c1,0.1,1.8,1,1.6,2l0,0l-0.3,3c-0.1,1-1,1.7-2,1.6
		S360.1,877.7,360.2,876.7z"/>
	<path class="st3" d="M360.9,866.9l0-3c0-1,0.8-1.9,1.8-1.9c1,0,1.9,0.8,1.9,1.8v0l0,3c0,1-0.8,1.9-1.8,1.9
		C361.7,868.8,360.9,868,360.9,866.9z"/>
	<path class="st3" d="M360.3,857.2l-0.4-3c-0.1-1,0.6-2,1.6-2.1c1-0.1,2,0.6,2.1,1.6l0,0l0.4,3c0.1,1-0.6,2-1.6,2.1
		C361.4,858.9,360.5,858.2,360.3,857.2z"/>
	<path class="st3" d="M358.5,847.6l-0.8-2.9c-0.3-1,0.3-2,1.3-2.3c1-0.3,2,0.3,2.3,1.3l0,0l0.8,2.9c0.3,1-0.3,2-1.3,2.3
		C359.8,849.2,358.8,848.6,358.5,847.6z"/>
	<path class="st3" d="M355.4,838.4l-1.3-2.7c-0.4-0.9,0-2.1,0.9-2.5s2.1,0,2.5,0.9l0,0l1.2,2.7c0.4,0.9,0,2.1-0.9,2.5
		C356.9,839.8,355.8,839.4,355.4,838.4z"/>
	<path class="st3" d="M350.9,829.9l-1.7-2.5c-0.6-0.9-0.4-2,0.5-2.6c0.9-0.6,2-0.4,2.6,0.5l0,0l1.7,2.5c0.6,0.9,0.3,2-0.5,2.6
		C352.6,831,351.4,830.7,350.9,829.9z"/>
	<path class="st3" d="M345,822.1l-2-2.2c-0.7-0.8-0.7-2,0.1-2.7c0.8-0.7,2-0.7,2.7,0.1l0,0l2,2.2c0.7,0.8,0.7,2-0.1,2.7
		C346.9,822.9,345.7,822.9,345,822.1z"/>
	<path class="st3" d="M338.1,815.4l-2.3-1.9c-0.8-0.7-0.9-1.8-0.3-2.7c0.7-0.8,1.8-0.9,2.7-0.3l0,0l2.3,1.9c0.8,0.7,0.9,1.8,0.3,2.7
		C340.1,815.9,338.9,816,338.1,815.4z"/>
	<path class="st3" d="M330.2,809.6l-2.6-1.6c-0.9-0.5-1.2-1.7-0.6-2.6c0.5-0.9,1.7-1.2,2.6-0.6l0,0l2.6,1.6c0.9,0.5,1.2,1.7,0.6,2.6
		C332.3,809.9,331.1,810.1,330.2,809.6z"/>
	<path class="st3" d="M321.6,804.9l-2.7-1.2c-1-0.4-1.4-1.6-1-2.5c0.4-1,1.6-1.4,2.5-1l0,0l2.7,1.2c1,0.4,1.4,1.6,1,2.5
		C323.7,804.9,322.6,805.4,321.6,804.9z"/>
	<path class="st3" d="M312.6,801.3l-2.9-0.9c-1-0.3-1.6-1.4-1.3-2.4c0.3-1,1.4-1.6,2.4-1.3l0,0l2.9,0.9c1,0.3,1.6,1.4,1.3,2.4
		C314.6,801.1,313.6,801.7,312.6,801.3z"/>
	<path class="st3" d="M303.1,798.9l-3-0.5c-1-0.2-1.7-1.2-1.6-2.2c0.2-1,1.2-1.7,2.2-1.6l0,0l3,0.5c1,0.2,1.7,1.2,1.5,2.2
		C305.1,798.4,304.1,799.1,303.1,798.9z"/>
	<path class="st3" d="M293.4,797.6l-3-0.2c-1.1-0.1-1.9-1-1.8-2c0.1-1.1,1-1.9,2-1.8l0,0l3,0.2c1.1,0.1,1.9,1,1.8,2
		C295.4,796.8,294.5,797.6,293.4,797.6z"/>
	<path class="st3" d="M283.6,797.4l-3,0.2c-1.1,0.1-2-0.8-2-1.8c-0.1-1.1,0.8-2,1.8-2l0,0l3-0.1c1.1-0.1,2,0.8,2,1.8
		C285.5,796.4,284.7,797.3,283.6,797.4z"/>
	<path class="st3" d="M273.9,798.2l-3,0.4c-1.1,0.2-2-0.6-2.2-1.6c-0.2-1.1,0.6-2,1.6-2.2l0,0l3-0.4c1.1-0.2,2,0.6,2.2,1.6
		C275.7,797.1,274.9,798.1,273.9,798.2z"/>
	<path class="st3" d="M264.2,800l-2.9,0.7c-1,0.3-2.1-0.4-2.4-1.4c-0.3-1,0.4-2.1,1.4-2.4l0,0l2.9-0.7c1-0.3,2.1,0.4,2.3,1.4
		C265.9,798.7,265.3,799.8,264.2,800z"/>
	<path class="st3" d="M254.7,802.7l-2.8,1c-1,0.3-2.1-0.2-2.5-1.2c-0.3-1,0.2-2.1,1.2-2.5l0,0l2.8-1c1-0.3,2.1,0.2,2.5,1.2
		C256.3,801.2,255.8,802.3,254.7,802.7z"/>
	<path class="st3" d="M245.5,806.1l-2.8,1.2c-1,0.4-2.1,0-2.6-1c-0.4-1,0-2.1,1-2.6l0,0l2.8-1.2c1-0.4,2.1,0,2.6,1
		C247,804.5,246.5,805.6,245.5,806.1z"/>
	<path class="st3" d="M236.5,810.2l-2.7,1.4c-1,0.5-2.1,0.1-2.6-0.8c-0.5-1-0.1-2.1,0.8-2.6l0,0l2.7-1.4c1-0.5,2.1-0.1,2.6,0.8
		C237.9,808.5,237.5,809.7,236.5,810.2z"/>
	<path class="st3" d="M227.9,814.9l-2.5,1.6l0,0c-0.9,0.6-2.1,0.3-2.7-0.7c-0.6-0.9-0.3-2.1,0.7-2.7l0,0l2.6-1.6
		c0.9-0.6,2.1-0.3,2.7,0.7C229.1,813.2,228.8,814.4,227.9,814.9L227.9,814.9z"/>
	<path class="st3" d="M219.6,820.3l-2.5,1.7c-0.9,0.6-2.1,0.4-2.8-0.5c-0.6-0.9-0.4-2.1,0.5-2.8l0,0l2.5-1.7
		c0.9-0.6,2.1-0.4,2.7,0.5C220.7,818.4,220.5,819.6,219.6,820.3z"/>
	<path class="st3" d="M211.7,826.1l-2.3,1.9c-0.9,0.7-2.1,0.6-2.8-0.3c-0.7-0.9-0.6-2.1,0.3-2.8l0,0l2.3-1.9
		c0.9-0.7,2.1-0.6,2.8,0.3C212.6,824.2,212.5,825.4,211.7,826.1z"/>
	<path class="st3" d="M204.1,832.5l-2.2,2c-0.8,0.7-2.1,0.7-2.8-0.1c-0.7-0.8-0.7-2.1,0.1-2.8l0,0l2.2-2c0.8-0.7,2.1-0.7,2.8,0.1
		S204.9,831.8,204.1,832.5z"/>
	<path class="st3" d="M197,839.4l-2.1,2.2c-0.8,0.8-2,0.8-2.8,0.1c-0.8-0.8-0.8-2-0.1-2.8l0,0l2.1-2.2c0.8-0.8,2-0.8,2.8-0.1
		C197.8,837.3,197.8,838.6,197,839.4z"/>
	<path class="st3" d="M190.4,846.7l-1.9,2.3c-0.7,0.8-2,1-2.8,0.2c-0.8-0.7-1-2-0.2-2.8l0,0l1.9-2.3c0.7-0.8,2-0.9,2.8-0.2
		C191,844.5,191.1,845.8,190.4,846.7z"/>
	<path class="st3" d="M184.2,854.3l-1.8,2.4c-0.7,0.9-1.9,1.1-2.8,0.4c-0.9-0.7-1.1-1.9-0.4-2.8l0,0l1.8-2.4
		c0.7-0.9,1.9-1.1,2.8-0.4C184.6,852.2,184.8,853.5,184.2,854.3z"/>
	<path class="st3" d="M178.5,862.4l-1.6,2.5c-0.6,0.9-1.9,1.2-2.8,0.6c-0.9-0.6-1.2-1.9-0.6-2.8l0,0l1.6-2.5
		c0.6-0.9,1.9-1.2,2.8-0.6C178.8,860.2,179.1,861.5,178.5,862.4z"/>
	<path class="st3" d="M173.2,870.8l-1.5,2.6c-0.6,1-1.8,1.3-2.8,0.8c-1-0.6-1.3-1.8-0.8-2.8l0,0l1.5-2.6c0.6-1,1.8-1.3,2.7-0.8
		C173.5,868.6,173.8,869.8,173.2,870.8z"/>
	<path class="st3" d="M168.5,879.5l-1.3,2.7c-0.5,1-1.7,1.4-2.7,0.9c-1-0.5-1.4-1.7-0.9-2.7l0,0l1.3-2.7c0.5-1,1.7-1.4,2.7-0.9
		C168.6,877.3,169,878.5,168.5,879.5z"/>
	<path class="st3" d="M164.4,888.4l-1.2,2.8c-0.4,1-1.6,1.5-2.7,1.1c-1-0.4-1.5-1.6-1.1-2.7l0,0l1.2-2.8c0.4-1,1.6-1.5,2.7-1.1
		C164.3,886.2,164.8,887.4,164.4,888.4z"/>
	<path class="st3" d="M160.8,897.6l-1,2.8c-0.4,1.1-1.5,1.6-2.6,1.3c-1.1-0.4-1.6-1.5-1.3-2.6l0,0l1-2.8c0.4-1.1,1.5-1.6,2.6-1.3
		S161.1,896.6,160.8,897.6z"/>
	<path class="st3" d="M157.7,907l-0.8,2.9c-0.3,1.1-1.4,1.7-2.5,1.4c-1.1-0.3-1.7-1.4-1.4-2.5l0,0l0.8-2.9c0.3-1.1,1.4-1.7,2.5-1.4
		C157.4,904.8,158,906,157.7,907z"/>
	<path class="st3" d="M155.3,916.6l-0.6,2.9c-0.2,1.1-1.3,1.8-2.4,1.6c-1.1-0.2-1.8-1.3-1.6-2.4l0,0l0.6-2.9
		c0.2-1.1,1.3-1.8,2.4-1.6C154.8,914.4,155.5,915.5,155.3,916.6z"/>
	<path class="st3" d="M153.5,926.3l-0.4,3c-0.2,1.1-1.2,1.9-2.3,1.7c-1.1-0.2-1.9-1.2-1.7-2.3l0,0l0.4-3c0.2-1.1,1.2-1.9,2.3-1.7
		S153.6,925.2,153.5,926.3z"/>
	<path class="st3" d="M152.2,936.1l-0.2,3c-0.1,1.1-1.1,2-2.2,1.9c-1.1-0.1-2-1.1-1.9-2.2l0,0l0.2-3c0.1-1.1,1.1-2,2.2-1.9
		C151.5,934,152.3,934.9,152.2,936.1z"/>
	<path class="st3" d="M151.7,945.9l0,3c0,1.1-1,2.1-2.1,2c-1.1,0-2.1-1-2-2.1l0,0l0-3c0-1.1,1-2.1,2.1-2
		C150.8,943.8,151.7,944.8,151.7,945.9z"/>
	<path class="st3" d="M151.8,955.8l0.2,3c0.1,1.1-0.8,2.1-2,2.2c-1.1,0.1-2.1-0.8-2.2-2l0,0l-0.2-3c-0.1-1.1,0.8-2.1,2-2.2
		C150.8,953.8,151.7,954.6,151.8,955.8z"/>
	<path class="st3" d="M152.5,965.6l0.3,3c0.1,1.1-0.7,2.2-1.8,2.3c-1.1,0.1-2.2-0.7-2.3-1.8l0,0l-0.3-3c-0.1-1.1,0.7-2.2,1.8-2.3
		C151.4,963.7,152.4,964.5,152.5,965.6z"/>
	<path class="st3" d="M153.9,975.4l0.5,3c0.2,1.1-0.6,2.2-1.7,2.4c-1.1,0.2-2.2-0.6-2.4-1.7l0,0l-0.5-3c-0.2-1.1,0.6-2.2,1.7-2.4
		C152.6,973.5,153.7,974.3,153.9,975.4z"/>
	<path class="st3" d="M155.8,985.1l0.7,2.9c0.3,1.1-0.4,2.3-1.5,2.5c-1.1,0.3-2.3-0.4-2.5-1.5l0,0l-0.7-2.9
		c-0.3-1.1,0.4-2.3,1.5-2.5C154.4,983.3,155.6,984,155.8,985.1z"/>
	<path class="st3" d="M158.4,994.6l0.9,2.9c0.3,1.1-0.3,2.3-1.4,2.6c-1.1,0.3-2.3-0.3-2.6-1.4l0,0l-0.9-2.9
		c-0.3-1.1,0.3-2.3,1.4-2.6C156.9,992.9,158,993.5,158.4,994.6z"/>
	<path class="st3" d="M161.4,1004l1,2.8c0.4,1.1-0.2,2.3-1.3,2.7c-1.1,0.4-2.3-0.2-2.7-1.3l0,0l-1-2.8c-0.4-1.1,0.2-2.3,1.3-2.7
		C159.8,1002.4,161,1002.9,161.4,1004z"/>
	<path class="st3" d="M165,1013.3l1.2,2.8c0.5,1.1,0,2.3-1.1,2.8c-1.1,0.5-2.3,0-2.8-1.1l0,0l-1.2-2.8c-0.5-1.1,0-2.3,1.1-2.8
		C163.3,1011.7,164.5,1012.2,165,1013.3z"/>
	<path class="st3" d="M169,1022.3l1.3,2.7c0.5,1.1,0.1,2.3-1,2.8c-1.1,0.5-2.3,0.1-2.8-1l0,0l-1.3-2.7c-0.5-1.1-0.1-2.3,1-2.8
		C167.2,1020.8,168.5,1021.2,169,1022.3z"/>
	<path class="st3" d="M173.5,1031.1l1.4,2.6c0.6,1,0.2,2.3-0.8,2.9c-1,0.6-2.3,0.2-2.9-0.8l0,0l-1.4-2.6c-0.6-1-0.2-2.3,0.8-2.9
		C171.6,1029.7,172.9,1030.1,173.5,1031.1z"/>
	<path class="st3" d="M178.4,1039.7l1.6,2.6c0.6,1,0.3,2.3-0.7,2.9c-1,0.6-2.3,0.3-2.9-0.7l0,0l-1.6-2.6c-0.6-1-0.3-2.3,0.7-2.9
		C176.5,1038.4,177.8,1038.7,178.4,1039.7z"/>
	<path class="st3" d="M183.7,1048.1l1.7,2.5c0.7,1,0.4,2.3-0.6,3c-1,0.7-2.3,0.4-3-0.6l0,0l-1.7-2.5c-0.7-1-0.4-2.3,0.6-3
		C181.7,1046.8,183,1047.1,183.7,1048.1z"/>
	<path class="st3" d="M189.4,1056.2l1.8,2.4c0.7,0.9,0.5,2.3-0.4,3c-0.9,0.7-2.3,0.5-3-0.4l0,0l-1.8-2.4c-0.7-0.9-0.5-2.3,0.4-3
		C187.3,1055,188.7,1055.2,189.4,1056.2z"/>
	<path class="st3" d="M195.4,1064l1.9,2.3c0.7,0.9,0.6,2.3-0.3,3c-0.9,0.7-2.3,0.6-3-0.3l0,0l-1.9-2.3c-0.7-0.9-0.6-2.3,0.3-3
		C193.3,1063,194.7,1063.1,195.4,1064z"/>
	<path class="st3" d="M201.8,1071.6l2,2.2c0.8,0.9,0.7,2.3-0.2,3c-0.9,0.8-2.3,0.7-3-0.2l0,0l-2-2.2c-0.8-0.9-0.7-2.2,0.2-3
		C199.6,1070.7,201,1070.7,201.8,1071.6z"/>
	<path class="st3" d="M208.5,1078.9l2.1,2.2c0.8,0.9,0.8,2.2,0,3.1c-0.9,0.8-2.2,0.8-3.1,0l0,0l-2.1-2.2c-0.8-0.9-0.8-2.2,0.1-3.1
		C206.3,1078,207.6,1078.1,208.5,1078.9z"/>
	<path class="st3" d="M215.5,1086l2.2,2.1c0.9,0.8,0.9,2.2,0.1,3.1c-0.8,0.9-2.2,0.9-3.1,0.1l0,0l-2.2-2.1c-0.9-0.8-0.9-2.2-0.1-3.1
		C213.2,1085.2,214.6,1085.1,215.5,1086z"/>
	<path class="st3" d="M222.7,1092.7l2.3,2c0.9,0.8,1,2.2,0.2,3.1c-0.8,0.9-2.2,1-3.1,0.2l0,0l-2.3-2c-0.9-0.8-1-2.2-0.2-3.1
		C220.5,1092,221.8,1091.9,222.7,1092.7z"/>
	<path class="st3" d="M230.3,1099.1l2.3,1.9c0.9,0.8,1.1,2.1,0.3,3.1c-0.8,0.9-2.1,1.1-3.1,0.3l0,0l-2.3-1.9
		c-0.9-0.8-1.1-2.1-0.3-3.1C228,1098.5,229.4,1098.4,230.3,1099.1z"/>
	<path class="st3" d="M238,1105.3l2.4,1.8c1,0.7,1.1,2.1,0.4,3.1c-0.7,1-2.1,1.1-3.1,0.4l0,0l-2.4-1.8c-1-0.7-1.1-2.1-0.4-3.1
		C235.7,1104.8,237.1,1104.6,238,1105.3z"/>
	<path class="st3" d="M246,1111.2l2.4,1.7c1,0.7,1.2,2.1,0.5,3.1c-0.7,1-2.1,1.2-3.1,0.5l0,0l-2.4-1.7c-1-0.7-1.2-2.1-0.5-3.1
		C243.7,1110.8,245,1110.5,246,1111.2z"/>
	<path class="st3" d="M254.2,1116.9l2.5,1.7c1,0.7,1.3,2,0.6,3c-0.7,1-2,1.3-3,0.6l0,0l-2.5-1.7c-1-0.7-1.3-2-0.6-3
		C251.8,1116.5,253.2,1116.2,254.2,1116.9z"/>
	<path class="st3" d="M262.5,1122.3l2.6,1.6c1,0.6,1.4,2,0.7,3c-0.6,1-2,1.4-3,0.7l0,0l-2.5-1.6c-1-0.6-1.4-2-0.7-3
		C260.1,1121.9,261.5,1121.6,262.5,1122.3z"/>
	<path class="st3" d="M271,1127.4l2.6,1.5c1.1,0.6,1.4,2,0.8,3c-0.6,1.1-2,1.4-3,0.8l0,0l-2.6-1.5c-1.1-0.6-1.4-2-0.8-3
		C268.6,1127.1,270,1126.8,271,1127.4z"/>
	<path class="st3" d="M279.7,1132.3l2.6,1.4c1.1,0.6,1.5,1.9,0.9,3c-0.6,1.1-1.9,1.5-3,0.9l0,0l-2.6-1.4c-1.1-0.6-1.5-1.9-0.9-3
		C277.3,1132.1,278.6,1131.7,279.7,1132.3z"/>
	<path class="st3" d="M288.4,1137l2.7,1.4c1.1,0.6,1.5,1.9,1,3s-1.9,1.5-3,1l0,0l-2.7-1.4c-1.1-0.6-1.5-1.9-1-3
		C286,1136.9,287.4,1136.4,288.4,1137z"/>
	<path class="st3" d="M297.3,1141.5l2.7,1.3c1.1,0.5,1.6,1.9,1,3c-0.5,1.1-1.9,1.6-3,1l0,0l-2.7-1.3c-1.1-0.5-1.6-1.9-1-3
		C294.9,1141.4,296.2,1140.9,297.3,1141.5z"/>
	<path class="st3" d="M306.3,1145.7l2.7,1.2c1.1,0.5,1.6,1.8,1.1,3c-0.5,1.1-1.8,1.6-3,1.1l0,0l-2.7-1.3c-1.1-0.5-1.6-1.8-1.1-3
		C303.9,1145.7,305.2,1145.2,306.3,1145.7z"/>
	<path class="st3" d="M315.4,1149.8l2.8,1.2c1.1,0.5,1.7,1.8,1.2,2.9c-0.5,1.1-1.8,1.7-2.9,1.2l0,0l-2.8-1.2
		c-1.1-0.5-1.7-1.8-1.2-2.9C312.9,1149.9,314.3,1149.3,315.4,1149.8z"/>
	<path class="st3" d="M324.6,1153.7l2.8,1.1c1.1,0.5,1.7,1.8,1.2,2.9c-0.5,1.1-1.8,1.7-2.9,1.2l0,0l-2.8-1.1
		c-1.1-0.5-1.7-1.8-1.2-2.9C322.1,1153.8,323.4,1153.3,324.6,1153.7z"/>
	<path class="st3" d="M333.8,1157.5l2.8,1.1c1.2,0.5,1.7,1.8,1.3,2.9c-0.5,1.2-1.8,1.7-2.9,1.3l0,0l-2.8-1.1
		c-1.2-0.5-1.7-1.8-1.3-2.9C331.3,1157.6,332.6,1157,333.8,1157.5z"/>
	<path class="st3" d="M343.1,1161l2.8,1c1.2,0.4,1.8,1.7,1.3,2.9c-0.4,1.2-1.7,1.8-2.9,1.3l0,0l-2.8-1.1c-1.2-0.4-1.8-1.7-1.3-2.9
		C340.6,1161.2,341.9,1160.6,343.1,1161z"/>
	<path class="st3" d="M352.5,1164.5l2.8,1c1.2,0.4,1.8,1.7,1.4,2.9c-0.4,1.2-1.7,1.8-2.9,1.4l0,0l-2.8-1c-1.2-0.4-1.8-1.7-1.4-2.9
		C350,1164.7,351.3,1164.1,352.5,1164.5L352.5,1164.5z"/>
	<path class="st3" d="M361.9,1167.8l2.8,1c1.2,0.4,1.8,1.7,1.4,2.9c-0.4,1.2-1.7,1.8-2.9,1.4l0,0l-2.8-1c-1.2-0.4-1.8-1.7-1.4-2.9
		C359.4,1168,360.7,1167.4,361.9,1167.8z"/>
	<path class="st3" d="M371.3,1170.9l2.9,0.9c1.2,0.4,1.9,1.7,1.5,2.9c-0.4,1.2-1.7,1.9-2.9,1.5l0,0l-2.9-0.9
		c-1.2-0.4-1.8-1.7-1.5-2.9C368.8,1171.2,370.1,1170.6,371.3,1170.9z"/>
	<path class="st3" d="M380.8,1174l2.9,0.9c1.2,0.4,1.9,1.7,1.5,2.9c-0.4,1.2-1.7,1.9-2.9,1.5l0,0l-2.9-0.9c-1.2-0.4-1.9-1.7-1.5-2.9
		C378.3,1174.3,379.6,1173.6,380.8,1174z"/>
	<path class="st3" d="M390.4,1176.9l2.9,0.9c1.2,0.4,1.9,1.6,1.5,2.8c-0.4,1.2-1.6,1.9-2.8,1.5l0,0l-2.9-0.9
		c-1.2-0.4-1.9-1.6-1.5-2.8C387.9,1177.2,389.1,1176.5,390.4,1176.9z"/>
	<path class="st3" d="M399.9,1179.7l2.9,0.8c1.2,0.3,1.9,1.6,1.6,2.8c-0.3,1.2-1.6,1.9-2.8,1.6l0,0l-2.9-0.8
		c-1.2-0.3-1.9-1.6-1.6-2.8C397.4,1180,398.7,1179.3,399.9,1179.7z"/>
	<path class="st3" d="M409.5,1182.3l2.9,0.8c1.2,0.3,2,1.6,1.6,2.8c-0.3,1.2-1.6,2-2.8,1.6l0,0l-2.9-0.8c-1.2-0.3-2-1.6-1.6-2.8
		C407,1182.7,408.3,1182,409.5,1182.3z"/>
	<path class="st3" d="M419.2,1184.9l2.9,0.7c1.2,0.3,2,1.6,1.7,2.8c-0.3,1.2-1.6,2-2.8,1.7l0,0l-2.9-0.7c-1.2-0.3-2-1.6-1.7-2.8
		C416.7,1185.3,417.9,1184.5,419.2,1184.9z"/>
	<path class="st3" d="M428.9,1187.2l2.9,0.7c1.2,0.3,2,1.5,1.7,2.8c-0.3,1.2-1.5,2-2.8,1.7l0,0l-2.9-0.7c-1.2-0.3-2-1.5-1.7-2.8
		C426.4,1187.7,427.6,1187,428.9,1187.2z"/>
	<path class="st3" d="M438.6,1189.5l2.9,0.7c1.3,0.3,2,1.5,1.8,2.8c-0.3,1.3-1.5,2-2.8,1.8l0,0l-2.9-0.7c-1.2-0.3-2-1.5-1.8-2.8
		C436.1,1190,437.3,1189.2,438.6,1189.5z"/>
	<path class="st3" d="M448.3,1191.6l2.9,0.6c1.3,0.3,2.1,1.5,1.8,2.8c-0.3,1.3-1.5,2.1-2.8,1.8l0,0l-2.9-0.6
		c-1.3-0.3-2.1-1.5-1.8-2.8C445.8,1192.2,447,1191.4,448.3,1191.6z"/>
	<path class="st3" d="M458.1,1193.6l2.9,0.6c1.3,0.2,2.1,1.5,1.8,2.7c-0.2,1.3-1.5,2.1-2.7,1.8l0,0l-2.9-0.6
		c-1.3-0.2-2.1-1.5-1.8-2.7C455.6,1194.2,456.8,1193.4,458.1,1193.6z"/>
	<path class="st3" d="M467.9,1195.5l3,0.5c1.3,0.2,2.1,1.4,1.9,2.7c-0.2,1.3-1.4,2.1-2.7,1.9l0,0l-3-0.5c-1.3-0.2-2.1-1.5-1.9-2.7
		C465.4,1196.1,466.6,1195.3,467.9,1195.5z"/>
	<path class="st3" d="M477.7,1197.3l3,0.5c1.3,0.2,2.1,1.4,1.9,2.7c-0.2,1.3-1.4,2.1-2.7,1.9l0,0l-3-0.5c-1.3-0.2-2.1-1.4-1.9-2.7
		S476.4,1197,477.7,1197.3z"/>
	<path class="st3" d="M487.5,1198.9l3,0.5c1.3,0.2,2.2,1.4,2,2.7c-0.2,1.3-1.4,2.2-2.7,2l0,0l-3-0.5c-1.3-0.2-2.2-1.4-2-2.7
		C485,1199.5,486.2,1198.7,487.5,1198.9z"/>
	<path class="st3" d="M497.4,1200.3l3,0.4c1.3,0.2,2.2,1.4,2,2.7c-0.2,1.3-1.4,2.2-2.7,2l0,0l-3-0.4c-1.3-0.2-2.2-1.4-2-2.7
		C494.9,1201,496.1,1200.2,497.4,1200.3z"/>
	<path class="st3" d="M507.3,1201.7l3,0.4c1.3,0.2,2.2,1.3,2,2.6c-0.2,1.3-1.3,2.2-2.6,2l0,0l-3-0.4c-1.3-0.2-2.2-1.4-2-2.6
		C504.8,1202.4,506,1201.5,507.3,1201.7z"/>
	<path class="st3" d="M517.1,1202.9l3,0.3c1.3,0.1,2.2,1.3,2.1,2.6c-0.1,1.3-1.3,2.2-2.6,2.1l0,0l-3-0.3c-1.3-0.1-2.2-1.3-2.1-2.6
		C514.7,1203.7,515.8,1202.7,517.1,1202.9z"/>
	<path class="st3" d="M527.1,1204l3,0.3c1.3,0.1,2.3,1.3,2.1,2.6c-0.1,1.3-1.3,2.3-2.6,2.1l0,0l-3-0.3c-1.3-0.1-2.3-1.3-2.1-2.6
		C524.6,1204.8,525.8,1203.8,527.1,1204z"/>
	<path class="st3" d="M537,1204.9l3,0.3c1.3,0.1,2.3,1.3,2.2,2.6c-0.1,1.3-1.3,2.3-2.6,2.2l0,0l-3-0.3c-1.3-0.1-2.3-1.3-2.2-2.6
		C534.5,1205.8,535.7,1204.8,537,1204.9z"/>
	<path class="st3" d="M546.9,1205.7l3,0.2c1.3,0.1,2.3,1.2,2.2,2.6c-0.1,1.3-1.2,2.3-2.6,2.2l0,0l-3-0.2c-1.3-0.1-2.3-1.2-2.2-2.6
		C544.5,1206.6,545.6,1205.6,546.9,1205.7z"/>
	<path class="st3" d="M556.9,1206.4l3,0.2c1.3,0.1,2.3,1.2,2.2,2.5c-0.1,1.3-1.2,2.3-2.5,2.2l0,0l-3-0.2c-1.3-0.1-2.3-1.2-2.2-2.5
		C554.4,1207.3,555.5,1206.3,556.9,1206.4z"/>
	<path class="st3" d="M566.8,1207l3,0.1c1.3,0.1,2.3,1.2,2.3,2.5c-0.1,1.3-1.2,2.3-2.5,2.3l0,0l-3-0.1c-1.3-0.1-2.3-1.2-2.3-2.5
		C564.4,1207.9,565.5,1206.9,566.8,1207z"/>
	<path class="st3" d="M576.8,1207.4l3,0.1c1.3,0,2.4,1.2,2.3,2.5c0,1.3-1.2,2.4-2.5,2.3l0,0l-3-0.1c-1.3,0-2.4-1.2-2.3-2.5
		C574.3,1208.4,575.4,1207.4,576.8,1207.4z"/>
	<path class="st3" d="M586.7,1207.7l3,0.1c1.3,0,2.4,1.1,2.4,2.5c0,1.3-1.1,2.4-2.5,2.4l0,0l-3-0.1c-1.3,0-2.4-1.1-2.4-2.5
		C584.3,1208.7,585.4,1207.7,586.7,1207.7z"/>
	<path class="st3" d="M596.7,1207.8l3,0c1.3,0,2.4,1.1,2.4,2.4c0,1.3-1.1,2.4-2.4,2.4h0l-3,0c-1.3,0-2.4-1.1-2.4-2.4
		C594.3,1208.9,595.4,1207.8,596.7,1207.8z"/>
	<path class="st3" d="M606.7,1207.9l3,0c1.3,0,2.4,1.1,2.4,2.4c0,1.3-1.1,2.4-2.4,2.4h0l-3,0c-1.3,0-2.4-1.1-2.4-2.4
		C604.3,1209,605.3,1207.9,606.7,1207.9z"/>
	<path class="st3" d="M616.6,1207.7l3-0.1c1.3,0,2.5,1,2.5,2.4c0,1.3-1,2.5-2.4,2.5h0l-3,0.1c-1.3,0-2.5-1-2.5-2.4
		C614.2,1208.9,615.3,1207.8,616.6,1207.7z"/>
	<path class="st3" d="M626.6,1207.5l3-0.1c1.3,0,2.5,1,2.5,2.4c0,1.3-1,2.5-2.4,2.5l0,0l-3,0.1c-1.3,0-2.5-1-2.5-2.4
		C624.2,1208.7,625.3,1207.5,626.6,1207.5z"/>
	<path class="st3" d="M636.6,1207.1l3-0.1c1.3-0.1,2.5,1,2.6,2.3c0.1,1.3-1,2.5-2.3,2.6l0,0l-3,0.1c-1.3,0.1-2.5-1-2.6-2.3
		C634.2,1208.3,635.2,1207.2,636.6,1207.1z"/>
	<path class="st3" d="M646.5,1206.6l3-0.2c1.4-0.1,2.5,0.9,2.6,2.3c0.1,1.4-0.9,2.5-2.3,2.6l0,0l-3,0.2c-1.4,0.1-2.5-1-2.6-2.3
		C644.1,1207.9,645.2,1206.7,646.5,1206.6z"/>
	<path class="st3" d="M656.5,1206l3-0.2c1.4-0.1,2.5,0.9,2.6,2.3c0.1,1.4-0.9,2.5-2.3,2.6l0,0l-3,0.2c-1.4,0.1-2.5-0.9-2.6-2.3
		C654.1,1207.2,655.1,1206.1,656.5,1206z"/>
	<path class="st3" d="M666.4,1205.2l3-0.3c1.4-0.1,2.6,0.9,2.7,2.2c0.1,1.4-0.9,2.6-2.2,2.7l0,0l-3,0.3c-1.4,0.1-2.5-0.9-2.7-2.2
		C664,1206.5,665.1,1205.3,666.4,1205.2z"/>
	<path class="st3" d="M676.3,1204.3l3-0.3c1.4-0.1,2.6,0.9,2.7,2.2c0.1,1.4-0.9,2.6-2.2,2.7l0,0l-3,0.3c-1.4,0.1-2.6-0.9-2.7-2.2
		C674,1205.6,675,1204.4,676.3,1204.3z"/>
	<path class="st3" d="M686.2,1203.2l3-0.3c1.4-0.2,2.6,0.8,2.7,2.2c0.2,1.4-0.8,2.6-2.2,2.7l0,0l-3,0.3c-1.4,0.2-2.6-0.8-2.7-2.2
		C683.9,1204.6,684.9,1203.4,686.2,1203.2z"/>
	<path class="st3" d="M696.1,1202l3-0.4c1.4-0.2,2.6,0.8,2.8,2.1s-0.8,2.6-2.1,2.8l0,0l-3,0.4c-1.4,0.2-2.6-0.8-2.8-2.1
		C693.8,1203.5,694.8,1202.2,696.1,1202z"/>
	<path class="st3" d="M706,1200.7l3-0.4c1.4-0.2,2.6,0.8,2.8,2.1c0.2,1.4-0.8,2.6-2.1,2.8l0,0l-3,0.4c-1.4,0.2-2.6-0.8-2.8-2.1
		C703.7,1202.2,704.7,1200.9,706,1200.7z"/>
	<path class="st3" d="M715.9,1199.3l3-0.5c1.4-0.2,2.6,0.7,2.9,2.1s-0.7,2.6-2.1,2.9l0,0l-3,0.5c-1.4,0.2-2.6-0.7-2.8-2.1
		C713.6,1200.8,714.5,1199.5,715.9,1199.3z"/>
	<path class="st3" d="M725.7,1197.7l0.8-0.1c1.4-0.2,2.7,0.7,2.9,2c0.2,1.4-0.7,2.7-2,2.9l0,0l-0.8,0.1c-1.4,0.2-2.7-0.7-2.9-2.1
		C723.4,1199.2,724.4,1197.9,725.7,1197.7z"/>
</g>
<g>
	<path class="st3" d="M1360.9,1179.4l2.3,2c0.2,0.2,0.2,0.5,0.1,0.7c-0.2,0.2-0.5,0.2-0.7,0.1l0,0l-2.3-2c-0.2-0.2-0.2-0.5,0-0.7
		C1360.4,1179.2,1360.7,1179.2,1360.9,1179.4z"/>
	<path class="st3" d="M1368.5,1185.8l2.3,1.9c0.2,0.2,0.3,0.5,0.1,0.8s-0.5,0.3-0.8,0.1l0,0l-2.3-1.9c-0.2-0.2-0.3-0.5-0.1-0.7
		C1368,1185.7,1368.3,1185.6,1368.5,1185.8z"/>
	<path class="st3" d="M1376.4,1192l2.4,1.8c0.3,0.2,0.3,0.5,0.1,0.8c-0.2,0.3-0.5,0.3-0.8,0.1l0,0l-2.4-1.8
		c-0.2-0.2-0.3-0.5-0.1-0.8C1375.8,1191.9,1376.1,1191.8,1376.4,1192z"/>
	<path class="st3" d="M1384.4,1197.9l2.5,1.7c0.3,0.2,0.3,0.6,0.1,0.8c-0.2,0.3-0.6,0.3-0.8,0.1l0,0l-2.4-1.7
		c-0.3-0.2-0.3-0.6-0.1-0.8C1383.8,1197.8,1384.1,1197.8,1384.4,1197.9z"/>
	<path class="st3" d="M1392.6,1203.6l2.5,1.6c0.3,0.2,0.4,0.6,0.2,0.9c-0.2,0.3-0.6,0.4-0.9,0.2l0,0l-2.5-1.7
		c-0.3-0.2-0.4-0.6-0.2-0.9C1392,1203.5,1392.3,1203.4,1392.6,1203.6z"/>
	<path class="st3" d="M1401,1209l2.6,1.6c0.3,0.2,0.4,0.6,0.2,0.9c-0.2,0.3-0.6,0.4-0.9,0.2l0,0l-2.6-1.6c-0.3-0.2-0.4-0.6-0.2-0.9
		C1400.3,1208.9,1400.7,1208.8,1401,1209z"/>
	<path class="st3" d="M1409.6,1214.1l2.6,1.5c0.3,0.2,0.4,0.6,0.3,0.9c-0.2,0.3-0.6,0.4-0.9,0.3l0,0l-2.6-1.5
		c-0.3-0.2-0.4-0.6-0.3-0.9C1408.9,1214,1409.3,1213.9,1409.6,1214.1z"/>
	<path class="st3" d="M1418.3,1218.9l2.7,1.4c0.4,0.2,0.5,0.6,0.3,1c-0.2,0.4-0.6,0.5-1,0.3l0,0l-2.6-1.4c-0.3-0.2-0.5-0.6-0.3-1
		C1417.6,1218.9,1418,1218.7,1418.3,1218.9z"/>
	<path class="st3" d="M1427.2,1223.5l2.7,1.3c0.4,0.2,0.5,0.6,0.3,1c-0.2,0.4-0.6,0.5-1,0.3l0,0l-2.7-1.3c-0.4-0.2-0.5-0.6-0.3-1
		C1426.4,1223.4,1426.8,1223.3,1427.2,1223.5z"/>
	<path class="st3" d="M1436.2,1227.7l2.7,1.2c0.4,0.2,0.6,0.6,0.4,1c-0.2,0.4-0.6,0.6-1,0.4l0,0l-2.7-1.2c-0.4-0.2-0.6-0.6-0.4-1
		C1435.4,1227.7,1435.8,1227.6,1436.2,1227.7z"/>
	<path class="st3" d="M1445.4,1231.7l2.8,1.1c0.4,0.2,0.6,0.6,0.4,1.1c-0.2,0.4-0.6,0.6-1.1,0.4l0,0l-2.8-1.2
		c-0.4-0.2-0.6-0.6-0.4-1.1C1444.5,1231.7,1445,1231.5,1445.4,1231.7z"/>
	<path class="st3" d="M1454.6,1235.4l2.8,1.1c0.4,0.2,0.7,0.7,0.5,1.1c-0.2,0.4-0.7,0.7-1.1,0.5l0,0l-2.8-1.1
		c-0.4-0.2-0.6-0.6-0.5-1.1C1453.7,1235.5,1454.2,1235.2,1454.6,1235.4z"/>
	<path class="st3" d="M1464,1238.8l2.8,1c0.5,0.2,0.7,0.7,0.5,1.1c-0.2,0.5-0.7,0.7-1.1,0.5l0,0l-2.8-1c-0.5-0.2-0.7-0.6-0.5-1.1
		C1463.1,1238.9,1463.6,1238.6,1464,1238.8z"/>
	<path class="st3" d="M1473.5,1241.9l2.9,0.9c0.5,0.1,0.7,0.7,0.6,1.1c-0.1,0.5-0.7,0.7-1.1,0.6l0,0l-2.9-0.9
		c-0.5-0.1-0.7-0.7-0.6-1.1C1472.5,1242,1473,1241.8,1473.5,1241.9z"/>
	<path class="st3" d="M1483.1,1244.7l2.9,0.8c0.5,0.1,0.8,0.7,0.7,1.1c-0.1,0.5-0.7,0.8-1.1,0.7l0,0l-2.9-0.8
		c-0.5-0.1-0.8-0.6-0.6-1.1C1482.1,1244.9,1482.6,1244.6,1483.1,1244.7z"/>
	<path class="st3" d="M1492.7,1247.2l2.9,0.7c0.5,0.1,0.8,0.6,0.7,1.2c-0.1,0.5-0.6,0.8-1.2,0.7l0,0l-2.9-0.7
		c-0.5-0.1-0.8-0.6-0.7-1.2C1491.7,1247.4,1492.2,1247.1,1492.7,1247.2z"/>
	<path class="st3" d="M1502.4,1249.4l2.9,0.6c0.5,0.1,0.9,0.6,0.8,1.2c-0.1,0.5-0.6,0.9-1.2,0.8l0,0l-2.9-0.6
		c-0.5-0.1-0.9-0.6-0.8-1.2C1501.4,1249.7,1501.9,1249.3,1502.4,1249.4z"/>
	<path class="st3" d="M1512.2,1251.3l3,0.5c0.6,0.1,0.9,0.6,0.8,1.2c-0.1,0.6-0.6,0.9-1.2,0.8l0,0l-3-0.5c-0.6-0.1-0.9-0.6-0.8-1.2
		C1511.1,1251.6,1511.7,1251.2,1512.2,1251.3z"/>
	<path class="st3" d="M1522.1,1252.9l3,0.4c0.6,0.1,1,0.6,0.9,1.2c-0.1,0.6-0.6,1-1.2,0.9l0,0l-3-0.4c-0.6-0.1-1-0.6-0.9-1.2
		C1521,1253.3,1521.5,1252.9,1522.1,1252.9z"/>
	<path class="st3" d="M1531.9,1254.2l3,0.3c0.6,0.1,1,0.6,1,1.2c-0.1,0.6-0.6,1-1.2,1l0,0l-3-0.3c-0.6-0.1-1-0.6-0.9-1.2
		C1530.8,1254.6,1531.3,1254.2,1531.9,1254.2z"/>
	<path class="st3" d="M1541.9,1255.2l3,0.2c0.6,0,1.1,0.6,1,1.2c0,0.6-0.6,1.1-1.2,1l0,0l-3-0.3c-0.6-0.1-1.1-0.6-1-1.2
		C1540.7,1255.6,1541.2,1255.2,1541.9,1255.2z"/>
	<path class="st3" d="M1551.8,1255.9l3,0.1c0.6,0,1.1,0.6,1.1,1.2c0,0.6-0.6,1.1-1.2,1.1l0,0l-3-0.2c-0.6,0-1.1-0.6-1.1-1.2
		C1550.6,1256.3,1551.2,1255.8,1551.8,1255.9z"/>
	<path class="st3" d="M1561.8,1256.2l3,0c0.7,0,1.2,0.5,1.2,1.2c0,0.7-0.5,1.2-1.2,1.2l0,0l-3-0.1c-0.6,0-1.2-0.5-1.1-1.2
		C1560.6,1256.7,1561.1,1256.2,1561.8,1256.2z"/>
	<path class="st3" d="M1571.7,1256.3l3-0.1c0.7,0,1.2,0.5,1.2,1.2c0,0.7-0.5,1.2-1.2,1.2l0,0l-3,0c-0.7,0-1.2-0.5-1.2-1.2
		C1570.5,1256.8,1571.1,1256.3,1571.7,1256.3z"/>
	<path class="st3" d="M1581.7,1256l3-0.1c0.7,0,1.2,0.5,1.3,1.2c0,0.7-0.5,1.2-1.2,1.3l0,0l-3,0.1c-0.7,0-1.2-0.5-1.3-1.2
		C1580.5,1256.6,1581,1256,1581.7,1256z"/>
	<path class="st3" d="M1591.6,1255.4l3-0.2c0.7-0.1,1.3,0.4,1.3,1.1c0.1,0.7-0.4,1.3-1.1,1.3l0,0l-3,0.2c-0.7,0.1-1.3-0.5-1.3-1.1
		S1590.9,1255.4,1591.6,1255.4z"/>
	<path class="st3" d="M1601.5,1254.4l3-0.3c0.7-0.1,1.3,0.4,1.4,1.1c0.1,0.7-0.4,1.3-1.1,1.4l0,0l-3,0.3c-0.7,0.1-1.3-0.4-1.4-1.1
		C1600.4,1255.1,1600.8,1254.5,1601.5,1254.4z"/>
	<path class="st3" d="M1611.4,1253.2l3-0.4c0.7-0.1,1.3,0.4,1.4,1.1c0.1,0.7-0.4,1.3-1.1,1.4l0,0l-3,0.4c-0.7,0.1-1.3-0.4-1.4-1.1
		C1610.2,1253.9,1610.7,1253.3,1611.4,1253.2z"/>
	<path class="st3" d="M1621.2,1251.6l3-0.5c0.7-0.1,1.4,0.3,1.5,1c0.1,0.7-0.3,1.4-1,1.5l0,0l-3,0.5c-0.7,0.1-1.4-0.3-1.5-1
		C1620.1,1252.3,1620.5,1251.7,1621.2,1251.6z"/>
	<path class="st3" d="M1631,1249.7l2.9-0.6c0.7-0.1,1.4,0.3,1.5,1s-0.3,1.4-1,1.5l0,0l-2.9,0.6c-0.7,0.1-1.4-0.3-1.5-1
		C1629.9,1250.5,1630.3,1249.9,1631,1249.7z"/>
	<path class="st3" d="M1640.8,1247.7l2.9-0.6c0.7-0.2,1.4,0.3,1.6,1c0.2,0.7-0.3,1.4-1,1.6l0,0l-2.9,0.6c-0.7,0.2-1.4-0.3-1.6-1
		C1639.7,1248.6,1640.1,1247.9,1640.8,1247.7z"/>
	<path class="st3" d="M1650.5,1245.5l2.9-0.7c0.7-0.2,1.4,0.3,1.6,1c0.2,0.7-0.3,1.4-1,1.6l0,0l-2.9,0.7c-0.7,0.2-1.4-0.3-1.6-1
		C1649.4,1246.4,1649.8,1245.7,1650.5,1245.5z"/>
	<path class="st3" d="M1660.2,1243.2l2.9-0.7c0.7-0.2,1.5,0.3,1.6,1c0.2,0.7-0.3,1.5-1,1.6l0,0l-2.9,0.7c-0.7,0.2-1.5-0.3-1.6-1
		C1659.1,1244.1,1659.5,1243.3,1660.2,1243.2z"/>
	<path class="st3" d="M1669.9,1240.6l2.9-0.8c0.7-0.2,1.5,0.2,1.7,1c0.2,0.7-0.2,1.5-1,1.7l0,0l-2.9,0.8c-0.7,0.2-1.5-0.2-1.7-1
		C1668.7,1241.6,1669.2,1240.8,1669.9,1240.6z"/>
	<path class="st3" d="M1679.5,1238l2.9-0.8c0.7-0.2,1.5,0.2,1.7,0.9c0.2,0.7-0.2,1.5-0.9,1.7l0,0l-2.9,0.8c-0.7,0.2-1.5-0.2-1.7-0.9
		C1678.4,1238.9,1678.8,1238.2,1679.5,1238z"/>
	<path class="st3" d="M1689.1,1235.1l2.9-0.9c0.7-0.2,1.5,0.2,1.8,0.9c0.2,0.7-0.2,1.5-0.9,1.8l0,0l-2.9,0.9
		c-0.7,0.2-1.5-0.2-1.7-0.9C1687.9,1236.1,1688.3,1235.4,1689.1,1235.1z"/>
	<path class="st3" d="M1698.6,1232.2l2.9-0.9c0.7-0.2,1.5,0.2,1.8,0.9c0.2,0.7-0.2,1.5-0.9,1.8l0,0l-2.9,0.9
		c-0.7,0.2-1.5-0.2-1.8-0.9C1697.4,1233.2,1697.8,1232.4,1698.6,1232.2z"/>
	<path class="st3" d="M1708.1,1229l2.8-1c0.7-0.3,1.6,0.1,1.8,0.9c0.3,0.7-0.1,1.6-0.9,1.8l0,0l-2.8,1c-0.7,0.3-1.6-0.1-1.8-0.9
		C1706.9,1230.1,1707.3,1229.3,1708.1,1229z"/>
	<path class="st3" d="M1717.5,1225.7l2.8-1c0.8-0.3,1.6,0.1,1.9,0.9c0.3,0.8-0.1,1.6-0.9,1.9l0,0l-2.8,1c-0.8,0.3-1.6-0.1-1.8-0.9
		C1716.3,1226.8,1716.7,1226,1717.5,1225.7z"/>
	<path class="st3" d="M1726.8,1222.2l2.8-1.1c0.8-0.3,1.6,0.1,1.9,0.8s-0.1,1.6-0.8,1.9l0,0l-2.8,1.1c-0.8,0.3-1.6-0.1-1.9-0.8
		C1725.7,1223.4,1726.1,1222.5,1726.8,1222.2z"/>
	<path class="st3" d="M1736.1,1218.6l2.8-1.1c0.8-0.3,1.6,0.1,1.9,0.8c0.3,0.8-0.1,1.6-0.8,1.9l0,0l-2.8,1.1
		c-0.8,0.3-1.6-0.1-1.9-0.8C1735,1219.8,1735.3,1218.9,1736.1,1218.6z"/>
	<path class="st3" d="M1745.3,1214.8l2.8-1.2c0.8-0.3,1.6,0,2,0.8s0,1.6-0.8,2l0,0l-2.8,1.2c-0.8,0.3-1.6,0-2-0.8
		S1744.6,1215.1,1745.3,1214.8z"/>
	<path class="st3" d="M1754.5,1210.8l2.7-1.2c0.8-0.3,1.7,0,2,0.8c0.3,0.8,0,1.7-0.8,2l0,0l-2.7,1.2c-0.8,0.3-1.7,0-2-0.8
		C1753.4,1212,1753.7,1211.1,1754.5,1210.8z"/>
	<path class="st3" d="M1763.5,1206.6l2.7-1.3c0.8-0.4,1.7,0,2,0.7c0.4,0.8,0,1.7-0.7,2l0,0l-2.7,1.3c-0.8,0.4-1.7,0-2-0.7
		C1762.4,1207.9,1762.7,1207,1763.5,1206.6z"/>
	<path class="st3" d="M1772.5,1202.3l2.7-1.3c0.8-0.4,1.7-0.1,2.1,0.7c0.4,0.8,0.1,1.7-0.7,2.1l0,0l-2.7,1.3
		c-0.8,0.4-1.7,0.1-2.1-0.7C1771.4,1203.6,1771.7,1202.7,1772.5,1202.3z"/>
	<path class="st3" d="M1781.3,1197.7l2.6-1.4c0.8-0.4,1.7-0.1,2.1,0.6c0.4,0.8,0.1,1.7-0.6,2.1l0,0l-2.7,1.4
		c-0.8,0.4-1.7,0.1-2.1-0.7C1780.3,1199.1,1780.6,1198.1,1781.3,1197.7z"/>
	<path class="st3" d="M1790.1,1193l2.6-1.5c0.8-0.4,1.7-0.2,2.2,0.6c0.4,0.8,0.2,1.7-0.6,2.2l0,0l-2.6,1.5c-0.8,0.4-1.7,0.2-2.1-0.6
		C1789.1,1194.4,1789.3,1193.4,1790.1,1193z"/>
	<path class="st3" d="M1798.7,1188l2.6-1.5c0.8-0.5,1.7-0.2,2.2,0.5c0.5,0.8,0.2,1.7-0.6,2.2l0,0l-2.6,1.5c-0.8,0.5-1.7,0.2-2.2-0.6
		C1797.7,1189.4,1798,1188.4,1798.7,1188z"/>
	<path class="st3" d="M1807.2,1182.8l2.5-1.6c0.8-0.5,1.8-0.3,2.2,0.5c0.5,0.8,0.3,1.8-0.5,2.2l0,0l-2.5,1.6
		c-0.8,0.5-1.7,0.3-2.2-0.5C1806.2,1184.3,1806.5,1183.3,1807.2,1182.8z"/>
	<path class="st3" d="M1815.5,1177.4l2.5-1.7c0.7-0.5,1.8-0.3,2.3,0.4s0.3,1.8-0.4,2.3l0,0l-2.5,1.7c-0.7,0.5-1.8,0.3-2.3-0.4
		C1814.6,1178.9,1814.8,1177.9,1815.5,1177.4z"/>
	<path class="st3" d="M1823.7,1171.7l2.4-1.8c0.7-0.5,1.8-0.4,2.3,0.4s0.4,1.8-0.4,2.3l0,0l-2.4,1.8c-0.7,0.5-1.8,0.4-2.3-0.4
		C1822.8,1173.2,1823,1172.2,1823.7,1171.7z"/>
	<path class="st3" d="M1831.7,1165.7l2.4-1.8c0.7-0.6,1.8-0.4,2.3,0.3s0.4,1.8-0.3,2.3l0,0l-2.4,1.8c-0.7,0.6-1.8,0.4-2.3-0.3
		S1831,1166.3,1831.7,1165.7z"/>
	<path class="st3" d="M1839.4,1159.5l2.3-1.9c0.7-0.6,1.8-0.5,2.3,0.2c0.6,0.7,0.5,1.8-0.2,2.3l0,0l-2.3,1.9
		c-0.7,0.6-1.8,0.5-2.3-0.2C1838.6,1161.2,1838.7,1160.1,1839.4,1159.5z"/>
	<path class="st3" d="M1846.9,1153l2.2-2c0.7-0.6,1.7-0.6,2.4,0.1c0.6,0.7,0.6,1.7-0.1,2.4l0,0l-2.2,2c-0.7,0.6-1.7,0.6-2.4-0.1
		C1846.2,1154.7,1846.3,1153.6,1846.9,1153z"/>
	<path class="st3" d="M1854.2,1146.2l2.1-2.1c0.7-0.7,1.7-0.7,2.4,0c0.7,0.7,0.7,1.7,0,2.4l0,0l-2.1,2.1c-0.7,0.7-1.7,0.7-2.4,0
		C1853.5,1147.9,1853.5,1146.8,1854.2,1146.2z"/>
	<path class="st3" d="M1861,1139.1l2-2.2c0.6-0.7,1.7-0.7,2.4-0.1c0.7,0.6,0.7,1.7,0.1,2.4l0,0l-2,2.2c-0.6,0.7-1.7,0.7-2.4,0.1
		C1860.5,1140.8,1860.4,1139.7,1861,1139.1z"/>
	<path class="st3" d="M1867.6,1131.6l1.9-2.3c0.6-0.7,1.6-0.8,2.4-0.2c0.7,0.6,0.8,1.6,0.2,2.4l0,0l-1.9,2.3
		c-0.6,0.7-1.6,0.8-2.4,0.2C1867.1,1133.4,1867,1132.3,1867.6,1131.6z"/>
	<path class="st3" d="M1873.7,1123.8l1.8-2.4c0.5-0.8,1.6-0.9,2.4-0.4c0.8,0.5,0.9,1.6,0.4,2.4l0,0l-1.8,2.4
		c-0.5,0.8-1.6,0.9-2.4,0.4S1873.1,1124.6,1873.7,1123.8z"/>
	<path class="st3" d="M1879.3,1115.7l1.6-2.5c0.5-0.8,1.5-1,2.3-0.5c0.8,0.5,1,1.5,0.5,2.3l0,0l-1.6,2.5c-0.5,0.8-1.5,1-2.3,0.5
		C1879,1117.5,1878.8,1116.4,1879.3,1115.7z"/>
	<path class="st3" d="M1884.4,1107.2l1.4-2.6c0.5-0.8,1.5-1.1,2.3-0.7s1.1,1.5,0.7,2.3l0,0l-1.4,2.6c-0.5,0.8-1.5,1.1-2.3,0.7
		C1884.2,1109,1883.9,1108,1884.4,1107.2z"/>
	<path class="st3" d="M1889,1098.4l1.4-2.7c0.4-0.8,1.5-1.2,2.3-0.8c0.8,0.4,1.2,1.5,0.8,2.3l0,0l-1.4,2.7c-0.4,0.8-1.5,1.2-2.3,0.8
		C1888.9,1100.2,1888.6,1099.2,1889,1098.4z"/>
	<path class="st3" d="M1893.4,1089.5l1.3-2.7c0.4-0.9,1.4-1.2,2.3-0.8c0.9,0.4,1.2,1.4,0.8,2.3l0,0l-1.3,2.7
		c-0.4,0.9-1.4,1.2-2.3,0.8C1893.4,1091.3,1893,1090.3,1893.4,1089.5z"/>
	<path class="st3" d="M1897.5,1080.4l1.2-2.8c0.4-0.9,1.4-1.3,2.3-0.9c0.9,0.4,1.3,1.4,0.9,2.3l0,0l-1.2,2.8
		c-0.4,0.9-1.4,1.3-2.3,0.9C1897.5,1082.3,1897.1,1081.3,1897.5,1080.4z"/>
	<path class="st3" d="M1901.3,1071.2l1.1-2.8c0.3-0.9,1.3-1.3,2.2-1s1.3,1.3,1,2.2l0,0l-1.1,2.8c-0.3,0.9-1.3,1.3-2.2,1
		C1901.4,1073.1,1901,1072.1,1901.3,1071.2z"/>
	<path class="st3" d="M1904.8,1061.9l1-2.8c0.3-0.9,1.3-1.4,2.2-1.1c0.9,0.3,1.4,1.3,1.1,2.2l0,0l-1,2.8c-0.3,0.9-1.3,1.4-2.2,1.1
		S1904.5,1062.8,1904.8,1061.9z"/>
	<path class="st3" d="M1908,1052.5l0.9-2.9c0.3-0.9,1.3-1.4,2.2-1.1c0.9,0.3,1.4,1.3,1.1,2.2l0,0l-0.9,2.9c-0.3,0.9-1.3,1.4-2.2,1.1
		C1908.2,1054.4,1907.7,1053.4,1908,1052.5z"/>
	<path class="st3" d="M1910.9,1043l0.8-2.9c0.3-0.9,1.2-1.5,2.1-1.2c0.9,0.3,1.5,1.2,1.2,2.1l0,0l-0.8,2.9c-0.3,0.9-1.2,1.5-2.1,1.2
		C1911.2,1044.9,1910.7,1043.9,1910.9,1043z"/>
	<path class="st3" d="M1913.5,1033.4l0.7-2.9c0.2-0.9,1.2-1.5,2.1-1.3c0.9,0.2,1.5,1.2,1.3,2.1l0,0l-0.7,2.9
		c-0.2,0.9-1.2,1.5-2.1,1.3C1913.9,1035.3,1913.3,1034.3,1913.5,1033.4z"/>
	<path class="st3" d="M1915.8,1023.7l0.6-2.9c0.2-0.9,1.1-1.5,2.1-1.3s1.5,1.1,1.3,2.1l0,0l-0.6,2.9c-0.2,0.9-1.1,1.5-2.1,1.3
		C1916.2,1025.6,1915.6,1024.6,1915.8,1023.7z"/>
	<path class="st3" d="M1917.8,1014l0.5-3c0.2-1,1.1-1.6,2-1.4c1,0.2,1.6,1.1,1.4,2l0,0l-0.5,3c-0.2,1-1.1,1.6-2,1.4
		C1918.3,1015.8,1917.6,1014.9,1917.8,1014z"/>
	<path class="st3" d="M1919.5,1004.2l0.4-3c0.1-1,1-1.6,2-1.5c1,0.1,1.6,1,1.5,2l0,0l-0.5,3c-0.1,1-1,1.6-2,1.5
		S1919.4,1005.1,1919.5,1004.2z"/>
	<path class="st3" d="M1920.9,994.3l0.4-3c0.1-1,1-1.7,2-1.5c1,0.1,1.7,1,1.5,2l0,0l-0.4,3c-0.1,1-1,1.7-2,1.5
		C1921.5,996.2,1920.8,995.3,1920.9,994.3z"/>
	<path class="st3" d="M1922,984.4l0.3-3c0.1-1,0.9-1.7,1.9-1.6c1,0.1,1.7,0.9,1.6,1.9v0l-0.3,3c-0.1,1-0.9,1.7-1.9,1.6
		C1922.6,986.3,1921.9,985.4,1922,984.4z"/>
	<path class="st3" d="M1922.7,974.5l0.2-3c0.1-1,0.9-1.7,1.9-1.7c1,0.1,1.7,0.9,1.7,1.9l0,0l-0.2,3c-0.1,1-0.9,1.7-1.9,1.7
		C1923.4,976.3,1922.7,975.5,1922.7,974.5z"/>
	<path class="st3" d="M1923.2,964.6l0.1-3c0-1,0.8-1.8,1.8-1.7c1,0,1.8,0.8,1.7,1.8v0l-0.1,3c0,1-0.8,1.8-1.8,1.7
		C1923.9,966.4,1923.2,965.6,1923.2,964.6z"/>
	<path class="st3" d="M1923.3,954.6l0-3c0-1,0.8-1.8,1.8-1.8c1,0,1.8,0.8,1.8,1.8v0l0,3c0,1-0.8,1.8-1.8,1.8
		C1924.1,956.4,1923.3,955.6,1923.3,954.6z"/>
	<path class="st3" d="M1923.1,944.7l-0.1-3c0-1,0.7-1.8,1.7-1.9c1,0,1.8,0.7,1.9,1.7l0,0l0.1,3c0,1-0.7,1.8-1.7,1.9
		C1924,946.4,1923.2,945.7,1923.1,944.7z"/>
	<path class="st3" d="M1922.6,934.8l-0.2-3c-0.1-1,0.7-1.9,1.7-1.9c1-0.1,1.9,0.7,1.9,1.7v0l0.2,3c0.1,1-0.7,1.9-1.7,1.9
		C1923.6,936.5,1922.7,935.7,1922.6,934.8z"/>
	<path class="st3" d="M1921.8,924.8l-0.3-3c-0.1-1,0.6-1.9,1.6-2s1.9,0.6,2,1.6l0,0l0.3,3c0.1,1-0.6,1.9-1.6,2
		C1922.8,926.6,1921.9,925.8,1921.8,924.8z"/>
	<path class="st3" d="M1920.7,915l-0.4-3c-0.1-1,0.6-1.9,1.6-2c1-0.1,1.9,0.6,2,1.6l0,0l0.4,3c0.1,1-0.6,1.9-1.6,2
		C1921.7,916.7,1920.8,916,1920.7,915z"/>
	<path class="st3" d="M1919.2,905.1l-0.5-3c-0.2-1,0.5-1.9,1.5-2.1c1-0.2,1.9,0.5,2.1,1.5l0,0l0.5,3c0.2,1-0.5,1.9-1.5,2.1
		C1920.3,906.8,1919.4,906.1,1919.2,905.1z"/>
	<path class="st3" d="M1917.5,895.4l-0.6-2.9c-0.2-1,0.4-2,1.4-2.2c1-0.2,2,0.4,2.2,1.4l0,0l0.6,2.9c0.2,1-0.4,1.9-1.4,2.1
		C1918.6,897,1917.7,896.3,1917.5,895.4z"/>
	<path class="st3" d="M1915.3,885.7l-0.7-2.9c-0.2-1,0.4-2,1.3-2.2c1-0.2,2,0.4,2.2,1.3l0,0l0.7,2.9c0.2,1-0.4,2-1.4,2.2
		C1916.6,887.2,1915.6,886.6,1915.3,885.7z"/>
	<path class="st3" d="M1912.9,876l-0.8-2.9c-0.3-1,0.3-2,1.3-2.3c1-0.3,2,0.3,2.3,1.3l0,0l0.8,2.9c0.3,1-0.3,2-1.3,2.3
		C1914.2,877.6,1913.2,877,1912.9,876z"/>
	<path class="st3" d="M1910.1,866.5l-0.9-2.9c-0.3-1,0.2-2,1.2-2.3c1-0.3,2,0.2,2.3,1.2l0,0l0.9,2.9c0.3,1-0.2,2-1.2,2.3
		S1910.4,867.4,1910.1,866.5z"/>
	<path class="st3" d="M1907,857l-1-2.8c-0.3-1,0.2-2,1.1-2.4c1-0.3,2,0.2,2.4,1.1l0,0l1,2.8c0.3,1-0.2,2-1.1,2.4
		C1908.4,858.5,1907.4,858,1907,857z"/>
	<path class="st3" d="M1903.6,847.7l-1.1-2.8c-0.4-1,0.1-2,1-2.4c1-0.4,2,0.1,2.4,1l0,0l1.1,2.8c0.4,1-0.1,2-1,2.4
		S1904,848.7,1903.6,847.7z"/>
	<path class="st3" d="M1899.8,838.5l-1.2-2.7c-0.4-0.9,0-2,1-2.4c0.9-0.4,2,0,2.4,1l0,0l1.2,2.7c0.4,0.9,0,2-1,2.4
		C1901.3,839.9,1900.2,839.5,1899.8,838.5z"/>
	<path class="st3" d="M1895.7,829.5l-1.3-2.7c-0.5-0.9-0.1-2,0.9-2.5c0.9-0.5,2-0.1,2.5,0.9l0,0l1.3,2.7c0.4,0.9,0.1,2-0.9,2.5
		C1897.3,830.8,1896.2,830.4,1895.7,829.5z"/>
	<path class="st3" d="M1891.2,820.7l-1.4-2.6c-0.5-0.9-0.2-2,0.8-2.5c0.9-0.5,2-0.2,2.5,0.8l0,0l1.4,2.6c0.5,0.9,0.2,2-0.8,2.5
		C1892.8,821.9,1891.7,821.6,1891.2,820.7z"/>
	<path class="st3" d="M1886.4,812l-1.5-2.6c-0.5-0.9-0.2-2,0.6-2.6c0.9-0.5,2-0.2,2.6,0.6l1.5,2.6c0.5,0.9,0.2,2-0.6,2.6
		S1886.9,812.9,1886.4,812L1886.4,812z"/>
	<path class="st3" d="M1881.2,803.6l-1.7-2.5c-0.6-0.9-0.3-2,0.5-2.6c0.9-0.6,2-0.3,2.6,0.5l1.7,2.5c0.6,0.9,0.3,2-0.5,2.6
		C1882.9,804.7,1881.7,804.4,1881.2,803.6L1881.2,803.6z"/>
	<path class="st3" d="M1875.6,795.4l-1.8-2.4c-0.6-0.8-0.4-2,0.4-2.6s2-0.4,2.6,0.4l1.8,2.4c0.6,0.8,0.4,2-0.4,2.6
		C1877.3,796.4,1876.2,796.2,1875.6,795.4L1875.6,795.4z"/>
	<path class="st3" d="M1869.6,787.4l-1.9-2.3c-0.6-0.8-0.5-2,0.3-2.6c0.8-0.6,2-0.5,2.6,0.3l1.9,2.3c0.6,0.8,0.5,2-0.3,2.6
		C1871.4,788.4,1870.3,788.2,1869.6,787.4L1869.6,787.4z"/>
	<path class="st3" d="M1863.3,779.8l-2-2.3c-0.7-0.8-0.6-1.9,0.2-2.6s1.9-0.6,2.6,0.2l2,2.3c0.7,0.8,0.6,1.9-0.2,2.6
		C1865.2,780.6,1864,780.6,1863.3,779.8L1863.3,779.8z"/>
	<path class="st3" d="M1856.7,772.4l-2.1-2.2c-0.7-0.7-0.7-1.9,0.1-2.6c0.7-0.7,1.9-0.7,2.6,0.1l2.1,2.2c0.7,0.7,0.7,1.9-0.1,2.6
		C1858.6,773.2,1857.4,773.2,1856.7,772.4L1856.7,772.4z"/>
	<path class="st3" d="M1849.7,765.4l-2.2-2.1c-0.7-0.7-0.8-1.9-0.1-2.6c0.7-0.7,1.9-0.8,2.6-0.1l2.2,2.1c0.7,0.7,0.8,1.9,0.1,2.6
		C1851.6,766.1,1850.4,766.1,1849.7,765.4L1849.7,765.4z"/>
	<path class="st3" d="M1842.4,758.7l-2.3-2c-0.8-0.7-0.8-1.8-0.2-2.6c0.7-0.8,1.8-0.9,2.6-0.2l2.3,2c0.8,0.7,0.9,1.8,0.2,2.6
		S1843.2,759.3,1842.4,758.7L1842.4,758.7z"/>
	<path class="st3" d="M1834.8,752.3l-2.4-1.9c-0.8-0.6-0.9-1.8-0.3-2.6c0.6-0.8,1.8-0.9,2.6-0.3l2.4,1.9c0.8,0.6,0.9,1.8,0.3,2.6
		C1836.8,752.8,1835.6,752.9,1834.8,752.3L1834.8,752.3z"/>
	<path class="st3" d="M1826.9,746.3l-2.4-1.8c-0.8-0.6-1-1.7-0.4-2.6s1.7-1,2.6-0.4l2.4,1.8c0.8,0.6,1,1.7,0.4,2.6
		C1828.9,746.7,1827.8,746.9,1826.9,746.3L1826.9,746.3z"/>
	<path class="st3" d="M1818.8,740.6l-2.5-1.6c-0.8-0.6-1.1-1.7-0.5-2.5c0.6-0.8,1.7-1.1,2.5-0.5l2.5,1.6c0.8,0.6,1.1,1.7,0.5,2.5
		C1820.8,740.9,1819.6,741.1,1818.8,740.6L1818.8,740.6z"/>
	<path class="st3" d="M1810.4,735.2l-2.6-1.5c-0.9-0.5-1.1-1.6-0.6-2.5c0.5-0.9,1.6-1.1,2.5-0.6l2.6,1.5c0.9,0.5,1.1,1.6,0.6,2.5
		C1812.4,735.5,1811.3,735.8,1810.4,735.2L1810.4,735.2z"/>
	<path class="st3" d="M1801.8,730.3l-2.6-1.4c-0.9-0.5-1.2-1.6-0.7-2.5c0.5-0.9,1.6-1.2,2.5-0.7l2.6,1.4c0.9,0.5,1.2,1.6,0.7,2.5
		C1803.8,730.4,1802.7,730.8,1801.8,730.3L1801.8,730.3z"/>
	<path class="st3" d="M1793.1,725.6l-2.7-1.3c-0.9-0.4-1.3-1.5-0.8-2.4s1.5-1.3,2.4-0.8l2.7,1.3c0.9,0.4,1.3,1.5,0.8,2.4
		C1795,725.7,1794,726.1,1793.1,725.6L1793.1,725.6z"/>
	<path class="st3" d="M1784.1,721.4l-2.7-1.2c-0.9-0.4-1.3-1.5-0.9-2.4c0.4-0.9,1.5-1.3,2.4-0.9l2.7,1.2c0.9,0.4,1.3,1.5,0.9,2.4
		C1786.1,721.4,1785,721.8,1784.1,721.4L1784.1,721.4z"/>
	<path class="st3" d="M1775,717.4l-2.8-1.1c-0.9-0.4-1.4-1.4-1-2.3c0.4-0.9,1.4-1.4,2.3-1l2.8,1.1c0.9,0.4,1.4,1.4,1,2.3
		C1777,717.4,1775.9,717.8,1775,717.4L1775,717.4z"/>
	<path class="st3" d="M1765.7,713.8l-2.8-1c-0.9-0.3-1.4-1.4-1.1-2.3c0.3-0.9,1.4-1.4,2.3-1.1l2.8,1c0.9,0.3,1.4,1.4,1.1,2.3
		C1767.7,713.7,1766.7,714.2,1765.7,713.8L1765.7,713.8z"/>
	<path class="st3" d="M1756.3,710.6l-2.9-0.9c-0.9-0.3-1.5-1.3-1.2-2.3c0.3-0.9,1.3-1.5,2.3-1.2l2.9,0.9c0.9,0.3,1.5,1.3,1.2,2.3
		C1758.3,710.3,1757.3,710.9,1756.3,710.6L1756.3,710.6z"/>
	<path class="st3" d="M1746.8,707.6l-2.9-0.8c-1-0.3-1.5-1.3-1.2-2.2c0.3-1,1.3-1.5,2.2-1.2l2.9,0.8c1,0.3,1.5,1.3,1.2,2.2
		C1748.8,707.3,1747.8,707.9,1746.8,707.6L1746.8,707.6z"/>
	<path class="st3" d="M1737.3,705l-2.9-0.7c-1-0.2-1.5-1.2-1.3-2.2c0.2-1,1.2-1.5,2.2-1.3l2.9,0.7c1,0.2,1.5,1.2,1.3,2.2
		C1739.2,704.6,1738.2,705.2,1737.3,705L1737.3,705z"/>
	<path class="st3" d="M1727.6,702.6l-2.9-0.6c-1-0.2-1.6-1.2-1.4-2.1c0.2-1,1.2-1.6,2.1-1.4l2.9,0.6c1,0.2,1.6,1.2,1.4,2.1
		C1729.5,702.2,1728.6,702.8,1727.6,702.6L1727.6,702.6z"/>
	<path class="st3" d="M1717.9,700.6l-2.9-0.6c-1-0.2-1.6-1.1-1.4-2.1c0.2-1,1.1-1.6,2.1-1.4l2.9,0.6c1,0.2,1.6,1.1,1.4,2.1
		C1719.8,700.1,1718.8,700.8,1717.9,700.6L1717.9,700.6z"/>
	<path class="st3" d="M1708.1,698.8l-3-0.5c-1-0.2-1.6-1.1-1.5-2c0.2-1,1.1-1.6,2-1.5l3,0.5c1,0.2,1.6,1.1,1.5,2
		C1709.9,698.3,1709,699,1708.1,698.8L1708.1,698.8z"/>
	<path class="st3" d="M1698.2,697.4l-3-0.4c-1-0.1-1.7-1-1.5-2c0.1-1,1-1.7,2-1.5l3,0.4c1,0.1,1.7,1,1.5,2
		C1700.1,696.8,1699.2,697.5,1698.2,697.4L1698.2,697.4z"/>
	<path class="st3" d="M1688.3,696.2l-3-0.3c-1-0.1-1.7-1-1.6-1.9c0.1-1,1-1.7,1.9-1.6l3,0.3c1,0.1,1.7,1,1.6,1.9
		C1690.2,695.6,1689.3,696.3,1688.3,696.2L1688.3,696.2z"/>
	<path class="st3" d="M1678.4,695.3l-3-0.2c-1-0.1-1.7-0.9-1.6-1.9c0.1-1,0.9-1.7,1.9-1.6l3,0.2c1,0.1,1.7,0.9,1.6,1.9
		C1680.3,694.6,1679.4,695.4,1678.4,695.3L1678.4,695.3z"/>
	<path class="st3" d="M1668.5,694.7l-3-0.1c-1,0-1.7-0.9-1.7-1.8c0-1,0.9-1.7,1.8-1.7l3,0.1c1,0,1.7,0.9,1.7,1.8
		C1670.3,693.9,1669.5,694.7,1668.5,694.7L1668.5,694.7z"/>
	<path class="st3" d="M1658.6,694.3l-3-0.1c-1,0-1.7-0.8-1.7-1.8c0-1,0.8-1.7,1.8-1.7l3,0c1,0,1.7,0.8,1.7,1.8
		C1660.3,693.5,1659.5,694.3,1658.6,694.3L1658.6,694.3z"/>
	<path class="st3" d="M1648.6,694.2l-3,0c-1,0-1.8-0.8-1.8-1.7c0-1,0.8-1.8,1.7-1.8l3,0c1,0,1.8,0.8,1.8,1.7
		C1650.4,693.4,1649.6,694.2,1648.6,694.2L1648.6,694.2z"/>
	<path class="st3" d="M1638.7,694.5l-3,0.1c-1,0-1.8-0.7-1.8-1.7c0-1,0.7-1.8,1.7-1.8l3-0.1c1,0,1.8,0.7,1.8,1.7
		C1640.4,693.6,1639.6,694.4,1638.7,694.5L1638.7,694.5z"/>
	<path class="st3" d="M1628.7,695l-3,0.2c-1,0.1-1.8-0.6-1.9-1.6c-0.1-1,0.6-1.8,1.6-1.9l3-0.2c1-0.1,1.8,0.6,1.9,1.6
		C1630.4,694.1,1629.7,694.9,1628.7,695L1628.7,695z"/>
	<path class="st3" d="M1618.9,695.9l-3,0.4c-1,0.1-1.8-0.6-1.9-1.5c-0.1-1,0.6-1.8,1.5-1.9l3-0.4c1-0.1,1.8,0.6,1.9,1.5
		C1620.5,695,1619.8,695.8,1618.9,695.9L1618.9,695.9z"/>
	<path class="st3" d="M1609.1,697.4l-3,0.5c-0.9,0.2-1.8-0.5-2-1.4c-0.2-0.9,0.5-1.8,1.4-2l3-0.5c0.9-0.2,1.8,0.5,2,1.4
		C1610.6,696.3,1610,697.2,1609.1,697.4L1609.1,697.4z"/>
	<path class="st3" d="M1599.3,699.2l-2.9,0.6c-0.9,0.2-1.8-0.4-2-1.4c-0.2-0.9,0.4-1.8,1.4-2l2.9-0.6c0.9-0.2,1.8,0.4,2,1.4
		C1600.8,698.1,1600.2,699,1599.3,699.2L1599.3,699.2z"/>
	<path class="st3" d="M1589.5,701.2l-2.9,0.7c-0.9,0.2-1.9-0.4-2.1-1.3c-0.2-0.9,0.4-1.9,1.3-2.1l2.9-0.7c0.9-0.2,1.9,0.4,2.1,1.3
		S1590.4,701,1589.5,701.2L1589.5,701.2z"/>
	<path class="st3" d="M1579.8,703.5l-2.9,0.7c-0.9,0.2-1.9-0.3-2.1-1.3c-0.2-0.9,0.3-1.9,1.3-2.1l2.9-0.7c0.9-0.2,1.9,0.3,2.1,1.3
		C1581.3,702.3,1580.7,703.2,1579.8,703.5L1579.8,703.5z"/>
	<path class="st3" d="M1570.1,705.9l-2.9,0.8c-0.9,0.2-1.9-0.3-2.1-1.2c-0.2-0.9,0.3-1.9,1.2-2.1l2.9-0.8c0.9-0.2,1.9,0.3,2.1,1.2
		C1571.6,704.7,1571.1,705.6,1570.1,705.9L1570.1,705.9z"/>
	<path class="st3" d="M1560.5,708.5l-2.9,0.8c-0.9,0.3-1.9-0.3-2.1-1.2c-0.3-0.9,0.3-1.9,1.2-2.1l2.9-0.8c0.9-0.3,1.9,0.3,2.1,1.2
		C1561.9,707.3,1561.4,708.2,1560.5,708.5L1560.5,708.5z"/>
	<path class="st3" d="M1550.9,711.2l-2.9,0.8c-0.9,0.3-1.9-0.3-2.1-1.2c-0.3-0.9,0.3-1.9,1.2-2.1l2.9-0.8c0.9-0.3,1.9,0.3,2.1,1.2
		C1552.3,710,1551.8,710.9,1550.9,711.2L1550.9,711.2z"/>
	<path class="st3" d="M1541.3,714l-2.9,0.9c-0.9,0.3-1.8-0.2-2.1-1.1c-0.3-0.9,0.2-1.8,1.1-2.1l2.9-0.9c0.9-0.3,1.9,0.2,2.1,1.1
		C1542.7,712.8,1542.2,713.8,1541.3,714L1541.3,714z"/>
	<path class="st3" d="M1531.8,717l-2.9,0.9c-0.9,0.3-1.8-0.2-2.1-1.1c-0.3-0.9,0.2-1.8,1.1-2.1l2.9-0.9c0.9-0.3,1.8,0.2,2.1,1.1
		C1533.2,715.7,1532.7,716.7,1531.8,717L1531.8,717z"/>
	<path class="st3" d="M1522.3,720l-2.9,0.9c-0.9,0.3-1.8-0.2-2.1-1.1c-0.3-0.9,0.2-1.8,1.1-2.1l2.9-0.9c0.9-0.3,1.8,0.2,2.1,1.1
		S1523.2,719.7,1522.3,720L1522.3,720z"/>
	<path class="st3" d="M1512.7,723l-2.9,0.9c-0.9,0.3-1.8-0.2-2.1-1.1c-0.3-0.9,0.2-1.8,1.1-2.1l2.9-0.9c0.9-0.3,1.8,0.2,2.1,1.1
		C1514.1,721.8,1513.6,722.7,1512.7,723L1512.7,723z"/>
	<path class="st3" d="M1503.2,726.1l-2.9,0.9c-0.9,0.3-1.8-0.2-2.1-1.1c-0.3-0.9,0.2-1.8,1.1-2.1l2.9-0.9c0.9-0.3,1.8,0.2,2.1,1.1
		C1504.6,724.9,1504.1,725.8,1503.2,726.1L1503.2,726.1z"/>
	<path class="st3" d="M1493.7,729.2l-2.9,0.9c-0.9,0.3-1.8-0.2-2.1-1.1c-0.3-0.9,0.2-1.8,1.1-2.1l2.9-0.9c0.9-0.3,1.8,0.2,2.1,1.1
		C1495.1,728,1494.6,728.9,1493.7,729.2L1493.7,729.2z"/>
	<path class="st3" d="M1484.2,732.3l-2.9,0.9c-0.9,0.3-1.8-0.2-2.1-1.1c-0.3-0.9,0.2-1.8,1.1-2.1l2.9-0.9c0.9-0.3,1.8,0.2,2.1,1.1
		C1485.6,731,1485.1,732,1484.2,732.3L1484.2,732.3z"/>
	<path class="st3" d="M1474.7,735.3l-2.9,0.9c-0.9,0.3-1.8-0.2-2.1-1.1c-0.3-0.9,0.2-1.8,1.1-2.1l2.9-0.9c0.9-0.3,1.8,0.2,2.1,1.1
		C1476,734.1,1475.5,735,1474.7,735.3L1474.7,735.3z"/>
	<path class="st3" d="M1465.1,738.3l-2.9,0.9c-0.9,0.3-1.8-0.2-2.1-1.1c-0.3-0.9,0.2-1.8,1.1-2.1l2.9-0.9c0.9-0.3,1.8,0.2,2.1,1.1
		C1466.5,737.1,1466,738,1465.1,738.3L1465.1,738.3z"/>
	<path class="st3" d="M1455.5,741.2l-2.9,0.9c-0.9,0.3-1.8-0.2-2.1-1.1s0.2-1.8,1.1-2.1l2.9-0.9c0.9-0.3,1.8,0.2,2.1,1.1
		C1456.9,740,1456.4,740.9,1455.5,741.2L1455.5,741.2z"/>
	<path class="st3" d="M1445.9,744l-2.9,0.8c-0.9,0.3-1.8-0.3-2-1.1c-0.3-0.9,0.3-1.8,1.1-2l2.9-0.8c0.9-0.3,1.8,0.3,2.1,1.1
		C1447.3,742.8,1446.8,743.7,1445.9,744L1445.9,744z"/>
	<path class="st3" d="M1436.3,746.7l-2.9,0.8c-0.9,0.2-1.8-0.3-2-1.2c-0.2-0.9,0.3-1.8,1.2-2l2.9-0.8c0.9-0.2,1.8,0.3,2,1.2
		C1437.7,745.6,1437.1,746.5,1436.3,746.7L1436.3,746.7z"/>
	<path class="st3" d="M1426.6,749.3l-2.9,0.8c-0.9,0.2-1.8-0.3-2-1.2c-0.2-0.9,0.3-1.8,1.2-2l2.9-0.8c0.9-0.2,1.8,0.3,2,1.2
		C1428,748.2,1427.5,749.1,1426.6,749.3L1426.6,749.3z"/>
	<path class="st3" d="M1416.9,751.8l-2.9,0.7c-0.9,0.2-1.7-0.3-2-1.2c-0.2-0.9,0.3-1.7,1.2-2l2.9-0.7c0.9-0.2,1.8,0.3,2,1.2
		C1418.3,750.7,1417.8,751.6,1416.9,751.8L1416.9,751.8z"/>
	<path class="st3" d="M1407.1,754.2l-2.9,0.7c-0.9,0.2-1.7-0.3-1.9-1.2c-0.2-0.9,0.3-1.7,1.2-1.9l2.9-0.7c0.9-0.2,1.7,0.3,1.9,1.2
		C1408.5,753.1,1408,754,1407.1,754.2L1407.1,754.2z"/>
	<path class="st3" d="M1397.4,756.4l-2.9,0.6c-0.9,0.2-1.7-0.4-1.9-1.2c-0.2-0.9,0.4-1.7,1.2-1.9l2.9-0.6c0.9-0.2,1.7,0.4,1.9,1.2
		C1398.8,755.3,1398.2,756.2,1397.4,756.4L1397.4,756.4z"/>
	<path class="st3" d="M1387.6,758.5l-2.9,0.6c-0.9,0.2-1.7-0.4-1.9-1.2c-0.2-0.9,0.4-1.7,1.2-1.9l2.9-0.6c0.9-0.2,1.7,0.4,1.9,1.2
		C1389,757.5,1388.4,758.3,1387.6,758.5L1387.6,758.5z"/>
	<path class="st3" d="M1377.7,760.4l-2.9,0.5c-0.9,0.2-1.7-0.4-1.8-1.3c-0.2-0.9,0.4-1.7,1.3-1.8l2.9-0.6c0.9-0.2,1.7,0.4,1.8,1.3
		C1379.1,759.4,1378.6,760.2,1377.7,760.4L1377.7,760.4z"/>
	<path class="st3" d="M1367.8,762.2l-3,0.5c-0.8,0.1-1.6-0.4-1.8-1.3c-0.1-0.8,0.4-1.6,1.3-1.8l3-0.5c0.8-0.1,1.7,0.4,1.8,1.3
		C1369.3,761.2,1368.7,762,1367.8,762.2L1367.8,762.2z"/>
	<path class="st3" d="M1357.9,763.7l-3,0.4c-0.8,0.1-1.6-0.5-1.7-1.3c-0.1-0.8,0.5-1.6,1.3-1.7l3-0.4c0.8-0.1,1.6,0.5,1.8,1.3
		C1359.4,762.8,1358.8,763.6,1357.9,763.7L1357.9,763.7z"/>
	<path class="st3" d="M1348,765.1l-3,0.4c-0.8,0.1-1.6-0.5-1.7-1.3c-0.1-0.8,0.5-1.6,1.3-1.7l3-0.4c0.8-0.1,1.6,0.5,1.7,1.3
		C1349.4,764.3,1348.9,765,1348,765.1L1348,765.1z"/>
	<path class="st3" d="M1338.1,766.3l-3,0.3c-0.8,0.1-1.6-0.5-1.7-1.3c-0.1-0.8,0.5-1.6,1.3-1.7l3-0.3c0.8-0.1,1.6,0.5,1.7,1.3
		C1339.5,765.5,1338.9,766.2,1338.1,766.3L1338.1,766.3z"/>
	<path class="st3" d="M1328.1,767.3l-3,0.3c-0.8,0.1-1.6-0.5-1.6-1.4c-0.1-0.8,0.5-1.5,1.4-1.6l3-0.3c0.8-0.1,1.6,0.5,1.6,1.4
		C1329.5,766.5,1328.9,767.2,1328.1,767.3L1328.1,767.3z"/>
	<path class="st3" d="M1318.1,768.1l-3,0.2c-0.8,0-1.5-0.6-1.6-1.4c0-0.8,0.6-1.5,1.4-1.6l3-0.2c0.8-0.1,1.5,0.6,1.6,1.4
		C1319.5,767.3,1318.9,768,1318.1,768.1L1318.1,768.1z"/>
	<path class="st3" d="M1308,768.6l-3,0.1c-0.8,0-1.5-0.6-1.5-1.4c0-0.8,0.6-1.5,1.4-1.5l3-0.1c0.8,0,1.5,0.6,1.5,1.4
		C1309.5,767.9,1308.9,768.6,1308,768.6L1308,768.6z"/>
	<path class="st3" d="M1298,768.9l-3,0c-0.8,0-1.5-0.6-1.5-1.4c0-0.8,0.6-1.5,1.4-1.5l3,0c0.8,0,1.5,0.6,1.5,1.4
		S1298.8,768.9,1298,768.9L1298,768.9z"/>
	<path class="st3" d="M1288,768.9l-3,0c-0.8,0-1.4-0.7-1.4-1.5c0-0.8,0.7-1.4,1.5-1.4l3,0c0.8,0,1.4,0.7,1.4,1.5
		C1289.4,768.3,1288.8,768.9,1288,768.9L1288,768.9z"/>
	<path class="st3" d="M1277.9,768.6l-3-0.1c-0.8,0-1.4-0.7-1.4-1.5c0-0.8,0.7-1.4,1.5-1.4l3,0.1c0.8,0,1.4,0.7,1.4,1.5
		C1279.4,768,1278.7,768.7,1277.9,768.6L1277.9,768.6z"/>
	<path class="st3" d="M1267.9,768.1l-3-0.2c-0.8-0.1-1.4-0.7-1.3-1.5c0.1-0.8,0.7-1.4,1.5-1.3l3,0.2c0.8,0.1,1.4,0.7,1.3,1.5
		C1269.4,767.6,1268.7,768.1,1267.9,768.1L1267.9,768.1z"/>
	<path class="st3" d="M1257.9,767.3l-3-0.3c-0.8-0.1-1.3-0.8-1.3-1.5c0.1-0.8,0.8-1.3,1.5-1.3l3,0.3c0.8,0.1,1.3,0.8,1.3,1.5
		C1259.4,766.8,1258.7,767.3,1257.9,767.3L1257.9,767.3z"/>
	<path class="st3" d="M1247.9,766.1l-3-0.4c-0.8-0.1-1.3-0.8-1.2-1.6c0.1-0.8,0.8-1.3,1.6-1.2l3,0.4c0.8,0.1,1.3,0.8,1.2,1.6
		C1249.4,765.7,1248.7,766.2,1247.9,766.1L1247.9,766.1z"/>
	<path class="st3" d="M1238,764.6l-3-0.5c-0.7-0.1-1.3-0.8-1.1-1.6c0.1-0.7,0.8-1.3,1.6-1.1l3,0.5c0.8,0.1,1.3,0.8,1.1,1.6
		C1239.4,764.3,1238.7,764.8,1238,764.6L1238,764.6z"/>
	<path class="st3" d="M1228.1,762.7l-2.9-0.7c-0.7-0.2-1.2-0.9-1-1.6c0.2-0.7,0.9-1.2,1.6-1l2.9,0.7c0.7,0.2,1.2,0.9,1,1.6
		C1229.6,762.4,1228.8,762.9,1228.1,762.7L1228.1,762.7z"/>
	<path class="st3" d="M1218.3,760.3l-2.9-0.8c-0.7-0.2-1.1-1-0.9-1.7c0.2-0.7,0.9-1.1,1.7-0.9l2.9,0.8c0.7,0.2,1.1,1,0.9,1.7
		S1219,760.5,1218.3,760.3L1218.3,760.3z"/>
	<path class="st3" d="M1208.7,757.4l-2.8-1c-0.7-0.2-1.1-1-0.8-1.7c0.2-0.7,1-1.1,1.7-0.8l2.8,1c0.7,0.2,1.1,1,0.8,1.7
		C1210.1,757.3,1209.4,757.6,1208.7,757.4L1208.7,757.4z"/>
	<path class="st3" d="M1199.2,753.8l-2.7-1.2c-0.7-0.3-1-1.1-0.7-1.7c0.3-0.7,1.1-1,1.7-0.7l2.8,1.2c0.7,0.3,1,1.1,0.7,1.7
		C1200.7,753.8,1199.9,754.1,1199.2,753.8L1199.2,753.8z"/>
	<path class="st3" d="M1190.1,749.5l-2.6-1.4c-0.6-0.3-0.9-1.1-0.5-1.8c0.3-0.6,1.1-0.9,1.8-0.5l2.6,1.4c0.6,0.3,0.9,1.1,0.5,1.8
		C1191.5,749.6,1190.7,749.8,1190.1,749.5L1190.1,749.5z"/>
	<path class="st3" d="M1181.3,744.4l-2.5-1.7c-0.6-0.4-0.8-1.2-0.4-1.8c0.4-0.6,1.2-0.8,1.8-0.4l2.5,1.7c0.6,0.4,0.8,1.2,0.4,1.8
		S1181.9,744.8,1181.3,744.4L1181.3,744.4z"/>
	<path class="st3" d="M1173.1,738.5l-2.3-1.9c-0.5-0.4-0.6-1.3-0.2-1.8c0.4-0.5,1.3-0.6,1.8-0.2l2.3,1.9c0.6,0.4,0.6,1.3,0.2,1.8
		S1173.7,739,1173.1,738.5L1173.1,738.5z"/>
	<path class="st3" d="M1165.5,731.8l-2.1-2.1c-0.5-0.5-0.5-1.3,0-1.8c0.5-0.5,1.3-0.5,1.8,0l2.1,2.1c0.5,0.5,0.5,1.3,0,1.8
		C1166.8,732.3,1166,732.3,1165.5,731.8L1165.5,731.8z"/>
	<path class="st3" d="M1158.6,724.4l-1.9-2.3c-0.4-0.5-0.3-1.3,0.2-1.8s1.3-0.4,1.8,0.2l1.9,2.3c0.4,0.5,0.4,1.3-0.2,1.8
		C1159.8,725,1159,725,1158.6,724.4L1158.6,724.4z"/>
	<path class="st3" d="M1152.6,716.3l-1.6-2.5c-0.4-0.6-0.2-1.4,0.4-1.7c0.6-0.4,1.3-0.2,1.7,0.4l1.6,2.5c0.4,0.6,0.2,1.4-0.4,1.7
		S1152.9,716.8,1152.6,716.3L1152.6,716.3z"/>
	<path class="st3" d="M1147.6,707.4l-1.3-2.7c-0.3-0.6,0-1.3,0.6-1.6c0.6-0.3,1.3,0,1.6,0.6l1.3,2.7c0.3,0.6,0,1.4-0.6,1.6
		C1148.6,708.3,1147.9,708,1147.6,707.4L1147.6,707.4z"/>
	<path class="st3" d="M1143.8,698l-0.9-2.9c-0.2-0.6,0.2-1.3,0.8-1.5c0.6-0.2,1.3,0.2,1.5,0.8l0.9,2.9c0.2,0.6-0.2,1.3-0.8,1.5
		C1144.7,699,1144,698.6,1143.8,698L1143.8,698z"/>
	<path class="st3" d="M1141.4,688.1l-0.4-3c-0.1-0.7,0.4-1.3,1-1.4c0.7-0.1,1.3,0.4,1.4,1l0.4,3c0.1,0.7-0.4,1.3-1,1.4
		C1142.1,689.2,1141.5,688.8,1141.4,688.1L1141.4,688.1z"/>
	<path class="st3" d="M1140.4,678l0-3c0-0.7,0.5-1.2,1.2-1.2c0.7,0,1.2,0.5,1.2,1.2l0,3c0,0.7-0.5,1.2-1.2,1.2
		C1140.9,679.2,1140.4,678.7,1140.4,678L1140.4,678z"/>
	<path class="st3" d="M1140.8,667.9l0.4-3c0.1-0.6,0.7-1.1,1.3-1c0.6,0.1,1.1,0.7,1,1.3l-0.4,3c-0.1,0.6-0.7,1.1-1.3,1
		C1141.2,669.1,1140.7,668.5,1140.8,667.9L1140.8,667.9z"/>
	<path class="st3" d="M1142.4,657.9l0.7-2.9c0.1-0.6,0.8-1,1.4-0.8c0.6,0.1,1,0.8,0.8,1.4l-0.7,2.9c-0.1,0.6-0.8,1-1.4,0.9
		C1142.7,659.1,1142.3,658.5,1142.4,657.9L1142.4,657.9z"/>
	<path class="st3" d="M1145.2,648.1l1-2.8c0.2-0.6,0.8-0.9,1.4-0.7c0.6,0.2,0.9,0.8,0.7,1.4l-1,2.8c-0.2,0.6-0.8,0.9-1.4,0.7
		C1145.3,649.4,1145,648.7,1145.2,648.1L1145.2,648.1z"/>
	<path class="st3" d="M1148.8,638.7l1.2-2.7c0.2-0.6,0.9-0.8,1.5-0.6c0.6,0.2,0.8,0.9,0.6,1.4l-1.2,2.7c-0.2,0.6-0.9,0.8-1.5,0.6
		C1148.8,639.9,1148.5,639.3,1148.8,638.7L1148.8,638.7z"/>
	<path class="st3" d="M1153.1,629.6l1.4-2.6c0.3-0.5,0.9-0.7,1.5-0.4c0.5,0.3,0.7,0.9,0.4,1.5l-1.4,2.6c-0.3,0.5-0.9,0.7-1.5,0.4
		C1153.1,630.8,1152.9,630.2,1153.1,629.6L1153.1,629.6z"/>
	<path class="st3" d="M1158.1,620.9l1.6-2.5c0.3-0.5,1-0.6,1.4-0.3c0.5,0.3,0.6,1,0.3,1.4l-1.6,2.6c-0.3,0.5-1,0.7-1.5,0.3
		C1158,622,1157.8,621.4,1158.1,620.9L1158.1,620.9z"/>
	<path class="st3" d="M1163.6,612.5l1.7-2.5c0.3-0.5,1-0.6,1.4-0.2c0.5,0.3,0.6,1,0.3,1.4l-1.7,2.5c-0.3,0.5-1,0.6-1.4,0.3
		C1163.4,613.6,1163.3,612.9,1163.6,612.5L1163.6,612.5z"/>
	<path class="st3" d="M1169.6,604.3l1.8-2.4c0.3-0.4,1-0.5,1.4-0.2c0.4,0.3,0.5,1,0.2,1.4l-1.8,2.4c-0.3,0.4-1,0.5-1.4,0.2
		C1169.3,605.4,1169.2,604.8,1169.6,604.3L1169.6,604.3z"/>
	<path class="st3" d="M1175.9,596.5l1.9-2.3c0.3-0.4,1-0.5,1.4-0.1c0.4,0.3,0.5,1,0.1,1.4l-1.9,2.3c-0.4,0.4-1,0.5-1.4,0.1
		C1175.6,597.6,1175.5,596.9,1175.9,596.5L1175.9,596.5z"/>
	<path class="st3" d="M1182.4,588.9l2-2.2c0.4-0.4,1-0.4,1.4-0.1c0.4,0.4,0.4,1,0.1,1.3l-2,2.2c-0.4,0.4-1,0.4-1.4,0.1
		C1182.1,589.9,1182.1,589.3,1182.4,588.9L1182.4,588.9z"/>
	<path class="st3" d="M1189.2,581.6l2.1-2.2c0.4-0.4,0.9-0.4,1.3,0c0.4,0.4,0.4,0.9,0,1.3l-2.1,2.2c-0.4,0.4-1,0.4-1.3,0
		C1188.9,582.6,1188.9,582,1189.2,581.6L1189.2,581.6z"/>
	<path class="st3" d="M1196.3,574.4l2.2-2.1c0.4-0.3,0.9-0.3,1.3,0c0.3,0.4,0.3,0.9,0,1.3l-2.1,2.1c-0.4,0.4-0.9,0.3-1.3,0
		C1195.9,575.4,1195.9,574.8,1196.3,574.4L1196.3,574.4z"/>
	<path class="st3" d="M1203.6,567.6l2.2-2c0.4-0.3,0.9-0.3,1.2,0.1c0.3,0.4,0.3,0.9-0.1,1.2l-2.2,2c-0.4,0.3-0.9,0.3-1.3-0.1
		C1203.2,568.5,1203.2,567.9,1203.6,567.6L1203.6,567.6z"/>
	<path class="st3" d="M1211.1,560.9l2.3-1.9c0.4-0.3,0.9-0.3,1.2,0.1c0.3,0.4,0.3,0.9-0.1,1.2l-2.3,2c-0.4,0.3-0.9,0.3-1.2-0.1
		C1210.7,561.8,1210.7,561.2,1211.1,560.9L1211.1,560.9z"/>
	<path class="st3" d="M1218.8,554.5l2.3-1.9c0.4-0.3,0.9-0.2,1.2,0.1c0.3,0.4,0.2,0.9-0.1,1.2l-2.3,1.9c-0.4,0.3-0.9,0.2-1.2-0.1
		C1218.3,555.3,1218.4,554.8,1218.8,554.5L1218.8,554.5z"/>
	<path class="st3" d="M1226.7,548.3l2.4-1.8c0.4-0.3,0.9-0.2,1.1,0.2c0.3,0.4,0.2,0.9-0.2,1.1l-2.4,1.8c-0.4,0.3-0.9,0.2-1.1-0.2
		S1226.3,548.6,1226.7,548.3L1226.7,548.3z"/>
	<path class="st3" d="M1234.8,542.4l2.5-1.7c0.4-0.2,0.8-0.2,1.1,0.2c0.2,0.4,0.2,0.8-0.2,1.1l-2.5,1.7c-0.4,0.3-0.9,0.2-1.1-0.2
		C1234.3,543.2,1234.4,542.7,1234.8,542.4L1234.8,542.4z"/>
	<path class="st3" d="M1243.1,536.8l2.5-1.6c0.4-0.2,0.8-0.1,1.1,0.2c0.2,0.4,0.1,0.8-0.2,1.1l-2.5,1.7c-0.4,0.2-0.8,0.1-1.1-0.2
		C1242.6,537.5,1242.7,537,1243.1,536.8L1243.1,536.8z"/>
	<path class="st3" d="M1251.5,531.4l2.6-1.6c0.3-0.2,0.8-0.1,1,0.2c0.2,0.3,0.1,0.8-0.2,1l-2.6,1.6c-0.4,0.2-0.8,0.1-1-0.2
		C1251.1,532.1,1251.2,531.6,1251.5,531.4L1251.5,531.4z"/>
	<path class="st3" d="M1260.1,526.3l2.6-1.5c0.3-0.2,0.8-0.1,1,0.3c0.2,0.3,0.1,0.8-0.3,1l-2.6,1.5c-0.3,0.2-0.8,0.1-1-0.3
		C1259.7,526.9,1259.8,526.5,1260.1,526.3L1260.1,526.3z"/>
	<path class="st3" d="M1268.9,521.4l2.7-1.4c0.3-0.2,0.8,0,0.9,0.3c0.2,0.3,0,0.8-0.3,0.9l-2.7,1.4c-0.3,0.2-0.8,0.1-0.9-0.3
		C1268.4,522,1268.6,521.6,1268.9,521.4L1268.9,521.4z"/>
	<path class="st3" d="M1277.9,516.9l2.7-1.3c0.3-0.2,0.7,0,0.9,0.3c0.2,0.3,0,0.7-0.3,0.9l-2.7,1.3c-0.3,0.2-0.7,0-0.9-0.3
		C1277.4,517.4,1277.5,517,1277.9,516.9L1277.9,516.9z"/>
	<path class="st3" d="M1286.9,512.6l2.7-1.2c0.3-0.1,0.7,0,0.9,0.3c0.1,0.3,0,0.7-0.3,0.9l-2.7,1.2c-0.3,0.1-0.7,0-0.9-0.3
		C1286.4,513.1,1286.6,512.8,1286.9,512.6L1286.9,512.6z"/>
	<path class="st3" d="M1296.1,508.6l2.8-1.1c0.3-0.1,0.7,0,0.8,0.3c0.1,0.3,0,0.7-0.3,0.8l-2.8,1.1c-0.3,0.1-0.7,0-0.8-0.3
		C1295.6,509.1,1295.8,508.8,1296.1,508.6L1296.1,508.6z"/>
	<path class="st3" d="M1305.4,505l2.8-1c0.3-0.1,0.7,0,0.8,0.4c0.1,0.3,0,0.7-0.3,0.8l-2.8,1.1c-0.3,0.1-0.7,0-0.8-0.4
		C1305,505.4,1305.1,505.1,1305.4,505L1305.4,505z"/>
	<path class="st3" d="M1314.9,501.6l2.8-1c0.3-0.1,0.6,0.1,0.7,0.4c0.1,0.3-0.1,0.6-0.4,0.7l-2.8,1c-0.3,0.1-0.6-0.1-0.7-0.4
		C1314.4,502,1314.6,501.7,1314.9,501.6L1314.9,501.6z"/>
	<path class="st3" d="M1324.4,498.5l2.9-0.9c0.3-0.1,0.6,0.1,0.7,0.4c0.1,0.3-0.1,0.6-0.4,0.7l-2.9,0.9c-0.3,0.1-0.6-0.1-0.7-0.4
		C1323.9,498.9,1324.1,498.6,1324.4,498.5L1324.4,498.5z"/>
	<path class="st3" d="M1334,495.8l2.9-0.8c0.3-0.1,0.6,0.1,0.6,0.4c0.1,0.3-0.1,0.6-0.4,0.6l-2.9,0.8c-0.3,0.1-0.6-0.1-0.7-0.4
		S1333.8,495.8,1334,495.8L1334,495.8z"/>
	<path class="st3" d="M1343.8,493.3l2.9-0.7c0.3-0.1,0.5,0.1,0.6,0.4c0.1,0.3-0.1,0.5-0.4,0.6l-2.9,0.7c-0.3,0.1-0.5-0.1-0.6-0.4
		C1343.3,493.7,1343.5,493.4,1343.8,493.3L1343.8,493.3z"/>
</g>
<g>
	<polygon class="st3" points="1372.1,464.7 1367.7,489.9 1386.7,482.1 	"/>
	<path class="st1" d="M1488.1,470.2l-78.7,47.8c-1.5,0.9-3.3,1.2-5,0.7c-1.7-0.5-3.2-1.6-4-3.1l-45-80.8c-0.5-0.9-0.4-2.1,0.2-2.9
		s1.8-1.2,2.8-0.9L1488.1,470.2z"/>
	<polygon class="st3" points="1372.1,464.7 1488.1,470.2 1379.3,477.7 1377.8,484.7 	"/>
	<polygon class="st3" points="1383.7,485.5 1367.7,489.9 1379.3,477.7 	"/>
</g>
</svg>
